%TF.GenerationSoftware,KiCad,Pcbnew,(5.1.9)-1*%
%TF.CreationDate,2021-11-01T00:10:38+05:30*%
%TF.ProjectId,STM32-nRF24,53544d33-322d-46e5-9246-32342e6b6963,Rev. A*%
%TF.SameCoordinates,Original*%
%TF.FileFunction,Paste,Top*%
%TF.FilePolarity,Positive*%
%FSLAX46Y46*%
G04 Gerber Fmt 4.6, Leading zero omitted, Abs format (unit mm)*
G04 Created by KiCad (PCBNEW (5.1.9)-1) date 2021-11-01 00:10:38*
%MOMM*%
%LPD*%
G01*
G04 APERTURE LIST*
%ADD10R,1.350000X0.400000*%
%ADD11R,1.400000X1.600000*%
%ADD12R,1.600000X1.900000*%
%ADD13R,3.600000X1.270000*%
%ADD14R,4.200000X1.350000*%
%ADD15R,0.900000X0.800000*%
%ADD16R,1.060000X0.650000*%
%ADD17R,1.400000X1.200000*%
G04 APERTURE END LIST*
%TO.C,C1*%
G36*
G01*
X100400000Y-159525000D02*
X99900000Y-159525000D01*
G75*
G02*
X99675000Y-159300000I0J225000D01*
G01*
X99675000Y-158850000D01*
G75*
G02*
X99900000Y-158625000I225000J0D01*
G01*
X100400000Y-158625000D01*
G75*
G02*
X100625000Y-158850000I0J-225000D01*
G01*
X100625000Y-159300000D01*
G75*
G02*
X100400000Y-159525000I-225000J0D01*
G01*
G37*
G36*
G01*
X100400000Y-157975000D02*
X99900000Y-157975000D01*
G75*
G02*
X99675000Y-157750000I0J225000D01*
G01*
X99675000Y-157300000D01*
G75*
G02*
X99900000Y-157075000I225000J0D01*
G01*
X100400000Y-157075000D01*
G75*
G02*
X100625000Y-157300000I0J-225000D01*
G01*
X100625000Y-157750000D01*
G75*
G02*
X100400000Y-157975000I-225000J0D01*
G01*
G37*
%TD*%
%TO.C,C2*%
G36*
G01*
X97575000Y-162050000D02*
X97575000Y-161550000D01*
G75*
G02*
X97800000Y-161325000I225000J0D01*
G01*
X98250000Y-161325000D01*
G75*
G02*
X98475000Y-161550000I0J-225000D01*
G01*
X98475000Y-162050000D01*
G75*
G02*
X98250000Y-162275000I-225000J0D01*
G01*
X97800000Y-162275000D01*
G75*
G02*
X97575000Y-162050000I0J225000D01*
G01*
G37*
G36*
G01*
X99125000Y-162050000D02*
X99125000Y-161550000D01*
G75*
G02*
X99350000Y-161325000I225000J0D01*
G01*
X99800000Y-161325000D01*
G75*
G02*
X100025000Y-161550000I0J-225000D01*
G01*
X100025000Y-162050000D01*
G75*
G02*
X99800000Y-162275000I-225000J0D01*
G01*
X99350000Y-162275000D01*
G75*
G02*
X99125000Y-162050000I0J225000D01*
G01*
G37*
%TD*%
%TO.C,C3*%
G36*
G01*
X90920000Y-164900000D02*
X90580000Y-164900000D01*
G75*
G02*
X90440000Y-164760000I0J140000D01*
G01*
X90440000Y-164480000D01*
G75*
G02*
X90580000Y-164340000I140000J0D01*
G01*
X90920000Y-164340000D01*
G75*
G02*
X91060000Y-164480000I0J-140000D01*
G01*
X91060000Y-164760000D01*
G75*
G02*
X90920000Y-164900000I-140000J0D01*
G01*
G37*
G36*
G01*
X90920000Y-165860000D02*
X90580000Y-165860000D01*
G75*
G02*
X90440000Y-165720000I0J140000D01*
G01*
X90440000Y-165440000D01*
G75*
G02*
X90580000Y-165300000I140000J0D01*
G01*
X90920000Y-165300000D01*
G75*
G02*
X91060000Y-165440000I0J-140000D01*
G01*
X91060000Y-165720000D01*
G75*
G02*
X90920000Y-165860000I-140000J0D01*
G01*
G37*
%TD*%
%TO.C,C4*%
G36*
G01*
X104210000Y-155730000D02*
X104210000Y-156070000D01*
G75*
G02*
X104070000Y-156210000I-140000J0D01*
G01*
X103790000Y-156210000D01*
G75*
G02*
X103650000Y-156070000I0J140000D01*
G01*
X103650000Y-155730000D01*
G75*
G02*
X103790000Y-155590000I140000J0D01*
G01*
X104070000Y-155590000D01*
G75*
G02*
X104210000Y-155730000I0J-140000D01*
G01*
G37*
G36*
G01*
X103250000Y-155730000D02*
X103250000Y-156070000D01*
G75*
G02*
X103110000Y-156210000I-140000J0D01*
G01*
X102830000Y-156210000D01*
G75*
G02*
X102690000Y-156070000I0J140000D01*
G01*
X102690000Y-155730000D01*
G75*
G02*
X102830000Y-155590000I140000J0D01*
G01*
X103110000Y-155590000D01*
G75*
G02*
X103250000Y-155730000I0J-140000D01*
G01*
G37*
%TD*%
%TO.C,C5*%
G36*
G01*
X107050000Y-157170000D02*
X107050000Y-156830000D01*
G75*
G02*
X107190000Y-156690000I140000J0D01*
G01*
X107470000Y-156690000D01*
G75*
G02*
X107610000Y-156830000I0J-140000D01*
G01*
X107610000Y-157170000D01*
G75*
G02*
X107470000Y-157310000I-140000J0D01*
G01*
X107190000Y-157310000D01*
G75*
G02*
X107050000Y-157170000I0J140000D01*
G01*
G37*
G36*
G01*
X106090000Y-157170000D02*
X106090000Y-156830000D01*
G75*
G02*
X106230000Y-156690000I140000J0D01*
G01*
X106510000Y-156690000D01*
G75*
G02*
X106650000Y-156830000I0J-140000D01*
G01*
X106650000Y-157170000D01*
G75*
G02*
X106510000Y-157310000I-140000J0D01*
G01*
X106230000Y-157310000D01*
G75*
G02*
X106090000Y-157170000I0J140000D01*
G01*
G37*
%TD*%
%TO.C,C6*%
G36*
G01*
X104210000Y-156830000D02*
X104210000Y-157170000D01*
G75*
G02*
X104070000Y-157310000I-140000J0D01*
G01*
X103790000Y-157310000D01*
G75*
G02*
X103650000Y-157170000I0J140000D01*
G01*
X103650000Y-156830000D01*
G75*
G02*
X103790000Y-156690000I140000J0D01*
G01*
X104070000Y-156690000D01*
G75*
G02*
X104210000Y-156830000I0J-140000D01*
G01*
G37*
G36*
G01*
X103250000Y-156830000D02*
X103250000Y-157170000D01*
G75*
G02*
X103110000Y-157310000I-140000J0D01*
G01*
X102830000Y-157310000D01*
G75*
G02*
X102690000Y-157170000I0J140000D01*
G01*
X102690000Y-156830000D01*
G75*
G02*
X102830000Y-156690000I140000J0D01*
G01*
X103110000Y-156690000D01*
G75*
G02*
X103250000Y-156830000I0J-140000D01*
G01*
G37*
%TD*%
%TO.C,C7*%
G36*
G01*
X101750000Y-164330000D02*
X101750000Y-164670000D01*
G75*
G02*
X101610000Y-164810000I-140000J0D01*
G01*
X101330000Y-164810000D01*
G75*
G02*
X101190000Y-164670000I0J140000D01*
G01*
X101190000Y-164330000D01*
G75*
G02*
X101330000Y-164190000I140000J0D01*
G01*
X101610000Y-164190000D01*
G75*
G02*
X101750000Y-164330000I0J-140000D01*
G01*
G37*
G36*
G01*
X102710000Y-164330000D02*
X102710000Y-164670000D01*
G75*
G02*
X102570000Y-164810000I-140000J0D01*
G01*
X102290000Y-164810000D01*
G75*
G02*
X102150000Y-164670000I0J140000D01*
G01*
X102150000Y-164330000D01*
G75*
G02*
X102290000Y-164190000I140000J0D01*
G01*
X102570000Y-164190000D01*
G75*
G02*
X102710000Y-164330000I0J-140000D01*
G01*
G37*
%TD*%
%TO.C,C8*%
G36*
G01*
X113400000Y-156425000D02*
X112900000Y-156425000D01*
G75*
G02*
X112675000Y-156200000I0J225000D01*
G01*
X112675000Y-155750000D01*
G75*
G02*
X112900000Y-155525000I225000J0D01*
G01*
X113400000Y-155525000D01*
G75*
G02*
X113625000Y-155750000I0J-225000D01*
G01*
X113625000Y-156200000D01*
G75*
G02*
X113400000Y-156425000I-225000J0D01*
G01*
G37*
G36*
G01*
X113400000Y-154875000D02*
X112900000Y-154875000D01*
G75*
G02*
X112675000Y-154650000I0J225000D01*
G01*
X112675000Y-154200000D01*
G75*
G02*
X112900000Y-153975000I225000J0D01*
G01*
X113400000Y-153975000D01*
G75*
G02*
X113625000Y-154200000I0J-225000D01*
G01*
X113625000Y-154650000D01*
G75*
G02*
X113400000Y-154875000I-225000J0D01*
G01*
G37*
%TD*%
%TO.C,C9*%
G36*
G01*
X112020000Y-157260000D02*
X111680000Y-157260000D01*
G75*
G02*
X111540000Y-157120000I0J140000D01*
G01*
X111540000Y-156840000D01*
G75*
G02*
X111680000Y-156700000I140000J0D01*
G01*
X112020000Y-156700000D01*
G75*
G02*
X112160000Y-156840000I0J-140000D01*
G01*
X112160000Y-157120000D01*
G75*
G02*
X112020000Y-157260000I-140000J0D01*
G01*
G37*
G36*
G01*
X112020000Y-156300000D02*
X111680000Y-156300000D01*
G75*
G02*
X111540000Y-156160000I0J140000D01*
G01*
X111540000Y-155880000D01*
G75*
G02*
X111680000Y-155740000I140000J0D01*
G01*
X112020000Y-155740000D01*
G75*
G02*
X112160000Y-155880000I0J-140000D01*
G01*
X112160000Y-156160000D01*
G75*
G02*
X112020000Y-156300000I-140000J0D01*
G01*
G37*
%TD*%
%TO.C,C10*%
G36*
G01*
X114090000Y-158570000D02*
X114090000Y-158230000D01*
G75*
G02*
X114230000Y-158090000I140000J0D01*
G01*
X114510000Y-158090000D01*
G75*
G02*
X114650000Y-158230000I0J-140000D01*
G01*
X114650000Y-158570000D01*
G75*
G02*
X114510000Y-158710000I-140000J0D01*
G01*
X114230000Y-158710000D01*
G75*
G02*
X114090000Y-158570000I0J140000D01*
G01*
G37*
G36*
G01*
X115050000Y-158570000D02*
X115050000Y-158230000D01*
G75*
G02*
X115190000Y-158090000I140000J0D01*
G01*
X115470000Y-158090000D01*
G75*
G02*
X115610000Y-158230000I0J-140000D01*
G01*
X115610000Y-158570000D01*
G75*
G02*
X115470000Y-158710000I-140000J0D01*
G01*
X115190000Y-158710000D01*
G75*
G02*
X115050000Y-158570000I0J140000D01*
G01*
G37*
%TD*%
%TO.C,C11*%
G36*
G01*
X109350000Y-163330000D02*
X109350000Y-163670000D01*
G75*
G02*
X109210000Y-163810000I-140000J0D01*
G01*
X108930000Y-163810000D01*
G75*
G02*
X108790000Y-163670000I0J140000D01*
G01*
X108790000Y-163330000D01*
G75*
G02*
X108930000Y-163190000I140000J0D01*
G01*
X109210000Y-163190000D01*
G75*
G02*
X109350000Y-163330000I0J-140000D01*
G01*
G37*
G36*
G01*
X110310000Y-163330000D02*
X110310000Y-163670000D01*
G75*
G02*
X110170000Y-163810000I-140000J0D01*
G01*
X109890000Y-163810000D01*
G75*
G02*
X109750000Y-163670000I0J140000D01*
G01*
X109750000Y-163330000D01*
G75*
G02*
X109890000Y-163190000I140000J0D01*
G01*
X110170000Y-163190000D01*
G75*
G02*
X110310000Y-163330000I0J-140000D01*
G01*
G37*
%TD*%
%TO.C,C12*%
G36*
G01*
X111110000Y-157230000D02*
X111110000Y-157570000D01*
G75*
G02*
X110970000Y-157710000I-140000J0D01*
G01*
X110690000Y-157710000D01*
G75*
G02*
X110550000Y-157570000I0J140000D01*
G01*
X110550000Y-157230000D01*
G75*
G02*
X110690000Y-157090000I140000J0D01*
G01*
X110970000Y-157090000D01*
G75*
G02*
X111110000Y-157230000I0J-140000D01*
G01*
G37*
G36*
G01*
X110150000Y-157230000D02*
X110150000Y-157570000D01*
G75*
G02*
X110010000Y-157710000I-140000J0D01*
G01*
X109730000Y-157710000D01*
G75*
G02*
X109590000Y-157570000I0J140000D01*
G01*
X109590000Y-157230000D01*
G75*
G02*
X109730000Y-157090000I140000J0D01*
G01*
X110010000Y-157090000D01*
G75*
G02*
X110150000Y-157230000I0J-140000D01*
G01*
G37*
%TD*%
%TO.C,C13*%
G36*
G01*
X114580000Y-165600000D02*
X114920000Y-165600000D01*
G75*
G02*
X115060000Y-165740000I0J-140000D01*
G01*
X115060000Y-166020000D01*
G75*
G02*
X114920000Y-166160000I-140000J0D01*
G01*
X114580000Y-166160000D01*
G75*
G02*
X114440000Y-166020000I0J140000D01*
G01*
X114440000Y-165740000D01*
G75*
G02*
X114580000Y-165600000I140000J0D01*
G01*
G37*
G36*
G01*
X114580000Y-164640000D02*
X114920000Y-164640000D01*
G75*
G02*
X115060000Y-164780000I0J-140000D01*
G01*
X115060000Y-165060000D01*
G75*
G02*
X114920000Y-165200000I-140000J0D01*
G01*
X114580000Y-165200000D01*
G75*
G02*
X114440000Y-165060000I0J140000D01*
G01*
X114440000Y-164780000D01*
G75*
G02*
X114580000Y-164640000I140000J0D01*
G01*
G37*
%TD*%
%TO.C,C14*%
G36*
G01*
X109420000Y-167460000D02*
X109080000Y-167460000D01*
G75*
G02*
X108940000Y-167320000I0J140000D01*
G01*
X108940000Y-167040000D01*
G75*
G02*
X109080000Y-166900000I140000J0D01*
G01*
X109420000Y-166900000D01*
G75*
G02*
X109560000Y-167040000I0J-140000D01*
G01*
X109560000Y-167320000D01*
G75*
G02*
X109420000Y-167460000I-140000J0D01*
G01*
G37*
G36*
G01*
X109420000Y-166500000D02*
X109080000Y-166500000D01*
G75*
G02*
X108940000Y-166360000I0J140000D01*
G01*
X108940000Y-166080000D01*
G75*
G02*
X109080000Y-165940000I140000J0D01*
G01*
X109420000Y-165940000D01*
G75*
G02*
X109560000Y-166080000I0J-140000D01*
G01*
X109560000Y-166360000D01*
G75*
G02*
X109420000Y-166500000I-140000J0D01*
G01*
G37*
%TD*%
%TO.C,C15*%
G36*
G01*
X120300000Y-160130000D02*
X120300000Y-160470000D01*
G75*
G02*
X120160000Y-160610000I-140000J0D01*
G01*
X119880000Y-160610000D01*
G75*
G02*
X119740000Y-160470000I0J140000D01*
G01*
X119740000Y-160130000D01*
G75*
G02*
X119880000Y-159990000I140000J0D01*
G01*
X120160000Y-159990000D01*
G75*
G02*
X120300000Y-160130000I0J-140000D01*
G01*
G37*
G36*
G01*
X121260000Y-160130000D02*
X121260000Y-160470000D01*
G75*
G02*
X121120000Y-160610000I-140000J0D01*
G01*
X120840000Y-160610000D01*
G75*
G02*
X120700000Y-160470000I0J140000D01*
G01*
X120700000Y-160130000D01*
G75*
G02*
X120840000Y-159990000I140000J0D01*
G01*
X121120000Y-159990000D01*
G75*
G02*
X121260000Y-160130000I0J-140000D01*
G01*
G37*
%TD*%
%TO.C,C16*%
G36*
G01*
X121880000Y-159040000D02*
X122220000Y-159040000D01*
G75*
G02*
X122360000Y-159180000I0J-140000D01*
G01*
X122360000Y-159460000D01*
G75*
G02*
X122220000Y-159600000I-140000J0D01*
G01*
X121880000Y-159600000D01*
G75*
G02*
X121740000Y-159460000I0J140000D01*
G01*
X121740000Y-159180000D01*
G75*
G02*
X121880000Y-159040000I140000J0D01*
G01*
G37*
G36*
G01*
X121880000Y-160000000D02*
X122220000Y-160000000D01*
G75*
G02*
X122360000Y-160140000I0J-140000D01*
G01*
X122360000Y-160420000D01*
G75*
G02*
X122220000Y-160560000I-140000J0D01*
G01*
X121880000Y-160560000D01*
G75*
G02*
X121740000Y-160420000I0J140000D01*
G01*
X121740000Y-160140000D01*
G75*
G02*
X121880000Y-160000000I140000J0D01*
G01*
G37*
%TD*%
%TO.C,C17*%
G36*
G01*
X120410000Y-163230000D02*
X120410000Y-163570000D01*
G75*
G02*
X120270000Y-163710000I-140000J0D01*
G01*
X119990000Y-163710000D01*
G75*
G02*
X119850000Y-163570000I0J140000D01*
G01*
X119850000Y-163230000D01*
G75*
G02*
X119990000Y-163090000I140000J0D01*
G01*
X120270000Y-163090000D01*
G75*
G02*
X120410000Y-163230000I0J-140000D01*
G01*
G37*
G36*
G01*
X119450000Y-163230000D02*
X119450000Y-163570000D01*
G75*
G02*
X119310000Y-163710000I-140000J0D01*
G01*
X119030000Y-163710000D01*
G75*
G02*
X118890000Y-163570000I0J140000D01*
G01*
X118890000Y-163230000D01*
G75*
G02*
X119030000Y-163090000I140000J0D01*
G01*
X119310000Y-163090000D01*
G75*
G02*
X119450000Y-163230000I0J-140000D01*
G01*
G37*
%TD*%
%TO.C,C18*%
G36*
G01*
X119450000Y-162130000D02*
X119450000Y-162470000D01*
G75*
G02*
X119310000Y-162610000I-140000J0D01*
G01*
X119030000Y-162610000D01*
G75*
G02*
X118890000Y-162470000I0J140000D01*
G01*
X118890000Y-162130000D01*
G75*
G02*
X119030000Y-161990000I140000J0D01*
G01*
X119310000Y-161990000D01*
G75*
G02*
X119450000Y-162130000I0J-140000D01*
G01*
G37*
G36*
G01*
X120410000Y-162130000D02*
X120410000Y-162470000D01*
G75*
G02*
X120270000Y-162610000I-140000J0D01*
G01*
X119990000Y-162610000D01*
G75*
G02*
X119850000Y-162470000I0J140000D01*
G01*
X119850000Y-162130000D01*
G75*
G02*
X119990000Y-161990000I140000J0D01*
G01*
X120270000Y-161990000D01*
G75*
G02*
X120410000Y-162130000I0J-140000D01*
G01*
G37*
%TD*%
%TO.C,D1*%
G36*
G01*
X98325000Y-154756250D02*
X98325000Y-154243750D01*
G75*
G02*
X98543750Y-154025000I218750J0D01*
G01*
X98981250Y-154025000D01*
G75*
G02*
X99200000Y-154243750I0J-218750D01*
G01*
X99200000Y-154756250D01*
G75*
G02*
X98981250Y-154975000I-218750J0D01*
G01*
X98543750Y-154975000D01*
G75*
G02*
X98325000Y-154756250I0J218750D01*
G01*
G37*
G36*
G01*
X99900000Y-154756250D02*
X99900000Y-154243750D01*
G75*
G02*
X100118750Y-154025000I218750J0D01*
G01*
X100556250Y-154025000D01*
G75*
G02*
X100775000Y-154243750I0J-218750D01*
G01*
X100775000Y-154756250D01*
G75*
G02*
X100556250Y-154975000I-218750J0D01*
G01*
X100118750Y-154975000D01*
G75*
G02*
X99900000Y-154756250I0J218750D01*
G01*
G37*
%TD*%
%TO.C,D2*%
G36*
G01*
X103550000Y-154243750D02*
X103550000Y-154756250D01*
G75*
G02*
X103331250Y-154975000I-218750J0D01*
G01*
X102893750Y-154975000D01*
G75*
G02*
X102675000Y-154756250I0J218750D01*
G01*
X102675000Y-154243750D01*
G75*
G02*
X102893750Y-154025000I218750J0D01*
G01*
X103331250Y-154025000D01*
G75*
G02*
X103550000Y-154243750I0J-218750D01*
G01*
G37*
G36*
G01*
X105125000Y-154243750D02*
X105125000Y-154756250D01*
G75*
G02*
X104906250Y-154975000I-218750J0D01*
G01*
X104468750Y-154975000D01*
G75*
G02*
X104250000Y-154756250I0J218750D01*
G01*
X104250000Y-154243750D01*
G75*
G02*
X104468750Y-154025000I218750J0D01*
G01*
X104906250Y-154025000D01*
G75*
G02*
X105125000Y-154243750I0J-218750D01*
G01*
G37*
%TD*%
%TO.C,F1*%
G36*
G01*
X94775000Y-155675000D02*
X94775000Y-156925000D01*
G75*
G02*
X94525000Y-157175000I-250000J0D01*
G01*
X93775000Y-157175000D01*
G75*
G02*
X93525000Y-156925000I0J250000D01*
G01*
X93525000Y-155675000D01*
G75*
G02*
X93775000Y-155425000I250000J0D01*
G01*
X94525000Y-155425000D01*
G75*
G02*
X94775000Y-155675000I0J-250000D01*
G01*
G37*
G36*
G01*
X91975000Y-155675000D02*
X91975000Y-156925000D01*
G75*
G02*
X91725000Y-157175000I-250000J0D01*
G01*
X90975000Y-157175000D01*
G75*
G02*
X90725000Y-156925000I0J250000D01*
G01*
X90725000Y-155675000D01*
G75*
G02*
X90975000Y-155425000I250000J0D01*
G01*
X91725000Y-155425000D01*
G75*
G02*
X91975000Y-155675000I0J-250000D01*
G01*
G37*
%TD*%
%TO.C,FB1*%
G36*
G01*
X98900000Y-155918750D02*
X98900000Y-156681250D01*
G75*
G02*
X98681250Y-156900000I-218750J0D01*
G01*
X98243750Y-156900000D01*
G75*
G02*
X98025000Y-156681250I0J218750D01*
G01*
X98025000Y-155918750D01*
G75*
G02*
X98243750Y-155700000I218750J0D01*
G01*
X98681250Y-155700000D01*
G75*
G02*
X98900000Y-155918750I0J-218750D01*
G01*
G37*
G36*
G01*
X96775000Y-155918750D02*
X96775000Y-156681250D01*
G75*
G02*
X96556250Y-156900000I-218750J0D01*
G01*
X96118750Y-156900000D01*
G75*
G02*
X95900000Y-156681250I0J218750D01*
G01*
X95900000Y-155918750D01*
G75*
G02*
X96118750Y-155700000I218750J0D01*
G01*
X96556250Y-155700000D01*
G75*
G02*
X96775000Y-155918750I0J-218750D01*
G01*
G37*
%TD*%
D10*
%TO.C,J1*%
X86750000Y-159400000D03*
X86750000Y-160050000D03*
X86750000Y-160700000D03*
X86750000Y-161350000D03*
X86750000Y-162000000D03*
D11*
X86525000Y-157500000D03*
D12*
X84075000Y-159500000D03*
X84075000Y-161900000D03*
D11*
X86525000Y-163900000D03*
%TD*%
D13*
%TO.C,J2*%
X125350000Y-160300000D03*
D14*
X125150000Y-157475000D03*
X125150000Y-163125000D03*
%TD*%
%TO.C,L1*%
G36*
G01*
X117705000Y-160472500D02*
X117705000Y-160127500D01*
G75*
G02*
X117852500Y-159980000I147500J0D01*
G01*
X118147500Y-159980000D01*
G75*
G02*
X118295000Y-160127500I0J-147500D01*
G01*
X118295000Y-160472500D01*
G75*
G02*
X118147500Y-160620000I-147500J0D01*
G01*
X117852500Y-160620000D01*
G75*
G02*
X117705000Y-160472500I0J147500D01*
G01*
G37*
G36*
G01*
X118675000Y-160472500D02*
X118675000Y-160127500D01*
G75*
G02*
X118822500Y-159980000I147500J0D01*
G01*
X119117500Y-159980000D01*
G75*
G02*
X119265000Y-160127500I0J-147500D01*
G01*
X119265000Y-160472500D01*
G75*
G02*
X119117500Y-160620000I-147500J0D01*
G01*
X118822500Y-160620000D01*
G75*
G02*
X118675000Y-160472500I0J147500D01*
G01*
G37*
%TD*%
%TO.C,L2*%
G36*
G01*
X116777500Y-160990000D02*
X117122500Y-160990000D01*
G75*
G02*
X117270000Y-161137500I0J-147500D01*
G01*
X117270000Y-161432500D01*
G75*
G02*
X117122500Y-161580000I-147500J0D01*
G01*
X116777500Y-161580000D01*
G75*
G02*
X116630000Y-161432500I0J147500D01*
G01*
X116630000Y-161137500D01*
G75*
G02*
X116777500Y-160990000I147500J0D01*
G01*
G37*
G36*
G01*
X116777500Y-160020000D02*
X117122500Y-160020000D01*
G75*
G02*
X117270000Y-160167500I0J-147500D01*
G01*
X117270000Y-160462500D01*
G75*
G02*
X117122500Y-160610000I-147500J0D01*
G01*
X116777500Y-160610000D01*
G75*
G02*
X116630000Y-160462500I0J147500D01*
G01*
X116630000Y-160167500D01*
G75*
G02*
X116777500Y-160020000I147500J0D01*
G01*
G37*
%TD*%
%TO.C,L3*%
G36*
G01*
X118222500Y-162580000D02*
X117877500Y-162580000D01*
G75*
G02*
X117730000Y-162432500I0J147500D01*
G01*
X117730000Y-162137500D01*
G75*
G02*
X117877500Y-161990000I147500J0D01*
G01*
X118222500Y-161990000D01*
G75*
G02*
X118370000Y-162137500I0J-147500D01*
G01*
X118370000Y-162432500D01*
G75*
G02*
X118222500Y-162580000I-147500J0D01*
G01*
G37*
G36*
G01*
X118222500Y-161610000D02*
X117877500Y-161610000D01*
G75*
G02*
X117730000Y-161462500I0J147500D01*
G01*
X117730000Y-161167500D01*
G75*
G02*
X117877500Y-161020000I147500J0D01*
G01*
X118222500Y-161020000D01*
G75*
G02*
X118370000Y-161167500I0J-147500D01*
G01*
X118370000Y-161462500D01*
G75*
G02*
X118222500Y-161610000I-147500J0D01*
G01*
G37*
%TD*%
%TO.C,R1*%
G36*
G01*
X108335000Y-158160000D02*
X107965000Y-158160000D01*
G75*
G02*
X107830000Y-158025000I0J135000D01*
G01*
X107830000Y-157755000D01*
G75*
G02*
X107965000Y-157620000I135000J0D01*
G01*
X108335000Y-157620000D01*
G75*
G02*
X108470000Y-157755000I0J-135000D01*
G01*
X108470000Y-158025000D01*
G75*
G02*
X108335000Y-158160000I-135000J0D01*
G01*
G37*
G36*
G01*
X108335000Y-159180000D02*
X107965000Y-159180000D01*
G75*
G02*
X107830000Y-159045000I0J135000D01*
G01*
X107830000Y-158775000D01*
G75*
G02*
X107965000Y-158640000I135000J0D01*
G01*
X108335000Y-158640000D01*
G75*
G02*
X108470000Y-158775000I0J-135000D01*
G01*
X108470000Y-159045000D01*
G75*
G02*
X108335000Y-159180000I-135000J0D01*
G01*
G37*
%TD*%
%TO.C,R2*%
G36*
G01*
X97575000Y-154225000D02*
X97575000Y-154775000D01*
G75*
G02*
X97375000Y-154975000I-200000J0D01*
G01*
X96975000Y-154975000D01*
G75*
G02*
X96775000Y-154775000I0J200000D01*
G01*
X96775000Y-154225000D01*
G75*
G02*
X96975000Y-154025000I200000J0D01*
G01*
X97375000Y-154025000D01*
G75*
G02*
X97575000Y-154225000I0J-200000D01*
G01*
G37*
G36*
G01*
X95925000Y-154225000D02*
X95925000Y-154775000D01*
G75*
G02*
X95725000Y-154975000I-200000J0D01*
G01*
X95325000Y-154975000D01*
G75*
G02*
X95125000Y-154775000I0J200000D01*
G01*
X95125000Y-154225000D01*
G75*
G02*
X95325000Y-154025000I200000J0D01*
G01*
X95725000Y-154025000D01*
G75*
G02*
X95925000Y-154225000I0J-200000D01*
G01*
G37*
%TD*%
%TO.C,R3*%
G36*
G01*
X107525000Y-154775000D02*
X107525000Y-154225000D01*
G75*
G02*
X107725000Y-154025000I200000J0D01*
G01*
X108125000Y-154025000D01*
G75*
G02*
X108325000Y-154225000I0J-200000D01*
G01*
X108325000Y-154775000D01*
G75*
G02*
X108125000Y-154975000I-200000J0D01*
G01*
X107725000Y-154975000D01*
G75*
G02*
X107525000Y-154775000I0J200000D01*
G01*
G37*
G36*
G01*
X105875000Y-154775000D02*
X105875000Y-154225000D01*
G75*
G02*
X106075000Y-154025000I200000J0D01*
G01*
X106475000Y-154025000D01*
G75*
G02*
X106675000Y-154225000I0J-200000D01*
G01*
X106675000Y-154775000D01*
G75*
G02*
X106475000Y-154975000I-200000J0D01*
G01*
X106075000Y-154975000D01*
G75*
G02*
X105875000Y-154775000I0J200000D01*
G01*
G37*
%TD*%
%TO.C,R4*%
G36*
G01*
X114635000Y-156580000D02*
X114265000Y-156580000D01*
G75*
G02*
X114130000Y-156445000I0J135000D01*
G01*
X114130000Y-156175000D01*
G75*
G02*
X114265000Y-156040000I135000J0D01*
G01*
X114635000Y-156040000D01*
G75*
G02*
X114770000Y-156175000I0J-135000D01*
G01*
X114770000Y-156445000D01*
G75*
G02*
X114635000Y-156580000I-135000J0D01*
G01*
G37*
G36*
G01*
X114635000Y-155560000D02*
X114265000Y-155560000D01*
G75*
G02*
X114130000Y-155425000I0J135000D01*
G01*
X114130000Y-155155000D01*
G75*
G02*
X114265000Y-155020000I135000J0D01*
G01*
X114635000Y-155020000D01*
G75*
G02*
X114770000Y-155155000I0J-135000D01*
G01*
X114770000Y-155425000D01*
G75*
G02*
X114635000Y-155560000I-135000J0D01*
G01*
G37*
%TD*%
%TO.C,R5*%
G36*
G01*
X111770000Y-163985000D02*
X111770000Y-163615000D01*
G75*
G02*
X111905000Y-163480000I135000J0D01*
G01*
X112175000Y-163480000D01*
G75*
G02*
X112310000Y-163615000I0J-135000D01*
G01*
X112310000Y-163985000D01*
G75*
G02*
X112175000Y-164120000I-135000J0D01*
G01*
X111905000Y-164120000D01*
G75*
G02*
X111770000Y-163985000I0J135000D01*
G01*
G37*
G36*
G01*
X112790000Y-163985000D02*
X112790000Y-163615000D01*
G75*
G02*
X112925000Y-163480000I135000J0D01*
G01*
X113195000Y-163480000D01*
G75*
G02*
X113330000Y-163615000I0J-135000D01*
G01*
X113330000Y-163985000D01*
G75*
G02*
X113195000Y-164120000I-135000J0D01*
G01*
X112925000Y-164120000D01*
G75*
G02*
X112790000Y-163985000I0J135000D01*
G01*
G37*
%TD*%
D15*
%TO.C,U1*%
X96400000Y-158100000D03*
X96400000Y-160000000D03*
X98400000Y-159050000D03*
%TD*%
D16*
%TO.C,U2*%
X93430000Y-161330000D03*
X93430000Y-160380000D03*
X93430000Y-159430000D03*
X91230000Y-159430000D03*
X91230000Y-161330000D03*
X91230000Y-160380000D03*
%TD*%
%TO.C,U3*%
G36*
G01*
X106192499Y-157970001D02*
X106317499Y-157970001D01*
G75*
G02*
X106379999Y-158032501I0J-62500D01*
G01*
X106379999Y-158782501D01*
G75*
G02*
X106317499Y-158845001I-62500J0D01*
G01*
X106192499Y-158845001D01*
G75*
G02*
X106129999Y-158782501I0J62500D01*
G01*
X106129999Y-158032501D01*
G75*
G02*
X106192499Y-157970001I62500J0D01*
G01*
G37*
G36*
G01*
X105692499Y-157970001D02*
X105817499Y-157970001D01*
G75*
G02*
X105879999Y-158032501I0J-62500D01*
G01*
X105879999Y-158782501D01*
G75*
G02*
X105817499Y-158845001I-62500J0D01*
G01*
X105692499Y-158845001D01*
G75*
G02*
X105629999Y-158782501I0J62500D01*
G01*
X105629999Y-158032501D01*
G75*
G02*
X105692499Y-157970001I62500J0D01*
G01*
G37*
G36*
G01*
X105192499Y-157970001D02*
X105317499Y-157970001D01*
G75*
G02*
X105379999Y-158032501I0J-62500D01*
G01*
X105379999Y-158782501D01*
G75*
G02*
X105317499Y-158845001I-62500J0D01*
G01*
X105192499Y-158845001D01*
G75*
G02*
X105129999Y-158782501I0J62500D01*
G01*
X105129999Y-158032501D01*
G75*
G02*
X105192499Y-157970001I62500J0D01*
G01*
G37*
G36*
G01*
X104692499Y-157970001D02*
X104817499Y-157970001D01*
G75*
G02*
X104879999Y-158032501I0J-62500D01*
G01*
X104879999Y-158782501D01*
G75*
G02*
X104817499Y-158845001I-62500J0D01*
G01*
X104692499Y-158845001D01*
G75*
G02*
X104629999Y-158782501I0J62500D01*
G01*
X104629999Y-158032501D01*
G75*
G02*
X104692499Y-157970001I62500J0D01*
G01*
G37*
G36*
G01*
X104192499Y-157970001D02*
X104317499Y-157970001D01*
G75*
G02*
X104379999Y-158032501I0J-62500D01*
G01*
X104379999Y-158782501D01*
G75*
G02*
X104317499Y-158845001I-62500J0D01*
G01*
X104192499Y-158845001D01*
G75*
G02*
X104129999Y-158782501I0J62500D01*
G01*
X104129999Y-158032501D01*
G75*
G02*
X104192499Y-157970001I62500J0D01*
G01*
G37*
G36*
G01*
X103692499Y-157970001D02*
X103817499Y-157970001D01*
G75*
G02*
X103879999Y-158032501I0J-62500D01*
G01*
X103879999Y-158782501D01*
G75*
G02*
X103817499Y-158845001I-62500J0D01*
G01*
X103692499Y-158845001D01*
G75*
G02*
X103629999Y-158782501I0J62500D01*
G01*
X103629999Y-158032501D01*
G75*
G02*
X103692499Y-157970001I62500J0D01*
G01*
G37*
G36*
G01*
X103192499Y-157970001D02*
X103317499Y-157970001D01*
G75*
G02*
X103379999Y-158032501I0J-62500D01*
G01*
X103379999Y-158782501D01*
G75*
G02*
X103317499Y-158845001I-62500J0D01*
G01*
X103192499Y-158845001D01*
G75*
G02*
X103129999Y-158782501I0J62500D01*
G01*
X103129999Y-158032501D01*
G75*
G02*
X103192499Y-157970001I62500J0D01*
G01*
G37*
G36*
G01*
X102692499Y-157970001D02*
X102817499Y-157970001D01*
G75*
G02*
X102879999Y-158032501I0J-62500D01*
G01*
X102879999Y-158782501D01*
G75*
G02*
X102817499Y-158845001I-62500J0D01*
G01*
X102692499Y-158845001D01*
G75*
G02*
X102629999Y-158782501I0J62500D01*
G01*
X102629999Y-158032501D01*
G75*
G02*
X102692499Y-157970001I62500J0D01*
G01*
G37*
G36*
G01*
X101692499Y-158970001D02*
X102442499Y-158970001D01*
G75*
G02*
X102504999Y-159032501I0J-62500D01*
G01*
X102504999Y-159157501D01*
G75*
G02*
X102442499Y-159220001I-62500J0D01*
G01*
X101692499Y-159220001D01*
G75*
G02*
X101629999Y-159157501I0J62500D01*
G01*
X101629999Y-159032501D01*
G75*
G02*
X101692499Y-158970001I62500J0D01*
G01*
G37*
G36*
G01*
X101692499Y-159470001D02*
X102442499Y-159470001D01*
G75*
G02*
X102504999Y-159532501I0J-62500D01*
G01*
X102504999Y-159657501D01*
G75*
G02*
X102442499Y-159720001I-62500J0D01*
G01*
X101692499Y-159720001D01*
G75*
G02*
X101629999Y-159657501I0J62500D01*
G01*
X101629999Y-159532501D01*
G75*
G02*
X101692499Y-159470001I62500J0D01*
G01*
G37*
G36*
G01*
X101692499Y-159970001D02*
X102442499Y-159970001D01*
G75*
G02*
X102504999Y-160032501I0J-62500D01*
G01*
X102504999Y-160157501D01*
G75*
G02*
X102442499Y-160220001I-62500J0D01*
G01*
X101692499Y-160220001D01*
G75*
G02*
X101629999Y-160157501I0J62500D01*
G01*
X101629999Y-160032501D01*
G75*
G02*
X101692499Y-159970001I62500J0D01*
G01*
G37*
G36*
G01*
X101692499Y-160470001D02*
X102442499Y-160470001D01*
G75*
G02*
X102504999Y-160532501I0J-62500D01*
G01*
X102504999Y-160657501D01*
G75*
G02*
X102442499Y-160720001I-62500J0D01*
G01*
X101692499Y-160720001D01*
G75*
G02*
X101629999Y-160657501I0J62500D01*
G01*
X101629999Y-160532501D01*
G75*
G02*
X101692499Y-160470001I62500J0D01*
G01*
G37*
G36*
G01*
X101692499Y-160970001D02*
X102442499Y-160970001D01*
G75*
G02*
X102504999Y-161032501I0J-62500D01*
G01*
X102504999Y-161157501D01*
G75*
G02*
X102442499Y-161220001I-62500J0D01*
G01*
X101692499Y-161220001D01*
G75*
G02*
X101629999Y-161157501I0J62500D01*
G01*
X101629999Y-161032501D01*
G75*
G02*
X101692499Y-160970001I62500J0D01*
G01*
G37*
G36*
G01*
X101692499Y-161470001D02*
X102442499Y-161470001D01*
G75*
G02*
X102504999Y-161532501I0J-62500D01*
G01*
X102504999Y-161657501D01*
G75*
G02*
X102442499Y-161720001I-62500J0D01*
G01*
X101692499Y-161720001D01*
G75*
G02*
X101629999Y-161657501I0J62500D01*
G01*
X101629999Y-161532501D01*
G75*
G02*
X101692499Y-161470001I62500J0D01*
G01*
G37*
G36*
G01*
X101692499Y-161970001D02*
X102442499Y-161970001D01*
G75*
G02*
X102504999Y-162032501I0J-62500D01*
G01*
X102504999Y-162157501D01*
G75*
G02*
X102442499Y-162220001I-62500J0D01*
G01*
X101692499Y-162220001D01*
G75*
G02*
X101629999Y-162157501I0J62500D01*
G01*
X101629999Y-162032501D01*
G75*
G02*
X101692499Y-161970001I62500J0D01*
G01*
G37*
G36*
G01*
X101692499Y-162470001D02*
X102442499Y-162470001D01*
G75*
G02*
X102504999Y-162532501I0J-62500D01*
G01*
X102504999Y-162657501D01*
G75*
G02*
X102442499Y-162720001I-62500J0D01*
G01*
X101692499Y-162720001D01*
G75*
G02*
X101629999Y-162657501I0J62500D01*
G01*
X101629999Y-162532501D01*
G75*
G02*
X101692499Y-162470001I62500J0D01*
G01*
G37*
G36*
G01*
X102692499Y-162845001D02*
X102817499Y-162845001D01*
G75*
G02*
X102879999Y-162907501I0J-62500D01*
G01*
X102879999Y-163657501D01*
G75*
G02*
X102817499Y-163720001I-62500J0D01*
G01*
X102692499Y-163720001D01*
G75*
G02*
X102629999Y-163657501I0J62500D01*
G01*
X102629999Y-162907501D01*
G75*
G02*
X102692499Y-162845001I62500J0D01*
G01*
G37*
G36*
G01*
X103192499Y-162845001D02*
X103317499Y-162845001D01*
G75*
G02*
X103379999Y-162907501I0J-62500D01*
G01*
X103379999Y-163657501D01*
G75*
G02*
X103317499Y-163720001I-62500J0D01*
G01*
X103192499Y-163720001D01*
G75*
G02*
X103129999Y-163657501I0J62500D01*
G01*
X103129999Y-162907501D01*
G75*
G02*
X103192499Y-162845001I62500J0D01*
G01*
G37*
G36*
G01*
X103692499Y-162845001D02*
X103817499Y-162845001D01*
G75*
G02*
X103879999Y-162907501I0J-62500D01*
G01*
X103879999Y-163657501D01*
G75*
G02*
X103817499Y-163720001I-62500J0D01*
G01*
X103692499Y-163720001D01*
G75*
G02*
X103629999Y-163657501I0J62500D01*
G01*
X103629999Y-162907501D01*
G75*
G02*
X103692499Y-162845001I62500J0D01*
G01*
G37*
G36*
G01*
X104192499Y-162845001D02*
X104317499Y-162845001D01*
G75*
G02*
X104379999Y-162907501I0J-62500D01*
G01*
X104379999Y-163657501D01*
G75*
G02*
X104317499Y-163720001I-62500J0D01*
G01*
X104192499Y-163720001D01*
G75*
G02*
X104129999Y-163657501I0J62500D01*
G01*
X104129999Y-162907501D01*
G75*
G02*
X104192499Y-162845001I62500J0D01*
G01*
G37*
G36*
G01*
X104692499Y-162845001D02*
X104817499Y-162845001D01*
G75*
G02*
X104879999Y-162907501I0J-62500D01*
G01*
X104879999Y-163657501D01*
G75*
G02*
X104817499Y-163720001I-62500J0D01*
G01*
X104692499Y-163720001D01*
G75*
G02*
X104629999Y-163657501I0J62500D01*
G01*
X104629999Y-162907501D01*
G75*
G02*
X104692499Y-162845001I62500J0D01*
G01*
G37*
G36*
G01*
X105192499Y-162845001D02*
X105317499Y-162845001D01*
G75*
G02*
X105379999Y-162907501I0J-62500D01*
G01*
X105379999Y-163657501D01*
G75*
G02*
X105317499Y-163720001I-62500J0D01*
G01*
X105192499Y-163720001D01*
G75*
G02*
X105129999Y-163657501I0J62500D01*
G01*
X105129999Y-162907501D01*
G75*
G02*
X105192499Y-162845001I62500J0D01*
G01*
G37*
G36*
G01*
X105692499Y-162845001D02*
X105817499Y-162845001D01*
G75*
G02*
X105879999Y-162907501I0J-62500D01*
G01*
X105879999Y-163657501D01*
G75*
G02*
X105817499Y-163720001I-62500J0D01*
G01*
X105692499Y-163720001D01*
G75*
G02*
X105629999Y-163657501I0J62500D01*
G01*
X105629999Y-162907501D01*
G75*
G02*
X105692499Y-162845001I62500J0D01*
G01*
G37*
G36*
G01*
X106192499Y-162845001D02*
X106317499Y-162845001D01*
G75*
G02*
X106379999Y-162907501I0J-62500D01*
G01*
X106379999Y-163657501D01*
G75*
G02*
X106317499Y-163720001I-62500J0D01*
G01*
X106192499Y-163720001D01*
G75*
G02*
X106129999Y-163657501I0J62500D01*
G01*
X106129999Y-162907501D01*
G75*
G02*
X106192499Y-162845001I62500J0D01*
G01*
G37*
G36*
G01*
X106567499Y-162470001D02*
X107317499Y-162470001D01*
G75*
G02*
X107379999Y-162532501I0J-62500D01*
G01*
X107379999Y-162657501D01*
G75*
G02*
X107317499Y-162720001I-62500J0D01*
G01*
X106567499Y-162720001D01*
G75*
G02*
X106504999Y-162657501I0J62500D01*
G01*
X106504999Y-162532501D01*
G75*
G02*
X106567499Y-162470001I62500J0D01*
G01*
G37*
G36*
G01*
X106567499Y-161970001D02*
X107317499Y-161970001D01*
G75*
G02*
X107379999Y-162032501I0J-62500D01*
G01*
X107379999Y-162157501D01*
G75*
G02*
X107317499Y-162220001I-62500J0D01*
G01*
X106567499Y-162220001D01*
G75*
G02*
X106504999Y-162157501I0J62500D01*
G01*
X106504999Y-162032501D01*
G75*
G02*
X106567499Y-161970001I62500J0D01*
G01*
G37*
G36*
G01*
X106567499Y-161470001D02*
X107317499Y-161470001D01*
G75*
G02*
X107379999Y-161532501I0J-62500D01*
G01*
X107379999Y-161657501D01*
G75*
G02*
X107317499Y-161720001I-62500J0D01*
G01*
X106567499Y-161720001D01*
G75*
G02*
X106504999Y-161657501I0J62500D01*
G01*
X106504999Y-161532501D01*
G75*
G02*
X106567499Y-161470001I62500J0D01*
G01*
G37*
G36*
G01*
X106567499Y-160970001D02*
X107317499Y-160970001D01*
G75*
G02*
X107379999Y-161032501I0J-62500D01*
G01*
X107379999Y-161157501D01*
G75*
G02*
X107317499Y-161220001I-62500J0D01*
G01*
X106567499Y-161220001D01*
G75*
G02*
X106504999Y-161157501I0J62500D01*
G01*
X106504999Y-161032501D01*
G75*
G02*
X106567499Y-160970001I62500J0D01*
G01*
G37*
G36*
G01*
X106567499Y-160470001D02*
X107317499Y-160470001D01*
G75*
G02*
X107379999Y-160532501I0J-62500D01*
G01*
X107379999Y-160657501D01*
G75*
G02*
X107317499Y-160720001I-62500J0D01*
G01*
X106567499Y-160720001D01*
G75*
G02*
X106504999Y-160657501I0J62500D01*
G01*
X106504999Y-160532501D01*
G75*
G02*
X106567499Y-160470001I62500J0D01*
G01*
G37*
G36*
G01*
X106567499Y-159970001D02*
X107317499Y-159970001D01*
G75*
G02*
X107379999Y-160032501I0J-62500D01*
G01*
X107379999Y-160157501D01*
G75*
G02*
X107317499Y-160220001I-62500J0D01*
G01*
X106567499Y-160220001D01*
G75*
G02*
X106504999Y-160157501I0J62500D01*
G01*
X106504999Y-160032501D01*
G75*
G02*
X106567499Y-159970001I62500J0D01*
G01*
G37*
G36*
G01*
X106567499Y-159470001D02*
X107317499Y-159470001D01*
G75*
G02*
X107379999Y-159532501I0J-62500D01*
G01*
X107379999Y-159657501D01*
G75*
G02*
X107317499Y-159720001I-62500J0D01*
G01*
X106567499Y-159720001D01*
G75*
G02*
X106504999Y-159657501I0J62500D01*
G01*
X106504999Y-159532501D01*
G75*
G02*
X106567499Y-159470001I62500J0D01*
G01*
G37*
G36*
G01*
X106567499Y-158970001D02*
X107317499Y-158970001D01*
G75*
G02*
X107379999Y-159032501I0J-62500D01*
G01*
X107379999Y-159157501D01*
G75*
G02*
X107317499Y-159220001I-62500J0D01*
G01*
X106567499Y-159220001D01*
G75*
G02*
X106504999Y-159157501I0J62500D01*
G01*
X106504999Y-159032501D01*
G75*
G02*
X106567499Y-158970001I62500J0D01*
G01*
G37*
G36*
G01*
X105422499Y-159230001D02*
X105887499Y-159230001D01*
G75*
G02*
X106119999Y-159462501I0J-232500D01*
G01*
X106119999Y-159927501D01*
G75*
G02*
X105887499Y-160160001I-232500J0D01*
G01*
X105422499Y-160160001D01*
G75*
G02*
X105189999Y-159927501I0J232500D01*
G01*
X105189999Y-159462501D01*
G75*
G02*
X105422499Y-159230001I232500J0D01*
G01*
G37*
G36*
G01*
X104272499Y-159230001D02*
X104737499Y-159230001D01*
G75*
G02*
X104969999Y-159462501I0J-232500D01*
G01*
X104969999Y-159927501D01*
G75*
G02*
X104737499Y-160160001I-232500J0D01*
G01*
X104272499Y-160160001D01*
G75*
G02*
X104039999Y-159927501I0J232500D01*
G01*
X104039999Y-159462501D01*
G75*
G02*
X104272499Y-159230001I232500J0D01*
G01*
G37*
G36*
G01*
X103122499Y-159230001D02*
X103587499Y-159230001D01*
G75*
G02*
X103819999Y-159462501I0J-232500D01*
G01*
X103819999Y-159927501D01*
G75*
G02*
X103587499Y-160160001I-232500J0D01*
G01*
X103122499Y-160160001D01*
G75*
G02*
X102889999Y-159927501I0J232500D01*
G01*
X102889999Y-159462501D01*
G75*
G02*
X103122499Y-159230001I232500J0D01*
G01*
G37*
G36*
G01*
X105422499Y-160380001D02*
X105887499Y-160380001D01*
G75*
G02*
X106119999Y-160612501I0J-232500D01*
G01*
X106119999Y-161077501D01*
G75*
G02*
X105887499Y-161310001I-232500J0D01*
G01*
X105422499Y-161310001D01*
G75*
G02*
X105189999Y-161077501I0J232500D01*
G01*
X105189999Y-160612501D01*
G75*
G02*
X105422499Y-160380001I232500J0D01*
G01*
G37*
G36*
G01*
X104272499Y-160380001D02*
X104737499Y-160380001D01*
G75*
G02*
X104969999Y-160612501I0J-232500D01*
G01*
X104969999Y-161077501D01*
G75*
G02*
X104737499Y-161310001I-232500J0D01*
G01*
X104272499Y-161310001D01*
G75*
G02*
X104039999Y-161077501I0J232500D01*
G01*
X104039999Y-160612501D01*
G75*
G02*
X104272499Y-160380001I232500J0D01*
G01*
G37*
G36*
G01*
X103122499Y-160380001D02*
X103587499Y-160380001D01*
G75*
G02*
X103819999Y-160612501I0J-232500D01*
G01*
X103819999Y-161077501D01*
G75*
G02*
X103587499Y-161310001I-232500J0D01*
G01*
X103122499Y-161310001D01*
G75*
G02*
X102889999Y-161077501I0J232500D01*
G01*
X102889999Y-160612501D01*
G75*
G02*
X103122499Y-160380001I232500J0D01*
G01*
G37*
G36*
G01*
X105422499Y-161530001D02*
X105887499Y-161530001D01*
G75*
G02*
X106119999Y-161762501I0J-232500D01*
G01*
X106119999Y-162227501D01*
G75*
G02*
X105887499Y-162460001I-232500J0D01*
G01*
X105422499Y-162460001D01*
G75*
G02*
X105189999Y-162227501I0J232500D01*
G01*
X105189999Y-161762501D01*
G75*
G02*
X105422499Y-161530001I232500J0D01*
G01*
G37*
G36*
G01*
X104272499Y-161530001D02*
X104737499Y-161530001D01*
G75*
G02*
X104969999Y-161762501I0J-232500D01*
G01*
X104969999Y-162227501D01*
G75*
G02*
X104737499Y-162460001I-232500J0D01*
G01*
X104272499Y-162460001D01*
G75*
G02*
X104039999Y-162227501I0J232500D01*
G01*
X104039999Y-161762501D01*
G75*
G02*
X104272499Y-161530001I232500J0D01*
G01*
G37*
G36*
G01*
X103122499Y-161530001D02*
X103587499Y-161530001D01*
G75*
G02*
X103819999Y-161762501I0J-232500D01*
G01*
X103819999Y-162227501D01*
G75*
G02*
X103587499Y-162460001I-232500J0D01*
G01*
X103122499Y-162460001D01*
G75*
G02*
X102889999Y-162227501I0J232500D01*
G01*
X102889999Y-161762501D01*
G75*
G02*
X103122499Y-161530001I232500J0D01*
G01*
G37*
%TD*%
%TO.C,U4*%
G36*
G01*
X109500000Y-159662500D02*
X109500000Y-159537500D01*
G75*
G02*
X109562500Y-159475000I62500J0D01*
G01*
X110262500Y-159475000D01*
G75*
G02*
X110325000Y-159537500I0J-62500D01*
G01*
X110325000Y-159662500D01*
G75*
G02*
X110262500Y-159725000I-62500J0D01*
G01*
X109562500Y-159725000D01*
G75*
G02*
X109500000Y-159662500I0J62500D01*
G01*
G37*
G36*
G01*
X109500000Y-160162500D02*
X109500000Y-160037500D01*
G75*
G02*
X109562500Y-159975000I62500J0D01*
G01*
X110262500Y-159975000D01*
G75*
G02*
X110325000Y-160037500I0J-62500D01*
G01*
X110325000Y-160162500D01*
G75*
G02*
X110262500Y-160225000I-62500J0D01*
G01*
X109562500Y-160225000D01*
G75*
G02*
X109500000Y-160162500I0J62500D01*
G01*
G37*
G36*
G01*
X109500000Y-160662500D02*
X109500000Y-160537500D01*
G75*
G02*
X109562500Y-160475000I62500J0D01*
G01*
X110262500Y-160475000D01*
G75*
G02*
X110325000Y-160537500I0J-62500D01*
G01*
X110325000Y-160662500D01*
G75*
G02*
X110262500Y-160725000I-62500J0D01*
G01*
X109562500Y-160725000D01*
G75*
G02*
X109500000Y-160662500I0J62500D01*
G01*
G37*
G36*
G01*
X109500000Y-161162500D02*
X109500000Y-161037500D01*
G75*
G02*
X109562500Y-160975000I62500J0D01*
G01*
X110262500Y-160975000D01*
G75*
G02*
X110325000Y-161037500I0J-62500D01*
G01*
X110325000Y-161162500D01*
G75*
G02*
X110262500Y-161225000I-62500J0D01*
G01*
X109562500Y-161225000D01*
G75*
G02*
X109500000Y-161162500I0J62500D01*
G01*
G37*
G36*
G01*
X109500000Y-161662500D02*
X109500000Y-161537500D01*
G75*
G02*
X109562500Y-161475000I62500J0D01*
G01*
X110262500Y-161475000D01*
G75*
G02*
X110325000Y-161537500I0J-62500D01*
G01*
X110325000Y-161662500D01*
G75*
G02*
X110262500Y-161725000I-62500J0D01*
G01*
X109562500Y-161725000D01*
G75*
G02*
X109500000Y-161662500I0J62500D01*
G01*
G37*
G36*
G01*
X110725000Y-162887500D02*
X110725000Y-162187500D01*
G75*
G02*
X110787500Y-162125000I62500J0D01*
G01*
X110912500Y-162125000D01*
G75*
G02*
X110975000Y-162187500I0J-62500D01*
G01*
X110975000Y-162887500D01*
G75*
G02*
X110912500Y-162950000I-62500J0D01*
G01*
X110787500Y-162950000D01*
G75*
G02*
X110725000Y-162887500I0J62500D01*
G01*
G37*
G36*
G01*
X111225000Y-162887500D02*
X111225000Y-162187500D01*
G75*
G02*
X111287500Y-162125000I62500J0D01*
G01*
X111412500Y-162125000D01*
G75*
G02*
X111475000Y-162187500I0J-62500D01*
G01*
X111475000Y-162887500D01*
G75*
G02*
X111412500Y-162950000I-62500J0D01*
G01*
X111287500Y-162950000D01*
G75*
G02*
X111225000Y-162887500I0J62500D01*
G01*
G37*
G36*
G01*
X111725000Y-162887500D02*
X111725000Y-162187500D01*
G75*
G02*
X111787500Y-162125000I62500J0D01*
G01*
X111912500Y-162125000D01*
G75*
G02*
X111975000Y-162187500I0J-62500D01*
G01*
X111975000Y-162887500D01*
G75*
G02*
X111912500Y-162950000I-62500J0D01*
G01*
X111787500Y-162950000D01*
G75*
G02*
X111725000Y-162887500I0J62500D01*
G01*
G37*
G36*
G01*
X112225000Y-162887500D02*
X112225000Y-162187500D01*
G75*
G02*
X112287500Y-162125000I62500J0D01*
G01*
X112412500Y-162125000D01*
G75*
G02*
X112475000Y-162187500I0J-62500D01*
G01*
X112475000Y-162887500D01*
G75*
G02*
X112412500Y-162950000I-62500J0D01*
G01*
X112287500Y-162950000D01*
G75*
G02*
X112225000Y-162887500I0J62500D01*
G01*
G37*
G36*
G01*
X112725000Y-162887500D02*
X112725000Y-162187500D01*
G75*
G02*
X112787500Y-162125000I62500J0D01*
G01*
X112912500Y-162125000D01*
G75*
G02*
X112975000Y-162187500I0J-62500D01*
G01*
X112975000Y-162887500D01*
G75*
G02*
X112912500Y-162950000I-62500J0D01*
G01*
X112787500Y-162950000D01*
G75*
G02*
X112725000Y-162887500I0J62500D01*
G01*
G37*
G36*
G01*
X113375000Y-161662500D02*
X113375000Y-161537500D01*
G75*
G02*
X113437500Y-161475000I62500J0D01*
G01*
X114137500Y-161475000D01*
G75*
G02*
X114200000Y-161537500I0J-62500D01*
G01*
X114200000Y-161662500D01*
G75*
G02*
X114137500Y-161725000I-62500J0D01*
G01*
X113437500Y-161725000D01*
G75*
G02*
X113375000Y-161662500I0J62500D01*
G01*
G37*
G36*
G01*
X113375000Y-161162500D02*
X113375000Y-161037500D01*
G75*
G02*
X113437500Y-160975000I62500J0D01*
G01*
X114137500Y-160975000D01*
G75*
G02*
X114200000Y-161037500I0J-62500D01*
G01*
X114200000Y-161162500D01*
G75*
G02*
X114137500Y-161225000I-62500J0D01*
G01*
X113437500Y-161225000D01*
G75*
G02*
X113375000Y-161162500I0J62500D01*
G01*
G37*
G36*
G01*
X113375000Y-160662500D02*
X113375000Y-160537500D01*
G75*
G02*
X113437500Y-160475000I62500J0D01*
G01*
X114137500Y-160475000D01*
G75*
G02*
X114200000Y-160537500I0J-62500D01*
G01*
X114200000Y-160662500D01*
G75*
G02*
X114137500Y-160725000I-62500J0D01*
G01*
X113437500Y-160725000D01*
G75*
G02*
X113375000Y-160662500I0J62500D01*
G01*
G37*
G36*
G01*
X113375000Y-160162500D02*
X113375000Y-160037500D01*
G75*
G02*
X113437500Y-159975000I62500J0D01*
G01*
X114137500Y-159975000D01*
G75*
G02*
X114200000Y-160037500I0J-62500D01*
G01*
X114200000Y-160162500D01*
G75*
G02*
X114137500Y-160225000I-62500J0D01*
G01*
X113437500Y-160225000D01*
G75*
G02*
X113375000Y-160162500I0J62500D01*
G01*
G37*
G36*
G01*
X113375000Y-159662500D02*
X113375000Y-159537500D01*
G75*
G02*
X113437500Y-159475000I62500J0D01*
G01*
X114137500Y-159475000D01*
G75*
G02*
X114200000Y-159537500I0J-62500D01*
G01*
X114200000Y-159662500D01*
G75*
G02*
X114137500Y-159725000I-62500J0D01*
G01*
X113437500Y-159725000D01*
G75*
G02*
X113375000Y-159662500I0J62500D01*
G01*
G37*
G36*
G01*
X112725000Y-159012500D02*
X112725000Y-158312500D01*
G75*
G02*
X112787500Y-158250000I62500J0D01*
G01*
X112912500Y-158250000D01*
G75*
G02*
X112975000Y-158312500I0J-62500D01*
G01*
X112975000Y-159012500D01*
G75*
G02*
X112912500Y-159075000I-62500J0D01*
G01*
X112787500Y-159075000D01*
G75*
G02*
X112725000Y-159012500I0J62500D01*
G01*
G37*
G36*
G01*
X112225000Y-159012500D02*
X112225000Y-158312500D01*
G75*
G02*
X112287500Y-158250000I62500J0D01*
G01*
X112412500Y-158250000D01*
G75*
G02*
X112475000Y-158312500I0J-62500D01*
G01*
X112475000Y-159012500D01*
G75*
G02*
X112412500Y-159075000I-62500J0D01*
G01*
X112287500Y-159075000D01*
G75*
G02*
X112225000Y-159012500I0J62500D01*
G01*
G37*
G36*
G01*
X111725000Y-159012500D02*
X111725000Y-158312500D01*
G75*
G02*
X111787500Y-158250000I62500J0D01*
G01*
X111912500Y-158250000D01*
G75*
G02*
X111975000Y-158312500I0J-62500D01*
G01*
X111975000Y-159012500D01*
G75*
G02*
X111912500Y-159075000I-62500J0D01*
G01*
X111787500Y-159075000D01*
G75*
G02*
X111725000Y-159012500I0J62500D01*
G01*
G37*
G36*
G01*
X111225000Y-159012500D02*
X111225000Y-158312500D01*
G75*
G02*
X111287500Y-158250000I62500J0D01*
G01*
X111412500Y-158250000D01*
G75*
G02*
X111475000Y-158312500I0J-62500D01*
G01*
X111475000Y-159012500D01*
G75*
G02*
X111412500Y-159075000I-62500J0D01*
G01*
X111287500Y-159075000D01*
G75*
G02*
X111225000Y-159012500I0J62500D01*
G01*
G37*
G36*
G01*
X110725000Y-159012500D02*
X110725000Y-158312500D01*
G75*
G02*
X110787500Y-158250000I62500J0D01*
G01*
X110912500Y-158250000D01*
G75*
G02*
X110975000Y-158312500I0J-62500D01*
G01*
X110975000Y-159012500D01*
G75*
G02*
X110912500Y-159075000I-62500J0D01*
G01*
X110787500Y-159075000D01*
G75*
G02*
X110725000Y-159012500I0J62500D01*
G01*
G37*
G36*
G01*
X110720000Y-160230000D02*
X110720000Y-159720000D01*
G75*
G02*
X110970000Y-159470000I250000J0D01*
G01*
X111480000Y-159470000D01*
G75*
G02*
X111730000Y-159720000I0J-250000D01*
G01*
X111730000Y-160230000D01*
G75*
G02*
X111480000Y-160480000I-250000J0D01*
G01*
X110970000Y-160480000D01*
G75*
G02*
X110720000Y-160230000I0J250000D01*
G01*
G37*
G36*
G01*
X110720000Y-161480000D02*
X110720000Y-160970000D01*
G75*
G02*
X110970000Y-160720000I250000J0D01*
G01*
X111480000Y-160720000D01*
G75*
G02*
X111730000Y-160970000I0J-250000D01*
G01*
X111730000Y-161480000D01*
G75*
G02*
X111480000Y-161730000I-250000J0D01*
G01*
X110970000Y-161730000D01*
G75*
G02*
X110720000Y-161480000I0J250000D01*
G01*
G37*
G36*
G01*
X111970000Y-160230000D02*
X111970000Y-159720000D01*
G75*
G02*
X112220000Y-159470000I250000J0D01*
G01*
X112730000Y-159470000D01*
G75*
G02*
X112980000Y-159720000I0J-250000D01*
G01*
X112980000Y-160230000D01*
G75*
G02*
X112730000Y-160480000I-250000J0D01*
G01*
X112220000Y-160480000D01*
G75*
G02*
X111970000Y-160230000I0J250000D01*
G01*
G37*
G36*
G01*
X111970000Y-161480000D02*
X111970000Y-160970000D01*
G75*
G02*
X112220000Y-160720000I250000J0D01*
G01*
X112730000Y-160720000D01*
G75*
G02*
X112980000Y-160970000I0J-250000D01*
G01*
X112980000Y-161480000D01*
G75*
G02*
X112730000Y-161730000I-250000J0D01*
G01*
X112220000Y-161730000D01*
G75*
G02*
X111970000Y-161480000I0J250000D01*
G01*
G37*
%TD*%
D17*
%TO.C,Y1*%
X113100000Y-165350000D03*
X110900000Y-165350000D03*
X110900000Y-167050000D03*
X113100000Y-167050000D03*
%TD*%
M02*
