M48
; DRILL file {KiCad (5.1.9)-1} date 11/01/21 00:09:39
; FORMAT={3:3/ absolute / metric / suppress leading zeros}
; #@! TF.CreationDate,2021-11-01T00:09:39+05:30
; #@! TF.GenerationSoftware,Kicad,Pcbnew,(5.1.9)-1
FMAT,2
METRIC,TZ
T1C0.250
T2C0.300
T3C0.400
T4C0.650
T5C1.300
%
G90
G05
T1
X90750Y-166500
X104750Y-157400
X107800Y-161100
X107800Y-161650
X109100Y-161100
X109100Y-161640
T2
X107000Y-158300
T3
X83800Y-154900
X86850Y-166750
X87800Y-166750
X88200Y-162100
X89150Y-162100
X90750Y-162900
X90750Y-163800
X91800Y-162900
X92250Y-162150
X93650Y-154500
X94250Y-158000
X94550Y-154500
X95150Y-158050
X96100Y-161800
X97000Y-161800
X98900Y-160500
X99800Y-160500
X100150Y-155700
X100150Y-156600
X100250Y-162800
X100450Y-163800
X100700Y-160500
X100800Y-161800
X101850Y-163500
X102050Y-155900
X102050Y-156800
X104850Y-155900
X105650Y-156300
X107400Y-164750
X108000Y-164000
X108650Y-155450
X108650Y-156400
X109000Y-157450
X109250Y-165200
X109350Y-158400
X109650Y-155450
X109650Y-156400
X110550Y-156000
X110650Y-154500
X110950Y-163900
X111250Y-160000
X111250Y-161100
X111950Y-154200
X112450Y-160000
X112450Y-161100
X112750Y-157400
X114350Y-157500
X114450Y-154400
X114750Y-159200
X114750Y-166900
X115350Y-154400
X115550Y-159700
X116550Y-154200
X116550Y-155800
X116550Y-157400
X116550Y-159100
X116550Y-163100
X116550Y-164800
X116550Y-166500
X117900Y-167450
X118450Y-154000
X119800Y-167450
X120350Y-154000
X120950Y-162300
X120950Y-163400
X121650Y-158400
X121902Y-167450
X122450Y-157000
X122450Y-157900
X122550Y-154000
X122550Y-162700
X122550Y-163600
X123550Y-156200
X123650Y-164300
X124000Y-167450
X124750Y-154000
X124850Y-164300
X124950Y-156200
X126050Y-164300
X126150Y-156200
X126200Y-167450
X126950Y-154100
X127150Y-155900
X127150Y-165000
X127150Y-166500
T4
X92510Y-165200
X92510Y-166470
X93780Y-165200
X93780Y-166470
X95050Y-165200
X95050Y-166470
X96320Y-165200
X96320Y-166470
X97590Y-165200
X97590Y-166470
T5
X84075Y-157400
X84075Y-164000
T0
M30
