%TF.GenerationSoftware,KiCad,Pcbnew,(5.1.9)-1*%
%TF.CreationDate,2021-11-01T00:10:38+05:30*%
%TF.ProjectId,STM32-nRF24,53544d33-322d-46e5-9246-32342e6b6963,Rev. A*%
%TF.SameCoordinates,Original*%
%TF.FileFunction,Legend,Bot*%
%TF.FilePolarity,Positive*%
%FSLAX46Y46*%
G04 Gerber Fmt 4.6, Leading zero omitted, Abs format (unit mm)*
G04 Created by KiCad (PCBNEW (5.1.9)-1) date 2021-11-01 00:10:38*
%MOMM*%
%LPD*%
G01*
G04 APERTURE LIST*
%ADD10C,0.125000*%
%ADD11C,0.062500*%
%ADD12C,0.187500*%
G04 APERTURE END LIST*
D10*
X107745238Y-166264880D02*
X107673809Y-166288690D01*
X107554761Y-166288690D01*
X107507142Y-166264880D01*
X107483333Y-166241071D01*
X107459523Y-166193452D01*
X107459523Y-166145833D01*
X107483333Y-166098214D01*
X107507142Y-166074404D01*
X107554761Y-166050595D01*
X107650000Y-166026785D01*
X107697619Y-166002976D01*
X107721428Y-165979166D01*
X107745238Y-165931547D01*
X107745238Y-165883928D01*
X107721428Y-165836309D01*
X107697619Y-165812500D01*
X107650000Y-165788690D01*
X107530952Y-165788690D01*
X107459523Y-165812500D01*
X107316666Y-165788690D02*
X107030952Y-165788690D01*
X107173809Y-166288690D02*
X107173809Y-165788690D01*
X106864285Y-166288690D02*
X106864285Y-165788690D01*
X106697619Y-166145833D01*
X106530952Y-165788690D01*
X106530952Y-166288690D01*
X106340476Y-165788690D02*
X106030952Y-165788690D01*
X106197619Y-165979166D01*
X106126190Y-165979166D01*
X106078571Y-166002976D01*
X106054761Y-166026785D01*
X106030952Y-166074404D01*
X106030952Y-166193452D01*
X106054761Y-166241071D01*
X106078571Y-166264880D01*
X106126190Y-166288690D01*
X106269047Y-166288690D01*
X106316666Y-166264880D01*
X106340476Y-166241071D01*
X105840476Y-165836309D02*
X105816666Y-165812500D01*
X105769047Y-165788690D01*
X105650000Y-165788690D01*
X105602380Y-165812500D01*
X105578571Y-165836309D01*
X105554761Y-165883928D01*
X105554761Y-165931547D01*
X105578571Y-166002976D01*
X105864285Y-166288690D01*
X105554761Y-166288690D01*
X105340476Y-166098214D02*
X104959523Y-166098214D01*
X104721428Y-165955357D02*
X104721428Y-166288690D01*
X104721428Y-166002976D02*
X104697619Y-165979166D01*
X104650000Y-165955357D01*
X104578571Y-165955357D01*
X104530952Y-165979166D01*
X104507142Y-166026785D01*
X104507142Y-166288690D01*
X103983333Y-166288690D02*
X104150000Y-166050595D01*
X104269047Y-166288690D02*
X104269047Y-165788690D01*
X104078571Y-165788690D01*
X104030952Y-165812500D01*
X104007142Y-165836309D01*
X103983333Y-165883928D01*
X103983333Y-165955357D01*
X104007142Y-166002976D01*
X104030952Y-166026785D01*
X104078571Y-166050595D01*
X104269047Y-166050595D01*
X103602380Y-166026785D02*
X103769047Y-166026785D01*
X103769047Y-166288690D02*
X103769047Y-165788690D01*
X103530952Y-165788690D01*
X103364285Y-165836309D02*
X103340476Y-165812500D01*
X103292857Y-165788690D01*
X103173809Y-165788690D01*
X103126190Y-165812500D01*
X103102380Y-165836309D01*
X103078571Y-165883928D01*
X103078571Y-165931547D01*
X103102380Y-166002976D01*
X103388095Y-166288690D01*
X103078571Y-166288690D01*
X102650000Y-165955357D02*
X102650000Y-166288690D01*
X102769047Y-165764880D02*
X102888095Y-166122023D01*
X102578571Y-166122023D01*
X101840476Y-166026785D02*
X101769047Y-166050595D01*
X101745238Y-166074404D01*
X101721428Y-166122023D01*
X101721428Y-166193452D01*
X101745238Y-166241071D01*
X101769047Y-166264880D01*
X101816666Y-166288690D01*
X102007142Y-166288690D01*
X102007142Y-165788690D01*
X101840476Y-165788690D01*
X101792857Y-165812500D01*
X101769047Y-165836309D01*
X101745238Y-165883928D01*
X101745238Y-165931547D01*
X101769047Y-165979166D01*
X101792857Y-166002976D01*
X101840476Y-166026785D01*
X102007142Y-166026785D01*
X101435714Y-166288690D02*
X101483333Y-166264880D01*
X101507142Y-166241071D01*
X101530952Y-166193452D01*
X101530952Y-166050595D01*
X101507142Y-166002976D01*
X101483333Y-165979166D01*
X101435714Y-165955357D01*
X101364285Y-165955357D01*
X101316666Y-165979166D01*
X101292857Y-166002976D01*
X101269047Y-166050595D01*
X101269047Y-166193452D01*
X101292857Y-166241071D01*
X101316666Y-166264880D01*
X101364285Y-166288690D01*
X101435714Y-166288690D01*
X100840476Y-166288690D02*
X100840476Y-166026785D01*
X100864285Y-165979166D01*
X100911904Y-165955357D01*
X101007142Y-165955357D01*
X101054761Y-165979166D01*
X100840476Y-166264880D02*
X100888095Y-166288690D01*
X101007142Y-166288690D01*
X101054761Y-166264880D01*
X101078571Y-166217261D01*
X101078571Y-166169642D01*
X101054761Y-166122023D01*
X101007142Y-166098214D01*
X100888095Y-166098214D01*
X100840476Y-166074404D01*
X100602380Y-166288690D02*
X100602380Y-165955357D01*
X100602380Y-166050595D02*
X100578571Y-166002976D01*
X100554761Y-165979166D01*
X100507142Y-165955357D01*
X100459523Y-165955357D01*
X100078571Y-166288690D02*
X100078571Y-165788690D01*
X100078571Y-166264880D02*
X100126190Y-166288690D01*
X100221428Y-166288690D01*
X100269047Y-166264880D01*
X100292857Y-166241071D01*
X100316666Y-166193452D01*
X100316666Y-166050595D01*
X100292857Y-166002976D01*
X100269047Y-165979166D01*
X100221428Y-165955357D01*
X100126190Y-165955357D01*
X100078571Y-165979166D01*
X104959523Y-167354166D02*
X104983333Y-167330357D01*
X105030952Y-167258928D01*
X105054761Y-167211309D01*
X105078571Y-167139880D01*
X105102380Y-167020833D01*
X105102380Y-166925595D01*
X105078571Y-166806547D01*
X105054761Y-166735119D01*
X105030952Y-166687500D01*
X104983333Y-166616071D01*
X104959523Y-166592261D01*
X104483333Y-167163690D02*
X104650000Y-166925595D01*
X104769047Y-167163690D02*
X104769047Y-166663690D01*
X104578571Y-166663690D01*
X104530952Y-166687500D01*
X104507142Y-166711309D01*
X104483333Y-166758928D01*
X104483333Y-166830357D01*
X104507142Y-166877976D01*
X104530952Y-166901785D01*
X104578571Y-166925595D01*
X104769047Y-166925595D01*
X104078571Y-167139880D02*
X104126190Y-167163690D01*
X104221428Y-167163690D01*
X104269047Y-167139880D01*
X104292857Y-167092261D01*
X104292857Y-166901785D01*
X104269047Y-166854166D01*
X104221428Y-166830357D01*
X104126190Y-166830357D01*
X104078571Y-166854166D01*
X104054761Y-166901785D01*
X104054761Y-166949404D01*
X104292857Y-166997023D01*
X103888095Y-166830357D02*
X103769047Y-167163690D01*
X103650000Y-166830357D01*
X103459523Y-167116071D02*
X103435714Y-167139880D01*
X103459523Y-167163690D01*
X103483333Y-167139880D01*
X103459523Y-167116071D01*
X103459523Y-167163690D01*
X103245238Y-167020833D02*
X103007142Y-167020833D01*
X103292857Y-167163690D02*
X103126190Y-166663690D01*
X102959523Y-167163690D01*
X102840476Y-167354166D02*
X102816666Y-167330357D01*
X102769047Y-167258928D01*
X102745238Y-167211309D01*
X102721428Y-167139880D01*
X102697619Y-167020833D01*
X102697619Y-166925595D01*
X102721428Y-166806547D01*
X102745238Y-166735119D01*
X102769047Y-166687500D01*
X102816666Y-166616071D01*
X102840476Y-166592261D01*
D11*
X98150000Y-164317857D02*
X97959523Y-164317857D01*
X98054761Y-164413095D02*
X98054761Y-164222619D01*
X97864285Y-164163095D02*
X97709523Y-164163095D01*
X97792857Y-164258333D01*
X97757142Y-164258333D01*
X97733333Y-164270238D01*
X97721428Y-164282142D01*
X97709523Y-164305952D01*
X97709523Y-164365476D01*
X97721428Y-164389285D01*
X97733333Y-164401190D01*
X97757142Y-164413095D01*
X97828571Y-164413095D01*
X97852380Y-164401190D01*
X97864285Y-164389285D01*
X97602380Y-164389285D02*
X97590476Y-164401190D01*
X97602380Y-164413095D01*
X97614285Y-164401190D01*
X97602380Y-164389285D01*
X97602380Y-164413095D01*
X97507142Y-164163095D02*
X97352380Y-164163095D01*
X97435714Y-164258333D01*
X97400000Y-164258333D01*
X97376190Y-164270238D01*
X97364285Y-164282142D01*
X97352380Y-164305952D01*
X97352380Y-164365476D01*
X97364285Y-164389285D01*
X97376190Y-164401190D01*
X97400000Y-164413095D01*
X97471428Y-164413095D01*
X97495238Y-164401190D01*
X97507142Y-164389285D01*
X97280952Y-164163095D02*
X97197619Y-164413095D01*
X97114285Y-164163095D01*
X96490476Y-164175000D02*
X96514285Y-164163095D01*
X96550000Y-164163095D01*
X96585714Y-164175000D01*
X96609523Y-164198809D01*
X96621428Y-164222619D01*
X96633333Y-164270238D01*
X96633333Y-164305952D01*
X96621428Y-164353571D01*
X96609523Y-164377380D01*
X96585714Y-164401190D01*
X96550000Y-164413095D01*
X96526190Y-164413095D01*
X96490476Y-164401190D01*
X96478571Y-164389285D01*
X96478571Y-164305952D01*
X96526190Y-164305952D01*
X96371428Y-164413095D02*
X96371428Y-164163095D01*
X96228571Y-164413095D01*
X96228571Y-164163095D01*
X96109523Y-164413095D02*
X96109523Y-164163095D01*
X96050000Y-164163095D01*
X96014285Y-164175000D01*
X95990476Y-164198809D01*
X95978571Y-164222619D01*
X95966666Y-164270238D01*
X95966666Y-164305952D01*
X95978571Y-164353571D01*
X95990476Y-164377380D01*
X96014285Y-164401190D01*
X96050000Y-164413095D01*
X96109523Y-164413095D01*
X95190476Y-164175000D02*
X95214285Y-164163095D01*
X95250000Y-164163095D01*
X95285714Y-164175000D01*
X95309523Y-164198809D01*
X95321428Y-164222619D01*
X95333333Y-164270238D01*
X95333333Y-164305952D01*
X95321428Y-164353571D01*
X95309523Y-164377380D01*
X95285714Y-164401190D01*
X95250000Y-164413095D01*
X95226190Y-164413095D01*
X95190476Y-164401190D01*
X95178571Y-164389285D01*
X95178571Y-164305952D01*
X95226190Y-164305952D01*
X95071428Y-164413095D02*
X95071428Y-164163095D01*
X94928571Y-164413095D01*
X94928571Y-164163095D01*
X94809523Y-164413095D02*
X94809523Y-164163095D01*
X94750000Y-164163095D01*
X94714285Y-164175000D01*
X94690476Y-164198809D01*
X94678571Y-164222619D01*
X94666666Y-164270238D01*
X94666666Y-164305952D01*
X94678571Y-164353571D01*
X94690476Y-164377380D01*
X94714285Y-164401190D01*
X94750000Y-164413095D01*
X94809523Y-164413095D01*
X92640476Y-164175000D02*
X92664285Y-164163095D01*
X92700000Y-164163095D01*
X92735714Y-164175000D01*
X92759523Y-164198809D01*
X92771428Y-164222619D01*
X92783333Y-164270238D01*
X92783333Y-164305952D01*
X92771428Y-164353571D01*
X92759523Y-164377380D01*
X92735714Y-164401190D01*
X92700000Y-164413095D01*
X92676190Y-164413095D01*
X92640476Y-164401190D01*
X92628571Y-164389285D01*
X92628571Y-164305952D01*
X92676190Y-164305952D01*
X92521428Y-164413095D02*
X92521428Y-164163095D01*
X92378571Y-164413095D01*
X92378571Y-164163095D01*
X92259523Y-164413095D02*
X92259523Y-164163095D01*
X92200000Y-164163095D01*
X92164285Y-164175000D01*
X92140476Y-164198809D01*
X92128571Y-164222619D01*
X92116666Y-164270238D01*
X92116666Y-164305952D01*
X92128571Y-164353571D01*
X92140476Y-164377380D01*
X92164285Y-164401190D01*
X92200000Y-164413095D01*
X92259523Y-164413095D01*
X92960714Y-167463095D02*
X92960714Y-167213095D01*
X92817857Y-167463095D01*
X92817857Y-167213095D01*
X92555952Y-167463095D02*
X92639285Y-167344047D01*
X92698809Y-167463095D02*
X92698809Y-167213095D01*
X92603571Y-167213095D01*
X92579761Y-167225000D01*
X92567857Y-167236904D01*
X92555952Y-167260714D01*
X92555952Y-167296428D01*
X92567857Y-167320238D01*
X92579761Y-167332142D01*
X92603571Y-167344047D01*
X92698809Y-167344047D01*
X92460714Y-167451190D02*
X92425000Y-167463095D01*
X92365476Y-167463095D01*
X92341666Y-167451190D01*
X92329761Y-167439285D01*
X92317857Y-167415476D01*
X92317857Y-167391666D01*
X92329761Y-167367857D01*
X92341666Y-167355952D01*
X92365476Y-167344047D01*
X92413095Y-167332142D01*
X92436904Y-167320238D01*
X92448809Y-167308333D01*
X92460714Y-167284523D01*
X92460714Y-167260714D01*
X92448809Y-167236904D01*
X92436904Y-167225000D01*
X92413095Y-167213095D01*
X92353571Y-167213095D01*
X92317857Y-167225000D01*
X92246428Y-167213095D02*
X92103571Y-167213095D01*
X92175000Y-167463095D02*
X92175000Y-167213095D01*
X98229761Y-167451190D02*
X98194047Y-167463095D01*
X98134523Y-167463095D01*
X98110714Y-167451190D01*
X98098809Y-167439285D01*
X98086904Y-167415476D01*
X98086904Y-167391666D01*
X98098809Y-167367857D01*
X98110714Y-167355952D01*
X98134523Y-167344047D01*
X98182142Y-167332142D01*
X98205952Y-167320238D01*
X98217857Y-167308333D01*
X98229761Y-167284523D01*
X98229761Y-167260714D01*
X98217857Y-167236904D01*
X98205952Y-167225000D01*
X98182142Y-167213095D01*
X98122619Y-167213095D01*
X98086904Y-167225000D01*
X98003571Y-167213095D02*
X97944047Y-167463095D01*
X97896428Y-167284523D01*
X97848809Y-167463095D01*
X97789285Y-167213095D01*
X97694047Y-167463095D02*
X97694047Y-167213095D01*
X97634523Y-167213095D01*
X97598809Y-167225000D01*
X97575000Y-167248809D01*
X97563095Y-167272619D01*
X97551190Y-167320238D01*
X97551190Y-167355952D01*
X97563095Y-167403571D01*
X97575000Y-167427380D01*
X97598809Y-167451190D01*
X97634523Y-167463095D01*
X97694047Y-167463095D01*
X97444047Y-167463095D02*
X97444047Y-167213095D01*
X97277380Y-167213095D02*
X97229761Y-167213095D01*
X97205952Y-167225000D01*
X97182142Y-167248809D01*
X97170238Y-167296428D01*
X97170238Y-167379761D01*
X97182142Y-167427380D01*
X97205952Y-167451190D01*
X97229761Y-167463095D01*
X97277380Y-167463095D01*
X97301190Y-167451190D01*
X97325000Y-167427380D01*
X97336904Y-167379761D01*
X97336904Y-167296428D01*
X97325000Y-167248809D01*
X97301190Y-167225000D01*
X97277380Y-167213095D01*
X96915476Y-167451190D02*
X96879761Y-167463095D01*
X96820238Y-167463095D01*
X96796428Y-167451190D01*
X96784523Y-167439285D01*
X96772619Y-167415476D01*
X96772619Y-167391666D01*
X96784523Y-167367857D01*
X96796428Y-167355952D01*
X96820238Y-167344047D01*
X96867857Y-167332142D01*
X96891666Y-167320238D01*
X96903571Y-167308333D01*
X96915476Y-167284523D01*
X96915476Y-167260714D01*
X96903571Y-167236904D01*
X96891666Y-167225000D01*
X96867857Y-167213095D01*
X96808333Y-167213095D01*
X96772619Y-167225000D01*
X96689285Y-167213095D02*
X96629761Y-167463095D01*
X96582142Y-167284523D01*
X96534523Y-167463095D01*
X96475000Y-167213095D01*
X96236904Y-167439285D02*
X96248809Y-167451190D01*
X96284523Y-167463095D01*
X96308333Y-167463095D01*
X96344047Y-167451190D01*
X96367857Y-167427380D01*
X96379761Y-167403571D01*
X96391666Y-167355952D01*
X96391666Y-167320238D01*
X96379761Y-167272619D01*
X96367857Y-167248809D01*
X96344047Y-167225000D01*
X96308333Y-167213095D01*
X96284523Y-167213095D01*
X96248809Y-167225000D01*
X96236904Y-167236904D01*
X96010714Y-167463095D02*
X96129761Y-167463095D01*
X96129761Y-167213095D01*
X95927380Y-167463095D02*
X95927380Y-167213095D01*
X95784523Y-167463095D02*
X95891666Y-167320238D01*
X95784523Y-167213095D02*
X95927380Y-167355952D01*
D12*
X92600000Y-158576785D02*
X92600000Y-157826785D01*
X92421428Y-157826785D01*
X92314285Y-157862500D01*
X92242857Y-157933928D01*
X92207142Y-158005357D01*
X92171428Y-158148214D01*
X92171428Y-158255357D01*
X92207142Y-158398214D01*
X92242857Y-158469642D01*
X92314285Y-158541071D01*
X92421428Y-158576785D01*
X92600000Y-158576785D01*
X91564285Y-158541071D02*
X91635714Y-158576785D01*
X91778571Y-158576785D01*
X91850000Y-158541071D01*
X91885714Y-158469642D01*
X91885714Y-158183928D01*
X91850000Y-158112500D01*
X91778571Y-158076785D01*
X91635714Y-158076785D01*
X91564285Y-158112500D01*
X91528571Y-158183928D01*
X91528571Y-158255357D01*
X91885714Y-158326785D01*
X91242857Y-158541071D02*
X91171428Y-158576785D01*
X91028571Y-158576785D01*
X90957142Y-158541071D01*
X90921428Y-158469642D01*
X90921428Y-158433928D01*
X90957142Y-158362500D01*
X91028571Y-158326785D01*
X91135714Y-158326785D01*
X91207142Y-158291071D01*
X91242857Y-158219642D01*
X91242857Y-158183928D01*
X91207142Y-158112500D01*
X91135714Y-158076785D01*
X91028571Y-158076785D01*
X90957142Y-158112500D01*
X90600000Y-158576785D02*
X90600000Y-158076785D01*
X90600000Y-157826785D02*
X90635714Y-157862500D01*
X90600000Y-157898214D01*
X90564285Y-157862500D01*
X90600000Y-157826785D01*
X90600000Y-157898214D01*
X89921428Y-158076785D02*
X89921428Y-158683928D01*
X89957142Y-158755357D01*
X89992857Y-158791071D01*
X90064285Y-158826785D01*
X90171428Y-158826785D01*
X90242857Y-158791071D01*
X89921428Y-158541071D02*
X89992857Y-158576785D01*
X90135714Y-158576785D01*
X90207142Y-158541071D01*
X90242857Y-158505357D01*
X90278571Y-158433928D01*
X90278571Y-158219642D01*
X90242857Y-158148214D01*
X90207142Y-158112500D01*
X90135714Y-158076785D01*
X89992857Y-158076785D01*
X89921428Y-158112500D01*
X89564285Y-158076785D02*
X89564285Y-158576785D01*
X89564285Y-158148214D02*
X89528571Y-158112500D01*
X89457142Y-158076785D01*
X89350000Y-158076785D01*
X89278571Y-158112500D01*
X89242857Y-158183928D01*
X89242857Y-158576785D01*
X88600000Y-158541071D02*
X88671428Y-158576785D01*
X88814285Y-158576785D01*
X88885714Y-158541071D01*
X88921428Y-158469642D01*
X88921428Y-158183928D01*
X88885714Y-158112500D01*
X88814285Y-158076785D01*
X88671428Y-158076785D01*
X88600000Y-158112500D01*
X88564285Y-158183928D01*
X88564285Y-158255357D01*
X88921428Y-158326785D01*
X87921428Y-158576785D02*
X87921428Y-157826785D01*
X87921428Y-158541071D02*
X87992857Y-158576785D01*
X88135714Y-158576785D01*
X88207142Y-158541071D01*
X88242857Y-158505357D01*
X88278571Y-158433928D01*
X88278571Y-158219642D01*
X88242857Y-158148214D01*
X88207142Y-158112500D01*
X88135714Y-158076785D01*
X87992857Y-158076785D01*
X87921428Y-158112500D01*
X86992857Y-158576785D02*
X86992857Y-157826785D01*
X86992857Y-158112500D02*
X86921428Y-158076785D01*
X86778571Y-158076785D01*
X86707142Y-158112500D01*
X86671428Y-158148214D01*
X86635714Y-158219642D01*
X86635714Y-158433928D01*
X86671428Y-158505357D01*
X86707142Y-158541071D01*
X86778571Y-158576785D01*
X86921428Y-158576785D01*
X86992857Y-158541071D01*
X86385714Y-158076785D02*
X86207142Y-158576785D01*
X86028571Y-158076785D02*
X86207142Y-158576785D01*
X86278571Y-158755357D01*
X86314285Y-158791071D01*
X86385714Y-158826785D01*
X91617857Y-159532142D02*
X91617857Y-159889285D01*
X91867857Y-159139285D02*
X91617857Y-159532142D01*
X91367857Y-159139285D01*
X90796428Y-159889285D02*
X90796428Y-159496428D01*
X90832142Y-159425000D01*
X90903571Y-159389285D01*
X91046428Y-159389285D01*
X91117857Y-159425000D01*
X90796428Y-159853571D02*
X90867857Y-159889285D01*
X91046428Y-159889285D01*
X91117857Y-159853571D01*
X91153571Y-159782142D01*
X91153571Y-159710714D01*
X91117857Y-159639285D01*
X91046428Y-159603571D01*
X90867857Y-159603571D01*
X90796428Y-159567857D01*
X90475000Y-159853571D02*
X90403571Y-159889285D01*
X90260714Y-159889285D01*
X90189285Y-159853571D01*
X90153571Y-159782142D01*
X90153571Y-159746428D01*
X90189285Y-159675000D01*
X90260714Y-159639285D01*
X90367857Y-159639285D01*
X90439285Y-159603571D01*
X90475000Y-159532142D01*
X90475000Y-159496428D01*
X90439285Y-159425000D01*
X90367857Y-159389285D01*
X90260714Y-159389285D01*
X90189285Y-159425000D01*
X89903571Y-159389285D02*
X89760714Y-159889285D01*
X89617857Y-159532142D01*
X89475000Y-159889285D01*
X89332142Y-159389285D01*
X88725000Y-159889285D02*
X88725000Y-159496428D01*
X88760714Y-159425000D01*
X88832142Y-159389285D01*
X88975000Y-159389285D01*
X89046428Y-159425000D01*
X88725000Y-159853571D02*
X88796428Y-159889285D01*
X88975000Y-159889285D01*
X89046428Y-159853571D01*
X89082142Y-159782142D01*
X89082142Y-159710714D01*
X89046428Y-159639285D01*
X88975000Y-159603571D01*
X88796428Y-159603571D01*
X88725000Y-159567857D01*
X88367857Y-159389285D02*
X88367857Y-159889285D01*
X88367857Y-159460714D02*
X88332142Y-159425000D01*
X88260714Y-159389285D01*
X88153571Y-159389285D01*
X88082142Y-159425000D01*
X88046428Y-159496428D01*
X88046428Y-159889285D01*
X87796428Y-159389285D02*
X87510714Y-159389285D01*
X87689285Y-159139285D02*
X87689285Y-159782142D01*
X87653571Y-159853571D01*
X87582142Y-159889285D01*
X87510714Y-159889285D01*
X87260714Y-159889285D02*
X87260714Y-159139285D01*
X86939285Y-159889285D02*
X86939285Y-159496428D01*
X86975000Y-159425000D01*
X87046428Y-159389285D01*
X87153571Y-159389285D01*
X87225000Y-159425000D01*
X87260714Y-159460714D01*
X92939285Y-161130357D02*
X92975000Y-161166071D01*
X93082142Y-161201785D01*
X93153571Y-161201785D01*
X93260714Y-161166071D01*
X93332142Y-161094642D01*
X93367857Y-161023214D01*
X93403571Y-160880357D01*
X93403571Y-160773214D01*
X93367857Y-160630357D01*
X93332142Y-160558928D01*
X93260714Y-160487500D01*
X93153571Y-160451785D01*
X93082142Y-160451785D01*
X92975000Y-160487500D01*
X92939285Y-160523214D01*
X92617857Y-161201785D02*
X92617857Y-160451785D01*
X92296428Y-161201785D02*
X92296428Y-160808928D01*
X92332142Y-160737500D01*
X92403571Y-160701785D01*
X92510714Y-160701785D01*
X92582142Y-160737500D01*
X92617857Y-160773214D01*
X91617857Y-161201785D02*
X91617857Y-160808928D01*
X91653571Y-160737500D01*
X91725000Y-160701785D01*
X91867857Y-160701785D01*
X91939285Y-160737500D01*
X91617857Y-161166071D02*
X91689285Y-161201785D01*
X91867857Y-161201785D01*
X91939285Y-161166071D01*
X91975000Y-161094642D01*
X91975000Y-161023214D01*
X91939285Y-160951785D01*
X91867857Y-160916071D01*
X91689285Y-160916071D01*
X91617857Y-160880357D01*
X91153571Y-161201785D02*
X91225000Y-161166071D01*
X91260714Y-161094642D01*
X91260714Y-160451785D01*
X90546428Y-161201785D02*
X90546428Y-160808928D01*
X90582142Y-160737500D01*
X90653571Y-160701785D01*
X90796428Y-160701785D01*
X90867857Y-160737500D01*
X90546428Y-161166071D02*
X90617857Y-161201785D01*
X90796428Y-161201785D01*
X90867857Y-161166071D01*
X90903571Y-161094642D01*
X90903571Y-161023214D01*
X90867857Y-160951785D01*
X90796428Y-160916071D01*
X90617857Y-160916071D01*
X90546428Y-160880357D01*
X90189285Y-161201785D02*
X90189285Y-160701785D01*
X90189285Y-160773214D02*
X90153571Y-160737500D01*
X90082142Y-160701785D01*
X89975000Y-160701785D01*
X89903571Y-160737500D01*
X89867857Y-160808928D01*
X89867857Y-161201785D01*
X89867857Y-160808928D02*
X89832142Y-160737500D01*
X89760714Y-160701785D01*
X89653571Y-160701785D01*
X89582142Y-160737500D01*
X89546428Y-160808928D01*
X89546428Y-161201785D01*
X88867857Y-161201785D02*
X88867857Y-160808928D01*
X88903571Y-160737500D01*
X88975000Y-160701785D01*
X89117857Y-160701785D01*
X89189285Y-160737500D01*
X88867857Y-161166071D02*
X88939285Y-161201785D01*
X89117857Y-161201785D01*
X89189285Y-161166071D01*
X89225000Y-161094642D01*
X89225000Y-161023214D01*
X89189285Y-160951785D01*
X89117857Y-160916071D01*
X88939285Y-160916071D01*
X88867857Y-160880357D01*
X88403571Y-161201785D02*
X88475000Y-161166071D01*
X88510714Y-161094642D01*
X88510714Y-160451785D01*
X87796428Y-161201785D02*
X87796428Y-160808928D01*
X87832142Y-160737500D01*
X87903571Y-160701785D01*
X88046428Y-160701785D01*
X88117857Y-160737500D01*
X87796428Y-161166071D02*
X87867857Y-161201785D01*
X88046428Y-161201785D01*
X88117857Y-161166071D01*
X88153571Y-161094642D01*
X88153571Y-161023214D01*
X88117857Y-160951785D01*
X88046428Y-160916071D01*
X87867857Y-160916071D01*
X87796428Y-160880357D01*
X87475000Y-161166071D02*
X87403571Y-161201785D01*
X87260714Y-161201785D01*
X87189285Y-161166071D01*
X87153571Y-161094642D01*
X87153571Y-161058928D01*
X87189285Y-160987500D01*
X87260714Y-160951785D01*
X87367857Y-160951785D01*
X87439285Y-160916071D01*
X87475000Y-160844642D01*
X87475000Y-160808928D01*
X87439285Y-160737500D01*
X87367857Y-160701785D01*
X87260714Y-160701785D01*
X87189285Y-160737500D01*
X86546428Y-161166071D02*
X86617857Y-161201785D01*
X86760714Y-161201785D01*
X86832142Y-161166071D01*
X86867857Y-161094642D01*
X86867857Y-160808928D01*
X86832142Y-160737500D01*
X86760714Y-160701785D01*
X86617857Y-160701785D01*
X86546428Y-160737500D01*
X86510714Y-160808928D01*
X86510714Y-160880357D01*
X86867857Y-160951785D01*
X86296428Y-160701785D02*
X86010714Y-160701785D01*
X86189285Y-160451785D02*
X86189285Y-161094642D01*
X86153571Y-161166071D01*
X86082142Y-161201785D01*
X86010714Y-161201785D01*
X85867857Y-160701785D02*
X85582142Y-160701785D01*
X85760714Y-160451785D02*
X85760714Y-161094642D01*
X85725000Y-161166071D01*
X85653571Y-161201785D01*
X85582142Y-161201785D01*
X85332142Y-161201785D02*
X85332142Y-160701785D01*
X85332142Y-160451785D02*
X85367857Y-160487500D01*
X85332142Y-160523214D01*
X85296428Y-160487500D01*
X85332142Y-160451785D01*
X85332142Y-160523214D01*
M02*
