%TF.GenerationSoftware,KiCad,Pcbnew,(5.1.9)-1*%
%TF.CreationDate,2021-11-01T00:10:38+05:30*%
%TF.ProjectId,STM32-nRF24,53544d33-322d-46e5-9246-32342e6b6963,Rev. A*%
%TF.SameCoordinates,Original*%
%TF.FileFunction,Copper,L4,Bot*%
%TF.FilePolarity,Positive*%
%FSLAX46Y46*%
G04 Gerber Fmt 4.6, Leading zero omitted, Abs format (unit mm)*
G04 Created by KiCad (PCBNEW (5.1.9)-1) date 2021-11-01 00:10:38*
%MOMM*%
%LPD*%
G01*
G04 APERTURE LIST*
%TA.AperFunction,ComponentPad*%
%ADD10C,1.950000*%
%TD*%
%TA.AperFunction,SMDPad,CuDef*%
%ADD11R,4.200000X1.350000*%
%TD*%
%TA.AperFunction,ComponentPad*%
%ADD12R,1.000000X1.000000*%
%TD*%
%TA.AperFunction,ComponentPad*%
%ADD13O,1.000000X1.000000*%
%TD*%
%TA.AperFunction,ViaPad*%
%ADD14C,0.800000*%
%TD*%
%TA.AperFunction,ViaPad*%
%ADD15C,0.700000*%
%TD*%
%TA.AperFunction,ViaPad*%
%ADD16C,0.600000*%
%TD*%
%TA.AperFunction,ViaPad*%
%ADD17C,0.500000*%
%TD*%
%TA.AperFunction,Conductor*%
%ADD18C,1.000000*%
%TD*%
%TA.AperFunction,Conductor*%
%ADD19C,0.300000*%
%TD*%
%TA.AperFunction,Conductor*%
%ADD20C,0.250000*%
%TD*%
%TA.AperFunction,Conductor*%
%ADD21C,0.254000*%
%TD*%
%TA.AperFunction,Conductor*%
%ADD22C,0.100000*%
%TD*%
G04 APERTURE END LIST*
D10*
%TO.P,J1,MH1*%
%TO.N,N/C*%
X84075000Y-157400000D03*
%TO.P,J1,MH2*%
X84075000Y-164000000D03*
%TD*%
D11*
%TO.P,J2,2*%
%TO.N,GND*%
X125150000Y-157475000D03*
X125150000Y-163125000D03*
%TD*%
D12*
%TO.P,J3,1*%
%TO.N,+3V3*%
X97590000Y-165200000D03*
D13*
%TO.P,J3,2*%
%TO.N,SWDIO*%
X97590000Y-166470000D03*
%TO.P,J3,3*%
%TO.N,GND*%
X96320000Y-165200000D03*
%TO.P,J3,4*%
%TO.N,SWCLK*%
X96320000Y-166470000D03*
%TO.P,J3,5*%
%TO.N,GND*%
X95050000Y-165200000D03*
%TO.P,J3,6*%
%TO.N,Net-(J3-Pad6)*%
X95050000Y-166470000D03*
%TO.P,J3,7*%
%TO.N,Net-(J3-Pad7)*%
X93780000Y-165200000D03*
%TO.P,J3,8*%
%TO.N,Net-(J3-Pad8)*%
X93780000Y-166470000D03*
%TO.P,J3,9*%
%TO.N,GND*%
X92510000Y-165200000D03*
%TO.P,J3,10*%
%TO.N,NRST*%
X92510000Y-166470000D03*
%TD*%
D14*
%TO.N,GND*%
X126950000Y-154100000D03*
X127150000Y-155900000D03*
X116550000Y-159100000D03*
X122450000Y-157900000D03*
X122550000Y-162700000D03*
X120950000Y-163400000D03*
X120950000Y-162300000D03*
X121650000Y-158400000D03*
X122550000Y-163600000D03*
X122450000Y-157000000D03*
X112450000Y-161100000D03*
X111250000Y-161100000D03*
X112450000Y-160000000D03*
X108000000Y-164000000D03*
X90750000Y-163800000D03*
X94550000Y-154500000D03*
X111950000Y-154200000D03*
X114750000Y-159200000D03*
X112750000Y-157400000D03*
X114750000Y-166900000D03*
X102050000Y-156800000D03*
X102050000Y-155900000D03*
X109250000Y-165200000D03*
X100450000Y-163800000D03*
X109000000Y-157450000D03*
X108650000Y-156400000D03*
X88200000Y-162100000D03*
D15*
X100800000Y-161800000D03*
D14*
X100150000Y-155700000D03*
X91800000Y-162900000D03*
X100250000Y-162800000D03*
X109650000Y-156400000D03*
X109350000Y-158400000D03*
X114450000Y-154400000D03*
X111250000Y-160000000D03*
X95150000Y-158050000D03*
X110550000Y-156000000D03*
X107400000Y-164750000D03*
X115550000Y-159700000D03*
X115350000Y-154400000D03*
X109650000Y-155450000D03*
X108650000Y-155450000D03*
X93650000Y-154500000D03*
X89150000Y-162100000D03*
X90750000Y-162900000D03*
X92250000Y-162150000D03*
X94250000Y-158000000D03*
X100700000Y-160500000D03*
X99800000Y-160500000D03*
X98900000Y-160500000D03*
X100150000Y-156600000D03*
X116550000Y-157400000D03*
X116550000Y-155800000D03*
X116550000Y-154200000D03*
X118450000Y-154000000D03*
X120350000Y-154000000D03*
X122550000Y-154000000D03*
X124750000Y-154000000D03*
X116550000Y-163100000D03*
X116550000Y-164800000D03*
X116550000Y-166500000D03*
X117900000Y-167450000D03*
X119800000Y-167450000D03*
X121902010Y-167450000D03*
X124000000Y-167450000D03*
X126200000Y-167450000D03*
X127150000Y-166500000D03*
X127150000Y-165000000D03*
X123650000Y-164300000D03*
X124850000Y-164300000D03*
X126050000Y-164300000D03*
X123550000Y-156200000D03*
X124950000Y-156200000D03*
X126150000Y-156200000D03*
D16*
X107000000Y-158300000D03*
D14*
X87800000Y-166750000D03*
X86850000Y-166750000D03*
%TO.N,+3V3*%
X83800000Y-154900000D03*
X110650000Y-154500000D03*
X110950000Y-163900000D03*
X101850000Y-163500000D03*
X105650000Y-156300000D03*
X104850000Y-155900000D03*
X114350000Y-157500000D03*
X97000000Y-161800000D03*
X96100000Y-161800000D03*
D17*
%TO.N,NRST*%
X90750000Y-166500000D03*
X104750000Y-157400000D03*
%TO.N,SPI3_MISO*%
X107800000Y-161650000D03*
X109100000Y-161640000D03*
%TO.N,SPI3_MOSI*%
X107800000Y-161100000D03*
X109100000Y-161100000D03*
%TD*%
D18*
%TO.N,GND*%
X122550000Y-162700000D02*
X122550000Y-163600000D01*
X122450000Y-157000000D02*
X122450000Y-157900000D01*
X122925000Y-157475000D02*
X122450000Y-157000000D01*
X125150000Y-157475000D02*
X122925000Y-157475000D01*
X122875000Y-157475000D02*
X122450000Y-157900000D01*
X125150000Y-157475000D02*
X122875000Y-157475000D01*
X123025000Y-163125000D02*
X122550000Y-163600000D01*
X125150000Y-163125000D02*
X123025000Y-163125000D01*
X122975000Y-163125000D02*
X122550000Y-162700000D01*
X125150000Y-163125000D02*
X122975000Y-163125000D01*
D19*
%TO.N,NRST*%
X98685037Y-157727001D02*
X104422999Y-157727001D01*
X90750000Y-165662038D02*
X98685037Y-157727001D01*
X104422999Y-157727001D02*
X104750000Y-157400000D01*
X90750000Y-166500000D02*
X90750000Y-165662038D01*
%TO.N,SPI3_MISO*%
X107810000Y-161640000D02*
X107800000Y-161650000D01*
D20*
X109100000Y-161640000D02*
X107810000Y-161640000D01*
%TO.N,SPI3_MOSI*%
X107800000Y-161100000D02*
X109100000Y-161100000D01*
%TD*%
D21*
%TO.N,GND*%
X109732795Y-154009744D02*
X109654774Y-154198102D01*
X109615000Y-154398061D01*
X109615000Y-154601939D01*
X109654774Y-154801898D01*
X109732795Y-154990256D01*
X109846063Y-155159774D01*
X109990226Y-155303937D01*
X110159744Y-155417205D01*
X110348102Y-155495226D01*
X110548061Y-155535000D01*
X110751939Y-155535000D01*
X110951898Y-155495226D01*
X111140256Y-155417205D01*
X111309774Y-155303937D01*
X111453937Y-155159774D01*
X111567205Y-154990256D01*
X111645226Y-154801898D01*
X111685000Y-154601939D01*
X111685000Y-154398061D01*
X111645226Y-154198102D01*
X111567205Y-154009744D01*
X111467150Y-153860000D01*
X113623000Y-153860000D01*
X113623000Y-156763289D01*
X113546063Y-156840226D01*
X113432795Y-157009744D01*
X113354774Y-157198102D01*
X113315000Y-157398061D01*
X113315000Y-157601939D01*
X113354774Y-157801898D01*
X113432795Y-157990256D01*
X113546063Y-158159774D01*
X113623000Y-158236711D01*
X113623000Y-163076631D01*
X111580692Y-163076631D01*
X111440256Y-162982795D01*
X111251898Y-162904774D01*
X111051939Y-162865000D01*
X110848061Y-162865000D01*
X110648102Y-162904774D01*
X110459744Y-162982795D01*
X110290226Y-163096063D01*
X110146063Y-163240226D01*
X110032795Y-163409744D01*
X109954774Y-163598102D01*
X109915000Y-163798061D01*
X109915000Y-164001939D01*
X109949748Y-164176631D01*
X108450000Y-164176631D01*
X108425224Y-164179071D01*
X108401399Y-164186298D01*
X108379443Y-164198034D01*
X108360197Y-164213828D01*
X108344403Y-164233074D01*
X108332667Y-164255030D01*
X108325440Y-164278855D01*
X108323000Y-164303631D01*
X108323000Y-167540000D01*
X97972690Y-167540000D01*
X98127624Y-167475824D01*
X98313520Y-167351612D01*
X98471612Y-167193520D01*
X98595824Y-167007624D01*
X98681383Y-166801067D01*
X98725000Y-166581788D01*
X98725000Y-166358212D01*
X98681383Y-166138933D01*
X98635112Y-166027226D01*
X98679502Y-165944180D01*
X98715812Y-165824482D01*
X98728072Y-165700000D01*
X98728072Y-164700000D01*
X98715812Y-164575518D01*
X98679502Y-164455820D01*
X98620537Y-164345506D01*
X98541185Y-164248815D01*
X98444494Y-164169463D01*
X98334180Y-164110498D01*
X98214482Y-164074188D01*
X98090000Y-164061928D01*
X97090000Y-164061928D01*
X96965518Y-164074188D01*
X96845820Y-164110498D01*
X96756820Y-164158070D01*
X96676864Y-164122554D01*
X96621874Y-164105881D01*
X96447000Y-164232046D01*
X96447000Y-165073000D01*
X96451928Y-165073000D01*
X96451928Y-165327000D01*
X96447000Y-165327000D01*
X96447000Y-165338026D01*
X96431788Y-165335000D01*
X96208212Y-165335000D01*
X96193000Y-165338026D01*
X96193000Y-165327000D01*
X95177000Y-165327000D01*
X95177000Y-165338026D01*
X95161788Y-165335000D01*
X94938212Y-165335000D01*
X94923000Y-165338026D01*
X94923000Y-165327000D01*
X94911974Y-165327000D01*
X94915000Y-165311788D01*
X94915000Y-165088212D01*
X94911974Y-165073000D01*
X94923000Y-165073000D01*
X94923000Y-164232046D01*
X95177000Y-164232046D01*
X95177000Y-165073000D01*
X96193000Y-165073000D01*
X96193000Y-164232046D01*
X96018126Y-164105881D01*
X95963136Y-164122554D01*
X95759794Y-164212877D01*
X95685000Y-164265639D01*
X95610206Y-164212877D01*
X95406864Y-164122554D01*
X95351874Y-164105881D01*
X95177000Y-164232046D01*
X94923000Y-164232046D01*
X94748126Y-164105881D01*
X94693136Y-164122554D01*
X94489794Y-164212877D01*
X94419658Y-164262353D01*
X94317624Y-164194176D01*
X94111067Y-164108617D01*
X93891788Y-164065000D01*
X93668212Y-164065000D01*
X93448933Y-164108617D01*
X93388579Y-164133617D01*
X94124134Y-163398061D01*
X100815000Y-163398061D01*
X100815000Y-163601939D01*
X100854774Y-163801898D01*
X100932795Y-163990256D01*
X101046063Y-164159774D01*
X101190226Y-164303937D01*
X101359744Y-164417205D01*
X101548102Y-164495226D01*
X101748061Y-164535000D01*
X101951939Y-164535000D01*
X102151898Y-164495226D01*
X102340256Y-164417205D01*
X102509774Y-164303937D01*
X102653937Y-164159774D01*
X102767205Y-163990256D01*
X102845226Y-163801898D01*
X102885000Y-163601939D01*
X102885000Y-163398061D01*
X102845226Y-163198102D01*
X102767205Y-163009744D01*
X102653937Y-162840226D01*
X102509774Y-162696063D01*
X102340256Y-162582795D01*
X102151898Y-162504774D01*
X101951939Y-162465000D01*
X101748061Y-162465000D01*
X101548102Y-162504774D01*
X101359744Y-162582795D01*
X101190226Y-162696063D01*
X101046063Y-162840226D01*
X100932795Y-163009744D01*
X100854774Y-163198102D01*
X100815000Y-163398061D01*
X94124134Y-163398061D01*
X95202479Y-162319716D01*
X95296063Y-162459774D01*
X95440226Y-162603937D01*
X95609744Y-162717205D01*
X95798102Y-162795226D01*
X95998061Y-162835000D01*
X96201939Y-162835000D01*
X96401898Y-162795226D01*
X96550000Y-162733880D01*
X96698102Y-162795226D01*
X96898061Y-162835000D01*
X97101939Y-162835000D01*
X97301898Y-162795226D01*
X97490256Y-162717205D01*
X97659774Y-162603937D01*
X97803937Y-162459774D01*
X97917205Y-162290256D01*
X97995226Y-162101898D01*
X98035000Y-161901939D01*
X98035000Y-161698061D01*
X97995226Y-161498102D01*
X97917205Y-161309744D01*
X97803937Y-161140226D01*
X97676546Y-161012835D01*
X106915000Y-161012835D01*
X106915000Y-161187165D01*
X106949010Y-161358145D01*
X106955992Y-161375000D01*
X106949010Y-161391855D01*
X106915000Y-161562835D01*
X106915000Y-161737165D01*
X106949010Y-161908145D01*
X107015723Y-162069205D01*
X107112576Y-162214155D01*
X107235845Y-162337424D01*
X107380795Y-162434277D01*
X107541855Y-162500990D01*
X107712835Y-162535000D01*
X107887165Y-162535000D01*
X108058145Y-162500990D01*
X108219205Y-162434277D01*
X108270504Y-162400000D01*
X108644462Y-162400000D01*
X108680795Y-162424277D01*
X108841855Y-162490990D01*
X109012835Y-162525000D01*
X109187165Y-162525000D01*
X109358145Y-162490990D01*
X109519205Y-162424277D01*
X109664155Y-162327424D01*
X109787424Y-162204155D01*
X109884277Y-162059205D01*
X109950990Y-161898145D01*
X109985000Y-161727165D01*
X109985000Y-161552835D01*
X109950990Y-161381855D01*
X109946080Y-161370000D01*
X109950990Y-161358145D01*
X109985000Y-161187165D01*
X109985000Y-161012835D01*
X109950990Y-160841855D01*
X109884277Y-160680795D01*
X109787424Y-160535845D01*
X109664155Y-160412576D01*
X109519205Y-160315723D01*
X109358145Y-160249010D01*
X109187165Y-160215000D01*
X109012835Y-160215000D01*
X108841855Y-160249010D01*
X108680795Y-160315723D01*
X108644462Y-160340000D01*
X108255538Y-160340000D01*
X108219205Y-160315723D01*
X108058145Y-160249010D01*
X107887165Y-160215000D01*
X107712835Y-160215000D01*
X107541855Y-160249010D01*
X107380795Y-160315723D01*
X107235845Y-160412576D01*
X107112576Y-160535845D01*
X107015723Y-160680795D01*
X106949010Y-160841855D01*
X106915000Y-161012835D01*
X97676546Y-161012835D01*
X97659774Y-160996063D01*
X97490256Y-160882795D01*
X97301898Y-160804774D01*
X97101939Y-160765000D01*
X96898061Y-160765000D01*
X96722219Y-160799977D01*
X99010195Y-158512001D01*
X104384446Y-158512001D01*
X104422999Y-158515798D01*
X104461552Y-158512001D01*
X104461560Y-158512001D01*
X104576886Y-158500642D01*
X104724859Y-158455755D01*
X104861232Y-158382863D01*
X104980763Y-158284765D01*
X105005346Y-158254811D01*
X105009890Y-158250267D01*
X105169205Y-158184277D01*
X105314155Y-158087424D01*
X105437424Y-157964155D01*
X105534277Y-157819205D01*
X105600990Y-157658145D01*
X105635000Y-157487165D01*
X105635000Y-157335000D01*
X105751939Y-157335000D01*
X105951898Y-157295226D01*
X106140256Y-157217205D01*
X106309774Y-157103937D01*
X106453937Y-156959774D01*
X106567205Y-156790256D01*
X106645226Y-156601898D01*
X106685000Y-156401939D01*
X106685000Y-156198061D01*
X106645226Y-155998102D01*
X106567205Y-155809744D01*
X106453937Y-155640226D01*
X106309774Y-155496063D01*
X106140256Y-155382795D01*
X105951898Y-155304774D01*
X105751939Y-155265000D01*
X105670490Y-155265000D01*
X105653937Y-155240226D01*
X105509774Y-155096063D01*
X105340256Y-154982795D01*
X105151898Y-154904774D01*
X104951939Y-154865000D01*
X104748061Y-154865000D01*
X104548102Y-154904774D01*
X104359744Y-154982795D01*
X104190226Y-155096063D01*
X104046063Y-155240226D01*
X103932795Y-155409744D01*
X103854774Y-155598102D01*
X103815000Y-155798061D01*
X103815000Y-156001939D01*
X103854774Y-156201898D01*
X103932795Y-156390256D01*
X104046063Y-156559774D01*
X104190226Y-156703937D01*
X104194500Y-156706793D01*
X104185845Y-156712576D01*
X104062576Y-156835845D01*
X103991644Y-156942001D01*
X98723592Y-156942001D01*
X98685037Y-156938204D01*
X98646481Y-156942001D01*
X98646476Y-156942001D01*
X98606063Y-156945981D01*
X98531150Y-156953359D01*
X98383177Y-156998247D01*
X98246804Y-157071139D01*
X98186596Y-157120551D01*
X98157224Y-157144656D01*
X98157221Y-157144659D01*
X98127273Y-157169237D01*
X98102695Y-157199185D01*
X90222185Y-165079696D01*
X90192237Y-165104274D01*
X90167659Y-165134222D01*
X90167655Y-165134226D01*
X90134690Y-165174394D01*
X90094139Y-165223805D01*
X90079834Y-165250569D01*
X90021246Y-165360179D01*
X89976359Y-165508152D01*
X89972422Y-165548129D01*
X89965000Y-165623477D01*
X89965000Y-165623485D01*
X89961203Y-165662038D01*
X89965000Y-165700591D01*
X89965000Y-166082540D01*
X89899010Y-166241855D01*
X89865000Y-166412835D01*
X89865000Y-166587165D01*
X89899010Y-166758145D01*
X89965723Y-166919205D01*
X90062576Y-167064155D01*
X90185845Y-167187424D01*
X90330795Y-167284277D01*
X90491855Y-167350990D01*
X90662835Y-167385000D01*
X90837165Y-167385000D01*
X91008145Y-167350990D01*
X91169205Y-167284277D01*
X91314155Y-167187424D01*
X91437424Y-167064155D01*
X91493086Y-166980851D01*
X91504176Y-167007624D01*
X91628388Y-167193520D01*
X91786480Y-167351612D01*
X91972376Y-167475824D01*
X92127310Y-167540000D01*
X82832278Y-167540000D01*
X82811914Y-167538003D01*
X82810000Y-167519794D01*
X82810000Y-165004717D01*
X82824431Y-165026315D01*
X83048685Y-165250569D01*
X83312379Y-165426763D01*
X83605380Y-165548129D01*
X83916429Y-165610000D01*
X84233571Y-165610000D01*
X84544620Y-165548129D01*
X84837621Y-165426763D01*
X85101315Y-165250569D01*
X85325569Y-165026315D01*
X85501763Y-164762621D01*
X85623129Y-164469620D01*
X85685000Y-164158571D01*
X85685000Y-163841429D01*
X85623129Y-163530380D01*
X85501763Y-163237379D01*
X85325569Y-162973685D01*
X85101315Y-162749431D01*
X84837621Y-162573237D01*
X84544620Y-162451871D01*
X84233571Y-162390000D01*
X83916429Y-162390000D01*
X83605380Y-162451871D01*
X83312379Y-162573237D01*
X83048685Y-162749431D01*
X82824431Y-162973685D01*
X82810000Y-162995283D01*
X82810000Y-158404717D01*
X82824431Y-158426315D01*
X83048685Y-158650569D01*
X83312379Y-158826763D01*
X83605380Y-158948129D01*
X83916429Y-159010000D01*
X84233571Y-159010000D01*
X84544620Y-158948129D01*
X84837621Y-158826763D01*
X85101315Y-158650569D01*
X85325569Y-158426315D01*
X85501763Y-158162621D01*
X85623129Y-157869620D01*
X85685000Y-157558571D01*
X85685000Y-157241429D01*
X85623129Y-156930380D01*
X85501763Y-156637379D01*
X85325569Y-156373685D01*
X85101315Y-156149431D01*
X84837621Y-155973237D01*
X84544620Y-155851871D01*
X84308628Y-155804930D01*
X84459774Y-155703937D01*
X84603937Y-155559774D01*
X84717205Y-155390256D01*
X84795226Y-155201898D01*
X84835000Y-155001939D01*
X84835000Y-154798061D01*
X84795226Y-154598102D01*
X84717205Y-154409744D01*
X84603937Y-154240226D01*
X84459774Y-154096063D01*
X84290256Y-153982795D01*
X84101898Y-153904774D01*
X83901939Y-153865000D01*
X83698061Y-153865000D01*
X83498102Y-153904774D01*
X83309744Y-153982795D01*
X83140226Y-154096063D01*
X82996063Y-154240226D01*
X82882795Y-154409744D01*
X82810000Y-154585485D01*
X82810000Y-153882278D01*
X82811997Y-153861914D01*
X82830207Y-153860000D01*
X109832850Y-153860000D01*
X109732795Y-154009744D01*
%TA.AperFunction,Conductor*%
D22*
G36*
X109732795Y-154009744D02*
G01*
X109654774Y-154198102D01*
X109615000Y-154398061D01*
X109615000Y-154601939D01*
X109654774Y-154801898D01*
X109732795Y-154990256D01*
X109846063Y-155159774D01*
X109990226Y-155303937D01*
X110159744Y-155417205D01*
X110348102Y-155495226D01*
X110548061Y-155535000D01*
X110751939Y-155535000D01*
X110951898Y-155495226D01*
X111140256Y-155417205D01*
X111309774Y-155303937D01*
X111453937Y-155159774D01*
X111567205Y-154990256D01*
X111645226Y-154801898D01*
X111685000Y-154601939D01*
X111685000Y-154398061D01*
X111645226Y-154198102D01*
X111567205Y-154009744D01*
X111467150Y-153860000D01*
X113623000Y-153860000D01*
X113623000Y-156763289D01*
X113546063Y-156840226D01*
X113432795Y-157009744D01*
X113354774Y-157198102D01*
X113315000Y-157398061D01*
X113315000Y-157601939D01*
X113354774Y-157801898D01*
X113432795Y-157990256D01*
X113546063Y-158159774D01*
X113623000Y-158236711D01*
X113623000Y-163076631D01*
X111580692Y-163076631D01*
X111440256Y-162982795D01*
X111251898Y-162904774D01*
X111051939Y-162865000D01*
X110848061Y-162865000D01*
X110648102Y-162904774D01*
X110459744Y-162982795D01*
X110290226Y-163096063D01*
X110146063Y-163240226D01*
X110032795Y-163409744D01*
X109954774Y-163598102D01*
X109915000Y-163798061D01*
X109915000Y-164001939D01*
X109949748Y-164176631D01*
X108450000Y-164176631D01*
X108425224Y-164179071D01*
X108401399Y-164186298D01*
X108379443Y-164198034D01*
X108360197Y-164213828D01*
X108344403Y-164233074D01*
X108332667Y-164255030D01*
X108325440Y-164278855D01*
X108323000Y-164303631D01*
X108323000Y-167540000D01*
X97972690Y-167540000D01*
X98127624Y-167475824D01*
X98313520Y-167351612D01*
X98471612Y-167193520D01*
X98595824Y-167007624D01*
X98681383Y-166801067D01*
X98725000Y-166581788D01*
X98725000Y-166358212D01*
X98681383Y-166138933D01*
X98635112Y-166027226D01*
X98679502Y-165944180D01*
X98715812Y-165824482D01*
X98728072Y-165700000D01*
X98728072Y-164700000D01*
X98715812Y-164575518D01*
X98679502Y-164455820D01*
X98620537Y-164345506D01*
X98541185Y-164248815D01*
X98444494Y-164169463D01*
X98334180Y-164110498D01*
X98214482Y-164074188D01*
X98090000Y-164061928D01*
X97090000Y-164061928D01*
X96965518Y-164074188D01*
X96845820Y-164110498D01*
X96756820Y-164158070D01*
X96676864Y-164122554D01*
X96621874Y-164105881D01*
X96447000Y-164232046D01*
X96447000Y-165073000D01*
X96451928Y-165073000D01*
X96451928Y-165327000D01*
X96447000Y-165327000D01*
X96447000Y-165338026D01*
X96431788Y-165335000D01*
X96208212Y-165335000D01*
X96193000Y-165338026D01*
X96193000Y-165327000D01*
X95177000Y-165327000D01*
X95177000Y-165338026D01*
X95161788Y-165335000D01*
X94938212Y-165335000D01*
X94923000Y-165338026D01*
X94923000Y-165327000D01*
X94911974Y-165327000D01*
X94915000Y-165311788D01*
X94915000Y-165088212D01*
X94911974Y-165073000D01*
X94923000Y-165073000D01*
X94923000Y-164232046D01*
X95177000Y-164232046D01*
X95177000Y-165073000D01*
X96193000Y-165073000D01*
X96193000Y-164232046D01*
X96018126Y-164105881D01*
X95963136Y-164122554D01*
X95759794Y-164212877D01*
X95685000Y-164265639D01*
X95610206Y-164212877D01*
X95406864Y-164122554D01*
X95351874Y-164105881D01*
X95177000Y-164232046D01*
X94923000Y-164232046D01*
X94748126Y-164105881D01*
X94693136Y-164122554D01*
X94489794Y-164212877D01*
X94419658Y-164262353D01*
X94317624Y-164194176D01*
X94111067Y-164108617D01*
X93891788Y-164065000D01*
X93668212Y-164065000D01*
X93448933Y-164108617D01*
X93388579Y-164133617D01*
X94124134Y-163398061D01*
X100815000Y-163398061D01*
X100815000Y-163601939D01*
X100854774Y-163801898D01*
X100932795Y-163990256D01*
X101046063Y-164159774D01*
X101190226Y-164303937D01*
X101359744Y-164417205D01*
X101548102Y-164495226D01*
X101748061Y-164535000D01*
X101951939Y-164535000D01*
X102151898Y-164495226D01*
X102340256Y-164417205D01*
X102509774Y-164303937D01*
X102653937Y-164159774D01*
X102767205Y-163990256D01*
X102845226Y-163801898D01*
X102885000Y-163601939D01*
X102885000Y-163398061D01*
X102845226Y-163198102D01*
X102767205Y-163009744D01*
X102653937Y-162840226D01*
X102509774Y-162696063D01*
X102340256Y-162582795D01*
X102151898Y-162504774D01*
X101951939Y-162465000D01*
X101748061Y-162465000D01*
X101548102Y-162504774D01*
X101359744Y-162582795D01*
X101190226Y-162696063D01*
X101046063Y-162840226D01*
X100932795Y-163009744D01*
X100854774Y-163198102D01*
X100815000Y-163398061D01*
X94124134Y-163398061D01*
X95202479Y-162319716D01*
X95296063Y-162459774D01*
X95440226Y-162603937D01*
X95609744Y-162717205D01*
X95798102Y-162795226D01*
X95998061Y-162835000D01*
X96201939Y-162835000D01*
X96401898Y-162795226D01*
X96550000Y-162733880D01*
X96698102Y-162795226D01*
X96898061Y-162835000D01*
X97101939Y-162835000D01*
X97301898Y-162795226D01*
X97490256Y-162717205D01*
X97659774Y-162603937D01*
X97803937Y-162459774D01*
X97917205Y-162290256D01*
X97995226Y-162101898D01*
X98035000Y-161901939D01*
X98035000Y-161698061D01*
X97995226Y-161498102D01*
X97917205Y-161309744D01*
X97803937Y-161140226D01*
X97676546Y-161012835D01*
X106915000Y-161012835D01*
X106915000Y-161187165D01*
X106949010Y-161358145D01*
X106955992Y-161375000D01*
X106949010Y-161391855D01*
X106915000Y-161562835D01*
X106915000Y-161737165D01*
X106949010Y-161908145D01*
X107015723Y-162069205D01*
X107112576Y-162214155D01*
X107235845Y-162337424D01*
X107380795Y-162434277D01*
X107541855Y-162500990D01*
X107712835Y-162535000D01*
X107887165Y-162535000D01*
X108058145Y-162500990D01*
X108219205Y-162434277D01*
X108270504Y-162400000D01*
X108644462Y-162400000D01*
X108680795Y-162424277D01*
X108841855Y-162490990D01*
X109012835Y-162525000D01*
X109187165Y-162525000D01*
X109358145Y-162490990D01*
X109519205Y-162424277D01*
X109664155Y-162327424D01*
X109787424Y-162204155D01*
X109884277Y-162059205D01*
X109950990Y-161898145D01*
X109985000Y-161727165D01*
X109985000Y-161552835D01*
X109950990Y-161381855D01*
X109946080Y-161370000D01*
X109950990Y-161358145D01*
X109985000Y-161187165D01*
X109985000Y-161012835D01*
X109950990Y-160841855D01*
X109884277Y-160680795D01*
X109787424Y-160535845D01*
X109664155Y-160412576D01*
X109519205Y-160315723D01*
X109358145Y-160249010D01*
X109187165Y-160215000D01*
X109012835Y-160215000D01*
X108841855Y-160249010D01*
X108680795Y-160315723D01*
X108644462Y-160340000D01*
X108255538Y-160340000D01*
X108219205Y-160315723D01*
X108058145Y-160249010D01*
X107887165Y-160215000D01*
X107712835Y-160215000D01*
X107541855Y-160249010D01*
X107380795Y-160315723D01*
X107235845Y-160412576D01*
X107112576Y-160535845D01*
X107015723Y-160680795D01*
X106949010Y-160841855D01*
X106915000Y-161012835D01*
X97676546Y-161012835D01*
X97659774Y-160996063D01*
X97490256Y-160882795D01*
X97301898Y-160804774D01*
X97101939Y-160765000D01*
X96898061Y-160765000D01*
X96722219Y-160799977D01*
X99010195Y-158512001D01*
X104384446Y-158512001D01*
X104422999Y-158515798D01*
X104461552Y-158512001D01*
X104461560Y-158512001D01*
X104576886Y-158500642D01*
X104724859Y-158455755D01*
X104861232Y-158382863D01*
X104980763Y-158284765D01*
X105005346Y-158254811D01*
X105009890Y-158250267D01*
X105169205Y-158184277D01*
X105314155Y-158087424D01*
X105437424Y-157964155D01*
X105534277Y-157819205D01*
X105600990Y-157658145D01*
X105635000Y-157487165D01*
X105635000Y-157335000D01*
X105751939Y-157335000D01*
X105951898Y-157295226D01*
X106140256Y-157217205D01*
X106309774Y-157103937D01*
X106453937Y-156959774D01*
X106567205Y-156790256D01*
X106645226Y-156601898D01*
X106685000Y-156401939D01*
X106685000Y-156198061D01*
X106645226Y-155998102D01*
X106567205Y-155809744D01*
X106453937Y-155640226D01*
X106309774Y-155496063D01*
X106140256Y-155382795D01*
X105951898Y-155304774D01*
X105751939Y-155265000D01*
X105670490Y-155265000D01*
X105653937Y-155240226D01*
X105509774Y-155096063D01*
X105340256Y-154982795D01*
X105151898Y-154904774D01*
X104951939Y-154865000D01*
X104748061Y-154865000D01*
X104548102Y-154904774D01*
X104359744Y-154982795D01*
X104190226Y-155096063D01*
X104046063Y-155240226D01*
X103932795Y-155409744D01*
X103854774Y-155598102D01*
X103815000Y-155798061D01*
X103815000Y-156001939D01*
X103854774Y-156201898D01*
X103932795Y-156390256D01*
X104046063Y-156559774D01*
X104190226Y-156703937D01*
X104194500Y-156706793D01*
X104185845Y-156712576D01*
X104062576Y-156835845D01*
X103991644Y-156942001D01*
X98723592Y-156942001D01*
X98685037Y-156938204D01*
X98646481Y-156942001D01*
X98646476Y-156942001D01*
X98606063Y-156945981D01*
X98531150Y-156953359D01*
X98383177Y-156998247D01*
X98246804Y-157071139D01*
X98186596Y-157120551D01*
X98157224Y-157144656D01*
X98157221Y-157144659D01*
X98127273Y-157169237D01*
X98102695Y-157199185D01*
X90222185Y-165079696D01*
X90192237Y-165104274D01*
X90167659Y-165134222D01*
X90167655Y-165134226D01*
X90134690Y-165174394D01*
X90094139Y-165223805D01*
X90079834Y-165250569D01*
X90021246Y-165360179D01*
X89976359Y-165508152D01*
X89972422Y-165548129D01*
X89965000Y-165623477D01*
X89965000Y-165623485D01*
X89961203Y-165662038D01*
X89965000Y-165700591D01*
X89965000Y-166082540D01*
X89899010Y-166241855D01*
X89865000Y-166412835D01*
X89865000Y-166587165D01*
X89899010Y-166758145D01*
X89965723Y-166919205D01*
X90062576Y-167064155D01*
X90185845Y-167187424D01*
X90330795Y-167284277D01*
X90491855Y-167350990D01*
X90662835Y-167385000D01*
X90837165Y-167385000D01*
X91008145Y-167350990D01*
X91169205Y-167284277D01*
X91314155Y-167187424D01*
X91437424Y-167064155D01*
X91493086Y-166980851D01*
X91504176Y-167007624D01*
X91628388Y-167193520D01*
X91786480Y-167351612D01*
X91972376Y-167475824D01*
X92127310Y-167540000D01*
X82832278Y-167540000D01*
X82811914Y-167538003D01*
X82810000Y-167519794D01*
X82810000Y-165004717D01*
X82824431Y-165026315D01*
X83048685Y-165250569D01*
X83312379Y-165426763D01*
X83605380Y-165548129D01*
X83916429Y-165610000D01*
X84233571Y-165610000D01*
X84544620Y-165548129D01*
X84837621Y-165426763D01*
X85101315Y-165250569D01*
X85325569Y-165026315D01*
X85501763Y-164762621D01*
X85623129Y-164469620D01*
X85685000Y-164158571D01*
X85685000Y-163841429D01*
X85623129Y-163530380D01*
X85501763Y-163237379D01*
X85325569Y-162973685D01*
X85101315Y-162749431D01*
X84837621Y-162573237D01*
X84544620Y-162451871D01*
X84233571Y-162390000D01*
X83916429Y-162390000D01*
X83605380Y-162451871D01*
X83312379Y-162573237D01*
X83048685Y-162749431D01*
X82824431Y-162973685D01*
X82810000Y-162995283D01*
X82810000Y-158404717D01*
X82824431Y-158426315D01*
X83048685Y-158650569D01*
X83312379Y-158826763D01*
X83605380Y-158948129D01*
X83916429Y-159010000D01*
X84233571Y-159010000D01*
X84544620Y-158948129D01*
X84837621Y-158826763D01*
X85101315Y-158650569D01*
X85325569Y-158426315D01*
X85501763Y-158162621D01*
X85623129Y-157869620D01*
X85685000Y-157558571D01*
X85685000Y-157241429D01*
X85623129Y-156930380D01*
X85501763Y-156637379D01*
X85325569Y-156373685D01*
X85101315Y-156149431D01*
X84837621Y-155973237D01*
X84544620Y-155851871D01*
X84308628Y-155804930D01*
X84459774Y-155703937D01*
X84603937Y-155559774D01*
X84717205Y-155390256D01*
X84795226Y-155201898D01*
X84835000Y-155001939D01*
X84835000Y-154798061D01*
X84795226Y-154598102D01*
X84717205Y-154409744D01*
X84603937Y-154240226D01*
X84459774Y-154096063D01*
X84290256Y-153982795D01*
X84101898Y-153904774D01*
X83901939Y-153865000D01*
X83698061Y-153865000D01*
X83498102Y-153904774D01*
X83309744Y-153982795D01*
X83140226Y-154096063D01*
X82996063Y-154240226D01*
X82882795Y-154409744D01*
X82810000Y-154585485D01*
X82810000Y-153882278D01*
X82811997Y-153861914D01*
X82830207Y-153860000D01*
X109832850Y-153860000D01*
X109732795Y-154009744D01*
G37*
%TD.AperFunction*%
D21*
X92637000Y-165073000D02*
X92648026Y-165073000D01*
X92645000Y-165088212D01*
X92645000Y-165311788D01*
X92648026Y-165327000D01*
X92637000Y-165327000D01*
X92637000Y-165338026D01*
X92621788Y-165335000D01*
X92398212Y-165335000D01*
X92383000Y-165338026D01*
X92383000Y-165327000D01*
X92363000Y-165327000D01*
X92363000Y-165159195D01*
X92469195Y-165053000D01*
X92637000Y-165053000D01*
X92637000Y-165073000D01*
%TA.AperFunction,Conductor*%
D22*
G36*
X92637000Y-165073000D02*
G01*
X92648026Y-165073000D01*
X92645000Y-165088212D01*
X92645000Y-165311788D01*
X92648026Y-165327000D01*
X92637000Y-165327000D01*
X92637000Y-165338026D01*
X92621788Y-165335000D01*
X92398212Y-165335000D01*
X92383000Y-165338026D01*
X92383000Y-165327000D01*
X92363000Y-165327000D01*
X92363000Y-165159195D01*
X92469195Y-165053000D01*
X92637000Y-165053000D01*
X92637000Y-165073000D01*
G37*
%TD.AperFunction*%
%TD*%
M02*
