%TF.GenerationSoftware,KiCad,Pcbnew,(5.1.9)-1*%
%TF.CreationDate,2021-11-01T00:10:38+05:30*%
%TF.ProjectId,STM32-nRF24,53544d33-322d-46e5-9246-32342e6b6963,Rev. A*%
%TF.SameCoordinates,Original*%
%TF.FileFunction,Soldermask,Top*%
%TF.FilePolarity,Negative*%
%FSLAX46Y46*%
G04 Gerber Fmt 4.6, Leading zero omitted, Abs format (unit mm)*
G04 Created by KiCad (PCBNEW (5.1.9)-1) date 2021-11-01 00:10:38*
%MOMM*%
%LPD*%
G01*
G04 APERTURE LIST*
%ADD10C,2.052000*%
%ADD11O,1.102000X1.102000*%
%ADD12C,0.100000*%
G04 APERTURE END LIST*
%TO.C,3v3*%
G36*
G01*
X84399000Y-155300000D02*
X84399000Y-154300000D01*
G75*
G02*
X84450000Y-154249000I51000J0D01*
G01*
X85450000Y-154249000D01*
G75*
G02*
X85501000Y-154300000I0J-51000D01*
G01*
X85501000Y-155300000D01*
G75*
G02*
X85450000Y-155351000I-51000J0D01*
G01*
X84450000Y-155351000D01*
G75*
G02*
X84399000Y-155300000I0J51000D01*
G01*
G37*
%TD*%
%TO.C,REF\u002A\u002A*%
G36*
G01*
X88899000Y-155350000D02*
X88899000Y-154350000D01*
G75*
G02*
X88950000Y-154299000I51000J0D01*
G01*
X89950000Y-154299000D01*
G75*
G02*
X90001000Y-154350000I0J-51000D01*
G01*
X90001000Y-155350000D01*
G75*
G02*
X89950000Y-155401000I-51000J0D01*
G01*
X88950000Y-155401000D01*
G75*
G02*
X88899000Y-155350000I0J51000D01*
G01*
G37*
%TD*%
%TO.C,5v*%
G36*
G01*
X86649000Y-155300000D02*
X86649000Y-154300000D01*
G75*
G02*
X86700000Y-154249000I51000J0D01*
G01*
X87700000Y-154249000D01*
G75*
G02*
X87751000Y-154300000I0J-51000D01*
G01*
X87751000Y-155300000D01*
G75*
G02*
X87700000Y-155351000I-51000J0D01*
G01*
X86700000Y-155351000D01*
G75*
G02*
X86649000Y-155300000I0J51000D01*
G01*
G37*
%TD*%
%TO.C,C1*%
G36*
G01*
X100425500Y-159576000D02*
X99874500Y-159576000D01*
G75*
G02*
X99624000Y-159325500I0J250500D01*
G01*
X99624000Y-158824500D01*
G75*
G02*
X99874500Y-158574000I250500J0D01*
G01*
X100425500Y-158574000D01*
G75*
G02*
X100676000Y-158824500I0J-250500D01*
G01*
X100676000Y-159325500D01*
G75*
G02*
X100425500Y-159576000I-250500J0D01*
G01*
G37*
G36*
G01*
X100425500Y-158026000D02*
X99874500Y-158026000D01*
G75*
G02*
X99624000Y-157775500I0J250500D01*
G01*
X99624000Y-157274500D01*
G75*
G02*
X99874500Y-157024000I250500J0D01*
G01*
X100425500Y-157024000D01*
G75*
G02*
X100676000Y-157274500I0J-250500D01*
G01*
X100676000Y-157775500D01*
G75*
G02*
X100425500Y-158026000I-250500J0D01*
G01*
G37*
%TD*%
%TO.C,C2*%
G36*
G01*
X97524000Y-162075500D02*
X97524000Y-161524500D01*
G75*
G02*
X97774500Y-161274000I250500J0D01*
G01*
X98275500Y-161274000D01*
G75*
G02*
X98526000Y-161524500I0J-250500D01*
G01*
X98526000Y-162075500D01*
G75*
G02*
X98275500Y-162326000I-250500J0D01*
G01*
X97774500Y-162326000D01*
G75*
G02*
X97524000Y-162075500I0J250500D01*
G01*
G37*
G36*
G01*
X99074000Y-162075500D02*
X99074000Y-161524500D01*
G75*
G02*
X99324500Y-161274000I250500J0D01*
G01*
X99825500Y-161274000D01*
G75*
G02*
X100076000Y-161524500I0J-250500D01*
G01*
X100076000Y-162075500D01*
G75*
G02*
X99825500Y-162326000I-250500J0D01*
G01*
X99324500Y-162326000D01*
G75*
G02*
X99074000Y-162075500I0J250500D01*
G01*
G37*
%TD*%
%TO.C,C3*%
G36*
G01*
X90945500Y-164951000D02*
X90554500Y-164951000D01*
G75*
G02*
X90389000Y-164785500I0J165500D01*
G01*
X90389000Y-164454500D01*
G75*
G02*
X90554500Y-164289000I165500J0D01*
G01*
X90945500Y-164289000D01*
G75*
G02*
X91111000Y-164454500I0J-165500D01*
G01*
X91111000Y-164785500D01*
G75*
G02*
X90945500Y-164951000I-165500J0D01*
G01*
G37*
G36*
G01*
X90945500Y-165911000D02*
X90554500Y-165911000D01*
G75*
G02*
X90389000Y-165745500I0J165500D01*
G01*
X90389000Y-165414500D01*
G75*
G02*
X90554500Y-165249000I165500J0D01*
G01*
X90945500Y-165249000D01*
G75*
G02*
X91111000Y-165414500I0J-165500D01*
G01*
X91111000Y-165745500D01*
G75*
G02*
X90945500Y-165911000I-165500J0D01*
G01*
G37*
%TD*%
%TO.C,C4*%
G36*
G01*
X104261000Y-155704500D02*
X104261000Y-156095500D01*
G75*
G02*
X104095500Y-156261000I-165500J0D01*
G01*
X103764500Y-156261000D01*
G75*
G02*
X103599000Y-156095500I0J165500D01*
G01*
X103599000Y-155704500D01*
G75*
G02*
X103764500Y-155539000I165500J0D01*
G01*
X104095500Y-155539000D01*
G75*
G02*
X104261000Y-155704500I0J-165500D01*
G01*
G37*
G36*
G01*
X103301000Y-155704500D02*
X103301000Y-156095500D01*
G75*
G02*
X103135500Y-156261000I-165500J0D01*
G01*
X102804500Y-156261000D01*
G75*
G02*
X102639000Y-156095500I0J165500D01*
G01*
X102639000Y-155704500D01*
G75*
G02*
X102804500Y-155539000I165500J0D01*
G01*
X103135500Y-155539000D01*
G75*
G02*
X103301000Y-155704500I0J-165500D01*
G01*
G37*
%TD*%
%TO.C,C5*%
G36*
G01*
X106999000Y-157195500D02*
X106999000Y-156804500D01*
G75*
G02*
X107164500Y-156639000I165500J0D01*
G01*
X107495500Y-156639000D01*
G75*
G02*
X107661000Y-156804500I0J-165500D01*
G01*
X107661000Y-157195500D01*
G75*
G02*
X107495500Y-157361000I-165500J0D01*
G01*
X107164500Y-157361000D01*
G75*
G02*
X106999000Y-157195500I0J165500D01*
G01*
G37*
G36*
G01*
X106039000Y-157195500D02*
X106039000Y-156804500D01*
G75*
G02*
X106204500Y-156639000I165500J0D01*
G01*
X106535500Y-156639000D01*
G75*
G02*
X106701000Y-156804500I0J-165500D01*
G01*
X106701000Y-157195500D01*
G75*
G02*
X106535500Y-157361000I-165500J0D01*
G01*
X106204500Y-157361000D01*
G75*
G02*
X106039000Y-157195500I0J165500D01*
G01*
G37*
%TD*%
%TO.C,C6*%
G36*
G01*
X104261000Y-156804500D02*
X104261000Y-157195500D01*
G75*
G02*
X104095500Y-157361000I-165500J0D01*
G01*
X103764500Y-157361000D01*
G75*
G02*
X103599000Y-157195500I0J165500D01*
G01*
X103599000Y-156804500D01*
G75*
G02*
X103764500Y-156639000I165500J0D01*
G01*
X104095500Y-156639000D01*
G75*
G02*
X104261000Y-156804500I0J-165500D01*
G01*
G37*
G36*
G01*
X103301000Y-156804500D02*
X103301000Y-157195500D01*
G75*
G02*
X103135500Y-157361000I-165500J0D01*
G01*
X102804500Y-157361000D01*
G75*
G02*
X102639000Y-157195500I0J165500D01*
G01*
X102639000Y-156804500D01*
G75*
G02*
X102804500Y-156639000I165500J0D01*
G01*
X103135500Y-156639000D01*
G75*
G02*
X103301000Y-156804500I0J-165500D01*
G01*
G37*
%TD*%
%TO.C,C7*%
G36*
G01*
X101801000Y-164304500D02*
X101801000Y-164695500D01*
G75*
G02*
X101635500Y-164861000I-165500J0D01*
G01*
X101304500Y-164861000D01*
G75*
G02*
X101139000Y-164695500I0J165500D01*
G01*
X101139000Y-164304500D01*
G75*
G02*
X101304500Y-164139000I165500J0D01*
G01*
X101635500Y-164139000D01*
G75*
G02*
X101801000Y-164304500I0J-165500D01*
G01*
G37*
G36*
G01*
X102761000Y-164304500D02*
X102761000Y-164695500D01*
G75*
G02*
X102595500Y-164861000I-165500J0D01*
G01*
X102264500Y-164861000D01*
G75*
G02*
X102099000Y-164695500I0J165500D01*
G01*
X102099000Y-164304500D01*
G75*
G02*
X102264500Y-164139000I165500J0D01*
G01*
X102595500Y-164139000D01*
G75*
G02*
X102761000Y-164304500I0J-165500D01*
G01*
G37*
%TD*%
%TO.C,C8*%
G36*
G01*
X113425500Y-156476000D02*
X112874500Y-156476000D01*
G75*
G02*
X112624000Y-156225500I0J250500D01*
G01*
X112624000Y-155724500D01*
G75*
G02*
X112874500Y-155474000I250500J0D01*
G01*
X113425500Y-155474000D01*
G75*
G02*
X113676000Y-155724500I0J-250500D01*
G01*
X113676000Y-156225500D01*
G75*
G02*
X113425500Y-156476000I-250500J0D01*
G01*
G37*
G36*
G01*
X113425500Y-154926000D02*
X112874500Y-154926000D01*
G75*
G02*
X112624000Y-154675500I0J250500D01*
G01*
X112624000Y-154174500D01*
G75*
G02*
X112874500Y-153924000I250500J0D01*
G01*
X113425500Y-153924000D01*
G75*
G02*
X113676000Y-154174500I0J-250500D01*
G01*
X113676000Y-154675500D01*
G75*
G02*
X113425500Y-154926000I-250500J0D01*
G01*
G37*
%TD*%
%TO.C,C9*%
G36*
G01*
X112045500Y-157311000D02*
X111654500Y-157311000D01*
G75*
G02*
X111489000Y-157145500I0J165500D01*
G01*
X111489000Y-156814500D01*
G75*
G02*
X111654500Y-156649000I165500J0D01*
G01*
X112045500Y-156649000D01*
G75*
G02*
X112211000Y-156814500I0J-165500D01*
G01*
X112211000Y-157145500D01*
G75*
G02*
X112045500Y-157311000I-165500J0D01*
G01*
G37*
G36*
G01*
X112045500Y-156351000D02*
X111654500Y-156351000D01*
G75*
G02*
X111489000Y-156185500I0J165500D01*
G01*
X111489000Y-155854500D01*
G75*
G02*
X111654500Y-155689000I165500J0D01*
G01*
X112045500Y-155689000D01*
G75*
G02*
X112211000Y-155854500I0J-165500D01*
G01*
X112211000Y-156185500D01*
G75*
G02*
X112045500Y-156351000I-165500J0D01*
G01*
G37*
%TD*%
%TO.C,C10*%
G36*
G01*
X114039000Y-158595500D02*
X114039000Y-158204500D01*
G75*
G02*
X114204500Y-158039000I165500J0D01*
G01*
X114535500Y-158039000D01*
G75*
G02*
X114701000Y-158204500I0J-165500D01*
G01*
X114701000Y-158595500D01*
G75*
G02*
X114535500Y-158761000I-165500J0D01*
G01*
X114204500Y-158761000D01*
G75*
G02*
X114039000Y-158595500I0J165500D01*
G01*
G37*
G36*
G01*
X114999000Y-158595500D02*
X114999000Y-158204500D01*
G75*
G02*
X115164500Y-158039000I165500J0D01*
G01*
X115495500Y-158039000D01*
G75*
G02*
X115661000Y-158204500I0J-165500D01*
G01*
X115661000Y-158595500D01*
G75*
G02*
X115495500Y-158761000I-165500J0D01*
G01*
X115164500Y-158761000D01*
G75*
G02*
X114999000Y-158595500I0J165500D01*
G01*
G37*
%TD*%
%TO.C,C11*%
G36*
G01*
X109401000Y-163304500D02*
X109401000Y-163695500D01*
G75*
G02*
X109235500Y-163861000I-165500J0D01*
G01*
X108904500Y-163861000D01*
G75*
G02*
X108739000Y-163695500I0J165500D01*
G01*
X108739000Y-163304500D01*
G75*
G02*
X108904500Y-163139000I165500J0D01*
G01*
X109235500Y-163139000D01*
G75*
G02*
X109401000Y-163304500I0J-165500D01*
G01*
G37*
G36*
G01*
X110361000Y-163304500D02*
X110361000Y-163695500D01*
G75*
G02*
X110195500Y-163861000I-165500J0D01*
G01*
X109864500Y-163861000D01*
G75*
G02*
X109699000Y-163695500I0J165500D01*
G01*
X109699000Y-163304500D01*
G75*
G02*
X109864500Y-163139000I165500J0D01*
G01*
X110195500Y-163139000D01*
G75*
G02*
X110361000Y-163304500I0J-165500D01*
G01*
G37*
%TD*%
%TO.C,C12*%
G36*
G01*
X111161000Y-157204500D02*
X111161000Y-157595500D01*
G75*
G02*
X110995500Y-157761000I-165500J0D01*
G01*
X110664500Y-157761000D01*
G75*
G02*
X110499000Y-157595500I0J165500D01*
G01*
X110499000Y-157204500D01*
G75*
G02*
X110664500Y-157039000I165500J0D01*
G01*
X110995500Y-157039000D01*
G75*
G02*
X111161000Y-157204500I0J-165500D01*
G01*
G37*
G36*
G01*
X110201000Y-157204500D02*
X110201000Y-157595500D01*
G75*
G02*
X110035500Y-157761000I-165500J0D01*
G01*
X109704500Y-157761000D01*
G75*
G02*
X109539000Y-157595500I0J165500D01*
G01*
X109539000Y-157204500D01*
G75*
G02*
X109704500Y-157039000I165500J0D01*
G01*
X110035500Y-157039000D01*
G75*
G02*
X110201000Y-157204500I0J-165500D01*
G01*
G37*
%TD*%
%TO.C,C13*%
G36*
G01*
X114554500Y-165549000D02*
X114945500Y-165549000D01*
G75*
G02*
X115111000Y-165714500I0J-165500D01*
G01*
X115111000Y-166045500D01*
G75*
G02*
X114945500Y-166211000I-165500J0D01*
G01*
X114554500Y-166211000D01*
G75*
G02*
X114389000Y-166045500I0J165500D01*
G01*
X114389000Y-165714500D01*
G75*
G02*
X114554500Y-165549000I165500J0D01*
G01*
G37*
G36*
G01*
X114554500Y-164589000D02*
X114945500Y-164589000D01*
G75*
G02*
X115111000Y-164754500I0J-165500D01*
G01*
X115111000Y-165085500D01*
G75*
G02*
X114945500Y-165251000I-165500J0D01*
G01*
X114554500Y-165251000D01*
G75*
G02*
X114389000Y-165085500I0J165500D01*
G01*
X114389000Y-164754500D01*
G75*
G02*
X114554500Y-164589000I165500J0D01*
G01*
G37*
%TD*%
%TO.C,C14*%
G36*
G01*
X109445500Y-167511000D02*
X109054500Y-167511000D01*
G75*
G02*
X108889000Y-167345500I0J165500D01*
G01*
X108889000Y-167014500D01*
G75*
G02*
X109054500Y-166849000I165500J0D01*
G01*
X109445500Y-166849000D01*
G75*
G02*
X109611000Y-167014500I0J-165500D01*
G01*
X109611000Y-167345500D01*
G75*
G02*
X109445500Y-167511000I-165500J0D01*
G01*
G37*
G36*
G01*
X109445500Y-166551000D02*
X109054500Y-166551000D01*
G75*
G02*
X108889000Y-166385500I0J165500D01*
G01*
X108889000Y-166054500D01*
G75*
G02*
X109054500Y-165889000I165500J0D01*
G01*
X109445500Y-165889000D01*
G75*
G02*
X109611000Y-166054500I0J-165500D01*
G01*
X109611000Y-166385500D01*
G75*
G02*
X109445500Y-166551000I-165500J0D01*
G01*
G37*
%TD*%
%TO.C,C15*%
G36*
G01*
X120351000Y-160104500D02*
X120351000Y-160495500D01*
G75*
G02*
X120185500Y-160661000I-165500J0D01*
G01*
X119854500Y-160661000D01*
G75*
G02*
X119689000Y-160495500I0J165500D01*
G01*
X119689000Y-160104500D01*
G75*
G02*
X119854500Y-159939000I165500J0D01*
G01*
X120185500Y-159939000D01*
G75*
G02*
X120351000Y-160104500I0J-165500D01*
G01*
G37*
G36*
G01*
X121311000Y-160104500D02*
X121311000Y-160495500D01*
G75*
G02*
X121145500Y-160661000I-165500J0D01*
G01*
X120814500Y-160661000D01*
G75*
G02*
X120649000Y-160495500I0J165500D01*
G01*
X120649000Y-160104500D01*
G75*
G02*
X120814500Y-159939000I165500J0D01*
G01*
X121145500Y-159939000D01*
G75*
G02*
X121311000Y-160104500I0J-165500D01*
G01*
G37*
%TD*%
%TO.C,C16*%
G36*
G01*
X121854500Y-158989000D02*
X122245500Y-158989000D01*
G75*
G02*
X122411000Y-159154500I0J-165500D01*
G01*
X122411000Y-159485500D01*
G75*
G02*
X122245500Y-159651000I-165500J0D01*
G01*
X121854500Y-159651000D01*
G75*
G02*
X121689000Y-159485500I0J165500D01*
G01*
X121689000Y-159154500D01*
G75*
G02*
X121854500Y-158989000I165500J0D01*
G01*
G37*
G36*
G01*
X121854500Y-159949000D02*
X122245500Y-159949000D01*
G75*
G02*
X122411000Y-160114500I0J-165500D01*
G01*
X122411000Y-160445500D01*
G75*
G02*
X122245500Y-160611000I-165500J0D01*
G01*
X121854500Y-160611000D01*
G75*
G02*
X121689000Y-160445500I0J165500D01*
G01*
X121689000Y-160114500D01*
G75*
G02*
X121854500Y-159949000I165500J0D01*
G01*
G37*
%TD*%
%TO.C,C17*%
G36*
G01*
X120461000Y-163204500D02*
X120461000Y-163595500D01*
G75*
G02*
X120295500Y-163761000I-165500J0D01*
G01*
X119964500Y-163761000D01*
G75*
G02*
X119799000Y-163595500I0J165500D01*
G01*
X119799000Y-163204500D01*
G75*
G02*
X119964500Y-163039000I165500J0D01*
G01*
X120295500Y-163039000D01*
G75*
G02*
X120461000Y-163204500I0J-165500D01*
G01*
G37*
G36*
G01*
X119501000Y-163204500D02*
X119501000Y-163595500D01*
G75*
G02*
X119335500Y-163761000I-165500J0D01*
G01*
X119004500Y-163761000D01*
G75*
G02*
X118839000Y-163595500I0J165500D01*
G01*
X118839000Y-163204500D01*
G75*
G02*
X119004500Y-163039000I165500J0D01*
G01*
X119335500Y-163039000D01*
G75*
G02*
X119501000Y-163204500I0J-165500D01*
G01*
G37*
%TD*%
%TO.C,C18*%
G36*
G01*
X119501000Y-162104500D02*
X119501000Y-162495500D01*
G75*
G02*
X119335500Y-162661000I-165500J0D01*
G01*
X119004500Y-162661000D01*
G75*
G02*
X118839000Y-162495500I0J165500D01*
G01*
X118839000Y-162104500D01*
G75*
G02*
X119004500Y-161939000I165500J0D01*
G01*
X119335500Y-161939000D01*
G75*
G02*
X119501000Y-162104500I0J-165500D01*
G01*
G37*
G36*
G01*
X120461000Y-162104500D02*
X120461000Y-162495500D01*
G75*
G02*
X120295500Y-162661000I-165500J0D01*
G01*
X119964500Y-162661000D01*
G75*
G02*
X119799000Y-162495500I0J165500D01*
G01*
X119799000Y-162104500D01*
G75*
G02*
X119964500Y-161939000I165500J0D01*
G01*
X120295500Y-161939000D01*
G75*
G02*
X120461000Y-162104500I0J-165500D01*
G01*
G37*
%TD*%
%TO.C,D1*%
G36*
G01*
X98274000Y-154781750D02*
X98274000Y-154218250D01*
G75*
G02*
X98518250Y-153974000I244250J0D01*
G01*
X99006750Y-153974000D01*
G75*
G02*
X99251000Y-154218250I0J-244250D01*
G01*
X99251000Y-154781750D01*
G75*
G02*
X99006750Y-155026000I-244250J0D01*
G01*
X98518250Y-155026000D01*
G75*
G02*
X98274000Y-154781750I0J244250D01*
G01*
G37*
G36*
G01*
X99849000Y-154781750D02*
X99849000Y-154218250D01*
G75*
G02*
X100093250Y-153974000I244250J0D01*
G01*
X100581750Y-153974000D01*
G75*
G02*
X100826000Y-154218250I0J-244250D01*
G01*
X100826000Y-154781750D01*
G75*
G02*
X100581750Y-155026000I-244250J0D01*
G01*
X100093250Y-155026000D01*
G75*
G02*
X99849000Y-154781750I0J244250D01*
G01*
G37*
%TD*%
%TO.C,D2*%
G36*
G01*
X103601000Y-154218250D02*
X103601000Y-154781750D01*
G75*
G02*
X103356750Y-155026000I-244250J0D01*
G01*
X102868250Y-155026000D01*
G75*
G02*
X102624000Y-154781750I0J244250D01*
G01*
X102624000Y-154218250D01*
G75*
G02*
X102868250Y-153974000I244250J0D01*
G01*
X103356750Y-153974000D01*
G75*
G02*
X103601000Y-154218250I0J-244250D01*
G01*
G37*
G36*
G01*
X105176000Y-154218250D02*
X105176000Y-154781750D01*
G75*
G02*
X104931750Y-155026000I-244250J0D01*
G01*
X104443250Y-155026000D01*
G75*
G02*
X104199000Y-154781750I0J244250D01*
G01*
X104199000Y-154218250D01*
G75*
G02*
X104443250Y-153974000I244250J0D01*
G01*
X104931750Y-153974000D01*
G75*
G02*
X105176000Y-154218250I0J-244250D01*
G01*
G37*
%TD*%
%TO.C,F1*%
G36*
G01*
X94826000Y-155644400D02*
X94826000Y-156955600D01*
G75*
G02*
X94555600Y-157226000I-270400J0D01*
G01*
X93744400Y-157226000D01*
G75*
G02*
X93474000Y-156955600I0J270400D01*
G01*
X93474000Y-155644400D01*
G75*
G02*
X93744400Y-155374000I270400J0D01*
G01*
X94555600Y-155374000D01*
G75*
G02*
X94826000Y-155644400I0J-270400D01*
G01*
G37*
G36*
G01*
X92026000Y-155644400D02*
X92026000Y-156955600D01*
G75*
G02*
X91755600Y-157226000I-270400J0D01*
G01*
X90944400Y-157226000D01*
G75*
G02*
X90674000Y-156955600I0J270400D01*
G01*
X90674000Y-155644400D01*
G75*
G02*
X90944400Y-155374000I270400J0D01*
G01*
X91755600Y-155374000D01*
G75*
G02*
X92026000Y-155644400I0J-270400D01*
G01*
G37*
%TD*%
%TO.C,FB1*%
G36*
G01*
X98951000Y-155893250D02*
X98951000Y-156706750D01*
G75*
G02*
X98706750Y-156951000I-244250J0D01*
G01*
X98218250Y-156951000D01*
G75*
G02*
X97974000Y-156706750I0J244250D01*
G01*
X97974000Y-155893250D01*
G75*
G02*
X98218250Y-155649000I244250J0D01*
G01*
X98706750Y-155649000D01*
G75*
G02*
X98951000Y-155893250I0J-244250D01*
G01*
G37*
G36*
G01*
X96826000Y-155893250D02*
X96826000Y-156706750D01*
G75*
G02*
X96581750Y-156951000I-244250J0D01*
G01*
X96093250Y-156951000D01*
G75*
G02*
X95849000Y-156706750I0J244250D01*
G01*
X95849000Y-155893250D01*
G75*
G02*
X96093250Y-155649000I244250J0D01*
G01*
X96581750Y-155649000D01*
G75*
G02*
X96826000Y-155893250I0J-244250D01*
G01*
G37*
%TD*%
%TO.C,J1*%
G36*
G01*
X86075000Y-159149000D02*
X87425000Y-159149000D01*
G75*
G02*
X87476000Y-159200000I0J-51000D01*
G01*
X87476000Y-159600000D01*
G75*
G02*
X87425000Y-159651000I-51000J0D01*
G01*
X86075000Y-159651000D01*
G75*
G02*
X86024000Y-159600000I0J51000D01*
G01*
X86024000Y-159200000D01*
G75*
G02*
X86075000Y-159149000I51000J0D01*
G01*
G37*
G36*
G01*
X86075000Y-159799000D02*
X87425000Y-159799000D01*
G75*
G02*
X87476000Y-159850000I0J-51000D01*
G01*
X87476000Y-160250000D01*
G75*
G02*
X87425000Y-160301000I-51000J0D01*
G01*
X86075000Y-160301000D01*
G75*
G02*
X86024000Y-160250000I0J51000D01*
G01*
X86024000Y-159850000D01*
G75*
G02*
X86075000Y-159799000I51000J0D01*
G01*
G37*
G36*
G01*
X86075000Y-160449000D02*
X87425000Y-160449000D01*
G75*
G02*
X87476000Y-160500000I0J-51000D01*
G01*
X87476000Y-160900000D01*
G75*
G02*
X87425000Y-160951000I-51000J0D01*
G01*
X86075000Y-160951000D01*
G75*
G02*
X86024000Y-160900000I0J51000D01*
G01*
X86024000Y-160500000D01*
G75*
G02*
X86075000Y-160449000I51000J0D01*
G01*
G37*
G36*
G01*
X86075000Y-161099000D02*
X87425000Y-161099000D01*
G75*
G02*
X87476000Y-161150000I0J-51000D01*
G01*
X87476000Y-161550000D01*
G75*
G02*
X87425000Y-161601000I-51000J0D01*
G01*
X86075000Y-161601000D01*
G75*
G02*
X86024000Y-161550000I0J51000D01*
G01*
X86024000Y-161150000D01*
G75*
G02*
X86075000Y-161099000I51000J0D01*
G01*
G37*
G36*
G01*
X86075000Y-161749000D02*
X87425000Y-161749000D01*
G75*
G02*
X87476000Y-161800000I0J-51000D01*
G01*
X87476000Y-162200000D01*
G75*
G02*
X87425000Y-162251000I-51000J0D01*
G01*
X86075000Y-162251000D01*
G75*
G02*
X86024000Y-162200000I0J51000D01*
G01*
X86024000Y-161800000D01*
G75*
G02*
X86075000Y-161749000I51000J0D01*
G01*
G37*
D10*
X84075000Y-157400000D03*
X84075000Y-164000000D03*
G36*
G01*
X85774000Y-158300000D02*
X85774000Y-156700000D01*
G75*
G02*
X85825000Y-156649000I51000J0D01*
G01*
X87225000Y-156649000D01*
G75*
G02*
X87276000Y-156700000I0J-51000D01*
G01*
X87276000Y-158300000D01*
G75*
G02*
X87225000Y-158351000I-51000J0D01*
G01*
X85825000Y-158351000D01*
G75*
G02*
X85774000Y-158300000I0J51000D01*
G01*
G37*
G36*
G01*
X83224000Y-160450000D02*
X83224000Y-158550000D01*
G75*
G02*
X83275000Y-158499000I51000J0D01*
G01*
X84875000Y-158499000D01*
G75*
G02*
X84926000Y-158550000I0J-51000D01*
G01*
X84926000Y-160450000D01*
G75*
G02*
X84875000Y-160501000I-51000J0D01*
G01*
X83275000Y-160501000D01*
G75*
G02*
X83224000Y-160450000I0J51000D01*
G01*
G37*
G36*
G01*
X83224000Y-162850000D02*
X83224000Y-160950000D01*
G75*
G02*
X83275000Y-160899000I51000J0D01*
G01*
X84875000Y-160899000D01*
G75*
G02*
X84926000Y-160950000I0J-51000D01*
G01*
X84926000Y-162850000D01*
G75*
G02*
X84875000Y-162901000I-51000J0D01*
G01*
X83275000Y-162901000D01*
G75*
G02*
X83224000Y-162850000I0J51000D01*
G01*
G37*
G36*
G01*
X85774000Y-164700000D02*
X85774000Y-163100000D01*
G75*
G02*
X85825000Y-163049000I51000J0D01*
G01*
X87225000Y-163049000D01*
G75*
G02*
X87276000Y-163100000I0J-51000D01*
G01*
X87276000Y-164700000D01*
G75*
G02*
X87225000Y-164751000I-51000J0D01*
G01*
X85825000Y-164751000D01*
G75*
G02*
X85774000Y-164700000I0J51000D01*
G01*
G37*
%TD*%
%TO.C,J2*%
G36*
G01*
X127150000Y-160986000D02*
X123550000Y-160986000D01*
G75*
G02*
X123499000Y-160935000I0J51000D01*
G01*
X123499000Y-159665000D01*
G75*
G02*
X123550000Y-159614000I51000J0D01*
G01*
X127150000Y-159614000D01*
G75*
G02*
X127201000Y-159665000I0J-51000D01*
G01*
X127201000Y-160935000D01*
G75*
G02*
X127150000Y-160986000I-51000J0D01*
G01*
G37*
G36*
G01*
X127250000Y-158201000D02*
X123050000Y-158201000D01*
G75*
G02*
X122999000Y-158150000I0J51000D01*
G01*
X122999000Y-156800000D01*
G75*
G02*
X123050000Y-156749000I51000J0D01*
G01*
X127250000Y-156749000D01*
G75*
G02*
X127301000Y-156800000I0J-51000D01*
G01*
X127301000Y-158150000D01*
G75*
G02*
X127250000Y-158201000I-51000J0D01*
G01*
G37*
G36*
G01*
X127250000Y-163851000D02*
X123050000Y-163851000D01*
G75*
G02*
X122999000Y-163800000I0J51000D01*
G01*
X122999000Y-162450000D01*
G75*
G02*
X123050000Y-162399000I51000J0D01*
G01*
X127250000Y-162399000D01*
G75*
G02*
X127301000Y-162450000I0J-51000D01*
G01*
X127301000Y-163800000D01*
G75*
G02*
X127250000Y-163851000I-51000J0D01*
G01*
G37*
%TD*%
%TO.C,J3*%
G36*
G01*
X97090000Y-164649000D02*
X98090000Y-164649000D01*
G75*
G02*
X98141000Y-164700000I0J-51000D01*
G01*
X98141000Y-165700000D01*
G75*
G02*
X98090000Y-165751000I-51000J0D01*
G01*
X97090000Y-165751000D01*
G75*
G02*
X97039000Y-165700000I0J51000D01*
G01*
X97039000Y-164700000D01*
G75*
G02*
X97090000Y-164649000I51000J0D01*
G01*
G37*
D11*
X97590000Y-166470000D03*
X96320000Y-165200000D03*
X96320000Y-166470000D03*
X95050000Y-165200000D03*
X95050000Y-166470000D03*
X93780000Y-165200000D03*
X93780000Y-166470000D03*
X92510000Y-165200000D03*
X92510000Y-166470000D03*
%TD*%
%TO.C,L1*%
G36*
G01*
X117654000Y-160498000D02*
X117654000Y-160102000D01*
G75*
G02*
X117827000Y-159929000I173000J0D01*
G01*
X118173000Y-159929000D01*
G75*
G02*
X118346000Y-160102000I0J-173000D01*
G01*
X118346000Y-160498000D01*
G75*
G02*
X118173000Y-160671000I-173000J0D01*
G01*
X117827000Y-160671000D01*
G75*
G02*
X117654000Y-160498000I0J173000D01*
G01*
G37*
G36*
G01*
X118624000Y-160498000D02*
X118624000Y-160102000D01*
G75*
G02*
X118797000Y-159929000I173000J0D01*
G01*
X119143000Y-159929000D01*
G75*
G02*
X119316000Y-160102000I0J-173000D01*
G01*
X119316000Y-160498000D01*
G75*
G02*
X119143000Y-160671000I-173000J0D01*
G01*
X118797000Y-160671000D01*
G75*
G02*
X118624000Y-160498000I0J173000D01*
G01*
G37*
%TD*%
%TO.C,L2*%
G36*
G01*
X116752000Y-160939000D02*
X117148000Y-160939000D01*
G75*
G02*
X117321000Y-161112000I0J-173000D01*
G01*
X117321000Y-161458000D01*
G75*
G02*
X117148000Y-161631000I-173000J0D01*
G01*
X116752000Y-161631000D01*
G75*
G02*
X116579000Y-161458000I0J173000D01*
G01*
X116579000Y-161112000D01*
G75*
G02*
X116752000Y-160939000I173000J0D01*
G01*
G37*
G36*
G01*
X116752000Y-159969000D02*
X117148000Y-159969000D01*
G75*
G02*
X117321000Y-160142000I0J-173000D01*
G01*
X117321000Y-160488000D01*
G75*
G02*
X117148000Y-160661000I-173000J0D01*
G01*
X116752000Y-160661000D01*
G75*
G02*
X116579000Y-160488000I0J173000D01*
G01*
X116579000Y-160142000D01*
G75*
G02*
X116752000Y-159969000I173000J0D01*
G01*
G37*
%TD*%
%TO.C,L3*%
G36*
G01*
X118248000Y-162631000D02*
X117852000Y-162631000D01*
G75*
G02*
X117679000Y-162458000I0J173000D01*
G01*
X117679000Y-162112000D01*
G75*
G02*
X117852000Y-161939000I173000J0D01*
G01*
X118248000Y-161939000D01*
G75*
G02*
X118421000Y-162112000I0J-173000D01*
G01*
X118421000Y-162458000D01*
G75*
G02*
X118248000Y-162631000I-173000J0D01*
G01*
G37*
G36*
G01*
X118248000Y-161661000D02*
X117852000Y-161661000D01*
G75*
G02*
X117679000Y-161488000I0J173000D01*
G01*
X117679000Y-161142000D01*
G75*
G02*
X117852000Y-160969000I173000J0D01*
G01*
X118248000Y-160969000D01*
G75*
G02*
X118421000Y-161142000I0J-173000D01*
G01*
X118421000Y-161488000D01*
G75*
G02*
X118248000Y-161661000I-173000J0D01*
G01*
G37*
%TD*%
%TO.C,R1*%
G36*
G01*
X108360500Y-158211000D02*
X107939500Y-158211000D01*
G75*
G02*
X107779000Y-158050500I0J160500D01*
G01*
X107779000Y-157729500D01*
G75*
G02*
X107939500Y-157569000I160500J0D01*
G01*
X108360500Y-157569000D01*
G75*
G02*
X108521000Y-157729500I0J-160500D01*
G01*
X108521000Y-158050500D01*
G75*
G02*
X108360500Y-158211000I-160500J0D01*
G01*
G37*
G36*
G01*
X108360500Y-159231000D02*
X107939500Y-159231000D01*
G75*
G02*
X107779000Y-159070500I0J160500D01*
G01*
X107779000Y-158749500D01*
G75*
G02*
X107939500Y-158589000I160500J0D01*
G01*
X108360500Y-158589000D01*
G75*
G02*
X108521000Y-158749500I0J-160500D01*
G01*
X108521000Y-159070500D01*
G75*
G02*
X108360500Y-159231000I-160500J0D01*
G01*
G37*
%TD*%
%TO.C,R2*%
G36*
G01*
X97626000Y-154199500D02*
X97626000Y-154800500D01*
G75*
G02*
X97400500Y-155026000I-225500J0D01*
G01*
X96949500Y-155026000D01*
G75*
G02*
X96724000Y-154800500I0J225500D01*
G01*
X96724000Y-154199500D01*
G75*
G02*
X96949500Y-153974000I225500J0D01*
G01*
X97400500Y-153974000D01*
G75*
G02*
X97626000Y-154199500I0J-225500D01*
G01*
G37*
G36*
G01*
X95976000Y-154199500D02*
X95976000Y-154800500D01*
G75*
G02*
X95750500Y-155026000I-225500J0D01*
G01*
X95299500Y-155026000D01*
G75*
G02*
X95074000Y-154800500I0J225500D01*
G01*
X95074000Y-154199500D01*
G75*
G02*
X95299500Y-153974000I225500J0D01*
G01*
X95750500Y-153974000D01*
G75*
G02*
X95976000Y-154199500I0J-225500D01*
G01*
G37*
%TD*%
%TO.C,R3*%
G36*
G01*
X107474000Y-154800500D02*
X107474000Y-154199500D01*
G75*
G02*
X107699500Y-153974000I225500J0D01*
G01*
X108150500Y-153974000D01*
G75*
G02*
X108376000Y-154199500I0J-225500D01*
G01*
X108376000Y-154800500D01*
G75*
G02*
X108150500Y-155026000I-225500J0D01*
G01*
X107699500Y-155026000D01*
G75*
G02*
X107474000Y-154800500I0J225500D01*
G01*
G37*
G36*
G01*
X105824000Y-154800500D02*
X105824000Y-154199500D01*
G75*
G02*
X106049500Y-153974000I225500J0D01*
G01*
X106500500Y-153974000D01*
G75*
G02*
X106726000Y-154199500I0J-225500D01*
G01*
X106726000Y-154800500D01*
G75*
G02*
X106500500Y-155026000I-225500J0D01*
G01*
X106049500Y-155026000D01*
G75*
G02*
X105824000Y-154800500I0J225500D01*
G01*
G37*
%TD*%
%TO.C,R4*%
G36*
G01*
X114660500Y-156631000D02*
X114239500Y-156631000D01*
G75*
G02*
X114079000Y-156470500I0J160500D01*
G01*
X114079000Y-156149500D01*
G75*
G02*
X114239500Y-155989000I160500J0D01*
G01*
X114660500Y-155989000D01*
G75*
G02*
X114821000Y-156149500I0J-160500D01*
G01*
X114821000Y-156470500D01*
G75*
G02*
X114660500Y-156631000I-160500J0D01*
G01*
G37*
G36*
G01*
X114660500Y-155611000D02*
X114239500Y-155611000D01*
G75*
G02*
X114079000Y-155450500I0J160500D01*
G01*
X114079000Y-155129500D01*
G75*
G02*
X114239500Y-154969000I160500J0D01*
G01*
X114660500Y-154969000D01*
G75*
G02*
X114821000Y-155129500I0J-160500D01*
G01*
X114821000Y-155450500D01*
G75*
G02*
X114660500Y-155611000I-160500J0D01*
G01*
G37*
%TD*%
%TO.C,R5*%
G36*
G01*
X111719000Y-164010500D02*
X111719000Y-163589500D01*
G75*
G02*
X111879500Y-163429000I160500J0D01*
G01*
X112200500Y-163429000D01*
G75*
G02*
X112361000Y-163589500I0J-160500D01*
G01*
X112361000Y-164010500D01*
G75*
G02*
X112200500Y-164171000I-160500J0D01*
G01*
X111879500Y-164171000D01*
G75*
G02*
X111719000Y-164010500I0J160500D01*
G01*
G37*
G36*
G01*
X112739000Y-164010500D02*
X112739000Y-163589500D01*
G75*
G02*
X112899500Y-163429000I160500J0D01*
G01*
X113220500Y-163429000D01*
G75*
G02*
X113381000Y-163589500I0J-160500D01*
G01*
X113381000Y-164010500D01*
G75*
G02*
X113220500Y-164171000I-160500J0D01*
G01*
X112899500Y-164171000D01*
G75*
G02*
X112739000Y-164010500I0J160500D01*
G01*
G37*
%TD*%
%TO.C,U1*%
G36*
G01*
X95899000Y-158500000D02*
X95899000Y-157700000D01*
G75*
G02*
X95950000Y-157649000I51000J0D01*
G01*
X96850000Y-157649000D01*
G75*
G02*
X96901000Y-157700000I0J-51000D01*
G01*
X96901000Y-158500000D01*
G75*
G02*
X96850000Y-158551000I-51000J0D01*
G01*
X95950000Y-158551000D01*
G75*
G02*
X95899000Y-158500000I0J51000D01*
G01*
G37*
G36*
G01*
X95899000Y-160400000D02*
X95899000Y-159600000D01*
G75*
G02*
X95950000Y-159549000I51000J0D01*
G01*
X96850000Y-159549000D01*
G75*
G02*
X96901000Y-159600000I0J-51000D01*
G01*
X96901000Y-160400000D01*
G75*
G02*
X96850000Y-160451000I-51000J0D01*
G01*
X95950000Y-160451000D01*
G75*
G02*
X95899000Y-160400000I0J51000D01*
G01*
G37*
G36*
G01*
X97899000Y-159450000D02*
X97899000Y-158650000D01*
G75*
G02*
X97950000Y-158599000I51000J0D01*
G01*
X98850000Y-158599000D01*
G75*
G02*
X98901000Y-158650000I0J-51000D01*
G01*
X98901000Y-159450000D01*
G75*
G02*
X98850000Y-159501000I-51000J0D01*
G01*
X97950000Y-159501000D01*
G75*
G02*
X97899000Y-159450000I0J51000D01*
G01*
G37*
%TD*%
%TO.C,U2*%
G36*
G01*
X94011000Y-161004999D02*
X94011000Y-161655001D01*
G75*
G02*
X93960001Y-161706000I-50999J0D01*
G01*
X92899999Y-161706000D01*
G75*
G02*
X92849000Y-161655001I0J50999D01*
G01*
X92849000Y-161004999D01*
G75*
G02*
X92899999Y-160954000I50999J0D01*
G01*
X93960001Y-160954000D01*
G75*
G02*
X94011000Y-161004999I0J-50999D01*
G01*
G37*
G36*
G01*
X94011000Y-160054999D02*
X94011000Y-160705001D01*
G75*
G02*
X93960001Y-160756000I-50999J0D01*
G01*
X92899999Y-160756000D01*
G75*
G02*
X92849000Y-160705001I0J50999D01*
G01*
X92849000Y-160054999D01*
G75*
G02*
X92899999Y-160004000I50999J0D01*
G01*
X93960001Y-160004000D01*
G75*
G02*
X94011000Y-160054999I0J-50999D01*
G01*
G37*
G36*
G01*
X94011000Y-159104999D02*
X94011000Y-159755001D01*
G75*
G02*
X93960001Y-159806000I-50999J0D01*
G01*
X92899999Y-159806000D01*
G75*
G02*
X92849000Y-159755001I0J50999D01*
G01*
X92849000Y-159104999D01*
G75*
G02*
X92899999Y-159054000I50999J0D01*
G01*
X93960001Y-159054000D01*
G75*
G02*
X94011000Y-159104999I0J-50999D01*
G01*
G37*
G36*
G01*
X91811000Y-159104999D02*
X91811000Y-159755001D01*
G75*
G02*
X91760001Y-159806000I-50999J0D01*
G01*
X90699999Y-159806000D01*
G75*
G02*
X90649000Y-159755001I0J50999D01*
G01*
X90649000Y-159104999D01*
G75*
G02*
X90699999Y-159054000I50999J0D01*
G01*
X91760001Y-159054000D01*
G75*
G02*
X91811000Y-159104999I0J-50999D01*
G01*
G37*
G36*
G01*
X91811000Y-161004999D02*
X91811000Y-161655001D01*
G75*
G02*
X91760001Y-161706000I-50999J0D01*
G01*
X90699999Y-161706000D01*
G75*
G02*
X90649000Y-161655001I0J50999D01*
G01*
X90649000Y-161004999D01*
G75*
G02*
X90699999Y-160954000I50999J0D01*
G01*
X91760001Y-160954000D01*
G75*
G02*
X91811000Y-161004999I0J-50999D01*
G01*
G37*
G36*
G01*
X91811000Y-160054999D02*
X91811000Y-160705001D01*
G75*
G02*
X91760001Y-160756000I-50999J0D01*
G01*
X90699999Y-160756000D01*
G75*
G02*
X90649000Y-160705001I0J50999D01*
G01*
X90649000Y-160054999D01*
G75*
G02*
X90699999Y-160004000I50999J0D01*
G01*
X91760001Y-160004000D01*
G75*
G02*
X91811000Y-160054999I0J-50999D01*
G01*
G37*
%TD*%
%TO.C,U3*%
G36*
G01*
X106166999Y-157919001D02*
X106342999Y-157919001D01*
G75*
G02*
X106430999Y-158007001I0J-88000D01*
G01*
X106430999Y-158808001D01*
G75*
G02*
X106342999Y-158896001I-88000J0D01*
G01*
X106166999Y-158896001D01*
G75*
G02*
X106078999Y-158808001I0J88000D01*
G01*
X106078999Y-158007001D01*
G75*
G02*
X106166999Y-157919001I88000J0D01*
G01*
G37*
G36*
G01*
X105666999Y-157919001D02*
X105842999Y-157919001D01*
G75*
G02*
X105930999Y-158007001I0J-88000D01*
G01*
X105930999Y-158808001D01*
G75*
G02*
X105842999Y-158896001I-88000J0D01*
G01*
X105666999Y-158896001D01*
G75*
G02*
X105578999Y-158808001I0J88000D01*
G01*
X105578999Y-158007001D01*
G75*
G02*
X105666999Y-157919001I88000J0D01*
G01*
G37*
G36*
G01*
X105166999Y-157919001D02*
X105342999Y-157919001D01*
G75*
G02*
X105430999Y-158007001I0J-88000D01*
G01*
X105430999Y-158808001D01*
G75*
G02*
X105342999Y-158896001I-88000J0D01*
G01*
X105166999Y-158896001D01*
G75*
G02*
X105078999Y-158808001I0J88000D01*
G01*
X105078999Y-158007001D01*
G75*
G02*
X105166999Y-157919001I88000J0D01*
G01*
G37*
G36*
G01*
X104666999Y-157919001D02*
X104842999Y-157919001D01*
G75*
G02*
X104930999Y-158007001I0J-88000D01*
G01*
X104930999Y-158808001D01*
G75*
G02*
X104842999Y-158896001I-88000J0D01*
G01*
X104666999Y-158896001D01*
G75*
G02*
X104578999Y-158808001I0J88000D01*
G01*
X104578999Y-158007001D01*
G75*
G02*
X104666999Y-157919001I88000J0D01*
G01*
G37*
G36*
G01*
X104166999Y-157919001D02*
X104342999Y-157919001D01*
G75*
G02*
X104430999Y-158007001I0J-88000D01*
G01*
X104430999Y-158808001D01*
G75*
G02*
X104342999Y-158896001I-88000J0D01*
G01*
X104166999Y-158896001D01*
G75*
G02*
X104078999Y-158808001I0J88000D01*
G01*
X104078999Y-158007001D01*
G75*
G02*
X104166999Y-157919001I88000J0D01*
G01*
G37*
G36*
G01*
X103666999Y-157919001D02*
X103842999Y-157919001D01*
G75*
G02*
X103930999Y-158007001I0J-88000D01*
G01*
X103930999Y-158808001D01*
G75*
G02*
X103842999Y-158896001I-88000J0D01*
G01*
X103666999Y-158896001D01*
G75*
G02*
X103578999Y-158808001I0J88000D01*
G01*
X103578999Y-158007001D01*
G75*
G02*
X103666999Y-157919001I88000J0D01*
G01*
G37*
G36*
G01*
X103166999Y-157919001D02*
X103342999Y-157919001D01*
G75*
G02*
X103430999Y-158007001I0J-88000D01*
G01*
X103430999Y-158808001D01*
G75*
G02*
X103342999Y-158896001I-88000J0D01*
G01*
X103166999Y-158896001D01*
G75*
G02*
X103078999Y-158808001I0J88000D01*
G01*
X103078999Y-158007001D01*
G75*
G02*
X103166999Y-157919001I88000J0D01*
G01*
G37*
G36*
G01*
X102666999Y-157919001D02*
X102842999Y-157919001D01*
G75*
G02*
X102930999Y-158007001I0J-88000D01*
G01*
X102930999Y-158808001D01*
G75*
G02*
X102842999Y-158896001I-88000J0D01*
G01*
X102666999Y-158896001D01*
G75*
G02*
X102578999Y-158808001I0J88000D01*
G01*
X102578999Y-158007001D01*
G75*
G02*
X102666999Y-157919001I88000J0D01*
G01*
G37*
G36*
G01*
X101666999Y-158919001D02*
X102467999Y-158919001D01*
G75*
G02*
X102555999Y-159007001I0J-88000D01*
G01*
X102555999Y-159183001D01*
G75*
G02*
X102467999Y-159271001I-88000J0D01*
G01*
X101666999Y-159271001D01*
G75*
G02*
X101578999Y-159183001I0J88000D01*
G01*
X101578999Y-159007001D01*
G75*
G02*
X101666999Y-158919001I88000J0D01*
G01*
G37*
G36*
G01*
X101666999Y-159419001D02*
X102467999Y-159419001D01*
G75*
G02*
X102555999Y-159507001I0J-88000D01*
G01*
X102555999Y-159683001D01*
G75*
G02*
X102467999Y-159771001I-88000J0D01*
G01*
X101666999Y-159771001D01*
G75*
G02*
X101578999Y-159683001I0J88000D01*
G01*
X101578999Y-159507001D01*
G75*
G02*
X101666999Y-159419001I88000J0D01*
G01*
G37*
G36*
G01*
X101666999Y-159919001D02*
X102467999Y-159919001D01*
G75*
G02*
X102555999Y-160007001I0J-88000D01*
G01*
X102555999Y-160183001D01*
G75*
G02*
X102467999Y-160271001I-88000J0D01*
G01*
X101666999Y-160271001D01*
G75*
G02*
X101578999Y-160183001I0J88000D01*
G01*
X101578999Y-160007001D01*
G75*
G02*
X101666999Y-159919001I88000J0D01*
G01*
G37*
G36*
G01*
X101666999Y-160419001D02*
X102467999Y-160419001D01*
G75*
G02*
X102555999Y-160507001I0J-88000D01*
G01*
X102555999Y-160683001D01*
G75*
G02*
X102467999Y-160771001I-88000J0D01*
G01*
X101666999Y-160771001D01*
G75*
G02*
X101578999Y-160683001I0J88000D01*
G01*
X101578999Y-160507001D01*
G75*
G02*
X101666999Y-160419001I88000J0D01*
G01*
G37*
G36*
G01*
X101666999Y-160919001D02*
X102467999Y-160919001D01*
G75*
G02*
X102555999Y-161007001I0J-88000D01*
G01*
X102555999Y-161183001D01*
G75*
G02*
X102467999Y-161271001I-88000J0D01*
G01*
X101666999Y-161271001D01*
G75*
G02*
X101578999Y-161183001I0J88000D01*
G01*
X101578999Y-161007001D01*
G75*
G02*
X101666999Y-160919001I88000J0D01*
G01*
G37*
G36*
G01*
X101666999Y-161419001D02*
X102467999Y-161419001D01*
G75*
G02*
X102555999Y-161507001I0J-88000D01*
G01*
X102555999Y-161683001D01*
G75*
G02*
X102467999Y-161771001I-88000J0D01*
G01*
X101666999Y-161771001D01*
G75*
G02*
X101578999Y-161683001I0J88000D01*
G01*
X101578999Y-161507001D01*
G75*
G02*
X101666999Y-161419001I88000J0D01*
G01*
G37*
G36*
G01*
X101666999Y-161919001D02*
X102467999Y-161919001D01*
G75*
G02*
X102555999Y-162007001I0J-88000D01*
G01*
X102555999Y-162183001D01*
G75*
G02*
X102467999Y-162271001I-88000J0D01*
G01*
X101666999Y-162271001D01*
G75*
G02*
X101578999Y-162183001I0J88000D01*
G01*
X101578999Y-162007001D01*
G75*
G02*
X101666999Y-161919001I88000J0D01*
G01*
G37*
G36*
G01*
X101666999Y-162419001D02*
X102467999Y-162419001D01*
G75*
G02*
X102555999Y-162507001I0J-88000D01*
G01*
X102555999Y-162683001D01*
G75*
G02*
X102467999Y-162771001I-88000J0D01*
G01*
X101666999Y-162771001D01*
G75*
G02*
X101578999Y-162683001I0J88000D01*
G01*
X101578999Y-162507001D01*
G75*
G02*
X101666999Y-162419001I88000J0D01*
G01*
G37*
G36*
G01*
X102666999Y-162794001D02*
X102842999Y-162794001D01*
G75*
G02*
X102930999Y-162882001I0J-88000D01*
G01*
X102930999Y-163683001D01*
G75*
G02*
X102842999Y-163771001I-88000J0D01*
G01*
X102666999Y-163771001D01*
G75*
G02*
X102578999Y-163683001I0J88000D01*
G01*
X102578999Y-162882001D01*
G75*
G02*
X102666999Y-162794001I88000J0D01*
G01*
G37*
G36*
G01*
X103166999Y-162794001D02*
X103342999Y-162794001D01*
G75*
G02*
X103430999Y-162882001I0J-88000D01*
G01*
X103430999Y-163683001D01*
G75*
G02*
X103342999Y-163771001I-88000J0D01*
G01*
X103166999Y-163771001D01*
G75*
G02*
X103078999Y-163683001I0J88000D01*
G01*
X103078999Y-162882001D01*
G75*
G02*
X103166999Y-162794001I88000J0D01*
G01*
G37*
G36*
G01*
X103666999Y-162794001D02*
X103842999Y-162794001D01*
G75*
G02*
X103930999Y-162882001I0J-88000D01*
G01*
X103930999Y-163683001D01*
G75*
G02*
X103842999Y-163771001I-88000J0D01*
G01*
X103666999Y-163771001D01*
G75*
G02*
X103578999Y-163683001I0J88000D01*
G01*
X103578999Y-162882001D01*
G75*
G02*
X103666999Y-162794001I88000J0D01*
G01*
G37*
G36*
G01*
X104166999Y-162794001D02*
X104342999Y-162794001D01*
G75*
G02*
X104430999Y-162882001I0J-88000D01*
G01*
X104430999Y-163683001D01*
G75*
G02*
X104342999Y-163771001I-88000J0D01*
G01*
X104166999Y-163771001D01*
G75*
G02*
X104078999Y-163683001I0J88000D01*
G01*
X104078999Y-162882001D01*
G75*
G02*
X104166999Y-162794001I88000J0D01*
G01*
G37*
G36*
G01*
X104666999Y-162794001D02*
X104842999Y-162794001D01*
G75*
G02*
X104930999Y-162882001I0J-88000D01*
G01*
X104930999Y-163683001D01*
G75*
G02*
X104842999Y-163771001I-88000J0D01*
G01*
X104666999Y-163771001D01*
G75*
G02*
X104578999Y-163683001I0J88000D01*
G01*
X104578999Y-162882001D01*
G75*
G02*
X104666999Y-162794001I88000J0D01*
G01*
G37*
G36*
G01*
X105166999Y-162794001D02*
X105342999Y-162794001D01*
G75*
G02*
X105430999Y-162882001I0J-88000D01*
G01*
X105430999Y-163683001D01*
G75*
G02*
X105342999Y-163771001I-88000J0D01*
G01*
X105166999Y-163771001D01*
G75*
G02*
X105078999Y-163683001I0J88000D01*
G01*
X105078999Y-162882001D01*
G75*
G02*
X105166999Y-162794001I88000J0D01*
G01*
G37*
G36*
G01*
X105666999Y-162794001D02*
X105842999Y-162794001D01*
G75*
G02*
X105930999Y-162882001I0J-88000D01*
G01*
X105930999Y-163683001D01*
G75*
G02*
X105842999Y-163771001I-88000J0D01*
G01*
X105666999Y-163771001D01*
G75*
G02*
X105578999Y-163683001I0J88000D01*
G01*
X105578999Y-162882001D01*
G75*
G02*
X105666999Y-162794001I88000J0D01*
G01*
G37*
G36*
G01*
X106166999Y-162794001D02*
X106342999Y-162794001D01*
G75*
G02*
X106430999Y-162882001I0J-88000D01*
G01*
X106430999Y-163683001D01*
G75*
G02*
X106342999Y-163771001I-88000J0D01*
G01*
X106166999Y-163771001D01*
G75*
G02*
X106078999Y-163683001I0J88000D01*
G01*
X106078999Y-162882001D01*
G75*
G02*
X106166999Y-162794001I88000J0D01*
G01*
G37*
G36*
G01*
X106541999Y-162419001D02*
X107342999Y-162419001D01*
G75*
G02*
X107430999Y-162507001I0J-88000D01*
G01*
X107430999Y-162683001D01*
G75*
G02*
X107342999Y-162771001I-88000J0D01*
G01*
X106541999Y-162771001D01*
G75*
G02*
X106453999Y-162683001I0J88000D01*
G01*
X106453999Y-162507001D01*
G75*
G02*
X106541999Y-162419001I88000J0D01*
G01*
G37*
G36*
G01*
X106541999Y-161919001D02*
X107342999Y-161919001D01*
G75*
G02*
X107430999Y-162007001I0J-88000D01*
G01*
X107430999Y-162183001D01*
G75*
G02*
X107342999Y-162271001I-88000J0D01*
G01*
X106541999Y-162271001D01*
G75*
G02*
X106453999Y-162183001I0J88000D01*
G01*
X106453999Y-162007001D01*
G75*
G02*
X106541999Y-161919001I88000J0D01*
G01*
G37*
G36*
G01*
X106541999Y-161419001D02*
X107342999Y-161419001D01*
G75*
G02*
X107430999Y-161507001I0J-88000D01*
G01*
X107430999Y-161683001D01*
G75*
G02*
X107342999Y-161771001I-88000J0D01*
G01*
X106541999Y-161771001D01*
G75*
G02*
X106453999Y-161683001I0J88000D01*
G01*
X106453999Y-161507001D01*
G75*
G02*
X106541999Y-161419001I88000J0D01*
G01*
G37*
G36*
G01*
X106541999Y-160919001D02*
X107342999Y-160919001D01*
G75*
G02*
X107430999Y-161007001I0J-88000D01*
G01*
X107430999Y-161183001D01*
G75*
G02*
X107342999Y-161271001I-88000J0D01*
G01*
X106541999Y-161271001D01*
G75*
G02*
X106453999Y-161183001I0J88000D01*
G01*
X106453999Y-161007001D01*
G75*
G02*
X106541999Y-160919001I88000J0D01*
G01*
G37*
G36*
G01*
X106541999Y-160419001D02*
X107342999Y-160419001D01*
G75*
G02*
X107430999Y-160507001I0J-88000D01*
G01*
X107430999Y-160683001D01*
G75*
G02*
X107342999Y-160771001I-88000J0D01*
G01*
X106541999Y-160771001D01*
G75*
G02*
X106453999Y-160683001I0J88000D01*
G01*
X106453999Y-160507001D01*
G75*
G02*
X106541999Y-160419001I88000J0D01*
G01*
G37*
G36*
G01*
X106541999Y-159919001D02*
X107342999Y-159919001D01*
G75*
G02*
X107430999Y-160007001I0J-88000D01*
G01*
X107430999Y-160183001D01*
G75*
G02*
X107342999Y-160271001I-88000J0D01*
G01*
X106541999Y-160271001D01*
G75*
G02*
X106453999Y-160183001I0J88000D01*
G01*
X106453999Y-160007001D01*
G75*
G02*
X106541999Y-159919001I88000J0D01*
G01*
G37*
G36*
G01*
X106541999Y-159419001D02*
X107342999Y-159419001D01*
G75*
G02*
X107430999Y-159507001I0J-88000D01*
G01*
X107430999Y-159683001D01*
G75*
G02*
X107342999Y-159771001I-88000J0D01*
G01*
X106541999Y-159771001D01*
G75*
G02*
X106453999Y-159683001I0J88000D01*
G01*
X106453999Y-159507001D01*
G75*
G02*
X106541999Y-159419001I88000J0D01*
G01*
G37*
G36*
G01*
X106541999Y-158919001D02*
X107342999Y-158919001D01*
G75*
G02*
X107430999Y-159007001I0J-88000D01*
G01*
X107430999Y-159183001D01*
G75*
G02*
X107342999Y-159271001I-88000J0D01*
G01*
X106541999Y-159271001D01*
G75*
G02*
X106453999Y-159183001I0J88000D01*
G01*
X106453999Y-159007001D01*
G75*
G02*
X106541999Y-158919001I88000J0D01*
G01*
G37*
G36*
G01*
X102779999Y-159069001D02*
X106229999Y-159069001D01*
G75*
G02*
X106280999Y-159120001I0J-51000D01*
G01*
X106280999Y-162570001D01*
G75*
G02*
X106229999Y-162621001I-51000J0D01*
G01*
X102779999Y-162621001D01*
G75*
G02*
X102728999Y-162570001I0J51000D01*
G01*
X102728999Y-159120001D01*
G75*
G02*
X102779999Y-159069001I51000J0D01*
G01*
G37*
%TD*%
%TO.C,U4*%
G36*
G01*
X109449000Y-159688000D02*
X109449000Y-159512000D01*
G75*
G02*
X109537000Y-159424000I88000J0D01*
G01*
X110288000Y-159424000D01*
G75*
G02*
X110376000Y-159512000I0J-88000D01*
G01*
X110376000Y-159688000D01*
G75*
G02*
X110288000Y-159776000I-88000J0D01*
G01*
X109537000Y-159776000D01*
G75*
G02*
X109449000Y-159688000I0J88000D01*
G01*
G37*
G36*
G01*
X109449000Y-160188000D02*
X109449000Y-160012000D01*
G75*
G02*
X109537000Y-159924000I88000J0D01*
G01*
X110288000Y-159924000D01*
G75*
G02*
X110376000Y-160012000I0J-88000D01*
G01*
X110376000Y-160188000D01*
G75*
G02*
X110288000Y-160276000I-88000J0D01*
G01*
X109537000Y-160276000D01*
G75*
G02*
X109449000Y-160188000I0J88000D01*
G01*
G37*
G36*
G01*
X109449000Y-160688000D02*
X109449000Y-160512000D01*
G75*
G02*
X109537000Y-160424000I88000J0D01*
G01*
X110288000Y-160424000D01*
G75*
G02*
X110376000Y-160512000I0J-88000D01*
G01*
X110376000Y-160688000D01*
G75*
G02*
X110288000Y-160776000I-88000J0D01*
G01*
X109537000Y-160776000D01*
G75*
G02*
X109449000Y-160688000I0J88000D01*
G01*
G37*
G36*
G01*
X109449000Y-161188000D02*
X109449000Y-161012000D01*
G75*
G02*
X109537000Y-160924000I88000J0D01*
G01*
X110288000Y-160924000D01*
G75*
G02*
X110376000Y-161012000I0J-88000D01*
G01*
X110376000Y-161188000D01*
G75*
G02*
X110288000Y-161276000I-88000J0D01*
G01*
X109537000Y-161276000D01*
G75*
G02*
X109449000Y-161188000I0J88000D01*
G01*
G37*
G36*
G01*
X109449000Y-161688000D02*
X109449000Y-161512000D01*
G75*
G02*
X109537000Y-161424000I88000J0D01*
G01*
X110288000Y-161424000D01*
G75*
G02*
X110376000Y-161512000I0J-88000D01*
G01*
X110376000Y-161688000D01*
G75*
G02*
X110288000Y-161776000I-88000J0D01*
G01*
X109537000Y-161776000D01*
G75*
G02*
X109449000Y-161688000I0J88000D01*
G01*
G37*
G36*
G01*
X110674000Y-162913000D02*
X110674000Y-162162000D01*
G75*
G02*
X110762000Y-162074000I88000J0D01*
G01*
X110938000Y-162074000D01*
G75*
G02*
X111026000Y-162162000I0J-88000D01*
G01*
X111026000Y-162913000D01*
G75*
G02*
X110938000Y-163001000I-88000J0D01*
G01*
X110762000Y-163001000D01*
G75*
G02*
X110674000Y-162913000I0J88000D01*
G01*
G37*
G36*
G01*
X111174000Y-162913000D02*
X111174000Y-162162000D01*
G75*
G02*
X111262000Y-162074000I88000J0D01*
G01*
X111438000Y-162074000D01*
G75*
G02*
X111526000Y-162162000I0J-88000D01*
G01*
X111526000Y-162913000D01*
G75*
G02*
X111438000Y-163001000I-88000J0D01*
G01*
X111262000Y-163001000D01*
G75*
G02*
X111174000Y-162913000I0J88000D01*
G01*
G37*
G36*
G01*
X111674000Y-162913000D02*
X111674000Y-162162000D01*
G75*
G02*
X111762000Y-162074000I88000J0D01*
G01*
X111938000Y-162074000D01*
G75*
G02*
X112026000Y-162162000I0J-88000D01*
G01*
X112026000Y-162913000D01*
G75*
G02*
X111938000Y-163001000I-88000J0D01*
G01*
X111762000Y-163001000D01*
G75*
G02*
X111674000Y-162913000I0J88000D01*
G01*
G37*
G36*
G01*
X112174000Y-162913000D02*
X112174000Y-162162000D01*
G75*
G02*
X112262000Y-162074000I88000J0D01*
G01*
X112438000Y-162074000D01*
G75*
G02*
X112526000Y-162162000I0J-88000D01*
G01*
X112526000Y-162913000D01*
G75*
G02*
X112438000Y-163001000I-88000J0D01*
G01*
X112262000Y-163001000D01*
G75*
G02*
X112174000Y-162913000I0J88000D01*
G01*
G37*
G36*
G01*
X112674000Y-162913000D02*
X112674000Y-162162000D01*
G75*
G02*
X112762000Y-162074000I88000J0D01*
G01*
X112938000Y-162074000D01*
G75*
G02*
X113026000Y-162162000I0J-88000D01*
G01*
X113026000Y-162913000D01*
G75*
G02*
X112938000Y-163001000I-88000J0D01*
G01*
X112762000Y-163001000D01*
G75*
G02*
X112674000Y-162913000I0J88000D01*
G01*
G37*
G36*
G01*
X113324000Y-161688000D02*
X113324000Y-161512000D01*
G75*
G02*
X113412000Y-161424000I88000J0D01*
G01*
X114163000Y-161424000D01*
G75*
G02*
X114251000Y-161512000I0J-88000D01*
G01*
X114251000Y-161688000D01*
G75*
G02*
X114163000Y-161776000I-88000J0D01*
G01*
X113412000Y-161776000D01*
G75*
G02*
X113324000Y-161688000I0J88000D01*
G01*
G37*
G36*
G01*
X113324000Y-161188000D02*
X113324000Y-161012000D01*
G75*
G02*
X113412000Y-160924000I88000J0D01*
G01*
X114163000Y-160924000D01*
G75*
G02*
X114251000Y-161012000I0J-88000D01*
G01*
X114251000Y-161188000D01*
G75*
G02*
X114163000Y-161276000I-88000J0D01*
G01*
X113412000Y-161276000D01*
G75*
G02*
X113324000Y-161188000I0J88000D01*
G01*
G37*
G36*
G01*
X113324000Y-160688000D02*
X113324000Y-160512000D01*
G75*
G02*
X113412000Y-160424000I88000J0D01*
G01*
X114163000Y-160424000D01*
G75*
G02*
X114251000Y-160512000I0J-88000D01*
G01*
X114251000Y-160688000D01*
G75*
G02*
X114163000Y-160776000I-88000J0D01*
G01*
X113412000Y-160776000D01*
G75*
G02*
X113324000Y-160688000I0J88000D01*
G01*
G37*
G36*
G01*
X113324000Y-160188000D02*
X113324000Y-160012000D01*
G75*
G02*
X113412000Y-159924000I88000J0D01*
G01*
X114163000Y-159924000D01*
G75*
G02*
X114251000Y-160012000I0J-88000D01*
G01*
X114251000Y-160188000D01*
G75*
G02*
X114163000Y-160276000I-88000J0D01*
G01*
X113412000Y-160276000D01*
G75*
G02*
X113324000Y-160188000I0J88000D01*
G01*
G37*
G36*
G01*
X113324000Y-159688000D02*
X113324000Y-159512000D01*
G75*
G02*
X113412000Y-159424000I88000J0D01*
G01*
X114163000Y-159424000D01*
G75*
G02*
X114251000Y-159512000I0J-88000D01*
G01*
X114251000Y-159688000D01*
G75*
G02*
X114163000Y-159776000I-88000J0D01*
G01*
X113412000Y-159776000D01*
G75*
G02*
X113324000Y-159688000I0J88000D01*
G01*
G37*
G36*
G01*
X112674000Y-159038000D02*
X112674000Y-158287000D01*
G75*
G02*
X112762000Y-158199000I88000J0D01*
G01*
X112938000Y-158199000D01*
G75*
G02*
X113026000Y-158287000I0J-88000D01*
G01*
X113026000Y-159038000D01*
G75*
G02*
X112938000Y-159126000I-88000J0D01*
G01*
X112762000Y-159126000D01*
G75*
G02*
X112674000Y-159038000I0J88000D01*
G01*
G37*
G36*
G01*
X112174000Y-159038000D02*
X112174000Y-158287000D01*
G75*
G02*
X112262000Y-158199000I88000J0D01*
G01*
X112438000Y-158199000D01*
G75*
G02*
X112526000Y-158287000I0J-88000D01*
G01*
X112526000Y-159038000D01*
G75*
G02*
X112438000Y-159126000I-88000J0D01*
G01*
X112262000Y-159126000D01*
G75*
G02*
X112174000Y-159038000I0J88000D01*
G01*
G37*
G36*
G01*
X111674000Y-159038000D02*
X111674000Y-158287000D01*
G75*
G02*
X111762000Y-158199000I88000J0D01*
G01*
X111938000Y-158199000D01*
G75*
G02*
X112026000Y-158287000I0J-88000D01*
G01*
X112026000Y-159038000D01*
G75*
G02*
X111938000Y-159126000I-88000J0D01*
G01*
X111762000Y-159126000D01*
G75*
G02*
X111674000Y-159038000I0J88000D01*
G01*
G37*
G36*
G01*
X111174000Y-159038000D02*
X111174000Y-158287000D01*
G75*
G02*
X111262000Y-158199000I88000J0D01*
G01*
X111438000Y-158199000D01*
G75*
G02*
X111526000Y-158287000I0J-88000D01*
G01*
X111526000Y-159038000D01*
G75*
G02*
X111438000Y-159126000I-88000J0D01*
G01*
X111262000Y-159126000D01*
G75*
G02*
X111174000Y-159038000I0J88000D01*
G01*
G37*
G36*
G01*
X110674000Y-159038000D02*
X110674000Y-158287000D01*
G75*
G02*
X110762000Y-158199000I88000J0D01*
G01*
X110938000Y-158199000D01*
G75*
G02*
X111026000Y-158287000I0J-88000D01*
G01*
X111026000Y-159038000D01*
G75*
G02*
X110938000Y-159126000I-88000J0D01*
G01*
X110762000Y-159126000D01*
G75*
G02*
X110674000Y-159038000I0J88000D01*
G01*
G37*
G36*
G01*
X110549000Y-161850000D02*
X110549000Y-159350000D01*
G75*
G02*
X110600000Y-159299000I51000J0D01*
G01*
X113100000Y-159299000D01*
G75*
G02*
X113151000Y-159350000I0J-51000D01*
G01*
X113151000Y-161850000D01*
G75*
G02*
X113100000Y-161901000I-51000J0D01*
G01*
X110600000Y-161901000D01*
G75*
G02*
X110549000Y-161850000I0J51000D01*
G01*
G37*
%TD*%
%TO.C,Y1*%
G36*
G01*
X113851000Y-164749999D02*
X113851000Y-165950001D01*
G75*
G02*
X113800001Y-166001000I-50999J0D01*
G01*
X112399999Y-166001000D01*
G75*
G02*
X112349000Y-165950001I0J50999D01*
G01*
X112349000Y-164749999D01*
G75*
G02*
X112399999Y-164699000I50999J0D01*
G01*
X113800001Y-164699000D01*
G75*
G02*
X113851000Y-164749999I0J-50999D01*
G01*
G37*
G36*
G01*
X111651000Y-164749999D02*
X111651000Y-165950001D01*
G75*
G02*
X111600001Y-166001000I-50999J0D01*
G01*
X110199999Y-166001000D01*
G75*
G02*
X110149000Y-165950001I0J50999D01*
G01*
X110149000Y-164749999D01*
G75*
G02*
X110199999Y-164699000I50999J0D01*
G01*
X111600001Y-164699000D01*
G75*
G02*
X111651000Y-164749999I0J-50999D01*
G01*
G37*
G36*
G01*
X111651000Y-166449999D02*
X111651000Y-167650001D01*
G75*
G02*
X111600001Y-167701000I-50999J0D01*
G01*
X110199999Y-167701000D01*
G75*
G02*
X110149000Y-167650001I0J50999D01*
G01*
X110149000Y-166449999D01*
G75*
G02*
X110199999Y-166399000I50999J0D01*
G01*
X111600001Y-166399000D01*
G75*
G02*
X111651000Y-166449999I0J-50999D01*
G01*
G37*
G36*
G01*
X113851000Y-166449999D02*
X113851000Y-167650001D01*
G75*
G02*
X113800001Y-167701000I-50999J0D01*
G01*
X112399999Y-167701000D01*
G75*
G02*
X112349000Y-167650001I0J50999D01*
G01*
X112349000Y-166449999D01*
G75*
G02*
X112399999Y-166399000I50999J0D01*
G01*
X113800001Y-166399000D01*
G75*
G02*
X113851000Y-166449999I0J-50999D01*
G01*
G37*
%TD*%
D12*
G36*
X94529287Y-166297256D02*
G01*
X94529437Y-166299077D01*
X94524650Y-166310635D01*
X94503653Y-166416192D01*
X94503653Y-166523808D01*
X94524650Y-166629365D01*
X94529437Y-166640923D01*
X94529176Y-166642906D01*
X94527328Y-166643671D01*
X94525825Y-166642631D01*
X94517262Y-166626609D01*
X94501967Y-166607972D01*
X94483330Y-166592677D01*
X94462066Y-166581312D01*
X94438991Y-166574312D01*
X94415000Y-166571949D01*
X94391009Y-166574312D01*
X94367934Y-166581312D01*
X94346670Y-166592677D01*
X94328033Y-166607972D01*
X94312738Y-166626609D01*
X94304175Y-166642631D01*
X94302476Y-166643687D01*
X94300713Y-166642744D01*
X94300563Y-166640923D01*
X94305350Y-166629365D01*
X94326347Y-166523808D01*
X94326347Y-166416192D01*
X94305350Y-166310635D01*
X94300563Y-166299077D01*
X94300824Y-166297094D01*
X94302672Y-166296329D01*
X94304175Y-166297369D01*
X94312738Y-166313391D01*
X94328033Y-166332028D01*
X94346670Y-166347323D01*
X94367934Y-166358688D01*
X94391009Y-166365688D01*
X94415000Y-166368051D01*
X94438991Y-166365688D01*
X94462066Y-166358688D01*
X94483330Y-166347323D01*
X94501967Y-166332028D01*
X94517262Y-166313391D01*
X94525825Y-166297369D01*
X94527524Y-166296313D01*
X94529287Y-166297256D01*
G37*
G36*
X95799287Y-166297256D02*
G01*
X95799437Y-166299077D01*
X95794650Y-166310635D01*
X95773653Y-166416192D01*
X95773653Y-166523808D01*
X95794650Y-166629365D01*
X95799437Y-166640923D01*
X95799176Y-166642906D01*
X95797328Y-166643671D01*
X95795825Y-166642631D01*
X95787262Y-166626609D01*
X95771967Y-166607972D01*
X95753330Y-166592677D01*
X95732066Y-166581312D01*
X95708991Y-166574312D01*
X95685000Y-166571949D01*
X95661009Y-166574312D01*
X95637934Y-166581312D01*
X95616670Y-166592677D01*
X95598033Y-166607972D01*
X95582738Y-166626609D01*
X95574175Y-166642631D01*
X95572476Y-166643687D01*
X95570713Y-166642744D01*
X95570563Y-166640923D01*
X95575350Y-166629365D01*
X95596347Y-166523808D01*
X95596347Y-166416192D01*
X95575350Y-166310635D01*
X95570563Y-166299077D01*
X95570824Y-166297094D01*
X95572672Y-166296329D01*
X95574175Y-166297369D01*
X95582738Y-166313391D01*
X95598033Y-166332028D01*
X95616670Y-166347323D01*
X95637934Y-166358688D01*
X95661009Y-166365688D01*
X95685000Y-166368051D01*
X95708991Y-166365688D01*
X95732066Y-166358688D01*
X95753330Y-166347323D01*
X95771967Y-166332028D01*
X95787262Y-166313391D01*
X95795825Y-166297369D01*
X95797524Y-166296313D01*
X95799287Y-166297256D01*
G37*
G36*
X97069287Y-166297256D02*
G01*
X97069437Y-166299077D01*
X97064650Y-166310635D01*
X97043653Y-166416192D01*
X97043653Y-166523808D01*
X97064650Y-166629365D01*
X97069437Y-166640923D01*
X97069176Y-166642906D01*
X97067328Y-166643671D01*
X97065825Y-166642631D01*
X97057262Y-166626609D01*
X97041967Y-166607972D01*
X97023330Y-166592677D01*
X97002066Y-166581312D01*
X96978991Y-166574312D01*
X96955000Y-166571949D01*
X96931009Y-166574312D01*
X96907934Y-166581312D01*
X96886670Y-166592677D01*
X96868033Y-166607972D01*
X96852738Y-166626609D01*
X96844175Y-166642631D01*
X96842476Y-166643687D01*
X96840713Y-166642744D01*
X96840563Y-166640923D01*
X96845350Y-166629365D01*
X96866347Y-166523808D01*
X96866347Y-166416192D01*
X96845350Y-166310635D01*
X96840563Y-166299077D01*
X96840824Y-166297094D01*
X96842672Y-166296329D01*
X96844175Y-166297369D01*
X96852738Y-166313391D01*
X96868033Y-166332028D01*
X96886670Y-166347323D01*
X96907934Y-166358688D01*
X96931009Y-166365688D01*
X96955000Y-166368051D01*
X96978991Y-166365688D01*
X97002066Y-166358688D01*
X97023330Y-166347323D01*
X97041967Y-166332028D01*
X97057262Y-166313391D01*
X97065825Y-166297369D01*
X97067524Y-166296313D01*
X97069287Y-166297256D01*
G37*
G36*
X93259287Y-166297256D02*
G01*
X93259437Y-166299077D01*
X93254650Y-166310635D01*
X93233653Y-166416192D01*
X93233653Y-166523808D01*
X93254650Y-166629365D01*
X93259437Y-166640923D01*
X93259176Y-166642906D01*
X93257328Y-166643671D01*
X93255825Y-166642631D01*
X93247262Y-166626609D01*
X93231967Y-166607972D01*
X93213330Y-166592677D01*
X93192066Y-166581312D01*
X93168991Y-166574312D01*
X93145000Y-166571949D01*
X93121009Y-166574312D01*
X93097934Y-166581312D01*
X93076670Y-166592677D01*
X93058033Y-166607972D01*
X93042738Y-166626609D01*
X93034175Y-166642631D01*
X93032476Y-166643687D01*
X93030713Y-166642744D01*
X93030563Y-166640923D01*
X93035350Y-166629365D01*
X93056347Y-166523808D01*
X93056347Y-166416192D01*
X93035350Y-166310635D01*
X93030563Y-166299077D01*
X93030824Y-166297094D01*
X93032672Y-166296329D01*
X93034175Y-166297369D01*
X93042738Y-166313391D01*
X93058033Y-166332028D01*
X93076670Y-166347323D01*
X93097934Y-166358688D01*
X93121009Y-166365688D01*
X93145000Y-166368051D01*
X93168991Y-166365688D01*
X93192066Y-166358688D01*
X93213330Y-166347323D01*
X93231967Y-166332028D01*
X93247262Y-166313391D01*
X93255825Y-166297369D01*
X93257524Y-166296313D01*
X93259287Y-166297256D01*
G37*
G36*
X97913654Y-165750000D02*
G01*
X97913654Y-165752000D01*
X97912118Y-165752990D01*
X97887931Y-165755372D01*
X97864856Y-165762372D01*
X97843592Y-165773737D01*
X97824955Y-165789032D01*
X97809660Y-165807669D01*
X97798295Y-165828933D01*
X97791295Y-165852008D01*
X97788932Y-165875998D01*
X97791295Y-165899990D01*
X97798295Y-165923065D01*
X97809660Y-165944329D01*
X97824955Y-165962966D01*
X97843670Y-165978324D01*
X97847998Y-165981216D01*
X97848883Y-165983010D01*
X97847772Y-165984673D01*
X97846122Y-165984727D01*
X97749365Y-165944650D01*
X97643808Y-165923653D01*
X97536192Y-165923653D01*
X97430635Y-165944650D01*
X97333878Y-165984727D01*
X97331895Y-165984466D01*
X97331130Y-165982618D01*
X97332002Y-165981216D01*
X97336330Y-165978324D01*
X97355045Y-165962965D01*
X97370340Y-165944328D01*
X97381705Y-165923065D01*
X97388705Y-165899990D01*
X97391068Y-165875998D01*
X97388705Y-165852007D01*
X97381705Y-165828932D01*
X97370340Y-165807669D01*
X97355044Y-165789032D01*
X97336407Y-165773737D01*
X97315144Y-165762372D01*
X97292069Y-165755372D01*
X97267882Y-165752990D01*
X97266256Y-165751825D01*
X97266452Y-165749835D01*
X97268078Y-165749000D01*
X97911922Y-165749000D01*
X97913654Y-165750000D01*
G37*
G36*
X95222906Y-165720824D02*
G01*
X95223671Y-165722672D01*
X95222631Y-165724175D01*
X95206609Y-165732738D01*
X95187972Y-165748033D01*
X95172677Y-165766670D01*
X95161312Y-165787934D01*
X95154312Y-165811009D01*
X95151949Y-165835000D01*
X95154312Y-165858991D01*
X95161312Y-165882066D01*
X95172677Y-165903330D01*
X95187972Y-165921967D01*
X95206609Y-165937262D01*
X95222631Y-165945825D01*
X95223687Y-165947524D01*
X95222744Y-165949287D01*
X95220923Y-165949437D01*
X95209365Y-165944650D01*
X95103808Y-165923653D01*
X94996192Y-165923653D01*
X94890635Y-165944650D01*
X94879077Y-165949437D01*
X94877094Y-165949176D01*
X94876329Y-165947328D01*
X94877369Y-165945825D01*
X94893391Y-165937262D01*
X94912028Y-165921967D01*
X94927323Y-165903330D01*
X94938688Y-165882066D01*
X94945688Y-165858991D01*
X94948051Y-165835000D01*
X94945688Y-165811009D01*
X94938688Y-165787934D01*
X94927323Y-165766670D01*
X94912028Y-165748033D01*
X94893391Y-165732738D01*
X94877369Y-165724175D01*
X94876313Y-165722476D01*
X94877256Y-165720713D01*
X94879077Y-165720563D01*
X94890635Y-165725350D01*
X94996192Y-165746347D01*
X95103808Y-165746347D01*
X95209365Y-165725350D01*
X95220923Y-165720563D01*
X95222906Y-165720824D01*
G37*
G36*
X93952906Y-165720824D02*
G01*
X93953671Y-165722672D01*
X93952631Y-165724175D01*
X93936609Y-165732738D01*
X93917972Y-165748033D01*
X93902677Y-165766670D01*
X93891312Y-165787934D01*
X93884312Y-165811009D01*
X93881949Y-165835000D01*
X93884312Y-165858991D01*
X93891312Y-165882066D01*
X93902677Y-165903330D01*
X93917972Y-165921967D01*
X93936609Y-165937262D01*
X93952631Y-165945825D01*
X93953687Y-165947524D01*
X93952744Y-165949287D01*
X93950923Y-165949437D01*
X93939365Y-165944650D01*
X93833808Y-165923653D01*
X93726192Y-165923653D01*
X93620635Y-165944650D01*
X93609077Y-165949437D01*
X93607094Y-165949176D01*
X93606329Y-165947328D01*
X93607369Y-165945825D01*
X93623391Y-165937262D01*
X93642028Y-165921967D01*
X93657323Y-165903330D01*
X93668688Y-165882066D01*
X93675688Y-165858991D01*
X93678051Y-165835000D01*
X93675688Y-165811009D01*
X93668688Y-165787934D01*
X93657323Y-165766670D01*
X93642028Y-165748033D01*
X93623391Y-165732738D01*
X93607369Y-165724175D01*
X93606313Y-165722476D01*
X93607256Y-165720713D01*
X93609077Y-165720563D01*
X93620635Y-165725350D01*
X93726192Y-165746347D01*
X93833808Y-165746347D01*
X93939365Y-165725350D01*
X93950923Y-165720563D01*
X93952906Y-165720824D01*
G37*
G36*
X96492906Y-165720824D02*
G01*
X96493671Y-165722672D01*
X96492631Y-165724175D01*
X96476609Y-165732738D01*
X96457972Y-165748033D01*
X96442677Y-165766670D01*
X96431312Y-165787934D01*
X96424312Y-165811009D01*
X96421949Y-165835000D01*
X96424312Y-165858991D01*
X96431312Y-165882066D01*
X96442677Y-165903330D01*
X96457972Y-165921967D01*
X96476609Y-165937262D01*
X96492631Y-165945825D01*
X96493687Y-165947524D01*
X96492744Y-165949287D01*
X96490923Y-165949437D01*
X96479365Y-165944650D01*
X96373808Y-165923653D01*
X96266192Y-165923653D01*
X96160635Y-165944650D01*
X96149077Y-165949437D01*
X96147094Y-165949176D01*
X96146329Y-165947328D01*
X96147369Y-165945825D01*
X96163391Y-165937262D01*
X96182028Y-165921967D01*
X96197323Y-165903330D01*
X96208688Y-165882066D01*
X96215688Y-165858991D01*
X96218051Y-165835000D01*
X96215688Y-165811009D01*
X96208688Y-165787934D01*
X96197323Y-165766670D01*
X96182028Y-165748033D01*
X96163391Y-165732738D01*
X96147369Y-165724175D01*
X96146313Y-165722476D01*
X96147256Y-165720713D01*
X96149077Y-165720563D01*
X96160635Y-165725350D01*
X96266192Y-165746347D01*
X96373808Y-165746347D01*
X96479365Y-165725350D01*
X96490923Y-165720563D01*
X96492906Y-165720824D01*
G37*
G36*
X92682906Y-165720824D02*
G01*
X92683671Y-165722672D01*
X92682631Y-165724175D01*
X92666609Y-165732738D01*
X92647972Y-165748033D01*
X92632677Y-165766670D01*
X92621312Y-165787934D01*
X92614312Y-165811009D01*
X92611949Y-165835000D01*
X92614312Y-165858991D01*
X92621312Y-165882066D01*
X92632677Y-165903330D01*
X92647972Y-165921967D01*
X92666609Y-165937262D01*
X92682631Y-165945825D01*
X92683687Y-165947524D01*
X92682744Y-165949287D01*
X92680923Y-165949437D01*
X92669365Y-165944650D01*
X92563808Y-165923653D01*
X92456192Y-165923653D01*
X92350635Y-165944650D01*
X92339077Y-165949437D01*
X92337094Y-165949176D01*
X92336329Y-165947328D01*
X92337369Y-165945825D01*
X92353391Y-165937262D01*
X92372028Y-165921967D01*
X92387323Y-165903330D01*
X92398688Y-165882066D01*
X92405688Y-165858991D01*
X92408051Y-165835000D01*
X92405688Y-165811009D01*
X92398688Y-165787934D01*
X92387323Y-165766670D01*
X92372028Y-165748033D01*
X92353391Y-165732738D01*
X92337369Y-165724175D01*
X92336313Y-165722476D01*
X92337256Y-165720713D01*
X92339077Y-165720563D01*
X92350635Y-165725350D01*
X92456192Y-165746347D01*
X92563808Y-165746347D01*
X92669365Y-165725350D01*
X92680923Y-165720563D01*
X92682906Y-165720824D01*
G37*
G36*
X97040165Y-164876452D02*
G01*
X97041000Y-164878078D01*
X97041000Y-165521922D01*
X97040000Y-165523654D01*
X97038000Y-165523654D01*
X97037010Y-165522118D01*
X97034628Y-165497931D01*
X97027628Y-165474856D01*
X97016263Y-165453592D01*
X97000968Y-165434955D01*
X96982331Y-165419660D01*
X96961067Y-165408295D01*
X96937992Y-165401295D01*
X96914001Y-165398932D01*
X96890010Y-165401295D01*
X96866935Y-165408295D01*
X96845671Y-165419660D01*
X96827034Y-165434955D01*
X96811676Y-165453670D01*
X96808784Y-165457998D01*
X96806990Y-165458883D01*
X96805327Y-165457772D01*
X96805273Y-165456122D01*
X96845350Y-165359365D01*
X96866347Y-165253808D01*
X96866347Y-165146192D01*
X96845350Y-165040635D01*
X96805273Y-164943878D01*
X96805534Y-164941895D01*
X96807382Y-164941130D01*
X96808784Y-164942002D01*
X96811676Y-164946330D01*
X96827035Y-164965045D01*
X96845672Y-164980340D01*
X96866935Y-164991705D01*
X96890010Y-164998705D01*
X96914002Y-165001068D01*
X96937993Y-164998705D01*
X96961068Y-164991705D01*
X96982331Y-164980340D01*
X97000968Y-164965044D01*
X97016263Y-164946407D01*
X97027628Y-164925144D01*
X97034628Y-164902069D01*
X97037010Y-164877882D01*
X97038175Y-164876256D01*
X97040165Y-164876452D01*
G37*
G36*
X94529287Y-165027256D02*
G01*
X94529437Y-165029077D01*
X94524650Y-165040635D01*
X94503653Y-165146192D01*
X94503653Y-165253808D01*
X94524650Y-165359365D01*
X94529437Y-165370923D01*
X94529176Y-165372906D01*
X94527328Y-165373671D01*
X94525825Y-165372631D01*
X94517262Y-165356609D01*
X94501967Y-165337972D01*
X94483330Y-165322677D01*
X94462066Y-165311312D01*
X94438991Y-165304312D01*
X94415000Y-165301949D01*
X94391009Y-165304312D01*
X94367934Y-165311312D01*
X94346670Y-165322677D01*
X94328033Y-165337972D01*
X94312738Y-165356609D01*
X94304175Y-165372631D01*
X94302476Y-165373687D01*
X94300713Y-165372744D01*
X94300563Y-165370923D01*
X94305350Y-165359365D01*
X94326347Y-165253808D01*
X94326347Y-165146192D01*
X94305350Y-165040635D01*
X94300563Y-165029077D01*
X94300824Y-165027094D01*
X94302672Y-165026329D01*
X94304175Y-165027369D01*
X94312738Y-165043391D01*
X94328033Y-165062028D01*
X94346670Y-165077323D01*
X94367934Y-165088688D01*
X94391009Y-165095688D01*
X94415000Y-165098051D01*
X94438991Y-165095688D01*
X94462066Y-165088688D01*
X94483330Y-165077323D01*
X94501967Y-165062028D01*
X94517262Y-165043391D01*
X94525825Y-165027369D01*
X94527524Y-165026313D01*
X94529287Y-165027256D01*
G37*
G36*
X93259287Y-165027256D02*
G01*
X93259437Y-165029077D01*
X93254650Y-165040635D01*
X93233653Y-165146192D01*
X93233653Y-165253808D01*
X93254650Y-165359365D01*
X93259437Y-165370923D01*
X93259176Y-165372906D01*
X93257328Y-165373671D01*
X93255825Y-165372631D01*
X93247262Y-165356609D01*
X93231967Y-165337972D01*
X93213330Y-165322677D01*
X93192066Y-165311312D01*
X93168991Y-165304312D01*
X93145000Y-165301949D01*
X93121009Y-165304312D01*
X93097934Y-165311312D01*
X93076670Y-165322677D01*
X93058033Y-165337972D01*
X93042738Y-165356609D01*
X93034175Y-165372631D01*
X93032476Y-165373687D01*
X93030713Y-165372744D01*
X93030563Y-165370923D01*
X93035350Y-165359365D01*
X93056347Y-165253808D01*
X93056347Y-165146192D01*
X93035350Y-165040635D01*
X93030563Y-165029077D01*
X93030824Y-165027094D01*
X93032672Y-165026329D01*
X93034175Y-165027369D01*
X93042738Y-165043391D01*
X93058033Y-165062028D01*
X93076670Y-165077323D01*
X93097934Y-165088688D01*
X93121009Y-165095688D01*
X93145000Y-165098051D01*
X93168991Y-165095688D01*
X93192066Y-165088688D01*
X93213330Y-165077323D01*
X93231967Y-165062028D01*
X93247262Y-165043391D01*
X93255825Y-165027369D01*
X93257524Y-165026313D01*
X93259287Y-165027256D01*
G37*
G36*
X95799287Y-165027256D02*
G01*
X95799437Y-165029077D01*
X95794650Y-165040635D01*
X95773653Y-165146192D01*
X95773653Y-165253808D01*
X95794650Y-165359365D01*
X95799437Y-165370923D01*
X95799176Y-165372906D01*
X95797328Y-165373671D01*
X95795825Y-165372631D01*
X95787262Y-165356609D01*
X95771967Y-165337972D01*
X95753330Y-165322677D01*
X95732066Y-165311312D01*
X95708991Y-165304312D01*
X95685000Y-165301949D01*
X95661009Y-165304312D01*
X95637934Y-165311312D01*
X95616670Y-165322677D01*
X95598033Y-165337972D01*
X95582738Y-165356609D01*
X95574175Y-165372631D01*
X95572476Y-165373687D01*
X95570713Y-165372744D01*
X95570563Y-165370923D01*
X95575350Y-165359365D01*
X95596347Y-165253808D01*
X95596347Y-165146192D01*
X95575350Y-165040635D01*
X95570563Y-165029077D01*
X95570824Y-165027094D01*
X95572672Y-165026329D01*
X95574175Y-165027369D01*
X95582738Y-165043391D01*
X95598033Y-165062028D01*
X95616670Y-165077323D01*
X95637934Y-165088688D01*
X95661009Y-165095688D01*
X95685000Y-165098051D01*
X95708991Y-165095688D01*
X95732066Y-165088688D01*
X95753330Y-165077323D01*
X95771967Y-165062028D01*
X95787262Y-165043391D01*
X95795825Y-165027369D01*
X95797524Y-165026313D01*
X95799287Y-165027256D01*
G37*
G36*
X102899554Y-157917011D02*
G01*
X102910550Y-157918094D01*
X102910935Y-157918170D01*
X102915609Y-157919588D01*
X102915971Y-157919738D01*
X102920272Y-157922037D01*
X102920598Y-157922255D01*
X102926895Y-157927422D01*
X102947022Y-157940871D01*
X102969296Y-157950097D01*
X102992947Y-157954801D01*
X103017053Y-157954801D01*
X103040703Y-157950096D01*
X103062977Y-157940870D01*
X103083103Y-157927422D01*
X103089400Y-157922255D01*
X103089726Y-157922037D01*
X103094027Y-157919738D01*
X103094389Y-157919588D01*
X103099063Y-157918170D01*
X103099448Y-157918094D01*
X103110444Y-157917011D01*
X103110640Y-157917001D01*
X103166999Y-157917001D01*
X103168731Y-157918001D01*
X103168731Y-157920001D01*
X103167195Y-157920991D01*
X103150226Y-157922662D01*
X103134092Y-157927557D01*
X103119225Y-157935503D01*
X103106195Y-157946197D01*
X103095501Y-157959227D01*
X103087555Y-157974094D01*
X103082660Y-157990228D01*
X103080999Y-158007095D01*
X103080999Y-158807907D01*
X103082660Y-158824774D01*
X103087555Y-158840908D01*
X103095501Y-158855775D01*
X103106195Y-158868805D01*
X103119225Y-158879499D01*
X103134092Y-158887445D01*
X103150226Y-158892340D01*
X103167093Y-158894001D01*
X103342905Y-158894001D01*
X103359772Y-158892340D01*
X103375906Y-158887445D01*
X103390773Y-158879499D01*
X103403803Y-158868805D01*
X103414497Y-158855775D01*
X103422443Y-158840908D01*
X103427338Y-158824774D01*
X103428999Y-158807907D01*
X103428999Y-158007095D01*
X103427338Y-157990228D01*
X103422443Y-157974094D01*
X103414497Y-157959227D01*
X103403803Y-157946197D01*
X103390773Y-157935503D01*
X103375906Y-157927557D01*
X103359772Y-157922662D01*
X103342803Y-157920991D01*
X103341177Y-157919826D01*
X103341373Y-157917836D01*
X103342999Y-157917001D01*
X103399358Y-157917001D01*
X103399554Y-157917011D01*
X103410550Y-157918094D01*
X103410935Y-157918170D01*
X103415609Y-157919588D01*
X103415971Y-157919738D01*
X103420272Y-157922037D01*
X103420598Y-157922255D01*
X103426895Y-157927422D01*
X103447022Y-157940871D01*
X103469296Y-157950097D01*
X103492947Y-157954801D01*
X103517053Y-157954801D01*
X103540703Y-157950096D01*
X103562977Y-157940870D01*
X103583103Y-157927422D01*
X103589400Y-157922255D01*
X103589726Y-157922037D01*
X103594027Y-157919738D01*
X103594389Y-157919588D01*
X103599063Y-157918170D01*
X103599448Y-157918094D01*
X103610444Y-157917011D01*
X103610640Y-157917001D01*
X103666999Y-157917001D01*
X103668731Y-157918001D01*
X103668731Y-157920001D01*
X103667195Y-157920991D01*
X103650226Y-157922662D01*
X103634092Y-157927557D01*
X103619225Y-157935503D01*
X103606195Y-157946197D01*
X103595501Y-157959227D01*
X103587555Y-157974094D01*
X103582660Y-157990228D01*
X103580999Y-158007095D01*
X103580999Y-158807907D01*
X103582660Y-158824774D01*
X103587555Y-158840908D01*
X103595501Y-158855775D01*
X103606195Y-158868805D01*
X103619225Y-158879499D01*
X103634092Y-158887445D01*
X103650226Y-158892340D01*
X103667093Y-158894001D01*
X103842905Y-158894001D01*
X103859772Y-158892340D01*
X103875906Y-158887445D01*
X103890773Y-158879499D01*
X103903803Y-158868805D01*
X103914497Y-158855775D01*
X103922443Y-158840908D01*
X103927338Y-158824774D01*
X103928999Y-158807907D01*
X103928999Y-158007095D01*
X103927338Y-157990228D01*
X103922443Y-157974094D01*
X103914497Y-157959227D01*
X103903803Y-157946197D01*
X103890773Y-157935503D01*
X103875906Y-157927557D01*
X103859772Y-157922662D01*
X103842803Y-157920991D01*
X103841177Y-157919826D01*
X103841373Y-157917836D01*
X103842999Y-157917001D01*
X103899358Y-157917001D01*
X103899554Y-157917011D01*
X103910550Y-157918094D01*
X103910935Y-157918170D01*
X103915609Y-157919588D01*
X103915971Y-157919738D01*
X103920272Y-157922037D01*
X103920598Y-157922255D01*
X103926895Y-157927422D01*
X103947022Y-157940871D01*
X103969296Y-157950097D01*
X103992947Y-157954801D01*
X104017053Y-157954801D01*
X104040703Y-157950096D01*
X104062977Y-157940870D01*
X104083103Y-157927422D01*
X104089400Y-157922255D01*
X104089726Y-157922037D01*
X104094027Y-157919738D01*
X104094389Y-157919588D01*
X104099063Y-157918170D01*
X104099448Y-157918094D01*
X104110444Y-157917011D01*
X104110640Y-157917001D01*
X104166999Y-157917001D01*
X104168731Y-157918001D01*
X104168731Y-157920001D01*
X104167195Y-157920991D01*
X104150226Y-157922662D01*
X104134092Y-157927557D01*
X104119225Y-157935503D01*
X104106195Y-157946197D01*
X104095501Y-157959227D01*
X104087555Y-157974094D01*
X104082660Y-157990228D01*
X104080999Y-158007095D01*
X104080999Y-158807907D01*
X104082660Y-158824774D01*
X104087555Y-158840908D01*
X104095501Y-158855775D01*
X104106195Y-158868805D01*
X104119225Y-158879499D01*
X104134092Y-158887445D01*
X104150226Y-158892340D01*
X104167093Y-158894001D01*
X104342905Y-158894001D01*
X104359772Y-158892340D01*
X104375906Y-158887445D01*
X104390773Y-158879499D01*
X104403803Y-158868805D01*
X104414497Y-158855775D01*
X104422443Y-158840908D01*
X104427338Y-158824774D01*
X104428999Y-158807907D01*
X104428999Y-158007095D01*
X104427338Y-157990228D01*
X104422443Y-157974094D01*
X104414497Y-157959227D01*
X104403803Y-157946197D01*
X104390773Y-157935503D01*
X104375906Y-157927557D01*
X104359772Y-157922662D01*
X104342803Y-157920991D01*
X104341177Y-157919826D01*
X104341373Y-157917836D01*
X104342999Y-157917001D01*
X104399358Y-157917001D01*
X104399554Y-157917011D01*
X104410550Y-157918094D01*
X104410935Y-157918170D01*
X104415609Y-157919588D01*
X104415971Y-157919738D01*
X104420272Y-157922037D01*
X104420598Y-157922255D01*
X104426895Y-157927422D01*
X104447022Y-157940871D01*
X104469296Y-157950097D01*
X104492947Y-157954801D01*
X104517053Y-157954801D01*
X104540703Y-157950096D01*
X104562977Y-157940870D01*
X104583103Y-157927422D01*
X104589400Y-157922255D01*
X104589726Y-157922037D01*
X104594027Y-157919738D01*
X104594389Y-157919588D01*
X104599063Y-157918170D01*
X104599448Y-157918094D01*
X104610444Y-157917011D01*
X104610640Y-157917001D01*
X104666999Y-157917001D01*
X104668731Y-157918001D01*
X104668731Y-157920001D01*
X104667195Y-157920991D01*
X104650226Y-157922662D01*
X104634092Y-157927557D01*
X104619225Y-157935503D01*
X104606195Y-157946197D01*
X104595501Y-157959227D01*
X104587555Y-157974094D01*
X104582660Y-157990228D01*
X104580999Y-158007095D01*
X104580999Y-158807907D01*
X104582660Y-158824774D01*
X104587555Y-158840908D01*
X104595501Y-158855775D01*
X104606195Y-158868805D01*
X104619225Y-158879499D01*
X104634092Y-158887445D01*
X104650226Y-158892340D01*
X104667093Y-158894001D01*
X104842905Y-158894001D01*
X104859772Y-158892340D01*
X104875906Y-158887445D01*
X104890773Y-158879499D01*
X104903803Y-158868805D01*
X104914497Y-158855775D01*
X104922443Y-158840908D01*
X104927338Y-158824774D01*
X104928999Y-158807907D01*
X104928999Y-158007095D01*
X104927338Y-157990228D01*
X104922443Y-157974094D01*
X104914497Y-157959227D01*
X104903803Y-157946197D01*
X104890773Y-157935503D01*
X104875906Y-157927557D01*
X104859772Y-157922662D01*
X104842803Y-157920991D01*
X104841177Y-157919826D01*
X104841373Y-157917836D01*
X104842999Y-157917001D01*
X104899358Y-157917001D01*
X104899554Y-157917011D01*
X104910550Y-157918094D01*
X104910935Y-157918170D01*
X104915609Y-157919588D01*
X104915971Y-157919738D01*
X104920272Y-157922037D01*
X104920598Y-157922255D01*
X104926895Y-157927422D01*
X104947022Y-157940871D01*
X104969296Y-157950097D01*
X104992947Y-157954801D01*
X105017053Y-157954801D01*
X105040703Y-157950096D01*
X105062977Y-157940870D01*
X105083103Y-157927422D01*
X105089400Y-157922255D01*
X105089726Y-157922037D01*
X105094027Y-157919738D01*
X105094389Y-157919588D01*
X105099063Y-157918170D01*
X105099448Y-157918094D01*
X105110444Y-157917011D01*
X105110640Y-157917001D01*
X105166999Y-157917001D01*
X105168731Y-157918001D01*
X105168731Y-157920001D01*
X105167195Y-157920991D01*
X105150226Y-157922662D01*
X105134092Y-157927557D01*
X105119225Y-157935503D01*
X105106195Y-157946197D01*
X105095501Y-157959227D01*
X105087555Y-157974094D01*
X105082660Y-157990228D01*
X105080999Y-158007095D01*
X105080999Y-158807907D01*
X105082660Y-158824774D01*
X105087555Y-158840908D01*
X105095501Y-158855775D01*
X105106195Y-158868805D01*
X105119225Y-158879499D01*
X105134092Y-158887445D01*
X105150226Y-158892340D01*
X105167093Y-158894001D01*
X105342905Y-158894001D01*
X105359772Y-158892340D01*
X105375906Y-158887445D01*
X105390773Y-158879499D01*
X105403803Y-158868805D01*
X105414497Y-158855775D01*
X105422443Y-158840908D01*
X105427338Y-158824774D01*
X105428999Y-158807907D01*
X105428999Y-158007095D01*
X105427338Y-157990228D01*
X105422443Y-157974094D01*
X105414497Y-157959227D01*
X105403803Y-157946197D01*
X105390773Y-157935503D01*
X105375906Y-157927557D01*
X105359772Y-157922662D01*
X105342803Y-157920991D01*
X105341177Y-157919826D01*
X105341373Y-157917836D01*
X105342999Y-157917001D01*
X105399358Y-157917001D01*
X105399554Y-157917011D01*
X105410550Y-157918094D01*
X105410935Y-157918170D01*
X105415609Y-157919588D01*
X105415971Y-157919738D01*
X105420272Y-157922037D01*
X105420598Y-157922255D01*
X105426895Y-157927422D01*
X105447022Y-157940871D01*
X105469296Y-157950097D01*
X105492947Y-157954801D01*
X105517053Y-157954801D01*
X105540703Y-157950096D01*
X105562977Y-157940870D01*
X105583103Y-157927422D01*
X105589400Y-157922255D01*
X105589726Y-157922037D01*
X105594027Y-157919738D01*
X105594389Y-157919588D01*
X105599063Y-157918170D01*
X105599448Y-157918094D01*
X105610444Y-157917011D01*
X105610640Y-157917001D01*
X105666999Y-157917001D01*
X105668731Y-157918001D01*
X105668731Y-157920001D01*
X105667195Y-157920991D01*
X105650226Y-157922662D01*
X105634092Y-157927557D01*
X105619225Y-157935503D01*
X105606195Y-157946197D01*
X105595501Y-157959227D01*
X105587555Y-157974094D01*
X105582660Y-157990228D01*
X105580999Y-158007095D01*
X105580999Y-158807907D01*
X105582660Y-158824774D01*
X105587555Y-158840908D01*
X105595501Y-158855775D01*
X105606195Y-158868805D01*
X105619225Y-158879499D01*
X105634092Y-158887445D01*
X105650226Y-158892340D01*
X105667093Y-158894001D01*
X105842905Y-158894001D01*
X105859772Y-158892340D01*
X105875906Y-158887445D01*
X105890773Y-158879499D01*
X105903803Y-158868805D01*
X105914497Y-158855775D01*
X105922443Y-158840908D01*
X105927338Y-158824774D01*
X105928999Y-158807907D01*
X105928999Y-158007095D01*
X105927338Y-157990228D01*
X105922443Y-157974094D01*
X105914497Y-157959227D01*
X105903803Y-157946197D01*
X105890773Y-157935503D01*
X105875906Y-157927557D01*
X105859772Y-157922662D01*
X105842803Y-157920991D01*
X105841177Y-157919826D01*
X105841373Y-157917836D01*
X105842999Y-157917001D01*
X105899358Y-157917001D01*
X105899554Y-157917011D01*
X105910550Y-157918094D01*
X105910935Y-157918170D01*
X105915609Y-157919588D01*
X105915971Y-157919738D01*
X105920272Y-157922037D01*
X105920598Y-157922255D01*
X105926895Y-157927422D01*
X105947022Y-157940871D01*
X105969296Y-157950097D01*
X105992947Y-157954801D01*
X106017053Y-157954801D01*
X106040703Y-157950096D01*
X106062977Y-157940870D01*
X106083103Y-157927422D01*
X106089400Y-157922255D01*
X106089726Y-157922037D01*
X106094027Y-157919738D01*
X106094389Y-157919588D01*
X106099063Y-157918170D01*
X106099448Y-157918094D01*
X106110444Y-157917011D01*
X106110640Y-157917001D01*
X106166999Y-157917001D01*
X106168731Y-157918001D01*
X106168731Y-157920001D01*
X106167195Y-157920991D01*
X106150226Y-157922662D01*
X106134092Y-157927557D01*
X106119225Y-157935503D01*
X106106195Y-157946197D01*
X106095501Y-157959227D01*
X106087555Y-157974094D01*
X106082660Y-157990228D01*
X106080999Y-158007095D01*
X106080999Y-158807907D01*
X106082660Y-158824774D01*
X106087555Y-158840908D01*
X106095501Y-158855775D01*
X106106195Y-158868805D01*
X106119225Y-158879499D01*
X106134092Y-158887445D01*
X106150226Y-158892340D01*
X106167093Y-158894001D01*
X106342905Y-158894001D01*
X106359772Y-158892340D01*
X106375906Y-158887445D01*
X106390773Y-158879499D01*
X106403803Y-158868805D01*
X106414497Y-158855775D01*
X106422443Y-158840908D01*
X106427338Y-158824774D01*
X106428999Y-158807907D01*
X106428999Y-158794002D01*
X106429999Y-158792270D01*
X106431999Y-158792270D01*
X106432989Y-158793806D01*
X106435371Y-158817993D01*
X106442371Y-158841068D01*
X106453736Y-158862332D01*
X106469031Y-158880969D01*
X106487668Y-158896264D01*
X106508932Y-158907629D01*
X106532007Y-158914629D01*
X106556194Y-158917011D01*
X106557820Y-158918176D01*
X106557624Y-158920166D01*
X106555998Y-158921001D01*
X106542093Y-158921001D01*
X106525226Y-158922662D01*
X106509092Y-158927557D01*
X106494225Y-158935503D01*
X106481195Y-158946197D01*
X106470501Y-158959227D01*
X106462555Y-158974094D01*
X106457660Y-158990228D01*
X106455999Y-159007095D01*
X106455999Y-159182907D01*
X106457660Y-159199774D01*
X106462555Y-159215908D01*
X106470501Y-159230775D01*
X106481195Y-159243805D01*
X106494225Y-159254499D01*
X106509092Y-159262445D01*
X106525226Y-159267340D01*
X106542093Y-159269001D01*
X107342905Y-159269001D01*
X107359772Y-159267340D01*
X107375906Y-159262445D01*
X107390773Y-159254499D01*
X107403803Y-159243805D01*
X107414497Y-159230775D01*
X107422443Y-159215908D01*
X107427338Y-159199774D01*
X107429009Y-159182805D01*
X107430174Y-159181179D01*
X107432164Y-159181375D01*
X107432999Y-159183001D01*
X107432999Y-159239360D01*
X107432989Y-159239556D01*
X107431906Y-159250552D01*
X107431830Y-159250937D01*
X107430412Y-159255611D01*
X107430262Y-159255973D01*
X107427963Y-159260274D01*
X107427745Y-159260600D01*
X107422578Y-159266897D01*
X107409129Y-159287024D01*
X107399903Y-159309298D01*
X107395199Y-159332949D01*
X107395199Y-159357055D01*
X107399904Y-159380705D01*
X107409130Y-159402979D01*
X107422578Y-159423105D01*
X107427745Y-159429402D01*
X107427963Y-159429728D01*
X107430262Y-159434029D01*
X107430412Y-159434391D01*
X107431830Y-159439065D01*
X107431906Y-159439450D01*
X107432989Y-159450446D01*
X107432999Y-159450642D01*
X107432999Y-159507001D01*
X107431999Y-159508733D01*
X107429999Y-159508733D01*
X107429009Y-159507197D01*
X107427338Y-159490228D01*
X107422443Y-159474094D01*
X107414497Y-159459227D01*
X107403803Y-159446197D01*
X107390773Y-159435503D01*
X107375906Y-159427557D01*
X107359772Y-159422662D01*
X107342905Y-159421001D01*
X106542093Y-159421001D01*
X106525226Y-159422662D01*
X106509092Y-159427557D01*
X106494225Y-159435503D01*
X106481195Y-159446197D01*
X106470501Y-159459227D01*
X106462555Y-159474094D01*
X106457660Y-159490228D01*
X106455999Y-159507095D01*
X106455999Y-159682907D01*
X106457660Y-159699774D01*
X106462555Y-159715908D01*
X106470501Y-159730775D01*
X106481195Y-159743805D01*
X106494225Y-159754499D01*
X106509092Y-159762445D01*
X106525226Y-159767340D01*
X106542093Y-159769001D01*
X107342905Y-159769001D01*
X107359772Y-159767340D01*
X107375906Y-159762445D01*
X107390773Y-159754499D01*
X107403803Y-159743805D01*
X107414497Y-159730775D01*
X107422443Y-159715908D01*
X107427338Y-159699774D01*
X107429009Y-159682805D01*
X107430174Y-159681179D01*
X107432164Y-159681375D01*
X107432999Y-159683001D01*
X107432999Y-159739360D01*
X107432989Y-159739556D01*
X107431906Y-159750552D01*
X107431830Y-159750937D01*
X107430412Y-159755611D01*
X107430262Y-159755973D01*
X107427963Y-159760274D01*
X107427745Y-159760600D01*
X107422578Y-159766897D01*
X107409129Y-159787024D01*
X107399903Y-159809298D01*
X107395199Y-159832949D01*
X107395199Y-159857055D01*
X107399904Y-159880705D01*
X107409130Y-159902979D01*
X107422578Y-159923105D01*
X107427745Y-159929402D01*
X107427963Y-159929728D01*
X107430262Y-159934029D01*
X107430412Y-159934391D01*
X107431830Y-159939065D01*
X107431906Y-159939450D01*
X107432989Y-159950446D01*
X107432999Y-159950642D01*
X107432999Y-160007001D01*
X107431999Y-160008733D01*
X107429999Y-160008733D01*
X107429009Y-160007197D01*
X107427338Y-159990228D01*
X107422443Y-159974094D01*
X107414497Y-159959227D01*
X107403803Y-159946197D01*
X107390773Y-159935503D01*
X107375906Y-159927557D01*
X107359772Y-159922662D01*
X107342905Y-159921001D01*
X106542093Y-159921001D01*
X106525226Y-159922662D01*
X106509092Y-159927557D01*
X106494225Y-159935503D01*
X106481195Y-159946197D01*
X106470501Y-159959227D01*
X106462555Y-159974094D01*
X106457660Y-159990228D01*
X106455999Y-160007095D01*
X106455999Y-160182907D01*
X106457660Y-160199774D01*
X106462555Y-160215908D01*
X106470501Y-160230775D01*
X106481195Y-160243805D01*
X106494225Y-160254499D01*
X106509092Y-160262445D01*
X106525226Y-160267340D01*
X106542093Y-160269001D01*
X107342905Y-160269001D01*
X107359772Y-160267340D01*
X107375906Y-160262445D01*
X107390773Y-160254499D01*
X107403803Y-160243805D01*
X107414497Y-160230775D01*
X107422443Y-160215908D01*
X107427338Y-160199774D01*
X107429009Y-160182805D01*
X107430174Y-160181179D01*
X107432164Y-160181375D01*
X107432999Y-160183001D01*
X107432999Y-160239360D01*
X107432989Y-160239556D01*
X107431906Y-160250552D01*
X107431830Y-160250937D01*
X107430412Y-160255611D01*
X107430262Y-160255973D01*
X107427963Y-160260274D01*
X107427745Y-160260600D01*
X107422578Y-160266897D01*
X107409129Y-160287024D01*
X107399903Y-160309298D01*
X107395199Y-160332949D01*
X107395199Y-160357055D01*
X107399904Y-160380705D01*
X107409130Y-160402979D01*
X107422578Y-160423105D01*
X107427745Y-160429402D01*
X107427963Y-160429728D01*
X107430262Y-160434029D01*
X107430412Y-160434391D01*
X107431830Y-160439065D01*
X107431906Y-160439450D01*
X107432989Y-160450446D01*
X107432999Y-160450642D01*
X107432999Y-160507001D01*
X107431999Y-160508733D01*
X107429999Y-160508733D01*
X107429009Y-160507197D01*
X107427338Y-160490228D01*
X107422443Y-160474094D01*
X107414497Y-160459227D01*
X107403803Y-160446197D01*
X107390773Y-160435503D01*
X107375906Y-160427557D01*
X107359772Y-160422662D01*
X107342905Y-160421001D01*
X106542093Y-160421001D01*
X106525226Y-160422662D01*
X106509092Y-160427557D01*
X106494225Y-160435503D01*
X106481195Y-160446197D01*
X106470501Y-160459227D01*
X106462555Y-160474094D01*
X106457660Y-160490228D01*
X106455999Y-160507095D01*
X106455999Y-160682907D01*
X106457660Y-160699774D01*
X106462555Y-160715908D01*
X106470501Y-160730775D01*
X106481195Y-160743805D01*
X106494225Y-160754499D01*
X106509092Y-160762445D01*
X106525226Y-160767340D01*
X106542093Y-160769001D01*
X107342905Y-160769001D01*
X107359772Y-160767340D01*
X107375906Y-160762445D01*
X107390773Y-160754499D01*
X107403803Y-160743805D01*
X107414497Y-160730775D01*
X107422443Y-160715908D01*
X107427338Y-160699774D01*
X107429009Y-160682805D01*
X107430174Y-160681179D01*
X107432164Y-160681375D01*
X107432999Y-160683001D01*
X107432999Y-160739360D01*
X107432989Y-160739556D01*
X107431906Y-160750552D01*
X107431830Y-160750937D01*
X107430412Y-160755611D01*
X107430262Y-160755973D01*
X107427963Y-160760274D01*
X107427745Y-160760600D01*
X107422578Y-160766897D01*
X107409129Y-160787024D01*
X107399903Y-160809298D01*
X107395199Y-160832949D01*
X107395199Y-160857055D01*
X107399904Y-160880705D01*
X107409130Y-160902979D01*
X107422578Y-160923105D01*
X107427745Y-160929402D01*
X107427963Y-160929728D01*
X107430262Y-160934029D01*
X107430412Y-160934391D01*
X107431830Y-160939065D01*
X107431906Y-160939450D01*
X107432989Y-160950446D01*
X107432999Y-160950642D01*
X107432999Y-161007001D01*
X107431999Y-161008733D01*
X107429999Y-161008733D01*
X107429009Y-161007197D01*
X107427338Y-160990228D01*
X107422443Y-160974094D01*
X107414497Y-160959227D01*
X107403803Y-160946197D01*
X107390773Y-160935503D01*
X107375906Y-160927557D01*
X107359772Y-160922662D01*
X107342905Y-160921001D01*
X106542093Y-160921001D01*
X106525226Y-160922662D01*
X106509092Y-160927557D01*
X106494225Y-160935503D01*
X106481195Y-160946197D01*
X106470501Y-160959227D01*
X106462555Y-160974094D01*
X106457660Y-160990228D01*
X106455999Y-161007095D01*
X106455999Y-161182907D01*
X106457660Y-161199774D01*
X106462555Y-161215908D01*
X106470501Y-161230775D01*
X106481195Y-161243805D01*
X106494225Y-161254499D01*
X106509092Y-161262445D01*
X106525226Y-161267340D01*
X106542093Y-161269001D01*
X107342905Y-161269001D01*
X107359772Y-161267340D01*
X107375906Y-161262445D01*
X107390773Y-161254499D01*
X107403803Y-161243805D01*
X107414497Y-161230775D01*
X107422443Y-161215908D01*
X107427338Y-161199774D01*
X107429009Y-161182805D01*
X107430174Y-161181179D01*
X107432164Y-161181375D01*
X107432999Y-161183001D01*
X107432999Y-161239360D01*
X107432989Y-161239556D01*
X107431906Y-161250552D01*
X107431830Y-161250937D01*
X107430412Y-161255611D01*
X107430262Y-161255973D01*
X107427963Y-161260274D01*
X107427745Y-161260600D01*
X107422578Y-161266897D01*
X107409129Y-161287024D01*
X107399903Y-161309298D01*
X107395199Y-161332949D01*
X107395199Y-161357055D01*
X107399904Y-161380705D01*
X107409130Y-161402979D01*
X107422578Y-161423105D01*
X107427745Y-161429402D01*
X107427963Y-161429728D01*
X107430262Y-161434029D01*
X107430412Y-161434391D01*
X107431830Y-161439065D01*
X107431906Y-161439450D01*
X107432989Y-161450446D01*
X107432999Y-161450642D01*
X107432999Y-161507001D01*
X107431999Y-161508733D01*
X107429999Y-161508733D01*
X107429009Y-161507197D01*
X107427338Y-161490228D01*
X107422443Y-161474094D01*
X107414497Y-161459227D01*
X107403803Y-161446197D01*
X107390773Y-161435503D01*
X107375906Y-161427557D01*
X107359772Y-161422662D01*
X107342905Y-161421001D01*
X106542093Y-161421001D01*
X106525226Y-161422662D01*
X106509092Y-161427557D01*
X106494225Y-161435503D01*
X106481195Y-161446197D01*
X106470501Y-161459227D01*
X106462555Y-161474094D01*
X106457660Y-161490228D01*
X106455999Y-161507095D01*
X106455999Y-161682907D01*
X106457660Y-161699774D01*
X106462555Y-161715908D01*
X106470501Y-161730775D01*
X106481195Y-161743805D01*
X106494225Y-161754499D01*
X106509092Y-161762445D01*
X106525226Y-161767340D01*
X106542093Y-161769001D01*
X107342905Y-161769001D01*
X107359772Y-161767340D01*
X107375906Y-161762445D01*
X107390773Y-161754499D01*
X107403803Y-161743805D01*
X107414497Y-161730775D01*
X107422443Y-161715908D01*
X107427338Y-161699774D01*
X107429009Y-161682805D01*
X107430174Y-161681179D01*
X107432164Y-161681375D01*
X107432999Y-161683001D01*
X107432999Y-161739360D01*
X107432989Y-161739556D01*
X107431906Y-161750552D01*
X107431830Y-161750937D01*
X107430412Y-161755611D01*
X107430262Y-161755973D01*
X107427963Y-161760274D01*
X107427745Y-161760600D01*
X107422578Y-161766897D01*
X107409129Y-161787024D01*
X107399903Y-161809298D01*
X107395199Y-161832949D01*
X107395199Y-161857055D01*
X107399904Y-161880705D01*
X107409129Y-161902978D01*
X107422578Y-161923105D01*
X107427745Y-161929402D01*
X107427963Y-161929728D01*
X107430262Y-161934029D01*
X107430412Y-161934391D01*
X107431830Y-161939065D01*
X107431906Y-161939450D01*
X107432989Y-161950446D01*
X107432999Y-161950642D01*
X107432999Y-162007001D01*
X107431999Y-162008733D01*
X107429999Y-162008733D01*
X107429009Y-162007197D01*
X107427338Y-161990228D01*
X107422443Y-161974094D01*
X107414497Y-161959227D01*
X107403803Y-161946197D01*
X107390773Y-161935503D01*
X107375906Y-161927557D01*
X107359772Y-161922662D01*
X107342905Y-161921001D01*
X106542093Y-161921001D01*
X106525226Y-161922662D01*
X106509092Y-161927557D01*
X106494225Y-161935503D01*
X106481195Y-161946197D01*
X106470501Y-161959227D01*
X106462555Y-161974094D01*
X106457660Y-161990228D01*
X106455999Y-162007095D01*
X106455999Y-162182907D01*
X106457660Y-162199774D01*
X106462555Y-162215908D01*
X106470501Y-162230775D01*
X106481195Y-162243805D01*
X106494225Y-162254499D01*
X106509092Y-162262445D01*
X106525226Y-162267340D01*
X106542093Y-162269001D01*
X107342905Y-162269001D01*
X107359772Y-162267340D01*
X107375906Y-162262445D01*
X107390773Y-162254499D01*
X107403803Y-162243805D01*
X107414497Y-162230775D01*
X107422443Y-162215908D01*
X107427338Y-162199774D01*
X107429009Y-162182805D01*
X107430174Y-162181179D01*
X107432164Y-162181375D01*
X107432999Y-162183001D01*
X107432999Y-162239360D01*
X107432989Y-162239556D01*
X107431906Y-162250552D01*
X107431830Y-162250937D01*
X107430412Y-162255611D01*
X107430262Y-162255973D01*
X107427963Y-162260274D01*
X107427745Y-162260600D01*
X107422578Y-162266897D01*
X107409129Y-162287024D01*
X107399903Y-162309298D01*
X107395199Y-162332949D01*
X107395199Y-162357055D01*
X107399904Y-162380705D01*
X107409130Y-162402979D01*
X107422578Y-162423105D01*
X107427745Y-162429402D01*
X107427963Y-162429728D01*
X107430262Y-162434029D01*
X107430412Y-162434391D01*
X107431830Y-162439065D01*
X107431906Y-162439450D01*
X107432989Y-162450446D01*
X107432999Y-162450642D01*
X107432999Y-162507001D01*
X107431999Y-162508733D01*
X107429999Y-162508733D01*
X107429009Y-162507197D01*
X107427338Y-162490228D01*
X107422443Y-162474094D01*
X107414497Y-162459227D01*
X107403803Y-162446197D01*
X107390773Y-162435503D01*
X107375906Y-162427557D01*
X107359772Y-162422662D01*
X107342905Y-162421001D01*
X106542093Y-162421001D01*
X106525226Y-162422662D01*
X106509092Y-162427557D01*
X106494225Y-162435503D01*
X106481195Y-162446197D01*
X106470501Y-162459227D01*
X106462555Y-162474094D01*
X106457660Y-162490228D01*
X106455999Y-162507095D01*
X106455999Y-162682907D01*
X106457660Y-162699774D01*
X106462555Y-162715908D01*
X106470501Y-162730775D01*
X106481195Y-162743805D01*
X106494225Y-162754499D01*
X106509092Y-162762445D01*
X106525226Y-162767340D01*
X106542093Y-162769001D01*
X106555998Y-162769001D01*
X106557730Y-162770001D01*
X106557730Y-162772001D01*
X106556194Y-162772991D01*
X106532007Y-162775373D01*
X106508932Y-162782373D01*
X106487668Y-162793738D01*
X106469031Y-162809033D01*
X106453736Y-162827670D01*
X106442371Y-162848934D01*
X106435371Y-162872009D01*
X106432989Y-162896196D01*
X106431824Y-162897822D01*
X106429834Y-162897626D01*
X106428999Y-162896000D01*
X106428999Y-162882095D01*
X106427338Y-162865228D01*
X106422443Y-162849094D01*
X106414497Y-162834227D01*
X106403803Y-162821197D01*
X106390773Y-162810503D01*
X106375906Y-162802557D01*
X106359772Y-162797662D01*
X106342905Y-162796001D01*
X106167093Y-162796001D01*
X106150226Y-162797662D01*
X106134092Y-162802557D01*
X106119225Y-162810503D01*
X106106195Y-162821197D01*
X106095501Y-162834227D01*
X106087555Y-162849094D01*
X106082660Y-162865228D01*
X106080999Y-162882095D01*
X106080999Y-163682907D01*
X106082660Y-163699774D01*
X106087555Y-163715908D01*
X106095501Y-163730775D01*
X106106195Y-163743805D01*
X106119225Y-163754499D01*
X106134092Y-163762445D01*
X106150226Y-163767340D01*
X106167195Y-163769011D01*
X106168821Y-163770176D01*
X106168625Y-163772166D01*
X106166999Y-163773001D01*
X106110640Y-163773001D01*
X106110444Y-163772991D01*
X106099448Y-163771908D01*
X106099063Y-163771832D01*
X106094389Y-163770414D01*
X106094027Y-163770264D01*
X106089726Y-163767965D01*
X106089400Y-163767747D01*
X106083103Y-163762580D01*
X106062976Y-163749131D01*
X106040702Y-163739905D01*
X106017051Y-163735201D01*
X105992945Y-163735201D01*
X105969295Y-163739906D01*
X105947021Y-163749132D01*
X105926895Y-163762580D01*
X105920598Y-163767747D01*
X105920272Y-163767965D01*
X105915971Y-163770264D01*
X105915609Y-163770414D01*
X105910935Y-163771832D01*
X105910550Y-163771908D01*
X105899554Y-163772991D01*
X105899358Y-163773001D01*
X105842999Y-163773001D01*
X105841267Y-163772001D01*
X105841267Y-163770001D01*
X105842803Y-163769011D01*
X105859772Y-163767340D01*
X105875906Y-163762445D01*
X105890773Y-163754499D01*
X105903803Y-163743805D01*
X105914497Y-163730775D01*
X105922443Y-163715908D01*
X105927338Y-163699774D01*
X105928999Y-163682907D01*
X105928999Y-162882095D01*
X105927338Y-162865228D01*
X105922443Y-162849094D01*
X105914497Y-162834227D01*
X105903803Y-162821197D01*
X105890773Y-162810503D01*
X105875906Y-162802557D01*
X105859772Y-162797662D01*
X105842905Y-162796001D01*
X105667093Y-162796001D01*
X105650226Y-162797662D01*
X105634092Y-162802557D01*
X105619225Y-162810503D01*
X105606195Y-162821197D01*
X105595501Y-162834227D01*
X105587555Y-162849094D01*
X105582660Y-162865228D01*
X105580999Y-162882095D01*
X105580999Y-163682907D01*
X105582660Y-163699774D01*
X105587555Y-163715908D01*
X105595501Y-163730775D01*
X105606195Y-163743805D01*
X105619225Y-163754499D01*
X105634092Y-163762445D01*
X105650226Y-163767340D01*
X105667195Y-163769011D01*
X105668821Y-163770176D01*
X105668625Y-163772166D01*
X105666999Y-163773001D01*
X105610640Y-163773001D01*
X105610444Y-163772991D01*
X105599448Y-163771908D01*
X105599063Y-163771832D01*
X105594389Y-163770414D01*
X105594027Y-163770264D01*
X105589726Y-163767965D01*
X105589400Y-163767747D01*
X105583103Y-163762580D01*
X105562976Y-163749131D01*
X105540702Y-163739905D01*
X105517051Y-163735201D01*
X105492945Y-163735201D01*
X105469295Y-163739906D01*
X105447021Y-163749132D01*
X105426895Y-163762580D01*
X105420598Y-163767747D01*
X105420272Y-163767965D01*
X105415971Y-163770264D01*
X105415609Y-163770414D01*
X105410935Y-163771832D01*
X105410550Y-163771908D01*
X105399554Y-163772991D01*
X105399358Y-163773001D01*
X105342999Y-163773001D01*
X105341267Y-163772001D01*
X105341267Y-163770001D01*
X105342803Y-163769011D01*
X105359772Y-163767340D01*
X105375906Y-163762445D01*
X105390773Y-163754499D01*
X105403803Y-163743805D01*
X105414497Y-163730775D01*
X105422443Y-163715908D01*
X105427338Y-163699774D01*
X105428999Y-163682907D01*
X105428999Y-162882095D01*
X105427338Y-162865228D01*
X105422443Y-162849094D01*
X105414497Y-162834227D01*
X105403803Y-162821197D01*
X105390773Y-162810503D01*
X105375906Y-162802557D01*
X105359772Y-162797662D01*
X105342905Y-162796001D01*
X105167093Y-162796001D01*
X105150226Y-162797662D01*
X105134092Y-162802557D01*
X105119225Y-162810503D01*
X105106195Y-162821197D01*
X105095501Y-162834227D01*
X105087555Y-162849094D01*
X105082660Y-162865228D01*
X105080999Y-162882095D01*
X105080999Y-163682907D01*
X105082660Y-163699774D01*
X105087555Y-163715908D01*
X105095501Y-163730775D01*
X105106195Y-163743805D01*
X105119225Y-163754499D01*
X105134092Y-163762445D01*
X105150226Y-163767340D01*
X105167195Y-163769011D01*
X105168821Y-163770176D01*
X105168625Y-163772166D01*
X105166999Y-163773001D01*
X105110640Y-163773001D01*
X105110444Y-163772991D01*
X105099448Y-163771908D01*
X105099063Y-163771832D01*
X105094389Y-163770414D01*
X105094027Y-163770264D01*
X105089726Y-163767965D01*
X105089400Y-163767747D01*
X105083103Y-163762580D01*
X105062976Y-163749131D01*
X105040702Y-163739905D01*
X105017051Y-163735201D01*
X104992945Y-163735201D01*
X104969295Y-163739906D01*
X104947021Y-163749132D01*
X104926895Y-163762580D01*
X104920598Y-163767747D01*
X104920272Y-163767965D01*
X104915971Y-163770264D01*
X104915609Y-163770414D01*
X104910935Y-163771832D01*
X104910550Y-163771908D01*
X104899554Y-163772991D01*
X104899358Y-163773001D01*
X104842999Y-163773001D01*
X104841267Y-163772001D01*
X104841267Y-163770001D01*
X104842803Y-163769011D01*
X104859772Y-163767340D01*
X104875906Y-163762445D01*
X104890773Y-163754499D01*
X104903803Y-163743805D01*
X104914497Y-163730775D01*
X104922443Y-163715908D01*
X104927338Y-163699774D01*
X104928999Y-163682907D01*
X104928999Y-162882095D01*
X104927338Y-162865228D01*
X104922443Y-162849094D01*
X104914497Y-162834227D01*
X104903803Y-162821197D01*
X104890773Y-162810503D01*
X104875906Y-162802557D01*
X104859772Y-162797662D01*
X104842905Y-162796001D01*
X104667093Y-162796001D01*
X104650226Y-162797662D01*
X104634092Y-162802557D01*
X104619225Y-162810503D01*
X104606195Y-162821197D01*
X104595501Y-162834227D01*
X104587555Y-162849094D01*
X104582660Y-162865228D01*
X104580999Y-162882095D01*
X104580999Y-163682907D01*
X104582660Y-163699774D01*
X104587555Y-163715908D01*
X104595501Y-163730775D01*
X104606195Y-163743805D01*
X104619225Y-163754499D01*
X104634092Y-163762445D01*
X104650226Y-163767340D01*
X104667195Y-163769011D01*
X104668821Y-163770176D01*
X104668625Y-163772166D01*
X104666999Y-163773001D01*
X104610640Y-163773001D01*
X104610444Y-163772991D01*
X104599448Y-163771908D01*
X104599063Y-163771832D01*
X104594389Y-163770414D01*
X104594027Y-163770264D01*
X104589726Y-163767965D01*
X104589400Y-163767747D01*
X104583103Y-163762580D01*
X104562976Y-163749131D01*
X104540702Y-163739905D01*
X104517051Y-163735201D01*
X104492945Y-163735201D01*
X104469295Y-163739906D01*
X104447021Y-163749132D01*
X104426895Y-163762580D01*
X104420598Y-163767747D01*
X104420272Y-163767965D01*
X104415971Y-163770264D01*
X104415609Y-163770414D01*
X104410935Y-163771832D01*
X104410550Y-163771908D01*
X104399554Y-163772991D01*
X104399358Y-163773001D01*
X104342999Y-163773001D01*
X104341267Y-163772001D01*
X104341267Y-163770001D01*
X104342803Y-163769011D01*
X104359772Y-163767340D01*
X104375906Y-163762445D01*
X104390773Y-163754499D01*
X104403803Y-163743805D01*
X104414497Y-163730775D01*
X104422443Y-163715908D01*
X104427338Y-163699774D01*
X104428999Y-163682907D01*
X104428999Y-162882095D01*
X104427338Y-162865228D01*
X104422443Y-162849094D01*
X104414497Y-162834227D01*
X104403803Y-162821197D01*
X104390773Y-162810503D01*
X104375906Y-162802557D01*
X104359772Y-162797662D01*
X104342905Y-162796001D01*
X104167093Y-162796001D01*
X104150226Y-162797662D01*
X104134092Y-162802557D01*
X104119225Y-162810503D01*
X104106195Y-162821197D01*
X104095501Y-162834227D01*
X104087555Y-162849094D01*
X104082660Y-162865228D01*
X104080999Y-162882095D01*
X104080999Y-163682907D01*
X104082660Y-163699774D01*
X104087555Y-163715908D01*
X104095501Y-163730775D01*
X104106195Y-163743805D01*
X104119225Y-163754499D01*
X104134092Y-163762445D01*
X104150226Y-163767340D01*
X104167195Y-163769011D01*
X104168821Y-163770176D01*
X104168625Y-163772166D01*
X104166999Y-163773001D01*
X104110640Y-163773001D01*
X104110444Y-163772991D01*
X104099448Y-163771908D01*
X104099063Y-163771832D01*
X104094389Y-163770414D01*
X104094027Y-163770264D01*
X104089726Y-163767965D01*
X104089400Y-163767747D01*
X104083103Y-163762580D01*
X104062976Y-163749131D01*
X104040702Y-163739905D01*
X104017051Y-163735201D01*
X103992945Y-163735201D01*
X103969295Y-163739906D01*
X103947021Y-163749132D01*
X103926895Y-163762580D01*
X103920598Y-163767747D01*
X103920272Y-163767965D01*
X103915971Y-163770264D01*
X103915609Y-163770414D01*
X103910935Y-163771832D01*
X103910550Y-163771908D01*
X103899554Y-163772991D01*
X103899358Y-163773001D01*
X103842999Y-163773001D01*
X103841267Y-163772001D01*
X103841267Y-163770001D01*
X103842803Y-163769011D01*
X103859772Y-163767340D01*
X103875906Y-163762445D01*
X103890773Y-163754499D01*
X103903803Y-163743805D01*
X103914497Y-163730775D01*
X103922443Y-163715908D01*
X103927338Y-163699774D01*
X103928999Y-163682907D01*
X103928999Y-162882095D01*
X103927338Y-162865228D01*
X103922443Y-162849094D01*
X103914497Y-162834227D01*
X103903803Y-162821197D01*
X103890773Y-162810503D01*
X103875906Y-162802557D01*
X103859772Y-162797662D01*
X103842905Y-162796001D01*
X103667093Y-162796001D01*
X103650226Y-162797662D01*
X103634092Y-162802557D01*
X103619225Y-162810503D01*
X103606195Y-162821197D01*
X103595501Y-162834227D01*
X103587555Y-162849094D01*
X103582660Y-162865228D01*
X103580999Y-162882095D01*
X103580999Y-163682907D01*
X103582660Y-163699774D01*
X103587555Y-163715908D01*
X103595501Y-163730775D01*
X103606195Y-163743805D01*
X103619225Y-163754499D01*
X103634092Y-163762445D01*
X103650226Y-163767340D01*
X103667195Y-163769011D01*
X103668821Y-163770176D01*
X103668625Y-163772166D01*
X103666999Y-163773001D01*
X103610640Y-163773001D01*
X103610444Y-163772991D01*
X103599448Y-163771908D01*
X103599063Y-163771832D01*
X103594389Y-163770414D01*
X103594027Y-163770264D01*
X103589726Y-163767965D01*
X103589400Y-163767747D01*
X103583103Y-163762580D01*
X103562976Y-163749131D01*
X103540702Y-163739905D01*
X103517051Y-163735201D01*
X103492945Y-163735201D01*
X103469295Y-163739906D01*
X103447021Y-163749132D01*
X103426895Y-163762580D01*
X103420598Y-163767747D01*
X103420272Y-163767965D01*
X103415971Y-163770264D01*
X103415609Y-163770414D01*
X103410935Y-163771832D01*
X103410550Y-163771908D01*
X103399554Y-163772991D01*
X103399358Y-163773001D01*
X103342999Y-163773001D01*
X103341267Y-163772001D01*
X103341267Y-163770001D01*
X103342803Y-163769011D01*
X103359772Y-163767340D01*
X103375906Y-163762445D01*
X103390773Y-163754499D01*
X103403803Y-163743805D01*
X103414497Y-163730775D01*
X103422443Y-163715908D01*
X103427338Y-163699774D01*
X103428999Y-163682907D01*
X103428999Y-162882095D01*
X103427338Y-162865228D01*
X103422443Y-162849094D01*
X103414497Y-162834227D01*
X103403803Y-162821197D01*
X103390773Y-162810503D01*
X103375906Y-162802557D01*
X103359772Y-162797662D01*
X103342905Y-162796001D01*
X103167093Y-162796001D01*
X103150226Y-162797662D01*
X103134092Y-162802557D01*
X103119225Y-162810503D01*
X103106195Y-162821197D01*
X103095501Y-162834227D01*
X103087555Y-162849094D01*
X103082660Y-162865228D01*
X103080999Y-162882095D01*
X103080999Y-163682907D01*
X103082660Y-163699774D01*
X103087555Y-163715908D01*
X103095501Y-163730775D01*
X103106195Y-163743805D01*
X103119225Y-163754499D01*
X103134092Y-163762445D01*
X103150226Y-163767340D01*
X103167195Y-163769011D01*
X103168821Y-163770176D01*
X103168625Y-163772166D01*
X103166999Y-163773001D01*
X103110640Y-163773001D01*
X103110444Y-163772991D01*
X103099448Y-163771908D01*
X103099063Y-163771832D01*
X103094389Y-163770414D01*
X103094027Y-163770264D01*
X103089726Y-163767965D01*
X103089400Y-163767747D01*
X103083103Y-163762580D01*
X103062976Y-163749131D01*
X103040702Y-163739905D01*
X103017051Y-163735201D01*
X102992945Y-163735201D01*
X102969295Y-163739906D01*
X102947021Y-163749132D01*
X102926895Y-163762580D01*
X102920598Y-163767747D01*
X102920272Y-163767965D01*
X102915971Y-163770264D01*
X102915609Y-163770414D01*
X102910935Y-163771832D01*
X102910550Y-163771908D01*
X102899554Y-163772991D01*
X102899358Y-163773001D01*
X102842999Y-163773001D01*
X102841267Y-163772001D01*
X102841267Y-163770001D01*
X102842803Y-163769011D01*
X102859772Y-163767340D01*
X102875906Y-163762445D01*
X102890773Y-163754499D01*
X102903803Y-163743805D01*
X102914497Y-163730775D01*
X102922443Y-163715908D01*
X102927338Y-163699774D01*
X102928999Y-163682907D01*
X102928999Y-162882095D01*
X102927338Y-162865228D01*
X102922443Y-162849094D01*
X102914497Y-162834227D01*
X102903803Y-162821197D01*
X102890773Y-162810503D01*
X102875906Y-162802557D01*
X102859772Y-162797662D01*
X102842905Y-162796001D01*
X102667093Y-162796001D01*
X102650226Y-162797662D01*
X102634092Y-162802557D01*
X102619225Y-162810503D01*
X102606195Y-162821197D01*
X102595501Y-162834227D01*
X102587555Y-162849094D01*
X102582660Y-162865228D01*
X102580999Y-162882095D01*
X102580999Y-162896000D01*
X102579999Y-162897732D01*
X102577999Y-162897732D01*
X102577009Y-162896196D01*
X102574627Y-162872009D01*
X102567627Y-162848934D01*
X102556262Y-162827670D01*
X102540967Y-162809033D01*
X102522330Y-162793738D01*
X102501066Y-162782373D01*
X102477991Y-162775373D01*
X102453804Y-162772991D01*
X102452178Y-162771826D01*
X102452374Y-162769836D01*
X102454000Y-162769001D01*
X102467905Y-162769001D01*
X102484772Y-162767340D01*
X102500906Y-162762445D01*
X102515773Y-162754499D01*
X102528803Y-162743805D01*
X102539497Y-162730775D01*
X102547443Y-162715908D01*
X102552338Y-162699774D01*
X102553999Y-162682907D01*
X102553999Y-162507095D01*
X102552338Y-162490228D01*
X102547443Y-162474094D01*
X102539497Y-162459227D01*
X102528803Y-162446197D01*
X102515773Y-162435503D01*
X102500906Y-162427557D01*
X102484772Y-162422662D01*
X102467905Y-162421001D01*
X101667093Y-162421001D01*
X101650226Y-162422662D01*
X101634092Y-162427557D01*
X101619225Y-162435503D01*
X101606195Y-162446197D01*
X101595501Y-162459227D01*
X101587555Y-162474094D01*
X101582660Y-162490228D01*
X101580989Y-162507197D01*
X101579824Y-162508823D01*
X101577834Y-162508627D01*
X101576999Y-162507001D01*
X101576999Y-162450642D01*
X101577009Y-162450446D01*
X101578092Y-162439450D01*
X101578168Y-162439065D01*
X101579586Y-162434391D01*
X101579736Y-162434029D01*
X101582035Y-162429728D01*
X101582253Y-162429402D01*
X101587420Y-162423105D01*
X101600869Y-162402978D01*
X101610095Y-162380704D01*
X101614799Y-162357053D01*
X101614799Y-162332947D01*
X101610094Y-162309297D01*
X101600868Y-162287023D01*
X101587420Y-162266897D01*
X101582253Y-162260600D01*
X101582035Y-162260274D01*
X101579736Y-162255973D01*
X101579586Y-162255611D01*
X101578168Y-162250937D01*
X101578092Y-162250552D01*
X101577009Y-162239556D01*
X101576999Y-162239360D01*
X101576999Y-162183001D01*
X101577999Y-162181269D01*
X101579999Y-162181269D01*
X101580989Y-162182805D01*
X101582660Y-162199774D01*
X101587555Y-162215908D01*
X101595501Y-162230775D01*
X101606195Y-162243805D01*
X101619225Y-162254499D01*
X101634092Y-162262445D01*
X101650226Y-162267340D01*
X101667093Y-162269001D01*
X102467905Y-162269001D01*
X102484772Y-162267340D01*
X102500906Y-162262445D01*
X102515773Y-162254499D01*
X102528803Y-162243805D01*
X102539497Y-162230775D01*
X102547443Y-162215908D01*
X102552338Y-162199774D01*
X102553999Y-162182907D01*
X102553999Y-162007095D01*
X102552338Y-161990228D01*
X102547443Y-161974094D01*
X102539497Y-161959227D01*
X102528803Y-161946197D01*
X102515773Y-161935503D01*
X102500906Y-161927557D01*
X102484772Y-161922662D01*
X102467905Y-161921001D01*
X101667093Y-161921001D01*
X101650226Y-161922662D01*
X101634092Y-161927557D01*
X101619225Y-161935503D01*
X101606195Y-161946197D01*
X101595501Y-161959227D01*
X101587555Y-161974094D01*
X101582660Y-161990228D01*
X101580989Y-162007197D01*
X101579824Y-162008823D01*
X101577834Y-162008627D01*
X101576999Y-162007001D01*
X101576999Y-161950642D01*
X101577009Y-161950446D01*
X101578092Y-161939450D01*
X101578168Y-161939065D01*
X101579586Y-161934391D01*
X101579736Y-161934029D01*
X101582035Y-161929728D01*
X101582253Y-161929402D01*
X101587420Y-161923105D01*
X101600869Y-161902978D01*
X101610095Y-161880704D01*
X101614799Y-161857053D01*
X101614799Y-161832947D01*
X101610094Y-161809297D01*
X101600868Y-161787023D01*
X101587420Y-161766897D01*
X101582253Y-161760600D01*
X101582035Y-161760274D01*
X101579736Y-161755973D01*
X101579586Y-161755611D01*
X101578168Y-161750937D01*
X101578092Y-161750552D01*
X101577009Y-161739556D01*
X101576999Y-161739360D01*
X101576999Y-161683001D01*
X101577999Y-161681269D01*
X101579999Y-161681269D01*
X101580989Y-161682805D01*
X101582660Y-161699774D01*
X101587555Y-161715908D01*
X101595501Y-161730775D01*
X101606195Y-161743805D01*
X101619225Y-161754499D01*
X101634092Y-161762445D01*
X101650226Y-161767340D01*
X101667093Y-161769001D01*
X102467905Y-161769001D01*
X102484772Y-161767340D01*
X102500906Y-161762445D01*
X102515773Y-161754499D01*
X102528803Y-161743805D01*
X102539497Y-161730775D01*
X102547443Y-161715908D01*
X102552338Y-161699774D01*
X102553999Y-161682907D01*
X102553999Y-161507095D01*
X102552338Y-161490228D01*
X102547443Y-161474094D01*
X102539497Y-161459227D01*
X102528803Y-161446197D01*
X102515773Y-161435503D01*
X102500906Y-161427557D01*
X102484772Y-161422662D01*
X102467905Y-161421001D01*
X101667093Y-161421001D01*
X101650226Y-161422662D01*
X101634092Y-161427557D01*
X101619225Y-161435503D01*
X101606195Y-161446197D01*
X101595501Y-161459227D01*
X101587555Y-161474094D01*
X101582660Y-161490228D01*
X101580989Y-161507197D01*
X101579824Y-161508823D01*
X101577834Y-161508627D01*
X101576999Y-161507001D01*
X101576999Y-161450642D01*
X101577009Y-161450446D01*
X101578092Y-161439450D01*
X101578168Y-161439065D01*
X101579586Y-161434391D01*
X101579736Y-161434029D01*
X101582035Y-161429728D01*
X101582253Y-161429402D01*
X101587420Y-161423105D01*
X101600869Y-161402978D01*
X101610095Y-161380704D01*
X101614799Y-161357053D01*
X101614799Y-161332947D01*
X101610094Y-161309297D01*
X101600868Y-161287023D01*
X101587420Y-161266897D01*
X101582253Y-161260600D01*
X101582035Y-161260274D01*
X101579736Y-161255973D01*
X101579586Y-161255611D01*
X101578168Y-161250937D01*
X101578092Y-161250552D01*
X101577009Y-161239556D01*
X101576999Y-161239360D01*
X101576999Y-161183001D01*
X101577999Y-161181269D01*
X101579999Y-161181269D01*
X101580989Y-161182805D01*
X101582660Y-161199774D01*
X101587555Y-161215908D01*
X101595501Y-161230775D01*
X101606195Y-161243805D01*
X101619225Y-161254499D01*
X101634092Y-161262445D01*
X101650226Y-161267340D01*
X101667093Y-161269001D01*
X102467905Y-161269001D01*
X102484772Y-161267340D01*
X102500906Y-161262445D01*
X102515773Y-161254499D01*
X102528803Y-161243805D01*
X102539497Y-161230775D01*
X102547443Y-161215908D01*
X102552338Y-161199774D01*
X102553999Y-161182907D01*
X102553999Y-161007095D01*
X102552338Y-160990228D01*
X102547443Y-160974094D01*
X102539497Y-160959227D01*
X102528803Y-160946197D01*
X102515773Y-160935503D01*
X102500906Y-160927557D01*
X102484772Y-160922662D01*
X102467905Y-160921001D01*
X101667093Y-160921001D01*
X101650226Y-160922662D01*
X101634092Y-160927557D01*
X101619225Y-160935503D01*
X101606195Y-160946197D01*
X101595501Y-160959227D01*
X101587555Y-160974094D01*
X101582660Y-160990228D01*
X101580989Y-161007197D01*
X101579824Y-161008823D01*
X101577834Y-161008627D01*
X101576999Y-161007001D01*
X101576999Y-160950642D01*
X101577009Y-160950446D01*
X101578092Y-160939450D01*
X101578168Y-160939065D01*
X101579586Y-160934391D01*
X101579736Y-160934029D01*
X101582035Y-160929728D01*
X101582253Y-160929402D01*
X101587420Y-160923105D01*
X101600869Y-160902978D01*
X101610095Y-160880704D01*
X101614799Y-160857053D01*
X101614799Y-160832947D01*
X101610094Y-160809297D01*
X101600868Y-160787023D01*
X101587420Y-160766897D01*
X101582253Y-160760600D01*
X101582035Y-160760274D01*
X101579736Y-160755973D01*
X101579586Y-160755611D01*
X101578168Y-160750937D01*
X101578092Y-160750552D01*
X101577009Y-160739556D01*
X101576999Y-160739360D01*
X101576999Y-160683001D01*
X101577999Y-160681269D01*
X101579999Y-160681269D01*
X101580989Y-160682805D01*
X101582660Y-160699774D01*
X101587555Y-160715908D01*
X101595501Y-160730775D01*
X101606195Y-160743805D01*
X101619225Y-160754499D01*
X101634092Y-160762445D01*
X101650226Y-160767340D01*
X101667093Y-160769001D01*
X102467905Y-160769001D01*
X102484772Y-160767340D01*
X102500906Y-160762445D01*
X102515773Y-160754499D01*
X102528803Y-160743805D01*
X102539497Y-160730775D01*
X102547443Y-160715908D01*
X102552338Y-160699774D01*
X102553999Y-160682907D01*
X102553999Y-160507095D01*
X102552338Y-160490228D01*
X102547443Y-160474094D01*
X102539497Y-160459227D01*
X102528803Y-160446197D01*
X102515773Y-160435503D01*
X102500906Y-160427557D01*
X102484772Y-160422662D01*
X102467905Y-160421001D01*
X101667093Y-160421001D01*
X101650226Y-160422662D01*
X101634092Y-160427557D01*
X101619225Y-160435503D01*
X101606195Y-160446197D01*
X101595501Y-160459227D01*
X101587555Y-160474094D01*
X101582660Y-160490228D01*
X101580989Y-160507197D01*
X101579824Y-160508823D01*
X101577834Y-160508627D01*
X101576999Y-160507001D01*
X101576999Y-160450642D01*
X101577009Y-160450446D01*
X101578092Y-160439450D01*
X101578168Y-160439065D01*
X101579586Y-160434391D01*
X101579736Y-160434029D01*
X101582035Y-160429728D01*
X101582253Y-160429402D01*
X101587420Y-160423105D01*
X101600869Y-160402978D01*
X101610095Y-160380704D01*
X101614799Y-160357053D01*
X101614799Y-160332947D01*
X101610094Y-160309297D01*
X101600868Y-160287023D01*
X101587420Y-160266897D01*
X101582253Y-160260600D01*
X101582035Y-160260274D01*
X101579736Y-160255973D01*
X101579586Y-160255611D01*
X101578168Y-160250937D01*
X101578092Y-160250552D01*
X101577009Y-160239556D01*
X101576999Y-160239360D01*
X101576999Y-160183001D01*
X101577999Y-160181269D01*
X101579999Y-160181269D01*
X101580989Y-160182805D01*
X101582660Y-160199774D01*
X101587555Y-160215908D01*
X101595501Y-160230775D01*
X101606195Y-160243805D01*
X101619225Y-160254499D01*
X101634092Y-160262445D01*
X101650226Y-160267340D01*
X101667093Y-160269001D01*
X102467905Y-160269001D01*
X102484772Y-160267340D01*
X102500906Y-160262445D01*
X102515773Y-160254499D01*
X102528803Y-160243805D01*
X102539497Y-160230775D01*
X102547443Y-160215908D01*
X102552338Y-160199774D01*
X102553999Y-160182907D01*
X102553999Y-160007095D01*
X102552338Y-159990228D01*
X102547443Y-159974094D01*
X102539497Y-159959227D01*
X102528803Y-159946197D01*
X102515773Y-159935503D01*
X102500906Y-159927557D01*
X102484772Y-159922662D01*
X102467905Y-159921001D01*
X101667093Y-159921001D01*
X101650226Y-159922662D01*
X101634092Y-159927557D01*
X101619225Y-159935503D01*
X101606195Y-159946197D01*
X101595501Y-159959227D01*
X101587555Y-159974094D01*
X101582660Y-159990228D01*
X101580989Y-160007197D01*
X101579824Y-160008823D01*
X101577834Y-160008627D01*
X101576999Y-160007001D01*
X101576999Y-159950642D01*
X101577009Y-159950446D01*
X101578092Y-159939450D01*
X101578168Y-159939065D01*
X101579586Y-159934391D01*
X101579736Y-159934029D01*
X101582035Y-159929728D01*
X101582253Y-159929402D01*
X101587420Y-159923105D01*
X101600869Y-159902978D01*
X101610095Y-159880704D01*
X101614799Y-159857053D01*
X101614799Y-159832947D01*
X101610094Y-159809297D01*
X101600868Y-159787023D01*
X101587420Y-159766897D01*
X101582253Y-159760600D01*
X101582035Y-159760274D01*
X101579736Y-159755973D01*
X101579586Y-159755611D01*
X101578168Y-159750937D01*
X101578092Y-159750552D01*
X101577009Y-159739556D01*
X101576999Y-159739360D01*
X101576999Y-159683001D01*
X101577999Y-159681269D01*
X101579999Y-159681269D01*
X101580989Y-159682805D01*
X101582660Y-159699774D01*
X101587555Y-159715908D01*
X101595501Y-159730775D01*
X101606195Y-159743805D01*
X101619225Y-159754499D01*
X101634092Y-159762445D01*
X101650226Y-159767340D01*
X101667093Y-159769001D01*
X102467905Y-159769001D01*
X102484772Y-159767340D01*
X102500906Y-159762445D01*
X102515773Y-159754499D01*
X102528803Y-159743805D01*
X102539497Y-159730775D01*
X102547443Y-159715908D01*
X102552338Y-159699774D01*
X102553999Y-159682907D01*
X102553999Y-159507095D01*
X102552338Y-159490228D01*
X102547443Y-159474094D01*
X102539497Y-159459227D01*
X102528803Y-159446197D01*
X102515773Y-159435503D01*
X102500906Y-159427557D01*
X102484772Y-159422662D01*
X102467905Y-159421001D01*
X101667093Y-159421001D01*
X101650226Y-159422662D01*
X101634092Y-159427557D01*
X101619225Y-159435503D01*
X101606195Y-159446197D01*
X101595501Y-159459227D01*
X101587555Y-159474094D01*
X101582660Y-159490228D01*
X101580989Y-159507197D01*
X101579824Y-159508823D01*
X101577834Y-159508627D01*
X101576999Y-159507001D01*
X101576999Y-159450642D01*
X101577009Y-159450446D01*
X101578092Y-159439450D01*
X101578168Y-159439065D01*
X101579586Y-159434391D01*
X101579736Y-159434029D01*
X101582035Y-159429728D01*
X101582253Y-159429402D01*
X101587420Y-159423105D01*
X101600869Y-159402978D01*
X101610095Y-159380704D01*
X101614799Y-159357053D01*
X101614799Y-159332947D01*
X101610094Y-159309297D01*
X101600868Y-159287023D01*
X101587420Y-159266897D01*
X101582253Y-159260600D01*
X101582035Y-159260274D01*
X101579736Y-159255973D01*
X101579586Y-159255611D01*
X101578168Y-159250937D01*
X101578092Y-159250552D01*
X101577009Y-159239556D01*
X101576999Y-159239360D01*
X101576999Y-159183001D01*
X101577999Y-159181269D01*
X101579999Y-159181269D01*
X101580989Y-159182805D01*
X101582660Y-159199774D01*
X101587555Y-159215908D01*
X101595501Y-159230775D01*
X101606195Y-159243805D01*
X101619225Y-159254499D01*
X101634092Y-159262445D01*
X101650226Y-159267340D01*
X101667093Y-159269001D01*
X102467905Y-159269001D01*
X102484772Y-159267340D01*
X102500906Y-159262445D01*
X102515773Y-159254499D01*
X102528803Y-159243805D01*
X102539497Y-159230775D01*
X102547443Y-159215908D01*
X102552338Y-159199774D01*
X102553999Y-159182907D01*
X102553999Y-159071001D01*
X102730999Y-159071001D01*
X102730999Y-162619001D01*
X106278999Y-162619001D01*
X106278999Y-159071001D01*
X102730999Y-159071001D01*
X102553999Y-159071001D01*
X102553999Y-159007095D01*
X102552338Y-158990228D01*
X102547443Y-158974094D01*
X102539497Y-158959227D01*
X102528803Y-158946197D01*
X102515773Y-158935503D01*
X102500906Y-158927557D01*
X102484772Y-158922662D01*
X102467905Y-158921001D01*
X102454000Y-158921001D01*
X102452268Y-158920001D01*
X102452268Y-158918001D01*
X102453804Y-158917011D01*
X102477991Y-158914629D01*
X102501066Y-158907629D01*
X102522330Y-158896264D01*
X102540967Y-158880969D01*
X102556262Y-158862332D01*
X102567627Y-158841068D01*
X102574627Y-158817993D01*
X102577009Y-158793806D01*
X102578174Y-158792180D01*
X102580164Y-158792376D01*
X102580999Y-158794002D01*
X102580999Y-158807907D01*
X102582660Y-158824774D01*
X102587555Y-158840908D01*
X102595501Y-158855775D01*
X102606195Y-158868805D01*
X102619225Y-158879499D01*
X102634092Y-158887445D01*
X102650226Y-158892340D01*
X102667093Y-158894001D01*
X102842905Y-158894001D01*
X102859772Y-158892340D01*
X102875906Y-158887445D01*
X102890773Y-158879499D01*
X102903803Y-158868805D01*
X102914497Y-158855775D01*
X102922443Y-158840908D01*
X102927338Y-158824774D01*
X102928999Y-158807907D01*
X102928999Y-158007095D01*
X102927338Y-157990228D01*
X102922443Y-157974094D01*
X102914497Y-157959227D01*
X102903803Y-157946197D01*
X102890773Y-157935503D01*
X102875906Y-157927557D01*
X102859772Y-157922662D01*
X102842803Y-157920991D01*
X102841177Y-157919826D01*
X102841373Y-157917836D01*
X102842999Y-157917001D01*
X102899358Y-157917001D01*
X102899554Y-157917011D01*
G37*
G36*
X84680803Y-162900000D02*
G01*
X84680803Y-162902000D01*
X84679267Y-162902990D01*
X84655080Y-162905372D01*
X84632005Y-162912372D01*
X84610741Y-162923737D01*
X84592104Y-162939032D01*
X84576809Y-162957669D01*
X84565444Y-162978933D01*
X84558444Y-163002008D01*
X84556081Y-163025999D01*
X84558444Y-163049990D01*
X84565444Y-163073065D01*
X84576809Y-163094329D01*
X84592104Y-163112966D01*
X84606141Y-163124485D01*
X84606845Y-163126357D01*
X84605577Y-163127903D01*
X84603761Y-163127694D01*
X84557706Y-163096922D01*
X84372250Y-163020103D01*
X84175367Y-162980940D01*
X83974633Y-162980940D01*
X83777750Y-163020103D01*
X83592294Y-163096922D01*
X83546239Y-163127694D01*
X83544243Y-163127825D01*
X83543132Y-163126162D01*
X83543859Y-163124485D01*
X83557895Y-163112966D01*
X83573191Y-163094329D01*
X83584556Y-163073065D01*
X83591556Y-163049990D01*
X83593919Y-163025999D01*
X83591556Y-163002008D01*
X83584556Y-162978933D01*
X83573191Y-162957669D01*
X83557896Y-162939033D01*
X83539259Y-162923737D01*
X83517995Y-162912372D01*
X83494920Y-162905372D01*
X83470733Y-162902990D01*
X83469107Y-162901825D01*
X83469303Y-162899835D01*
X83470929Y-162899000D01*
X84679071Y-162899000D01*
X84680803Y-162900000D01*
G37*
G36*
X113132772Y-161900000D02*
G01*
X113132772Y-161902000D01*
X113131236Y-161902990D01*
X113107049Y-161905372D01*
X113083974Y-161912372D01*
X113062710Y-161923737D01*
X113044073Y-161939032D01*
X113028778Y-161957669D01*
X113017413Y-161978933D01*
X113010413Y-162002008D01*
X113008050Y-162025999D01*
X113010409Y-162049942D01*
X113022634Y-162084109D01*
X113025263Y-162089027D01*
X113025413Y-162089389D01*
X113026831Y-162094064D01*
X113026907Y-162094449D01*
X113027990Y-162105445D01*
X113028000Y-162105641D01*
X113028000Y-162162000D01*
X113027000Y-162163732D01*
X113025000Y-162163732D01*
X113024010Y-162162196D01*
X113022339Y-162145227D01*
X113017444Y-162129093D01*
X113009498Y-162114226D01*
X112998804Y-162101196D01*
X112985774Y-162090502D01*
X112970907Y-162082556D01*
X112954773Y-162077661D01*
X112937906Y-162076000D01*
X112762094Y-162076000D01*
X112745227Y-162077661D01*
X112729093Y-162082556D01*
X112714226Y-162090502D01*
X112701196Y-162101196D01*
X112690502Y-162114226D01*
X112682556Y-162129093D01*
X112677661Y-162145227D01*
X112676000Y-162162094D01*
X112676000Y-162912906D01*
X112677661Y-162929773D01*
X112682556Y-162945907D01*
X112690502Y-162960774D01*
X112701196Y-162973804D01*
X112714226Y-162984498D01*
X112729093Y-162992444D01*
X112745227Y-162997339D01*
X112762196Y-162999010D01*
X112763822Y-163000175D01*
X112763626Y-163002165D01*
X112762000Y-163003000D01*
X112705641Y-163003000D01*
X112705445Y-163002990D01*
X112694449Y-163001907D01*
X112694064Y-163001831D01*
X112689390Y-163000413D01*
X112689028Y-163000263D01*
X112684727Y-162997964D01*
X112684401Y-162997746D01*
X112678104Y-162992579D01*
X112657977Y-162979130D01*
X112635703Y-162969904D01*
X112612052Y-162965200D01*
X112587946Y-162965200D01*
X112564296Y-162969905D01*
X112542022Y-162979131D01*
X112521896Y-162992579D01*
X112515599Y-162997746D01*
X112515273Y-162997964D01*
X112510972Y-163000263D01*
X112510610Y-163000413D01*
X112505936Y-163001831D01*
X112505551Y-163001907D01*
X112494555Y-163002990D01*
X112494359Y-163003000D01*
X112438000Y-163003000D01*
X112436268Y-163002000D01*
X112436268Y-163000000D01*
X112437804Y-162999010D01*
X112454773Y-162997339D01*
X112470907Y-162992444D01*
X112485774Y-162984498D01*
X112498804Y-162973804D01*
X112509498Y-162960774D01*
X112517444Y-162945907D01*
X112522339Y-162929773D01*
X112524000Y-162912906D01*
X112524000Y-162162094D01*
X112522339Y-162145227D01*
X112517444Y-162129093D01*
X112509498Y-162114226D01*
X112498804Y-162101196D01*
X112485774Y-162090502D01*
X112470907Y-162082556D01*
X112454773Y-162077661D01*
X112437906Y-162076000D01*
X112262094Y-162076000D01*
X112245227Y-162077661D01*
X112229093Y-162082556D01*
X112214226Y-162090502D01*
X112201196Y-162101196D01*
X112190502Y-162114226D01*
X112182556Y-162129093D01*
X112177661Y-162145227D01*
X112176000Y-162162094D01*
X112176000Y-162912906D01*
X112177661Y-162929773D01*
X112182556Y-162945907D01*
X112190502Y-162960774D01*
X112201196Y-162973804D01*
X112214226Y-162984498D01*
X112229093Y-162992444D01*
X112245227Y-162997339D01*
X112262196Y-162999010D01*
X112263822Y-163000175D01*
X112263626Y-163002165D01*
X112262000Y-163003000D01*
X112205641Y-163003000D01*
X112205445Y-163002990D01*
X112194449Y-163001907D01*
X112194064Y-163001831D01*
X112189390Y-163000413D01*
X112189028Y-163000263D01*
X112184727Y-162997964D01*
X112184401Y-162997746D01*
X112178104Y-162992579D01*
X112157977Y-162979130D01*
X112135703Y-162969904D01*
X112112052Y-162965200D01*
X112087946Y-162965200D01*
X112064296Y-162969905D01*
X112042022Y-162979131D01*
X112021896Y-162992579D01*
X112015599Y-162997746D01*
X112015273Y-162997964D01*
X112010972Y-163000263D01*
X112010610Y-163000413D01*
X112005936Y-163001831D01*
X112005551Y-163001907D01*
X111994555Y-163002990D01*
X111994359Y-163003000D01*
X111938000Y-163003000D01*
X111936268Y-163002000D01*
X111936268Y-163000000D01*
X111937804Y-162999010D01*
X111954773Y-162997339D01*
X111970907Y-162992444D01*
X111985774Y-162984498D01*
X111998804Y-162973804D01*
X112009498Y-162960774D01*
X112017444Y-162945907D01*
X112022339Y-162929773D01*
X112024000Y-162912906D01*
X112024000Y-162162094D01*
X112022339Y-162145227D01*
X112017444Y-162129093D01*
X112009498Y-162114226D01*
X111998804Y-162101196D01*
X111985774Y-162090502D01*
X111970907Y-162082556D01*
X111954773Y-162077661D01*
X111937906Y-162076000D01*
X111762094Y-162076000D01*
X111745227Y-162077661D01*
X111729093Y-162082556D01*
X111714226Y-162090502D01*
X111701196Y-162101196D01*
X111690502Y-162114226D01*
X111682556Y-162129093D01*
X111677661Y-162145227D01*
X111676000Y-162162094D01*
X111676000Y-162912906D01*
X111677661Y-162929773D01*
X111682556Y-162945907D01*
X111690502Y-162960774D01*
X111701196Y-162973804D01*
X111714226Y-162984498D01*
X111729093Y-162992444D01*
X111745227Y-162997339D01*
X111762196Y-162999010D01*
X111763822Y-163000175D01*
X111763626Y-163002165D01*
X111762000Y-163003000D01*
X111705641Y-163003000D01*
X111705445Y-163002990D01*
X111694449Y-163001907D01*
X111694064Y-163001831D01*
X111689390Y-163000413D01*
X111689028Y-163000263D01*
X111684727Y-162997964D01*
X111684401Y-162997746D01*
X111678104Y-162992579D01*
X111657977Y-162979130D01*
X111635703Y-162969904D01*
X111612052Y-162965200D01*
X111587946Y-162965200D01*
X111564296Y-162969905D01*
X111542022Y-162979131D01*
X111521896Y-162992579D01*
X111515599Y-162997746D01*
X111515273Y-162997964D01*
X111510972Y-163000263D01*
X111510610Y-163000413D01*
X111505936Y-163001831D01*
X111505551Y-163001907D01*
X111494555Y-163002990D01*
X111494359Y-163003000D01*
X111438000Y-163003000D01*
X111436268Y-163002000D01*
X111436268Y-163000000D01*
X111437804Y-162999010D01*
X111454773Y-162997339D01*
X111470907Y-162992444D01*
X111485774Y-162984498D01*
X111498804Y-162973804D01*
X111509498Y-162960774D01*
X111517444Y-162945907D01*
X111522339Y-162929773D01*
X111524000Y-162912906D01*
X111524000Y-162162094D01*
X111522339Y-162145227D01*
X111517444Y-162129093D01*
X111509498Y-162114226D01*
X111498804Y-162101196D01*
X111485774Y-162090502D01*
X111470907Y-162082556D01*
X111454773Y-162077661D01*
X111437906Y-162076000D01*
X111262094Y-162076000D01*
X111245227Y-162077661D01*
X111229093Y-162082556D01*
X111214226Y-162090502D01*
X111201196Y-162101196D01*
X111190502Y-162114226D01*
X111182556Y-162129093D01*
X111177661Y-162145227D01*
X111176000Y-162162094D01*
X111176000Y-162912906D01*
X111177661Y-162929773D01*
X111182556Y-162945907D01*
X111190502Y-162960774D01*
X111201196Y-162973804D01*
X111214226Y-162984498D01*
X111229093Y-162992444D01*
X111245227Y-162997339D01*
X111262196Y-162999010D01*
X111263822Y-163000175D01*
X111263626Y-163002165D01*
X111262000Y-163003000D01*
X111205641Y-163003000D01*
X111205445Y-163002990D01*
X111194449Y-163001907D01*
X111194064Y-163001831D01*
X111189390Y-163000413D01*
X111189028Y-163000263D01*
X111184727Y-162997964D01*
X111184401Y-162997746D01*
X111178104Y-162992579D01*
X111157977Y-162979130D01*
X111135703Y-162969904D01*
X111112052Y-162965200D01*
X111087946Y-162965200D01*
X111064296Y-162969905D01*
X111042022Y-162979131D01*
X111021896Y-162992579D01*
X111015599Y-162997746D01*
X111015273Y-162997964D01*
X111010972Y-163000263D01*
X111010610Y-163000413D01*
X111005936Y-163001831D01*
X111005551Y-163001907D01*
X110994555Y-163002990D01*
X110994359Y-163003000D01*
X110938000Y-163003000D01*
X110936268Y-163002000D01*
X110936268Y-163000000D01*
X110937804Y-162999010D01*
X110954773Y-162997339D01*
X110970907Y-162992444D01*
X110985774Y-162984498D01*
X110998804Y-162973804D01*
X111009498Y-162960774D01*
X111017444Y-162945907D01*
X111022339Y-162929773D01*
X111024000Y-162912906D01*
X111024000Y-162162094D01*
X111022339Y-162145227D01*
X111017444Y-162129093D01*
X111009498Y-162114226D01*
X110998804Y-162101196D01*
X110985774Y-162090502D01*
X110970907Y-162082556D01*
X110954773Y-162077661D01*
X110937906Y-162076000D01*
X110762094Y-162076000D01*
X110745227Y-162077661D01*
X110729093Y-162082556D01*
X110714226Y-162090502D01*
X110701196Y-162101196D01*
X110690502Y-162114226D01*
X110682556Y-162129093D01*
X110677661Y-162145227D01*
X110675990Y-162162196D01*
X110674825Y-162163822D01*
X110672835Y-162163626D01*
X110672000Y-162162000D01*
X110672000Y-162105641D01*
X110672010Y-162105445D01*
X110673093Y-162094449D01*
X110673169Y-162094064D01*
X110674587Y-162089389D01*
X110674737Y-162089027D01*
X110677389Y-162084065D01*
X110686653Y-162061702D01*
X110691357Y-162038052D01*
X110691357Y-162013946D01*
X110686653Y-161990296D01*
X110677426Y-161968022D01*
X110664032Y-161947974D01*
X110646985Y-161930927D01*
X110626937Y-161917533D01*
X110604706Y-161908323D01*
X110568667Y-161902978D01*
X110567100Y-161901735D01*
X110567393Y-161899757D01*
X110568960Y-161899000D01*
X113131040Y-161899000D01*
X113132772Y-161900000D01*
G37*
G36*
X113152990Y-159318764D02*
G01*
X113155372Y-159342951D01*
X113162372Y-159366026D01*
X113173737Y-159387290D01*
X113189032Y-159405927D01*
X113207669Y-159421222D01*
X113228933Y-159432587D01*
X113252008Y-159439587D01*
X113275999Y-159441950D01*
X113299942Y-159439591D01*
X113334109Y-159427366D01*
X113339027Y-159424737D01*
X113339389Y-159424587D01*
X113344064Y-159423169D01*
X113344449Y-159423093D01*
X113355445Y-159422010D01*
X113355641Y-159422000D01*
X113412000Y-159422000D01*
X113413732Y-159423000D01*
X113413732Y-159425000D01*
X113412196Y-159425990D01*
X113395227Y-159427661D01*
X113379093Y-159432556D01*
X113364226Y-159440502D01*
X113351196Y-159451196D01*
X113340502Y-159464226D01*
X113332556Y-159479093D01*
X113327661Y-159495227D01*
X113326000Y-159512094D01*
X113326000Y-159687906D01*
X113327661Y-159704773D01*
X113332556Y-159720907D01*
X113340502Y-159735774D01*
X113351196Y-159748804D01*
X113364226Y-159759498D01*
X113379093Y-159767444D01*
X113395227Y-159772339D01*
X113412094Y-159774000D01*
X114162906Y-159774000D01*
X114179773Y-159772339D01*
X114195907Y-159767444D01*
X114210774Y-159759498D01*
X114223804Y-159748804D01*
X114234498Y-159735774D01*
X114242444Y-159720907D01*
X114247339Y-159704773D01*
X114249010Y-159687804D01*
X114250175Y-159686178D01*
X114252165Y-159686374D01*
X114253000Y-159688000D01*
X114253000Y-159744359D01*
X114252990Y-159744555D01*
X114251907Y-159755551D01*
X114251831Y-159755936D01*
X114250413Y-159760610D01*
X114250263Y-159760972D01*
X114247964Y-159765273D01*
X114247746Y-159765599D01*
X114242579Y-159771896D01*
X114229130Y-159792023D01*
X114219904Y-159814297D01*
X114215200Y-159837948D01*
X114215200Y-159862054D01*
X114219905Y-159885704D01*
X114229131Y-159907978D01*
X114242579Y-159928104D01*
X114247746Y-159934401D01*
X114247964Y-159934727D01*
X114250263Y-159939028D01*
X114250413Y-159939390D01*
X114251831Y-159944064D01*
X114251907Y-159944449D01*
X114252990Y-159955445D01*
X114253000Y-159955641D01*
X114253000Y-160012000D01*
X114252000Y-160013732D01*
X114250000Y-160013732D01*
X114249010Y-160012196D01*
X114247339Y-159995227D01*
X114242444Y-159979093D01*
X114234498Y-159964226D01*
X114223804Y-159951196D01*
X114210774Y-159940502D01*
X114195907Y-159932556D01*
X114179773Y-159927661D01*
X114162906Y-159926000D01*
X113412094Y-159926000D01*
X113395227Y-159927661D01*
X113379093Y-159932556D01*
X113364226Y-159940502D01*
X113351196Y-159951196D01*
X113340502Y-159964226D01*
X113332556Y-159979093D01*
X113327661Y-159995227D01*
X113326000Y-160012094D01*
X113326000Y-160187906D01*
X113327661Y-160204773D01*
X113332556Y-160220907D01*
X113340502Y-160235774D01*
X113351196Y-160248804D01*
X113364226Y-160259498D01*
X113379093Y-160267444D01*
X113395227Y-160272339D01*
X113412094Y-160274000D01*
X114162906Y-160274000D01*
X114179773Y-160272339D01*
X114195907Y-160267444D01*
X114210774Y-160259498D01*
X114223804Y-160248804D01*
X114234498Y-160235774D01*
X114242444Y-160220907D01*
X114247339Y-160204773D01*
X114249010Y-160187804D01*
X114250175Y-160186178D01*
X114252165Y-160186374D01*
X114253000Y-160188000D01*
X114253000Y-160244359D01*
X114252990Y-160244555D01*
X114251907Y-160255551D01*
X114251831Y-160255936D01*
X114250413Y-160260610D01*
X114250263Y-160260972D01*
X114247964Y-160265273D01*
X114247746Y-160265599D01*
X114242579Y-160271896D01*
X114229130Y-160292023D01*
X114219904Y-160314297D01*
X114215200Y-160337948D01*
X114215200Y-160362054D01*
X114219905Y-160385704D01*
X114229131Y-160407978D01*
X114242579Y-160428104D01*
X114247746Y-160434401D01*
X114247964Y-160434727D01*
X114250263Y-160439028D01*
X114250413Y-160439390D01*
X114251831Y-160444064D01*
X114251907Y-160444449D01*
X114252990Y-160455445D01*
X114253000Y-160455641D01*
X114253000Y-160512000D01*
X114252000Y-160513732D01*
X114250000Y-160513732D01*
X114249010Y-160512196D01*
X114247339Y-160495227D01*
X114242444Y-160479093D01*
X114234498Y-160464226D01*
X114223804Y-160451196D01*
X114210774Y-160440502D01*
X114195907Y-160432556D01*
X114179773Y-160427661D01*
X114162906Y-160426000D01*
X113412094Y-160426000D01*
X113395227Y-160427661D01*
X113379093Y-160432556D01*
X113364226Y-160440502D01*
X113351196Y-160451196D01*
X113340502Y-160464226D01*
X113332556Y-160479093D01*
X113327661Y-160495227D01*
X113326000Y-160512094D01*
X113326000Y-160687906D01*
X113327661Y-160704773D01*
X113332556Y-160720907D01*
X113340502Y-160735774D01*
X113351196Y-160748804D01*
X113364226Y-160759498D01*
X113379093Y-160767444D01*
X113395227Y-160772339D01*
X113412094Y-160774000D01*
X114162906Y-160774000D01*
X114179773Y-160772339D01*
X114195907Y-160767444D01*
X114210774Y-160759498D01*
X114223804Y-160748804D01*
X114234498Y-160735774D01*
X114242444Y-160720907D01*
X114247339Y-160704773D01*
X114249010Y-160687804D01*
X114250175Y-160686178D01*
X114252165Y-160686374D01*
X114253000Y-160688000D01*
X114253000Y-160744359D01*
X114252990Y-160744555D01*
X114251907Y-160755551D01*
X114251831Y-160755936D01*
X114250413Y-160760610D01*
X114250263Y-160760972D01*
X114247964Y-160765273D01*
X114247746Y-160765599D01*
X114242579Y-160771896D01*
X114229130Y-160792023D01*
X114219904Y-160814297D01*
X114215200Y-160837948D01*
X114215200Y-160862054D01*
X114219905Y-160885704D01*
X114229131Y-160907978D01*
X114242579Y-160928104D01*
X114247746Y-160934401D01*
X114247964Y-160934727D01*
X114250263Y-160939028D01*
X114250413Y-160939390D01*
X114251831Y-160944064D01*
X114251907Y-160944449D01*
X114252990Y-160955445D01*
X114253000Y-160955641D01*
X114253000Y-161012000D01*
X114252000Y-161013732D01*
X114250000Y-161013732D01*
X114249010Y-161012196D01*
X114247339Y-160995227D01*
X114242444Y-160979093D01*
X114234498Y-160964226D01*
X114223804Y-160951196D01*
X114210774Y-160940502D01*
X114195907Y-160932556D01*
X114179773Y-160927661D01*
X114162906Y-160926000D01*
X113412094Y-160926000D01*
X113395227Y-160927661D01*
X113379093Y-160932556D01*
X113364226Y-160940502D01*
X113351196Y-160951196D01*
X113340502Y-160964226D01*
X113332556Y-160979093D01*
X113327661Y-160995227D01*
X113326000Y-161012094D01*
X113326000Y-161187906D01*
X113327661Y-161204773D01*
X113332556Y-161220907D01*
X113340502Y-161235774D01*
X113351196Y-161248804D01*
X113364226Y-161259498D01*
X113379093Y-161267444D01*
X113395227Y-161272339D01*
X113412094Y-161274000D01*
X114162906Y-161274000D01*
X114179773Y-161272339D01*
X114195907Y-161267444D01*
X114210774Y-161259498D01*
X114223804Y-161248804D01*
X114234498Y-161235774D01*
X114242444Y-161220907D01*
X114247339Y-161204773D01*
X114249010Y-161187804D01*
X114250175Y-161186178D01*
X114252165Y-161186374D01*
X114253000Y-161188000D01*
X114253000Y-161244359D01*
X114252990Y-161244555D01*
X114251907Y-161255551D01*
X114251831Y-161255936D01*
X114250413Y-161260610D01*
X114250263Y-161260972D01*
X114247964Y-161265273D01*
X114247746Y-161265599D01*
X114242579Y-161271896D01*
X114229130Y-161292023D01*
X114219904Y-161314297D01*
X114215200Y-161337948D01*
X114215200Y-161362054D01*
X114219905Y-161385704D01*
X114229131Y-161407978D01*
X114242579Y-161428104D01*
X114247746Y-161434401D01*
X114247964Y-161434727D01*
X114250263Y-161439028D01*
X114250413Y-161439390D01*
X114251831Y-161444064D01*
X114251907Y-161444449D01*
X114252990Y-161455445D01*
X114253000Y-161455641D01*
X114253000Y-161512000D01*
X114252000Y-161513732D01*
X114250000Y-161513732D01*
X114249010Y-161512196D01*
X114247339Y-161495227D01*
X114242444Y-161479093D01*
X114234498Y-161464226D01*
X114223804Y-161451196D01*
X114210774Y-161440502D01*
X114195907Y-161432556D01*
X114179773Y-161427661D01*
X114162906Y-161426000D01*
X113412094Y-161426000D01*
X113395227Y-161427661D01*
X113379093Y-161432556D01*
X113364226Y-161440502D01*
X113351196Y-161451196D01*
X113340502Y-161464226D01*
X113332556Y-161479093D01*
X113327661Y-161495227D01*
X113326000Y-161512094D01*
X113326000Y-161687906D01*
X113327661Y-161704773D01*
X113332556Y-161720907D01*
X113340502Y-161735774D01*
X113351196Y-161748804D01*
X113364226Y-161759498D01*
X113379093Y-161767444D01*
X113395227Y-161772339D01*
X113412196Y-161774010D01*
X113413822Y-161775175D01*
X113413626Y-161777165D01*
X113412000Y-161778000D01*
X113355641Y-161778000D01*
X113355445Y-161777990D01*
X113344449Y-161776907D01*
X113344064Y-161776831D01*
X113339389Y-161775413D01*
X113339027Y-161775263D01*
X113334065Y-161772611D01*
X113311702Y-161763347D01*
X113288052Y-161758643D01*
X113263946Y-161758643D01*
X113240296Y-161763347D01*
X113218022Y-161772574D01*
X113197974Y-161785968D01*
X113180927Y-161803015D01*
X113167533Y-161823063D01*
X113158323Y-161845294D01*
X113152978Y-161881333D01*
X113151735Y-161882900D01*
X113149757Y-161882607D01*
X113149000Y-161881040D01*
X113149000Y-159318960D01*
X113150000Y-159317228D01*
X113152000Y-159317228D01*
X113152990Y-159318764D01*
G37*
G36*
X110550243Y-159317393D02*
G01*
X110551000Y-159318960D01*
X110551000Y-161881040D01*
X110550000Y-161882772D01*
X110548000Y-161882772D01*
X110547010Y-161881236D01*
X110544628Y-161857049D01*
X110537628Y-161833974D01*
X110526263Y-161812710D01*
X110510968Y-161794073D01*
X110492331Y-161778778D01*
X110471067Y-161767413D01*
X110447992Y-161760413D01*
X110424001Y-161758050D01*
X110400058Y-161760409D01*
X110365891Y-161772634D01*
X110360973Y-161775263D01*
X110360611Y-161775413D01*
X110355936Y-161776831D01*
X110355551Y-161776907D01*
X110344555Y-161777990D01*
X110344359Y-161778000D01*
X110288000Y-161778000D01*
X110286268Y-161777000D01*
X110286268Y-161775000D01*
X110287804Y-161774010D01*
X110304773Y-161772339D01*
X110320907Y-161767444D01*
X110335774Y-161759498D01*
X110348804Y-161748804D01*
X110359498Y-161735774D01*
X110367444Y-161720907D01*
X110372339Y-161704773D01*
X110374000Y-161687906D01*
X110374000Y-161512094D01*
X110372339Y-161495227D01*
X110367444Y-161479093D01*
X110359498Y-161464226D01*
X110348804Y-161451196D01*
X110335774Y-161440502D01*
X110320907Y-161432556D01*
X110304773Y-161427661D01*
X110287906Y-161426000D01*
X109537094Y-161426000D01*
X109520227Y-161427661D01*
X109504093Y-161432556D01*
X109489226Y-161440502D01*
X109476196Y-161451196D01*
X109465502Y-161464226D01*
X109457556Y-161479093D01*
X109452661Y-161495227D01*
X109450990Y-161512196D01*
X109449825Y-161513822D01*
X109447835Y-161513626D01*
X109447000Y-161512000D01*
X109447000Y-161455641D01*
X109447010Y-161455445D01*
X109448093Y-161444449D01*
X109448169Y-161444064D01*
X109449587Y-161439390D01*
X109449737Y-161439028D01*
X109452036Y-161434727D01*
X109452254Y-161434401D01*
X109457421Y-161428104D01*
X109470870Y-161407977D01*
X109480096Y-161385703D01*
X109484800Y-161362052D01*
X109484800Y-161337946D01*
X109480095Y-161314296D01*
X109470869Y-161292022D01*
X109457421Y-161271896D01*
X109452254Y-161265599D01*
X109452036Y-161265273D01*
X109449737Y-161260972D01*
X109449587Y-161260610D01*
X109448169Y-161255936D01*
X109448093Y-161255551D01*
X109447010Y-161244555D01*
X109447000Y-161244359D01*
X109447000Y-161188000D01*
X109448000Y-161186268D01*
X109450000Y-161186268D01*
X109450990Y-161187804D01*
X109452661Y-161204773D01*
X109457556Y-161220907D01*
X109465502Y-161235774D01*
X109476196Y-161248804D01*
X109489226Y-161259498D01*
X109504093Y-161267444D01*
X109520227Y-161272339D01*
X109537094Y-161274000D01*
X110287906Y-161274000D01*
X110304773Y-161272339D01*
X110320907Y-161267444D01*
X110335774Y-161259498D01*
X110348804Y-161248804D01*
X110359498Y-161235774D01*
X110367444Y-161220907D01*
X110372339Y-161204773D01*
X110374000Y-161187906D01*
X110374000Y-161012094D01*
X110372339Y-160995227D01*
X110367444Y-160979093D01*
X110359498Y-160964226D01*
X110348804Y-160951196D01*
X110335774Y-160940502D01*
X110320907Y-160932556D01*
X110304773Y-160927661D01*
X110287906Y-160926000D01*
X109537094Y-160926000D01*
X109520227Y-160927661D01*
X109504093Y-160932556D01*
X109489226Y-160940502D01*
X109476196Y-160951196D01*
X109465502Y-160964226D01*
X109457556Y-160979093D01*
X109452661Y-160995227D01*
X109450990Y-161012196D01*
X109449825Y-161013822D01*
X109447835Y-161013626D01*
X109447000Y-161012000D01*
X109447000Y-160955641D01*
X109447010Y-160955445D01*
X109448093Y-160944449D01*
X109448169Y-160944064D01*
X109449587Y-160939390D01*
X109449737Y-160939028D01*
X109452036Y-160934727D01*
X109452254Y-160934401D01*
X109457421Y-160928104D01*
X109470870Y-160907977D01*
X109480096Y-160885703D01*
X109484800Y-160862052D01*
X109484800Y-160837946D01*
X109480095Y-160814296D01*
X109470869Y-160792022D01*
X109457421Y-160771896D01*
X109452254Y-160765599D01*
X109452036Y-160765273D01*
X109449737Y-160760972D01*
X109449587Y-160760610D01*
X109448169Y-160755936D01*
X109448093Y-160755551D01*
X109447010Y-160744555D01*
X109447000Y-160744359D01*
X109447000Y-160688000D01*
X109448000Y-160686268D01*
X109450000Y-160686268D01*
X109450990Y-160687804D01*
X109452661Y-160704773D01*
X109457556Y-160720907D01*
X109465502Y-160735774D01*
X109476196Y-160748804D01*
X109489226Y-160759498D01*
X109504093Y-160767444D01*
X109520227Y-160772339D01*
X109537094Y-160774000D01*
X110287906Y-160774000D01*
X110304773Y-160772339D01*
X110320907Y-160767444D01*
X110335774Y-160759498D01*
X110348804Y-160748804D01*
X110359498Y-160735774D01*
X110367444Y-160720907D01*
X110372339Y-160704773D01*
X110374000Y-160687906D01*
X110374000Y-160512094D01*
X110372339Y-160495227D01*
X110367444Y-160479093D01*
X110359498Y-160464226D01*
X110348804Y-160451196D01*
X110335774Y-160440502D01*
X110320907Y-160432556D01*
X110304773Y-160427661D01*
X110287906Y-160426000D01*
X109537094Y-160426000D01*
X109520227Y-160427661D01*
X109504093Y-160432556D01*
X109489226Y-160440502D01*
X109476196Y-160451196D01*
X109465502Y-160464226D01*
X109457556Y-160479093D01*
X109452661Y-160495227D01*
X109450990Y-160512196D01*
X109449825Y-160513822D01*
X109447835Y-160513626D01*
X109447000Y-160512000D01*
X109447000Y-160455641D01*
X109447010Y-160455445D01*
X109448093Y-160444449D01*
X109448169Y-160444064D01*
X109449587Y-160439390D01*
X109449737Y-160439028D01*
X109452036Y-160434727D01*
X109452254Y-160434401D01*
X109457421Y-160428104D01*
X109470870Y-160407977D01*
X109480096Y-160385703D01*
X109484800Y-160362052D01*
X109484800Y-160337946D01*
X109480095Y-160314296D01*
X109470869Y-160292022D01*
X109457421Y-160271896D01*
X109452254Y-160265599D01*
X109452036Y-160265273D01*
X109449737Y-160260972D01*
X109449587Y-160260610D01*
X109448169Y-160255936D01*
X109448093Y-160255551D01*
X109447010Y-160244555D01*
X109447000Y-160244359D01*
X109447000Y-160188000D01*
X109448000Y-160186268D01*
X109450000Y-160186268D01*
X109450990Y-160187804D01*
X109452661Y-160204773D01*
X109457556Y-160220907D01*
X109465502Y-160235774D01*
X109476196Y-160248804D01*
X109489226Y-160259498D01*
X109504093Y-160267444D01*
X109520227Y-160272339D01*
X109537094Y-160274000D01*
X110287906Y-160274000D01*
X110304773Y-160272339D01*
X110320907Y-160267444D01*
X110335774Y-160259498D01*
X110348804Y-160248804D01*
X110359498Y-160235774D01*
X110367444Y-160220907D01*
X110372339Y-160204773D01*
X110374000Y-160187906D01*
X110374000Y-160012094D01*
X110372339Y-159995227D01*
X110367444Y-159979093D01*
X110359498Y-159964226D01*
X110348804Y-159951196D01*
X110335774Y-159940502D01*
X110320907Y-159932556D01*
X110304773Y-159927661D01*
X110287906Y-159926000D01*
X109537094Y-159926000D01*
X109520227Y-159927661D01*
X109504093Y-159932556D01*
X109489226Y-159940502D01*
X109476196Y-159951196D01*
X109465502Y-159964226D01*
X109457556Y-159979093D01*
X109452661Y-159995227D01*
X109450990Y-160012196D01*
X109449825Y-160013822D01*
X109447835Y-160013626D01*
X109447000Y-160012000D01*
X109447000Y-159955641D01*
X109447010Y-159955445D01*
X109448093Y-159944449D01*
X109448169Y-159944064D01*
X109449587Y-159939390D01*
X109449737Y-159939028D01*
X109452036Y-159934727D01*
X109452254Y-159934401D01*
X109457421Y-159928104D01*
X109470870Y-159907977D01*
X109480096Y-159885703D01*
X109484800Y-159862052D01*
X109484800Y-159837946D01*
X109480095Y-159814296D01*
X109470869Y-159792022D01*
X109457421Y-159771896D01*
X109452254Y-159765599D01*
X109452036Y-159765273D01*
X109449737Y-159760972D01*
X109449587Y-159760610D01*
X109448169Y-159755936D01*
X109448093Y-159755551D01*
X109447010Y-159744555D01*
X109447000Y-159744359D01*
X109447000Y-159688000D01*
X109448000Y-159686268D01*
X109450000Y-159686268D01*
X109450990Y-159687804D01*
X109452661Y-159704773D01*
X109457556Y-159720907D01*
X109465502Y-159735774D01*
X109476196Y-159748804D01*
X109489226Y-159759498D01*
X109504093Y-159767444D01*
X109520227Y-159772339D01*
X109537094Y-159774000D01*
X110287906Y-159774000D01*
X110304773Y-159772339D01*
X110320907Y-159767444D01*
X110335774Y-159759498D01*
X110348804Y-159748804D01*
X110359498Y-159735774D01*
X110367444Y-159720907D01*
X110372339Y-159704773D01*
X110374000Y-159687906D01*
X110374000Y-159512094D01*
X110372339Y-159495227D01*
X110367444Y-159479093D01*
X110359498Y-159464226D01*
X110348804Y-159451196D01*
X110335774Y-159440502D01*
X110320907Y-159432556D01*
X110304773Y-159427661D01*
X110287804Y-159425990D01*
X110286178Y-159424825D01*
X110286374Y-159422835D01*
X110288000Y-159422000D01*
X110344359Y-159422000D01*
X110344555Y-159422010D01*
X110355551Y-159423093D01*
X110355936Y-159423169D01*
X110360611Y-159424587D01*
X110360973Y-159424737D01*
X110365935Y-159427389D01*
X110388298Y-159436653D01*
X110411948Y-159441357D01*
X110436054Y-159441357D01*
X110459704Y-159436653D01*
X110481978Y-159427426D01*
X110502026Y-159414032D01*
X110519073Y-159396985D01*
X110532467Y-159376937D01*
X110541677Y-159354706D01*
X110547022Y-159318667D01*
X110548265Y-159317100D01*
X110550243Y-159317393D01*
G37*
G36*
X87477732Y-161600000D02*
G01*
X87478000Y-161601000D01*
X87478000Y-161749000D01*
X87477000Y-161750732D01*
X87476000Y-161751000D01*
X86024000Y-161751000D01*
X86022268Y-161750000D01*
X86022000Y-161749000D01*
X86022000Y-161601000D01*
X86023000Y-161599268D01*
X86024000Y-161599000D01*
X87476000Y-161599000D01*
X87477732Y-161600000D01*
G37*
G36*
X87477732Y-160950000D02*
G01*
X87478000Y-160951000D01*
X87478000Y-161099000D01*
X87477000Y-161100732D01*
X87476000Y-161101000D01*
X86024000Y-161101000D01*
X86022268Y-161100000D01*
X86022000Y-161099000D01*
X86022000Y-160951000D01*
X86023000Y-160949268D01*
X86024000Y-160949000D01*
X87476000Y-160949000D01*
X87477732Y-160950000D01*
G37*
G36*
X91812732Y-160755000D02*
G01*
X91813000Y-160756000D01*
X91813000Y-160954000D01*
X91812000Y-160955732D01*
X91811000Y-160956000D01*
X90649000Y-160956000D01*
X90647268Y-160955000D01*
X90647000Y-160954000D01*
X90647000Y-160756000D01*
X90648000Y-160754268D01*
X90649000Y-160754000D01*
X91811000Y-160754000D01*
X91812732Y-160755000D01*
G37*
G36*
X94012732Y-160755000D02*
G01*
X94013000Y-160756000D01*
X94013000Y-160954000D01*
X94012000Y-160955732D01*
X94011000Y-160956000D01*
X92849000Y-160956000D01*
X92847268Y-160955000D01*
X92847000Y-160954000D01*
X92847000Y-160756000D01*
X92848000Y-160754268D01*
X92849000Y-160754000D01*
X94011000Y-160754000D01*
X94012732Y-160755000D01*
G37*
G36*
X87477732Y-160300000D02*
G01*
X87478000Y-160301000D01*
X87478000Y-160449000D01*
X87477000Y-160450732D01*
X87476000Y-160451000D01*
X86024000Y-160451000D01*
X86022268Y-160450000D01*
X86022000Y-160449000D01*
X86022000Y-160301000D01*
X86023000Y-160299268D01*
X86024000Y-160299000D01*
X87476000Y-160299000D01*
X87477732Y-160300000D01*
G37*
G36*
X94012732Y-159805000D02*
G01*
X94013000Y-159806000D01*
X94013000Y-160004000D01*
X94012000Y-160005732D01*
X94011000Y-160006000D01*
X92849000Y-160006000D01*
X92847268Y-160005000D01*
X92847000Y-160004000D01*
X92847000Y-159806000D01*
X92848000Y-159804268D01*
X92849000Y-159804000D01*
X94011000Y-159804000D01*
X94012732Y-159805000D01*
G37*
G36*
X91812732Y-159805000D02*
G01*
X91813000Y-159806000D01*
X91813000Y-160004000D01*
X91812000Y-160005732D01*
X91811000Y-160006000D01*
X90649000Y-160006000D01*
X90647268Y-160005000D01*
X90647000Y-160004000D01*
X90647000Y-159806000D01*
X90648000Y-159804268D01*
X90649000Y-159804000D01*
X91811000Y-159804000D01*
X91812732Y-159805000D01*
G37*
G36*
X87477732Y-159650000D02*
G01*
X87478000Y-159651000D01*
X87478000Y-159799000D01*
X87477000Y-159800732D01*
X87476000Y-159801000D01*
X86024000Y-159801000D01*
X86022268Y-159800000D01*
X86022000Y-159799000D01*
X86022000Y-159651000D01*
X86023000Y-159649268D01*
X86024000Y-159649000D01*
X87476000Y-159649000D01*
X87477732Y-159650000D01*
G37*
G36*
X110994555Y-158197010D02*
G01*
X111005551Y-158198093D01*
X111005936Y-158198169D01*
X111010610Y-158199587D01*
X111010972Y-158199737D01*
X111015273Y-158202036D01*
X111015599Y-158202254D01*
X111021896Y-158207421D01*
X111042023Y-158220870D01*
X111064297Y-158230096D01*
X111087948Y-158234800D01*
X111112054Y-158234800D01*
X111135704Y-158230095D01*
X111157978Y-158220869D01*
X111178104Y-158207421D01*
X111184401Y-158202254D01*
X111184727Y-158202036D01*
X111189028Y-158199737D01*
X111189390Y-158199587D01*
X111194064Y-158198169D01*
X111194449Y-158198093D01*
X111205445Y-158197010D01*
X111205641Y-158197000D01*
X111262000Y-158197000D01*
X111263732Y-158198000D01*
X111263732Y-158200000D01*
X111262196Y-158200990D01*
X111245227Y-158202661D01*
X111229093Y-158207556D01*
X111214226Y-158215502D01*
X111201196Y-158226196D01*
X111190502Y-158239226D01*
X111182556Y-158254093D01*
X111177661Y-158270227D01*
X111176000Y-158287094D01*
X111176000Y-159037906D01*
X111177661Y-159054773D01*
X111182556Y-159070907D01*
X111190502Y-159085774D01*
X111201196Y-159098804D01*
X111214226Y-159109498D01*
X111229093Y-159117444D01*
X111245227Y-159122339D01*
X111262094Y-159124000D01*
X111437906Y-159124000D01*
X111454773Y-159122339D01*
X111470907Y-159117444D01*
X111485774Y-159109498D01*
X111498804Y-159098804D01*
X111509498Y-159085774D01*
X111517444Y-159070907D01*
X111522339Y-159054773D01*
X111524000Y-159037906D01*
X111524000Y-158287094D01*
X111522339Y-158270227D01*
X111517444Y-158254093D01*
X111509498Y-158239226D01*
X111498804Y-158226196D01*
X111485774Y-158215502D01*
X111470907Y-158207556D01*
X111454773Y-158202661D01*
X111437804Y-158200990D01*
X111436178Y-158199825D01*
X111436374Y-158197835D01*
X111438000Y-158197000D01*
X111494359Y-158197000D01*
X111494555Y-158197010D01*
X111505551Y-158198093D01*
X111505936Y-158198169D01*
X111510610Y-158199587D01*
X111510972Y-158199737D01*
X111515273Y-158202036D01*
X111515599Y-158202254D01*
X111521896Y-158207421D01*
X111542023Y-158220870D01*
X111564297Y-158230096D01*
X111587948Y-158234800D01*
X111612054Y-158234800D01*
X111635704Y-158230095D01*
X111657978Y-158220869D01*
X111678104Y-158207421D01*
X111684401Y-158202254D01*
X111684727Y-158202036D01*
X111689028Y-158199737D01*
X111689390Y-158199587D01*
X111694064Y-158198169D01*
X111694449Y-158198093D01*
X111705445Y-158197010D01*
X111705641Y-158197000D01*
X111762000Y-158197000D01*
X111763732Y-158198000D01*
X111763732Y-158200000D01*
X111762196Y-158200990D01*
X111745227Y-158202661D01*
X111729093Y-158207556D01*
X111714226Y-158215502D01*
X111701196Y-158226196D01*
X111690502Y-158239226D01*
X111682556Y-158254093D01*
X111677661Y-158270227D01*
X111676000Y-158287094D01*
X111676000Y-159037906D01*
X111677661Y-159054773D01*
X111682556Y-159070907D01*
X111690502Y-159085774D01*
X111701196Y-159098804D01*
X111714226Y-159109498D01*
X111729093Y-159117444D01*
X111745227Y-159122339D01*
X111762094Y-159124000D01*
X111937906Y-159124000D01*
X111954773Y-159122339D01*
X111970907Y-159117444D01*
X111985774Y-159109498D01*
X111998804Y-159098804D01*
X112009498Y-159085774D01*
X112017444Y-159070907D01*
X112022339Y-159054773D01*
X112024000Y-159037906D01*
X112024000Y-158287094D01*
X112022339Y-158270227D01*
X112017444Y-158254093D01*
X112009498Y-158239226D01*
X111998804Y-158226196D01*
X111985774Y-158215502D01*
X111970907Y-158207556D01*
X111954773Y-158202661D01*
X111937804Y-158200990D01*
X111936178Y-158199825D01*
X111936374Y-158197835D01*
X111938000Y-158197000D01*
X111994359Y-158197000D01*
X111994555Y-158197010D01*
X112005551Y-158198093D01*
X112005936Y-158198169D01*
X112010610Y-158199587D01*
X112010972Y-158199737D01*
X112015273Y-158202036D01*
X112015599Y-158202254D01*
X112021896Y-158207421D01*
X112042023Y-158220870D01*
X112064297Y-158230096D01*
X112087948Y-158234800D01*
X112112054Y-158234800D01*
X112135704Y-158230095D01*
X112157978Y-158220869D01*
X112178104Y-158207421D01*
X112184401Y-158202254D01*
X112184727Y-158202036D01*
X112189028Y-158199737D01*
X112189390Y-158199587D01*
X112194064Y-158198169D01*
X112194449Y-158198093D01*
X112205445Y-158197010D01*
X112205641Y-158197000D01*
X112262000Y-158197000D01*
X112263732Y-158198000D01*
X112263732Y-158200000D01*
X112262196Y-158200990D01*
X112245227Y-158202661D01*
X112229093Y-158207556D01*
X112214226Y-158215502D01*
X112201196Y-158226196D01*
X112190502Y-158239226D01*
X112182556Y-158254093D01*
X112177661Y-158270227D01*
X112176000Y-158287094D01*
X112176000Y-159037906D01*
X112177661Y-159054773D01*
X112182556Y-159070907D01*
X112190502Y-159085774D01*
X112201196Y-159098804D01*
X112214226Y-159109498D01*
X112229093Y-159117444D01*
X112245227Y-159122339D01*
X112262094Y-159124000D01*
X112437906Y-159124000D01*
X112454773Y-159122339D01*
X112470907Y-159117444D01*
X112485774Y-159109498D01*
X112498804Y-159098804D01*
X112509498Y-159085774D01*
X112517444Y-159070907D01*
X112522339Y-159054773D01*
X112524000Y-159037906D01*
X112524000Y-158287094D01*
X112522339Y-158270227D01*
X112517444Y-158254093D01*
X112509498Y-158239226D01*
X112498804Y-158226196D01*
X112485774Y-158215502D01*
X112470907Y-158207556D01*
X112454773Y-158202661D01*
X112437804Y-158200990D01*
X112436178Y-158199825D01*
X112436374Y-158197835D01*
X112438000Y-158197000D01*
X112494359Y-158197000D01*
X112494555Y-158197010D01*
X112505551Y-158198093D01*
X112505936Y-158198169D01*
X112510610Y-158199587D01*
X112510972Y-158199737D01*
X112515273Y-158202036D01*
X112515599Y-158202254D01*
X112521896Y-158207421D01*
X112542023Y-158220870D01*
X112564297Y-158230096D01*
X112587948Y-158234800D01*
X112612054Y-158234800D01*
X112635704Y-158230095D01*
X112657978Y-158220869D01*
X112678104Y-158207421D01*
X112684401Y-158202254D01*
X112684727Y-158202036D01*
X112689028Y-158199737D01*
X112689390Y-158199587D01*
X112694064Y-158198169D01*
X112694449Y-158198093D01*
X112705445Y-158197010D01*
X112705641Y-158197000D01*
X112762000Y-158197000D01*
X112763732Y-158198000D01*
X112763732Y-158200000D01*
X112762196Y-158200990D01*
X112745227Y-158202661D01*
X112729093Y-158207556D01*
X112714226Y-158215502D01*
X112701196Y-158226196D01*
X112690502Y-158239226D01*
X112682556Y-158254093D01*
X112677661Y-158270227D01*
X112676000Y-158287094D01*
X112676000Y-159037906D01*
X112677661Y-159054773D01*
X112682556Y-159070907D01*
X112690502Y-159085774D01*
X112701196Y-159098804D01*
X112714226Y-159109498D01*
X112729093Y-159117444D01*
X112745227Y-159122339D01*
X112762094Y-159124000D01*
X112937906Y-159124000D01*
X112954773Y-159122339D01*
X112970907Y-159117444D01*
X112985774Y-159109498D01*
X112998804Y-159098804D01*
X113009498Y-159085774D01*
X113017444Y-159070907D01*
X113022339Y-159054773D01*
X113024010Y-159037804D01*
X113025175Y-159036178D01*
X113027165Y-159036374D01*
X113028000Y-159038000D01*
X113028000Y-159094359D01*
X113027990Y-159094555D01*
X113026907Y-159105551D01*
X113026831Y-159105936D01*
X113025413Y-159110611D01*
X113025263Y-159110973D01*
X113022611Y-159115935D01*
X113013347Y-159138298D01*
X113008643Y-159161948D01*
X113008643Y-159186054D01*
X113013347Y-159209704D01*
X113022574Y-159231978D01*
X113035968Y-159252026D01*
X113053015Y-159269073D01*
X113073063Y-159282467D01*
X113095294Y-159291677D01*
X113131333Y-159297022D01*
X113132900Y-159298265D01*
X113132607Y-159300243D01*
X113131040Y-159301000D01*
X110568960Y-159301000D01*
X110567228Y-159300000D01*
X110567228Y-159298000D01*
X110568764Y-159297010D01*
X110592951Y-159294628D01*
X110616026Y-159287628D01*
X110637290Y-159276263D01*
X110655927Y-159260968D01*
X110671222Y-159242331D01*
X110682587Y-159221067D01*
X110689587Y-159197992D01*
X110691950Y-159174001D01*
X110689591Y-159150058D01*
X110677366Y-159115891D01*
X110674737Y-159110973D01*
X110674587Y-159110611D01*
X110673169Y-159105936D01*
X110673093Y-159105551D01*
X110672010Y-159094555D01*
X110672000Y-159094359D01*
X110672000Y-159038000D01*
X110673000Y-159036268D01*
X110675000Y-159036268D01*
X110675990Y-159037804D01*
X110677661Y-159054773D01*
X110682556Y-159070907D01*
X110690502Y-159085774D01*
X110701196Y-159098804D01*
X110714226Y-159109498D01*
X110729093Y-159117444D01*
X110745227Y-159122339D01*
X110762094Y-159124000D01*
X110937906Y-159124000D01*
X110954773Y-159122339D01*
X110970907Y-159117444D01*
X110985774Y-159109498D01*
X110998804Y-159098804D01*
X111009498Y-159085774D01*
X111017444Y-159070907D01*
X111022339Y-159054773D01*
X111024000Y-159037906D01*
X111024000Y-158287094D01*
X111022339Y-158270227D01*
X111017444Y-158254093D01*
X111009498Y-158239226D01*
X110998804Y-158226196D01*
X110985774Y-158215502D01*
X110970907Y-158207556D01*
X110954773Y-158202661D01*
X110937804Y-158200990D01*
X110936178Y-158199825D01*
X110936374Y-158197835D01*
X110938000Y-158197000D01*
X110994359Y-158197000D01*
X110994555Y-158197010D01*
G37*
G36*
X83546239Y-158272306D02*
G01*
X83592294Y-158303078D01*
X83777750Y-158379897D01*
X83974633Y-158419060D01*
X84175367Y-158419060D01*
X84372250Y-158379897D01*
X84557706Y-158303078D01*
X84603761Y-158272306D01*
X84605757Y-158272175D01*
X84606868Y-158273838D01*
X84606141Y-158275515D01*
X84592105Y-158287034D01*
X84576809Y-158305671D01*
X84565444Y-158326935D01*
X84558444Y-158350010D01*
X84556081Y-158374001D01*
X84558444Y-158397992D01*
X84565444Y-158421067D01*
X84576809Y-158442331D01*
X84592104Y-158460967D01*
X84610741Y-158476263D01*
X84632005Y-158487628D01*
X84655080Y-158494628D01*
X84679267Y-158497010D01*
X84680893Y-158498175D01*
X84680697Y-158500165D01*
X84679071Y-158501000D01*
X83470929Y-158501000D01*
X83469197Y-158500000D01*
X83469197Y-158498000D01*
X83470733Y-158497010D01*
X83494920Y-158494628D01*
X83517995Y-158487628D01*
X83539259Y-158476263D01*
X83557896Y-158460968D01*
X83573191Y-158442331D01*
X83584556Y-158421067D01*
X83591556Y-158397992D01*
X83593919Y-158374001D01*
X83591556Y-158350010D01*
X83584556Y-158326935D01*
X83573191Y-158305671D01*
X83557896Y-158287034D01*
X83543859Y-158275515D01*
X83543155Y-158273643D01*
X83544423Y-158272097D01*
X83546239Y-158272306D01*
G37*
M02*
