%TF.GenerationSoftware,KiCad,Pcbnew,(5.1.9)-1*%
%TF.CreationDate,2021-11-01T00:10:39+05:30*%
%TF.ProjectId,STM32-nRF24,53544d33-322d-46e5-9246-32342e6b6963,Rev. A*%
%TF.SameCoordinates,Original*%
%TF.FileFunction,Other,Fab,Top*%
%FSLAX46Y46*%
G04 Gerber Fmt 4.6, Leading zero omitted, Abs format (unit mm)*
G04 Created by KiCad (PCBNEW (5.1.9)-1) date 2021-11-01 00:10:39*
%MOMM*%
%LPD*%
G01*
G04 APERTURE LIST*
%ADD10C,0.100000*%
%ADD11C,0.150000*%
%ADD12C,0.060000*%
%ADD13C,0.040000*%
%ADD14C,0.120000*%
%ADD15C,0.080000*%
%ADD16C,0.254000*%
%ADD17C,0.075000*%
%ADD18C,0.105000*%
G04 APERTURE END LIST*
D10*
%TO.C,C1*%
X100550000Y-159100000D02*
X99750000Y-159100000D01*
X99750000Y-159100000D02*
X99750000Y-157500000D01*
X99750000Y-157500000D02*
X100550000Y-157500000D01*
X100550000Y-157500000D02*
X100550000Y-159100000D01*
%TO.C,C2*%
X98000000Y-162200000D02*
X98000000Y-161400000D01*
X98000000Y-161400000D02*
X99600000Y-161400000D01*
X99600000Y-161400000D02*
X99600000Y-162200000D01*
X99600000Y-162200000D02*
X98000000Y-162200000D01*
%TO.C,C3*%
X91000000Y-164600000D02*
X91000000Y-165600000D01*
X90500000Y-164600000D02*
X91000000Y-164600000D01*
X90500000Y-165600000D02*
X90500000Y-164600000D01*
X91000000Y-165600000D02*
X90500000Y-165600000D01*
%TO.C,C4*%
X103950000Y-155650000D02*
X103950000Y-156150000D01*
X103950000Y-156150000D02*
X102950000Y-156150000D01*
X102950000Y-156150000D02*
X102950000Y-155650000D01*
X102950000Y-155650000D02*
X103950000Y-155650000D01*
%TO.C,C5*%
X107350000Y-157250000D02*
X106350000Y-157250000D01*
X107350000Y-156750000D02*
X107350000Y-157250000D01*
X106350000Y-156750000D02*
X107350000Y-156750000D01*
X106350000Y-157250000D02*
X106350000Y-156750000D01*
%TO.C,C6*%
X103950000Y-156750000D02*
X103950000Y-157250000D01*
X103950000Y-157250000D02*
X102950000Y-157250000D01*
X102950000Y-157250000D02*
X102950000Y-156750000D01*
X102950000Y-156750000D02*
X103950000Y-156750000D01*
%TO.C,C7*%
X101450000Y-164250000D02*
X102450000Y-164250000D01*
X101450000Y-164750000D02*
X101450000Y-164250000D01*
X102450000Y-164750000D02*
X101450000Y-164750000D01*
X102450000Y-164250000D02*
X102450000Y-164750000D01*
%TO.C,C8*%
X113550000Y-156000000D02*
X112750000Y-156000000D01*
X112750000Y-156000000D02*
X112750000Y-154400000D01*
X112750000Y-154400000D02*
X113550000Y-154400000D01*
X113550000Y-154400000D02*
X113550000Y-156000000D01*
%TO.C,C9*%
X112100000Y-157000000D02*
X111600000Y-157000000D01*
X111600000Y-157000000D02*
X111600000Y-156000000D01*
X111600000Y-156000000D02*
X112100000Y-156000000D01*
X112100000Y-156000000D02*
X112100000Y-157000000D01*
%TO.C,C10*%
X114350000Y-158650000D02*
X114350000Y-158150000D01*
X114350000Y-158150000D02*
X115350000Y-158150000D01*
X115350000Y-158150000D02*
X115350000Y-158650000D01*
X115350000Y-158650000D02*
X114350000Y-158650000D01*
%TO.C,C11*%
X109050000Y-163250000D02*
X110050000Y-163250000D01*
X109050000Y-163750000D02*
X109050000Y-163250000D01*
X110050000Y-163750000D02*
X109050000Y-163750000D01*
X110050000Y-163250000D02*
X110050000Y-163750000D01*
%TO.C,C12*%
X110850000Y-157150000D02*
X110850000Y-157650000D01*
X110850000Y-157650000D02*
X109850000Y-157650000D01*
X109850000Y-157650000D02*
X109850000Y-157150000D01*
X109850000Y-157150000D02*
X110850000Y-157150000D01*
%TO.C,C13*%
X114500000Y-165900000D02*
X114500000Y-164900000D01*
X115000000Y-165900000D02*
X114500000Y-165900000D01*
X115000000Y-164900000D02*
X115000000Y-165900000D01*
X114500000Y-164900000D02*
X115000000Y-164900000D01*
%TO.C,C14*%
X109500000Y-167200000D02*
X109000000Y-167200000D01*
X109000000Y-167200000D02*
X109000000Y-166200000D01*
X109000000Y-166200000D02*
X109500000Y-166200000D01*
X109500000Y-166200000D02*
X109500000Y-167200000D01*
%TO.C,C15*%
X120000000Y-160050000D02*
X121000000Y-160050000D01*
X120000000Y-160550000D02*
X120000000Y-160050000D01*
X121000000Y-160550000D02*
X120000000Y-160550000D01*
X121000000Y-160050000D02*
X121000000Y-160550000D01*
%TO.C,C16*%
X121800000Y-159300000D02*
X122300000Y-159300000D01*
X122300000Y-159300000D02*
X122300000Y-160300000D01*
X122300000Y-160300000D02*
X121800000Y-160300000D01*
X121800000Y-160300000D02*
X121800000Y-159300000D01*
%TO.C,C17*%
X120150000Y-163150000D02*
X120150000Y-163650000D01*
X120150000Y-163650000D02*
X119150000Y-163650000D01*
X119150000Y-163650000D02*
X119150000Y-163150000D01*
X119150000Y-163150000D02*
X120150000Y-163150000D01*
%TO.C,C18*%
X119150000Y-162050000D02*
X120150000Y-162050000D01*
X119150000Y-162550000D02*
X119150000Y-162050000D01*
X120150000Y-162550000D02*
X119150000Y-162550000D01*
X120150000Y-162050000D02*
X120150000Y-162550000D01*
%TO.C,D1*%
X100350000Y-154100000D02*
X99050000Y-154100000D01*
X99050000Y-154100000D02*
X98750000Y-154400000D01*
X98750000Y-154400000D02*
X98750000Y-154900000D01*
X98750000Y-154900000D02*
X100350000Y-154900000D01*
X100350000Y-154900000D02*
X100350000Y-154100000D01*
%TO.C,D2*%
X103100000Y-154100000D02*
X103100000Y-154900000D01*
X104700000Y-154100000D02*
X103100000Y-154100000D01*
X104700000Y-154600000D02*
X104700000Y-154100000D01*
X104400000Y-154900000D02*
X104700000Y-154600000D01*
X103100000Y-154900000D02*
X104400000Y-154900000D01*
%TO.C,F1*%
X94350000Y-155500000D02*
X94350000Y-157100000D01*
X94350000Y-157100000D02*
X91150000Y-157100000D01*
X91150000Y-157100000D02*
X91150000Y-155500000D01*
X91150000Y-155500000D02*
X94350000Y-155500000D01*
%TO.C,FB1*%
X98400000Y-155850000D02*
X98400000Y-156750000D01*
X98400000Y-156750000D02*
X96400000Y-156750000D01*
X96400000Y-156750000D02*
X96400000Y-155850000D01*
X96400000Y-155850000D02*
X98400000Y-155850000D01*
%TO.C,J2*%
X123440000Y-163475000D02*
X136770000Y-163475000D01*
X123440000Y-162665000D02*
X123440000Y-163475000D01*
X127250000Y-162665000D02*
X123440000Y-162665000D01*
X127250000Y-157935000D02*
X127250000Y-162665000D01*
X123440000Y-157935000D02*
X127250000Y-157935000D01*
X123440000Y-157125000D02*
X123440000Y-157935000D01*
X123440000Y-157125000D02*
X136770000Y-157125000D01*
X136770000Y-157135000D02*
X136770000Y-163465000D01*
X127250000Y-159660000D02*
X128250000Y-160300000D01*
X128250000Y-160300000D02*
X127250000Y-160940000D01*
%TO.C,J3*%
X98225000Y-164982500D02*
X98225000Y-167540000D01*
X98225000Y-167540000D02*
X91875000Y-167540000D01*
X91875000Y-167540000D02*
X91875000Y-164130000D01*
X91875000Y-164130000D02*
X97372500Y-164130000D01*
X97372500Y-164130000D02*
X98225000Y-164982500D01*
%TO.C,L1*%
X117985000Y-160550000D02*
X117985000Y-160050000D01*
X117985000Y-160050000D02*
X118985000Y-160050000D01*
X118985000Y-160050000D02*
X118985000Y-160550000D01*
X118985000Y-160550000D02*
X117985000Y-160550000D01*
%TO.C,L2*%
X116700000Y-161300000D02*
X116700000Y-160300000D01*
X117200000Y-161300000D02*
X116700000Y-161300000D01*
X117200000Y-160300000D02*
X117200000Y-161300000D01*
X116700000Y-160300000D02*
X117200000Y-160300000D01*
%TO.C,L3*%
X118300000Y-162300000D02*
X117800000Y-162300000D01*
X117800000Y-162300000D02*
X117800000Y-161300000D01*
X117800000Y-161300000D02*
X118300000Y-161300000D01*
X118300000Y-161300000D02*
X118300000Y-162300000D01*
%TO.C,R1*%
X108420000Y-157875000D02*
X108420000Y-158925000D01*
X107880000Y-157875000D02*
X108420000Y-157875000D01*
X107880000Y-158925000D02*
X107880000Y-157875000D01*
X108420000Y-158925000D02*
X107880000Y-158925000D01*
%TO.C,R2*%
X97150000Y-154087500D02*
X97150000Y-154912500D01*
X97150000Y-154912500D02*
X95550000Y-154912500D01*
X95550000Y-154912500D02*
X95550000Y-154087500D01*
X95550000Y-154087500D02*
X97150000Y-154087500D01*
%TO.C,R3*%
X107900000Y-154912500D02*
X106300000Y-154912500D01*
X107900000Y-154087500D02*
X107900000Y-154912500D01*
X106300000Y-154087500D02*
X107900000Y-154087500D01*
X106300000Y-154912500D02*
X106300000Y-154087500D01*
%TO.C,R4*%
X114720000Y-156325000D02*
X114180000Y-156325000D01*
X114180000Y-156325000D02*
X114180000Y-155275000D01*
X114180000Y-155275000D02*
X114720000Y-155275000D01*
X114720000Y-155275000D02*
X114720000Y-156325000D01*
%TO.C,R5*%
X112025000Y-164070000D02*
X112025000Y-163530000D01*
X112025000Y-163530000D02*
X113075000Y-163530000D01*
X113075000Y-163530000D02*
X113075000Y-164070000D01*
X113075000Y-164070000D02*
X112025000Y-164070000D01*
%TO.C,U1*%
X96700000Y-158100000D02*
X96700000Y-160550000D01*
X97250000Y-157530000D02*
X98100000Y-157530000D01*
X96700000Y-158100000D02*
X97250000Y-157530000D01*
X98100000Y-157530000D02*
X98100000Y-160570000D01*
X96700000Y-160570000D02*
X98100000Y-160570000D01*
%TO.C,U2*%
X93230000Y-161280000D02*
X92580000Y-161930000D01*
X91430000Y-161930000D02*
X92580000Y-161930000D01*
X93230000Y-161280000D02*
X93230000Y-158830000D01*
X91430000Y-158830000D02*
X93230000Y-158830000D01*
X91430000Y-161930000D02*
X91430000Y-158830000D01*
%TO.C,U3*%
X107004999Y-159345001D02*
X107004999Y-163345001D01*
X107004999Y-163345001D02*
X102004999Y-163345001D01*
X102004999Y-163345001D02*
X102004999Y-158345001D01*
X102004999Y-158345001D02*
X106004999Y-158345001D01*
X106004999Y-158345001D02*
X107004999Y-159345001D01*
%TO.C,U4*%
X110850000Y-158600000D02*
X113850000Y-158600000D01*
X113850000Y-158600000D02*
X113850000Y-162600000D01*
X113850000Y-162600000D02*
X109850000Y-162600000D01*
X109850000Y-162600000D02*
X109850000Y-159600000D01*
X109850000Y-159600000D02*
X110850000Y-158600000D01*
%TO.C,Y1*%
X113600000Y-167450000D02*
X113600000Y-164950000D01*
X113600000Y-164950000D02*
X110400000Y-164950000D01*
X110400000Y-164950000D02*
X110400000Y-167450000D01*
X110400000Y-167450000D02*
X113600000Y-167450000D01*
X113600000Y-165950000D02*
X112600000Y-164950000D01*
%TD*%
%TO.C,3v3*%
D11*
X319030952Y-155952380D02*
X319602380Y-155952380D01*
X319316666Y-156952380D02*
X319316666Y-155952380D01*
X320316666Y-156904761D02*
X320221428Y-156952380D01*
X320030952Y-156952380D01*
X319935714Y-156904761D01*
X319888095Y-156809523D01*
X319888095Y-156428571D01*
X319935714Y-156333333D01*
X320030952Y-156285714D01*
X320221428Y-156285714D01*
X320316666Y-156333333D01*
X320364285Y-156428571D01*
X320364285Y-156523809D01*
X319888095Y-156619047D01*
X320745238Y-156904761D02*
X320840476Y-156952380D01*
X321030952Y-156952380D01*
X321126190Y-156904761D01*
X321173809Y-156809523D01*
X321173809Y-156761904D01*
X321126190Y-156666666D01*
X321030952Y-156619047D01*
X320888095Y-156619047D01*
X320792857Y-156571428D01*
X320745238Y-156476190D01*
X320745238Y-156428571D01*
X320792857Y-156333333D01*
X320888095Y-156285714D01*
X321030952Y-156285714D01*
X321126190Y-156333333D01*
X321459523Y-156285714D02*
X321840476Y-156285714D01*
X321602380Y-155952380D02*
X321602380Y-156809523D01*
X321650000Y-156904761D01*
X321745238Y-156952380D01*
X321840476Y-156952380D01*
X322173809Y-156952380D02*
X322173809Y-155952380D01*
X322554761Y-155952380D01*
X322650000Y-156000000D01*
X322697619Y-156047619D01*
X322745238Y-156142857D01*
X322745238Y-156285714D01*
X322697619Y-156380952D01*
X322650000Y-156428571D01*
X322554761Y-156476190D01*
X322173809Y-156476190D01*
X323316666Y-156952380D02*
X323221428Y-156904761D01*
X323173809Y-156857142D01*
X323126190Y-156761904D01*
X323126190Y-156476190D01*
X323173809Y-156380952D01*
X323221428Y-156333333D01*
X323316666Y-156285714D01*
X323459523Y-156285714D01*
X323554761Y-156333333D01*
X323602380Y-156380952D01*
X323650000Y-156476190D01*
X323650000Y-156761904D01*
X323602380Y-156857142D01*
X323554761Y-156904761D01*
X323459523Y-156952380D01*
X323316666Y-156952380D01*
X324078571Y-156952380D02*
X324078571Y-156285714D01*
X324078571Y-155952380D02*
X324030952Y-156000000D01*
X324078571Y-156047619D01*
X324126190Y-156000000D01*
X324078571Y-155952380D01*
X324078571Y-156047619D01*
X324554761Y-156285714D02*
X324554761Y-156952380D01*
X324554761Y-156380952D02*
X324602380Y-156333333D01*
X324697619Y-156285714D01*
X324840476Y-156285714D01*
X324935714Y-156333333D01*
X324983333Y-156428571D01*
X324983333Y-156952380D01*
X325316666Y-156285714D02*
X325697619Y-156285714D01*
X325459523Y-155952380D02*
X325459523Y-156809523D01*
X325507142Y-156904761D01*
X325602380Y-156952380D01*
X325697619Y-156952380D01*
X325792857Y-157047619D02*
X326554761Y-157047619D01*
X326792857Y-156952380D02*
X326792857Y-155952380D01*
X327173809Y-155952380D01*
X327269047Y-156000000D01*
X327316666Y-156047619D01*
X327364285Y-156142857D01*
X327364285Y-156285714D01*
X327316666Y-156380952D01*
X327269047Y-156428571D01*
X327173809Y-156476190D01*
X326792857Y-156476190D01*
X328221428Y-156952380D02*
X328221428Y-156428571D01*
X328173809Y-156333333D01*
X328078571Y-156285714D01*
X327888095Y-156285714D01*
X327792857Y-156333333D01*
X328221428Y-156904761D02*
X328126190Y-156952380D01*
X327888095Y-156952380D01*
X327792857Y-156904761D01*
X327745238Y-156809523D01*
X327745238Y-156714285D01*
X327792857Y-156619047D01*
X327888095Y-156571428D01*
X328126190Y-156571428D01*
X328221428Y-156523809D01*
X329126190Y-156952380D02*
X329126190Y-155952380D01*
X329126190Y-156904761D02*
X329030952Y-156952380D01*
X328840476Y-156952380D01*
X328745238Y-156904761D01*
X328697619Y-156857142D01*
X328650000Y-156761904D01*
X328650000Y-156476190D01*
X328697619Y-156380952D01*
X328745238Y-156333333D01*
X328840476Y-156285714D01*
X329030952Y-156285714D01*
X329126190Y-156333333D01*
X329364285Y-157047619D02*
X330126190Y-157047619D01*
X330888095Y-156952380D02*
X330316666Y-156952380D01*
X330602380Y-156952380D02*
X330602380Y-155952380D01*
X330507142Y-156095238D01*
X330411904Y-156190476D01*
X330316666Y-156238095D01*
X331316666Y-156857142D02*
X331364285Y-156904761D01*
X331316666Y-156952380D01*
X331269047Y-156904761D01*
X331316666Y-156857142D01*
X331316666Y-156952380D01*
X331983333Y-155952380D02*
X332078571Y-155952380D01*
X332173809Y-156000000D01*
X332221428Y-156047619D01*
X332269047Y-156142857D01*
X332316666Y-156333333D01*
X332316666Y-156571428D01*
X332269047Y-156761904D01*
X332221428Y-156857142D01*
X332173809Y-156904761D01*
X332078571Y-156952380D01*
X331983333Y-156952380D01*
X331888095Y-156904761D01*
X331840476Y-156857142D01*
X331792857Y-156761904D01*
X331745238Y-156571428D01*
X331745238Y-156333333D01*
X331792857Y-156142857D01*
X331840476Y-156047619D01*
X331888095Y-156000000D01*
X331983333Y-155952380D01*
X332650000Y-156952380D02*
X333173809Y-156285714D01*
X332650000Y-156285714D02*
X333173809Y-156952380D01*
X334078571Y-156952380D02*
X333507142Y-156952380D01*
X333792857Y-156952380D02*
X333792857Y-155952380D01*
X333697619Y-156095238D01*
X333602380Y-156190476D01*
X333507142Y-156238095D01*
X334507142Y-156857142D02*
X334554761Y-156904761D01*
X334507142Y-156952380D01*
X334459523Y-156904761D01*
X334507142Y-156857142D01*
X334507142Y-156952380D01*
X335173809Y-155952380D02*
X335269047Y-155952380D01*
X335364285Y-156000000D01*
X335411904Y-156047619D01*
X335459523Y-156142857D01*
X335507142Y-156333333D01*
X335507142Y-156571428D01*
X335459523Y-156761904D01*
X335411904Y-156857142D01*
X335364285Y-156904761D01*
X335269047Y-156952380D01*
X335173809Y-156952380D01*
X335078571Y-156904761D01*
X335030952Y-156857142D01*
X334983333Y-156761904D01*
X334935714Y-156571428D01*
X334935714Y-156333333D01*
X334983333Y-156142857D01*
X335030952Y-156047619D01*
X335078571Y-156000000D01*
X335173809Y-155952380D01*
X335935714Y-156952380D02*
X335935714Y-156285714D01*
X335935714Y-156380952D02*
X335983333Y-156333333D01*
X336078571Y-156285714D01*
X336221428Y-156285714D01*
X336316666Y-156333333D01*
X336364285Y-156428571D01*
X336364285Y-156952380D01*
X336364285Y-156428571D02*
X336411904Y-156333333D01*
X336507142Y-156285714D01*
X336650000Y-156285714D01*
X336745238Y-156333333D01*
X336792857Y-156428571D01*
X336792857Y-156952380D01*
X337269047Y-156952380D02*
X337269047Y-156285714D01*
X337269047Y-156380952D02*
X337316666Y-156333333D01*
X337411904Y-156285714D01*
X337554761Y-156285714D01*
X337650000Y-156333333D01*
X337697619Y-156428571D01*
X337697619Y-156952380D01*
X337697619Y-156428571D02*
X337745238Y-156333333D01*
X337840476Y-156285714D01*
X337983333Y-156285714D01*
X338078571Y-156333333D01*
X338126190Y-156428571D01*
X338126190Y-156952380D01*
X327959523Y-158652380D02*
X328578571Y-158652380D01*
X328245238Y-159033333D01*
X328388095Y-159033333D01*
X328483333Y-159080952D01*
X328530952Y-159128571D01*
X328578571Y-159223809D01*
X328578571Y-159461904D01*
X328530952Y-159557142D01*
X328483333Y-159604761D01*
X328388095Y-159652380D01*
X328102380Y-159652380D01*
X328007142Y-159604761D01*
X327959523Y-159557142D01*
X328911904Y-158985714D02*
X329150000Y-159652380D01*
X329388095Y-158985714D01*
X329673809Y-158652380D02*
X330292857Y-158652380D01*
X329959523Y-159033333D01*
X330102380Y-159033333D01*
X330197619Y-159080952D01*
X330245238Y-159128571D01*
X330292857Y-159223809D01*
X330292857Y-159461904D01*
X330245238Y-159557142D01*
X330197619Y-159604761D01*
X330102380Y-159652380D01*
X329816666Y-159652380D01*
X329721428Y-159604761D01*
X329673809Y-159557142D01*
%TO.C,REF\u002A\u002A*%
X317630952Y-175852380D02*
X318202380Y-175852380D01*
X317916666Y-176852380D02*
X317916666Y-175852380D01*
X318916666Y-176804761D02*
X318821428Y-176852380D01*
X318630952Y-176852380D01*
X318535714Y-176804761D01*
X318488095Y-176709523D01*
X318488095Y-176328571D01*
X318535714Y-176233333D01*
X318630952Y-176185714D01*
X318821428Y-176185714D01*
X318916666Y-176233333D01*
X318964285Y-176328571D01*
X318964285Y-176423809D01*
X318488095Y-176519047D01*
X319345238Y-176804761D02*
X319440476Y-176852380D01*
X319630952Y-176852380D01*
X319726190Y-176804761D01*
X319773809Y-176709523D01*
X319773809Y-176661904D01*
X319726190Y-176566666D01*
X319630952Y-176519047D01*
X319488095Y-176519047D01*
X319392857Y-176471428D01*
X319345238Y-176376190D01*
X319345238Y-176328571D01*
X319392857Y-176233333D01*
X319488095Y-176185714D01*
X319630952Y-176185714D01*
X319726190Y-176233333D01*
X320059523Y-176185714D02*
X320440476Y-176185714D01*
X320202380Y-175852380D02*
X320202380Y-176709523D01*
X320250000Y-176804761D01*
X320345238Y-176852380D01*
X320440476Y-176852380D01*
X320773809Y-176852380D02*
X320773809Y-175852380D01*
X321154761Y-175852380D01*
X321250000Y-175900000D01*
X321297619Y-175947619D01*
X321345238Y-176042857D01*
X321345238Y-176185714D01*
X321297619Y-176280952D01*
X321250000Y-176328571D01*
X321154761Y-176376190D01*
X320773809Y-176376190D01*
X321916666Y-176852380D02*
X321821428Y-176804761D01*
X321773809Y-176757142D01*
X321726190Y-176661904D01*
X321726190Y-176376190D01*
X321773809Y-176280952D01*
X321821428Y-176233333D01*
X321916666Y-176185714D01*
X322059523Y-176185714D01*
X322154761Y-176233333D01*
X322202380Y-176280952D01*
X322250000Y-176376190D01*
X322250000Y-176661904D01*
X322202380Y-176757142D01*
X322154761Y-176804761D01*
X322059523Y-176852380D01*
X321916666Y-176852380D01*
X322678571Y-176852380D02*
X322678571Y-176185714D01*
X322678571Y-175852380D02*
X322630952Y-175900000D01*
X322678571Y-175947619D01*
X322726190Y-175900000D01*
X322678571Y-175852380D01*
X322678571Y-175947619D01*
X323154761Y-176185714D02*
X323154761Y-176852380D01*
X323154761Y-176280952D02*
X323202380Y-176233333D01*
X323297619Y-176185714D01*
X323440476Y-176185714D01*
X323535714Y-176233333D01*
X323583333Y-176328571D01*
X323583333Y-176852380D01*
X323916666Y-176185714D02*
X324297619Y-176185714D01*
X324059523Y-175852380D02*
X324059523Y-176709523D01*
X324107142Y-176804761D01*
X324202380Y-176852380D01*
X324297619Y-176852380D01*
X324392857Y-176947619D02*
X325154761Y-176947619D01*
X325392857Y-176852380D02*
X325392857Y-175852380D01*
X325773809Y-175852380D01*
X325869047Y-175900000D01*
X325916666Y-175947619D01*
X325964285Y-176042857D01*
X325964285Y-176185714D01*
X325916666Y-176280952D01*
X325869047Y-176328571D01*
X325773809Y-176376190D01*
X325392857Y-176376190D01*
X326821428Y-176852380D02*
X326821428Y-176328571D01*
X326773809Y-176233333D01*
X326678571Y-176185714D01*
X326488095Y-176185714D01*
X326392857Y-176233333D01*
X326821428Y-176804761D02*
X326726190Y-176852380D01*
X326488095Y-176852380D01*
X326392857Y-176804761D01*
X326345238Y-176709523D01*
X326345238Y-176614285D01*
X326392857Y-176519047D01*
X326488095Y-176471428D01*
X326726190Y-176471428D01*
X326821428Y-176423809D01*
X327726190Y-176852380D02*
X327726190Y-175852380D01*
X327726190Y-176804761D02*
X327630952Y-176852380D01*
X327440476Y-176852380D01*
X327345238Y-176804761D01*
X327297619Y-176757142D01*
X327250000Y-176661904D01*
X327250000Y-176376190D01*
X327297619Y-176280952D01*
X327345238Y-176233333D01*
X327440476Y-176185714D01*
X327630952Y-176185714D01*
X327726190Y-176233333D01*
X327964285Y-176947619D02*
X328726190Y-176947619D01*
X329488095Y-176852380D02*
X328916666Y-176852380D01*
X329202380Y-176852380D02*
X329202380Y-175852380D01*
X329107142Y-175995238D01*
X329011904Y-176090476D01*
X328916666Y-176138095D01*
X329916666Y-176757142D02*
X329964285Y-176804761D01*
X329916666Y-176852380D01*
X329869047Y-176804761D01*
X329916666Y-176757142D01*
X329916666Y-176852380D01*
X330583333Y-175852380D02*
X330678571Y-175852380D01*
X330773809Y-175900000D01*
X330821428Y-175947619D01*
X330869047Y-176042857D01*
X330916666Y-176233333D01*
X330916666Y-176471428D01*
X330869047Y-176661904D01*
X330821428Y-176757142D01*
X330773809Y-176804761D01*
X330678571Y-176852380D01*
X330583333Y-176852380D01*
X330488095Y-176804761D01*
X330440476Y-176757142D01*
X330392857Y-176661904D01*
X330345238Y-176471428D01*
X330345238Y-176233333D01*
X330392857Y-176042857D01*
X330440476Y-175947619D01*
X330488095Y-175900000D01*
X330583333Y-175852380D01*
X331250000Y-176852380D02*
X331773809Y-176185714D01*
X331250000Y-176185714D02*
X331773809Y-176852380D01*
X332678571Y-176852380D02*
X332107142Y-176852380D01*
X332392857Y-176852380D02*
X332392857Y-175852380D01*
X332297619Y-175995238D01*
X332202380Y-176090476D01*
X332107142Y-176138095D01*
X333107142Y-176757142D02*
X333154761Y-176804761D01*
X333107142Y-176852380D01*
X333059523Y-176804761D01*
X333107142Y-176757142D01*
X333107142Y-176852380D01*
X333773809Y-175852380D02*
X333869047Y-175852380D01*
X333964285Y-175900000D01*
X334011904Y-175947619D01*
X334059523Y-176042857D01*
X334107142Y-176233333D01*
X334107142Y-176471428D01*
X334059523Y-176661904D01*
X334011904Y-176757142D01*
X333964285Y-176804761D01*
X333869047Y-176852380D01*
X333773809Y-176852380D01*
X333678571Y-176804761D01*
X333630952Y-176757142D01*
X333583333Y-176661904D01*
X333535714Y-176471428D01*
X333535714Y-176233333D01*
X333583333Y-176042857D01*
X333630952Y-175947619D01*
X333678571Y-175900000D01*
X333773809Y-175852380D01*
X334535714Y-176852380D02*
X334535714Y-176185714D01*
X334535714Y-176280952D02*
X334583333Y-176233333D01*
X334678571Y-176185714D01*
X334821428Y-176185714D01*
X334916666Y-176233333D01*
X334964285Y-176328571D01*
X334964285Y-176852380D01*
X334964285Y-176328571D02*
X335011904Y-176233333D01*
X335107142Y-176185714D01*
X335250000Y-176185714D01*
X335345238Y-176233333D01*
X335392857Y-176328571D01*
X335392857Y-176852380D01*
X335869047Y-176852380D02*
X335869047Y-176185714D01*
X335869047Y-176280952D02*
X335916666Y-176233333D01*
X336011904Y-176185714D01*
X336154761Y-176185714D01*
X336250000Y-176233333D01*
X336297619Y-176328571D01*
X336297619Y-176852380D01*
X336297619Y-176328571D02*
X336345238Y-176233333D01*
X336440476Y-176185714D01*
X336583333Y-176185714D01*
X336678571Y-176233333D01*
X336726190Y-176328571D01*
X336726190Y-176852380D01*
X326416666Y-173852380D02*
X326083333Y-173376190D01*
X325845238Y-173852380D02*
X325845238Y-172852380D01*
X326226190Y-172852380D01*
X326321428Y-172900000D01*
X326369047Y-172947619D01*
X326416666Y-173042857D01*
X326416666Y-173185714D01*
X326369047Y-173280952D01*
X326321428Y-173328571D01*
X326226190Y-173376190D01*
X325845238Y-173376190D01*
X326845238Y-173328571D02*
X327178571Y-173328571D01*
X327321428Y-173852380D02*
X326845238Y-173852380D01*
X326845238Y-172852380D01*
X327321428Y-172852380D01*
X328083333Y-173328571D02*
X327750000Y-173328571D01*
X327750000Y-173852380D02*
X327750000Y-172852380D01*
X328226190Y-172852380D01*
X328750000Y-172852380D02*
X328750000Y-173090476D01*
X328511904Y-172995238D02*
X328750000Y-173090476D01*
X328988095Y-172995238D01*
X328607142Y-173280952D02*
X328750000Y-173090476D01*
X328892857Y-173280952D01*
X329511904Y-172852380D02*
X329511904Y-173090476D01*
X329273809Y-172995238D02*
X329511904Y-173090476D01*
X329750000Y-172995238D01*
X329369047Y-173280952D02*
X329511904Y-173090476D01*
X329654761Y-173280952D01*
%TO.C,5v*%
X318880952Y-170852380D02*
X319452380Y-170852380D01*
X319166666Y-171852380D02*
X319166666Y-170852380D01*
X320166666Y-171804761D02*
X320071428Y-171852380D01*
X319880952Y-171852380D01*
X319785714Y-171804761D01*
X319738095Y-171709523D01*
X319738095Y-171328571D01*
X319785714Y-171233333D01*
X319880952Y-171185714D01*
X320071428Y-171185714D01*
X320166666Y-171233333D01*
X320214285Y-171328571D01*
X320214285Y-171423809D01*
X319738095Y-171519047D01*
X320595238Y-171804761D02*
X320690476Y-171852380D01*
X320880952Y-171852380D01*
X320976190Y-171804761D01*
X321023809Y-171709523D01*
X321023809Y-171661904D01*
X320976190Y-171566666D01*
X320880952Y-171519047D01*
X320738095Y-171519047D01*
X320642857Y-171471428D01*
X320595238Y-171376190D01*
X320595238Y-171328571D01*
X320642857Y-171233333D01*
X320738095Y-171185714D01*
X320880952Y-171185714D01*
X320976190Y-171233333D01*
X321309523Y-171185714D02*
X321690476Y-171185714D01*
X321452380Y-170852380D02*
X321452380Y-171709523D01*
X321500000Y-171804761D01*
X321595238Y-171852380D01*
X321690476Y-171852380D01*
X322023809Y-171852380D02*
X322023809Y-170852380D01*
X322404761Y-170852380D01*
X322500000Y-170900000D01*
X322547619Y-170947619D01*
X322595238Y-171042857D01*
X322595238Y-171185714D01*
X322547619Y-171280952D01*
X322500000Y-171328571D01*
X322404761Y-171376190D01*
X322023809Y-171376190D01*
X323166666Y-171852380D02*
X323071428Y-171804761D01*
X323023809Y-171757142D01*
X322976190Y-171661904D01*
X322976190Y-171376190D01*
X323023809Y-171280952D01*
X323071428Y-171233333D01*
X323166666Y-171185714D01*
X323309523Y-171185714D01*
X323404761Y-171233333D01*
X323452380Y-171280952D01*
X323500000Y-171376190D01*
X323500000Y-171661904D01*
X323452380Y-171757142D01*
X323404761Y-171804761D01*
X323309523Y-171852380D01*
X323166666Y-171852380D01*
X323928571Y-171852380D02*
X323928571Y-171185714D01*
X323928571Y-170852380D02*
X323880952Y-170900000D01*
X323928571Y-170947619D01*
X323976190Y-170900000D01*
X323928571Y-170852380D01*
X323928571Y-170947619D01*
X324404761Y-171185714D02*
X324404761Y-171852380D01*
X324404761Y-171280952D02*
X324452380Y-171233333D01*
X324547619Y-171185714D01*
X324690476Y-171185714D01*
X324785714Y-171233333D01*
X324833333Y-171328571D01*
X324833333Y-171852380D01*
X325166666Y-171185714D02*
X325547619Y-171185714D01*
X325309523Y-170852380D02*
X325309523Y-171709523D01*
X325357142Y-171804761D01*
X325452380Y-171852380D01*
X325547619Y-171852380D01*
X325642857Y-171947619D02*
X326404761Y-171947619D01*
X326642857Y-171852380D02*
X326642857Y-170852380D01*
X327023809Y-170852380D01*
X327119047Y-170900000D01*
X327166666Y-170947619D01*
X327214285Y-171042857D01*
X327214285Y-171185714D01*
X327166666Y-171280952D01*
X327119047Y-171328571D01*
X327023809Y-171376190D01*
X326642857Y-171376190D01*
X328071428Y-171852380D02*
X328071428Y-171328571D01*
X328023809Y-171233333D01*
X327928571Y-171185714D01*
X327738095Y-171185714D01*
X327642857Y-171233333D01*
X328071428Y-171804761D02*
X327976190Y-171852380D01*
X327738095Y-171852380D01*
X327642857Y-171804761D01*
X327595238Y-171709523D01*
X327595238Y-171614285D01*
X327642857Y-171519047D01*
X327738095Y-171471428D01*
X327976190Y-171471428D01*
X328071428Y-171423809D01*
X328976190Y-171852380D02*
X328976190Y-170852380D01*
X328976190Y-171804761D02*
X328880952Y-171852380D01*
X328690476Y-171852380D01*
X328595238Y-171804761D01*
X328547619Y-171757142D01*
X328500000Y-171661904D01*
X328500000Y-171376190D01*
X328547619Y-171280952D01*
X328595238Y-171233333D01*
X328690476Y-171185714D01*
X328880952Y-171185714D01*
X328976190Y-171233333D01*
X329214285Y-171947619D02*
X329976190Y-171947619D01*
X330738095Y-171852380D02*
X330166666Y-171852380D01*
X330452380Y-171852380D02*
X330452380Y-170852380D01*
X330357142Y-170995238D01*
X330261904Y-171090476D01*
X330166666Y-171138095D01*
X331166666Y-171757142D02*
X331214285Y-171804761D01*
X331166666Y-171852380D01*
X331119047Y-171804761D01*
X331166666Y-171757142D01*
X331166666Y-171852380D01*
X331833333Y-170852380D02*
X331928571Y-170852380D01*
X332023809Y-170900000D01*
X332071428Y-170947619D01*
X332119047Y-171042857D01*
X332166666Y-171233333D01*
X332166666Y-171471428D01*
X332119047Y-171661904D01*
X332071428Y-171757142D01*
X332023809Y-171804761D01*
X331928571Y-171852380D01*
X331833333Y-171852380D01*
X331738095Y-171804761D01*
X331690476Y-171757142D01*
X331642857Y-171661904D01*
X331595238Y-171471428D01*
X331595238Y-171233333D01*
X331642857Y-171042857D01*
X331690476Y-170947619D01*
X331738095Y-170900000D01*
X331833333Y-170852380D01*
X332500000Y-171852380D02*
X333023809Y-171185714D01*
X332500000Y-171185714D02*
X333023809Y-171852380D01*
X333928571Y-171852380D02*
X333357142Y-171852380D01*
X333642857Y-171852380D02*
X333642857Y-170852380D01*
X333547619Y-170995238D01*
X333452380Y-171090476D01*
X333357142Y-171138095D01*
X334357142Y-171757142D02*
X334404761Y-171804761D01*
X334357142Y-171852380D01*
X334309523Y-171804761D01*
X334357142Y-171757142D01*
X334357142Y-171852380D01*
X335023809Y-170852380D02*
X335119047Y-170852380D01*
X335214285Y-170900000D01*
X335261904Y-170947619D01*
X335309523Y-171042857D01*
X335357142Y-171233333D01*
X335357142Y-171471428D01*
X335309523Y-171661904D01*
X335261904Y-171757142D01*
X335214285Y-171804761D01*
X335119047Y-171852380D01*
X335023809Y-171852380D01*
X334928571Y-171804761D01*
X334880952Y-171757142D01*
X334833333Y-171661904D01*
X334785714Y-171471428D01*
X334785714Y-171233333D01*
X334833333Y-171042857D01*
X334880952Y-170947619D01*
X334928571Y-170900000D01*
X335023809Y-170852380D01*
X335785714Y-171852380D02*
X335785714Y-171185714D01*
X335785714Y-171280952D02*
X335833333Y-171233333D01*
X335928571Y-171185714D01*
X336071428Y-171185714D01*
X336166666Y-171233333D01*
X336214285Y-171328571D01*
X336214285Y-171852380D01*
X336214285Y-171328571D02*
X336261904Y-171233333D01*
X336357142Y-171185714D01*
X336500000Y-171185714D01*
X336595238Y-171233333D01*
X336642857Y-171328571D01*
X336642857Y-171852380D01*
X337119047Y-171852380D02*
X337119047Y-171185714D01*
X337119047Y-171280952D02*
X337166666Y-171233333D01*
X337261904Y-171185714D01*
X337404761Y-171185714D01*
X337500000Y-171233333D01*
X337547619Y-171328571D01*
X337547619Y-171852380D01*
X337547619Y-171328571D02*
X337595238Y-171233333D01*
X337690476Y-171185714D01*
X337833333Y-171185714D01*
X337928571Y-171233333D01*
X337976190Y-171328571D01*
X337976190Y-171852380D01*
X327657142Y-167852380D02*
X327180952Y-167852380D01*
X327133333Y-168328571D01*
X327180952Y-168280952D01*
X327276190Y-168233333D01*
X327514285Y-168233333D01*
X327609523Y-168280952D01*
X327657142Y-168328571D01*
X327704761Y-168423809D01*
X327704761Y-168661904D01*
X327657142Y-168757142D01*
X327609523Y-168804761D01*
X327514285Y-168852380D01*
X327276190Y-168852380D01*
X327180952Y-168804761D01*
X327133333Y-168757142D01*
X328038095Y-168185714D02*
X328276190Y-168852380D01*
X328514285Y-168185714D01*
%TO.C,C1*%
X323427142Y-158166666D02*
X323474761Y-158214285D01*
X323522380Y-158357142D01*
X323522380Y-158452380D01*
X323474761Y-158595238D01*
X323379523Y-158690476D01*
X323284285Y-158738095D01*
X323093809Y-158785714D01*
X322950952Y-158785714D01*
X322760476Y-158738095D01*
X322665238Y-158690476D01*
X322570000Y-158595238D01*
X322522380Y-158452380D01*
X322522380Y-158357142D01*
X322570000Y-158214285D01*
X322617619Y-158166666D01*
X323522380Y-157214285D02*
X323522380Y-157785714D01*
X323522380Y-157500000D02*
X322522380Y-157500000D01*
X322665238Y-157595238D01*
X322760476Y-157690476D01*
X322808095Y-157785714D01*
X326382380Y-158642857D02*
X326382380Y-159214285D01*
X326382380Y-158928571D02*
X325382380Y-158928571D01*
X325525238Y-159023809D01*
X325620476Y-159119047D01*
X325668095Y-159214285D01*
X325382380Y-158023809D02*
X325382380Y-157928571D01*
X325430000Y-157833333D01*
X325477619Y-157785714D01*
X325572857Y-157738095D01*
X325763333Y-157690476D01*
X326001428Y-157690476D01*
X326191904Y-157738095D01*
X326287142Y-157785714D01*
X326334761Y-157833333D01*
X326382380Y-157928571D01*
X326382380Y-158023809D01*
X326334761Y-158119047D01*
X326287142Y-158166666D01*
X326191904Y-158214285D01*
X326001428Y-158261904D01*
X325763333Y-158261904D01*
X325572857Y-158214285D01*
X325477619Y-158166666D01*
X325430000Y-158119047D01*
X325382380Y-158023809D01*
X325715714Y-156833333D02*
X326382380Y-156833333D01*
X325715714Y-157261904D02*
X326239523Y-157261904D01*
X326334761Y-157214285D01*
X326382380Y-157119047D01*
X326382380Y-156976190D01*
X326334761Y-156880952D01*
X326287142Y-156833333D01*
D12*
X100292857Y-158366666D02*
X100311904Y-158385714D01*
X100330952Y-158442857D01*
X100330952Y-158480952D01*
X100311904Y-158538095D01*
X100273809Y-158576190D01*
X100235714Y-158595238D01*
X100159523Y-158614285D01*
X100102380Y-158614285D01*
X100026190Y-158595238D01*
X99988095Y-158576190D01*
X99950000Y-158538095D01*
X99930952Y-158480952D01*
X99930952Y-158442857D01*
X99950000Y-158385714D01*
X99969047Y-158366666D01*
X100330952Y-157985714D02*
X100330952Y-158214285D01*
X100330952Y-158100000D02*
X99930952Y-158100000D01*
X99988095Y-158138095D01*
X100026190Y-158176190D01*
X100045238Y-158214285D01*
%TO.C,C2*%
D11*
X331083333Y-164077142D02*
X331035714Y-164124761D01*
X330892857Y-164172380D01*
X330797619Y-164172380D01*
X330654761Y-164124761D01*
X330559523Y-164029523D01*
X330511904Y-163934285D01*
X330464285Y-163743809D01*
X330464285Y-163600952D01*
X330511904Y-163410476D01*
X330559523Y-163315238D01*
X330654761Y-163220000D01*
X330797619Y-163172380D01*
X330892857Y-163172380D01*
X331035714Y-163220000D01*
X331083333Y-163267619D01*
X331464285Y-163267619D02*
X331511904Y-163220000D01*
X331607142Y-163172380D01*
X331845238Y-163172380D01*
X331940476Y-163220000D01*
X331988095Y-163267619D01*
X332035714Y-163362857D01*
X332035714Y-163458095D01*
X331988095Y-163600952D01*
X331416666Y-164172380D01*
X332035714Y-164172380D01*
X330607142Y-167032380D02*
X330035714Y-167032380D01*
X330321428Y-167032380D02*
X330321428Y-166032380D01*
X330226190Y-166175238D01*
X330130952Y-166270476D01*
X330035714Y-166318095D01*
X331226190Y-166032380D02*
X331321428Y-166032380D01*
X331416666Y-166080000D01*
X331464285Y-166127619D01*
X331511904Y-166222857D01*
X331559523Y-166413333D01*
X331559523Y-166651428D01*
X331511904Y-166841904D01*
X331464285Y-166937142D01*
X331416666Y-166984761D01*
X331321428Y-167032380D01*
X331226190Y-167032380D01*
X331130952Y-166984761D01*
X331083333Y-166937142D01*
X331035714Y-166841904D01*
X330988095Y-166651428D01*
X330988095Y-166413333D01*
X331035714Y-166222857D01*
X331083333Y-166127619D01*
X331130952Y-166080000D01*
X331226190Y-166032380D01*
X332416666Y-166365714D02*
X332416666Y-167032380D01*
X331988095Y-166365714D02*
X331988095Y-166889523D01*
X332035714Y-166984761D01*
X332130952Y-167032380D01*
X332273809Y-167032380D01*
X332369047Y-166984761D01*
X332416666Y-166937142D01*
D12*
X98733333Y-161942857D02*
X98714285Y-161961904D01*
X98657142Y-161980952D01*
X98619047Y-161980952D01*
X98561904Y-161961904D01*
X98523809Y-161923809D01*
X98504761Y-161885714D01*
X98485714Y-161809523D01*
X98485714Y-161752380D01*
X98504761Y-161676190D01*
X98523809Y-161638095D01*
X98561904Y-161600000D01*
X98619047Y-161580952D01*
X98657142Y-161580952D01*
X98714285Y-161600000D01*
X98733333Y-161619047D01*
X98885714Y-161619047D02*
X98904761Y-161600000D01*
X98942857Y-161580952D01*
X99038095Y-161580952D01*
X99076190Y-161600000D01*
X99095238Y-161619047D01*
X99114285Y-161657142D01*
X99114285Y-161695238D01*
X99095238Y-161752380D01*
X98866666Y-161980952D01*
X99114285Y-161980952D01*
%TO.C,C3*%
D11*
X314297142Y-164966666D02*
X314344761Y-165014285D01*
X314392380Y-165157142D01*
X314392380Y-165252380D01*
X314344761Y-165395238D01*
X314249523Y-165490476D01*
X314154285Y-165538095D01*
X313963809Y-165585714D01*
X313820952Y-165585714D01*
X313630476Y-165538095D01*
X313535238Y-165490476D01*
X313440000Y-165395238D01*
X313392380Y-165252380D01*
X313392380Y-165157142D01*
X313440000Y-165014285D01*
X313487619Y-164966666D01*
X313392380Y-164633333D02*
X313392380Y-164014285D01*
X313773333Y-164347619D01*
X313773333Y-164204761D01*
X313820952Y-164109523D01*
X313868571Y-164061904D01*
X313963809Y-164014285D01*
X314201904Y-164014285D01*
X314297142Y-164061904D01*
X314344761Y-164109523D01*
X314392380Y-164204761D01*
X314392380Y-164490476D01*
X314344761Y-164585714D01*
X314297142Y-164633333D01*
X316712380Y-165919047D02*
X316712380Y-166490476D01*
X316712380Y-166204761D02*
X315712380Y-166204761D01*
X315855238Y-166300000D01*
X315950476Y-166395238D01*
X315998095Y-166490476D01*
X315712380Y-165300000D02*
X315712380Y-165204761D01*
X315760000Y-165109523D01*
X315807619Y-165061904D01*
X315902857Y-165014285D01*
X316093333Y-164966666D01*
X316331428Y-164966666D01*
X316521904Y-165014285D01*
X316617142Y-165061904D01*
X316664761Y-165109523D01*
X316712380Y-165204761D01*
X316712380Y-165300000D01*
X316664761Y-165395238D01*
X316617142Y-165442857D01*
X316521904Y-165490476D01*
X316331428Y-165538095D01*
X316093333Y-165538095D01*
X315902857Y-165490476D01*
X315807619Y-165442857D01*
X315760000Y-165395238D01*
X315712380Y-165300000D01*
X315712380Y-164347619D02*
X315712380Y-164252380D01*
X315760000Y-164157142D01*
X315807619Y-164109523D01*
X315902857Y-164061904D01*
X316093333Y-164014285D01*
X316331428Y-164014285D01*
X316521904Y-164061904D01*
X316617142Y-164109523D01*
X316664761Y-164157142D01*
X316712380Y-164252380D01*
X316712380Y-164347619D01*
X316664761Y-164442857D01*
X316617142Y-164490476D01*
X316521904Y-164538095D01*
X316331428Y-164585714D01*
X316093333Y-164585714D01*
X315902857Y-164538095D01*
X315807619Y-164490476D01*
X315760000Y-164442857D01*
X315712380Y-164347619D01*
X316045714Y-163585714D02*
X316712380Y-163585714D01*
X316140952Y-163585714D02*
X316093333Y-163538095D01*
X316045714Y-163442857D01*
X316045714Y-163300000D01*
X316093333Y-163204761D01*
X316188571Y-163157142D01*
X316712380Y-163157142D01*
D13*
X90839285Y-165141666D02*
X90851190Y-165153571D01*
X90863095Y-165189285D01*
X90863095Y-165213095D01*
X90851190Y-165248809D01*
X90827380Y-165272619D01*
X90803571Y-165284523D01*
X90755952Y-165296428D01*
X90720238Y-165296428D01*
X90672619Y-165284523D01*
X90648809Y-165272619D01*
X90625000Y-165248809D01*
X90613095Y-165213095D01*
X90613095Y-165189285D01*
X90625000Y-165153571D01*
X90636904Y-165141666D01*
X90613095Y-165058333D02*
X90613095Y-164903571D01*
X90708333Y-164986904D01*
X90708333Y-164951190D01*
X90720238Y-164927380D01*
X90732142Y-164915476D01*
X90755952Y-164903571D01*
X90815476Y-164903571D01*
X90839285Y-164915476D01*
X90851190Y-164927380D01*
X90863095Y-164951190D01*
X90863095Y-165022619D01*
X90851190Y-165046428D01*
X90839285Y-165058333D01*
%TO.C,C4*%
D11*
X335733333Y-160767142D02*
X335685714Y-160814761D01*
X335542857Y-160862380D01*
X335447619Y-160862380D01*
X335304761Y-160814761D01*
X335209523Y-160719523D01*
X335161904Y-160624285D01*
X335114285Y-160433809D01*
X335114285Y-160290952D01*
X335161904Y-160100476D01*
X335209523Y-160005238D01*
X335304761Y-159910000D01*
X335447619Y-159862380D01*
X335542857Y-159862380D01*
X335685714Y-159910000D01*
X335733333Y-159957619D01*
X336590476Y-160195714D02*
X336590476Y-160862380D01*
X336352380Y-159814761D02*
X336114285Y-160529047D01*
X336733333Y-160529047D01*
X335733333Y-158542380D02*
X335161904Y-158542380D01*
X335447619Y-158542380D02*
X335447619Y-157542380D01*
X335352380Y-157685238D01*
X335257142Y-157780476D01*
X335161904Y-157828095D01*
X336590476Y-157875714D02*
X336590476Y-158542380D01*
X336161904Y-157875714D02*
X336161904Y-158399523D01*
X336209523Y-158494761D01*
X336304761Y-158542380D01*
X336447619Y-158542380D01*
X336542857Y-158494761D01*
X336590476Y-158447142D01*
D13*
X103408333Y-155989285D02*
X103396428Y-156001190D01*
X103360714Y-156013095D01*
X103336904Y-156013095D01*
X103301190Y-156001190D01*
X103277380Y-155977380D01*
X103265476Y-155953571D01*
X103253571Y-155905952D01*
X103253571Y-155870238D01*
X103265476Y-155822619D01*
X103277380Y-155798809D01*
X103301190Y-155775000D01*
X103336904Y-155763095D01*
X103360714Y-155763095D01*
X103396428Y-155775000D01*
X103408333Y-155786904D01*
X103622619Y-155846428D02*
X103622619Y-156013095D01*
X103563095Y-155751190D02*
X103503571Y-155929761D01*
X103658333Y-155929761D01*
%TO.C,C5*%
D11*
X339133333Y-159547142D02*
X339085714Y-159594761D01*
X338942857Y-159642380D01*
X338847619Y-159642380D01*
X338704761Y-159594761D01*
X338609523Y-159499523D01*
X338561904Y-159404285D01*
X338514285Y-159213809D01*
X338514285Y-159070952D01*
X338561904Y-158880476D01*
X338609523Y-158785238D01*
X338704761Y-158690000D01*
X338847619Y-158642380D01*
X338942857Y-158642380D01*
X339085714Y-158690000D01*
X339133333Y-158737619D01*
X340038095Y-158642380D02*
X339561904Y-158642380D01*
X339514285Y-159118571D01*
X339561904Y-159070952D01*
X339657142Y-159023333D01*
X339895238Y-159023333D01*
X339990476Y-159070952D01*
X340038095Y-159118571D01*
X340085714Y-159213809D01*
X340085714Y-159451904D01*
X340038095Y-159547142D01*
X339990476Y-159594761D01*
X339895238Y-159642380D01*
X339657142Y-159642380D01*
X339561904Y-159594761D01*
X339514285Y-159547142D01*
X338180952Y-161962380D02*
X337609523Y-161962380D01*
X337895238Y-161962380D02*
X337895238Y-160962380D01*
X337800000Y-161105238D01*
X337704761Y-161200476D01*
X337609523Y-161248095D01*
X338800000Y-160962380D02*
X338895238Y-160962380D01*
X338990476Y-161010000D01*
X339038095Y-161057619D01*
X339085714Y-161152857D01*
X339133333Y-161343333D01*
X339133333Y-161581428D01*
X339085714Y-161771904D01*
X339038095Y-161867142D01*
X338990476Y-161914761D01*
X338895238Y-161962380D01*
X338800000Y-161962380D01*
X338704761Y-161914761D01*
X338657142Y-161867142D01*
X338609523Y-161771904D01*
X338561904Y-161581428D01*
X338561904Y-161343333D01*
X338609523Y-161152857D01*
X338657142Y-161057619D01*
X338704761Y-161010000D01*
X338800000Y-160962380D01*
X339752380Y-160962380D02*
X339847619Y-160962380D01*
X339942857Y-161010000D01*
X339990476Y-161057619D01*
X340038095Y-161152857D01*
X340085714Y-161343333D01*
X340085714Y-161581428D01*
X340038095Y-161771904D01*
X339990476Y-161867142D01*
X339942857Y-161914761D01*
X339847619Y-161962380D01*
X339752380Y-161962380D01*
X339657142Y-161914761D01*
X339609523Y-161867142D01*
X339561904Y-161771904D01*
X339514285Y-161581428D01*
X339514285Y-161343333D01*
X339561904Y-161152857D01*
X339609523Y-161057619D01*
X339657142Y-161010000D01*
X339752380Y-160962380D01*
X340514285Y-161295714D02*
X340514285Y-161962380D01*
X340514285Y-161390952D02*
X340561904Y-161343333D01*
X340657142Y-161295714D01*
X340800000Y-161295714D01*
X340895238Y-161343333D01*
X340942857Y-161438571D01*
X340942857Y-161962380D01*
D13*
X106808333Y-157089285D02*
X106796428Y-157101190D01*
X106760714Y-157113095D01*
X106736904Y-157113095D01*
X106701190Y-157101190D01*
X106677380Y-157077380D01*
X106665476Y-157053571D01*
X106653571Y-157005952D01*
X106653571Y-156970238D01*
X106665476Y-156922619D01*
X106677380Y-156898809D01*
X106701190Y-156875000D01*
X106736904Y-156863095D01*
X106760714Y-156863095D01*
X106796428Y-156875000D01*
X106808333Y-156886904D01*
X107034523Y-156863095D02*
X106915476Y-156863095D01*
X106903571Y-156982142D01*
X106915476Y-156970238D01*
X106939285Y-156958333D01*
X106998809Y-156958333D01*
X107022619Y-156970238D01*
X107034523Y-156982142D01*
X107046428Y-157005952D01*
X107046428Y-157065476D01*
X107034523Y-157089285D01*
X107022619Y-157101190D01*
X106998809Y-157113095D01*
X106939285Y-157113095D01*
X106915476Y-157101190D01*
X106903571Y-157089285D01*
%TO.C,C6*%
D11*
X335733333Y-161867142D02*
X335685714Y-161914761D01*
X335542857Y-161962380D01*
X335447619Y-161962380D01*
X335304761Y-161914761D01*
X335209523Y-161819523D01*
X335161904Y-161724285D01*
X335114285Y-161533809D01*
X335114285Y-161390952D01*
X335161904Y-161200476D01*
X335209523Y-161105238D01*
X335304761Y-161010000D01*
X335447619Y-160962380D01*
X335542857Y-160962380D01*
X335685714Y-161010000D01*
X335733333Y-161057619D01*
X336590476Y-160962380D02*
X336400000Y-160962380D01*
X336304761Y-161010000D01*
X336257142Y-161057619D01*
X336161904Y-161200476D01*
X336114285Y-161390952D01*
X336114285Y-161771904D01*
X336161904Y-161867142D01*
X336209523Y-161914761D01*
X336304761Y-161962380D01*
X336495238Y-161962380D01*
X336590476Y-161914761D01*
X336638095Y-161867142D01*
X336685714Y-161771904D01*
X336685714Y-161533809D01*
X336638095Y-161438571D01*
X336590476Y-161390952D01*
X336495238Y-161343333D01*
X336304761Y-161343333D01*
X336209523Y-161390952D01*
X336161904Y-161438571D01*
X336114285Y-161533809D01*
X334780952Y-159642380D02*
X334209523Y-159642380D01*
X334495238Y-159642380D02*
X334495238Y-158642380D01*
X334400000Y-158785238D01*
X334304761Y-158880476D01*
X334209523Y-158928095D01*
X335400000Y-158642380D02*
X335495238Y-158642380D01*
X335590476Y-158690000D01*
X335638095Y-158737619D01*
X335685714Y-158832857D01*
X335733333Y-159023333D01*
X335733333Y-159261428D01*
X335685714Y-159451904D01*
X335638095Y-159547142D01*
X335590476Y-159594761D01*
X335495238Y-159642380D01*
X335400000Y-159642380D01*
X335304761Y-159594761D01*
X335257142Y-159547142D01*
X335209523Y-159451904D01*
X335161904Y-159261428D01*
X335161904Y-159023333D01*
X335209523Y-158832857D01*
X335257142Y-158737619D01*
X335304761Y-158690000D01*
X335400000Y-158642380D01*
X336352380Y-158642380D02*
X336447619Y-158642380D01*
X336542857Y-158690000D01*
X336590476Y-158737619D01*
X336638095Y-158832857D01*
X336685714Y-159023333D01*
X336685714Y-159261428D01*
X336638095Y-159451904D01*
X336590476Y-159547142D01*
X336542857Y-159594761D01*
X336447619Y-159642380D01*
X336352380Y-159642380D01*
X336257142Y-159594761D01*
X336209523Y-159547142D01*
X336161904Y-159451904D01*
X336114285Y-159261428D01*
X336114285Y-159023333D01*
X336161904Y-158832857D01*
X336209523Y-158737619D01*
X336257142Y-158690000D01*
X336352380Y-158642380D01*
X337114285Y-158975714D02*
X337114285Y-159642380D01*
X337114285Y-159070952D02*
X337161904Y-159023333D01*
X337257142Y-158975714D01*
X337400000Y-158975714D01*
X337495238Y-159023333D01*
X337542857Y-159118571D01*
X337542857Y-159642380D01*
D13*
X103408333Y-157089285D02*
X103396428Y-157101190D01*
X103360714Y-157113095D01*
X103336904Y-157113095D01*
X103301190Y-157101190D01*
X103277380Y-157077380D01*
X103265476Y-157053571D01*
X103253571Y-157005952D01*
X103253571Y-156970238D01*
X103265476Y-156922619D01*
X103277380Y-156898809D01*
X103301190Y-156875000D01*
X103336904Y-156863095D01*
X103360714Y-156863095D01*
X103396428Y-156875000D01*
X103408333Y-156886904D01*
X103622619Y-156863095D02*
X103575000Y-156863095D01*
X103551190Y-156875000D01*
X103539285Y-156886904D01*
X103515476Y-156922619D01*
X103503571Y-156970238D01*
X103503571Y-157065476D01*
X103515476Y-157089285D01*
X103527380Y-157101190D01*
X103551190Y-157113095D01*
X103598809Y-157113095D01*
X103622619Y-157101190D01*
X103634523Y-157089285D01*
X103646428Y-157065476D01*
X103646428Y-157005952D01*
X103634523Y-156982142D01*
X103622619Y-156970238D01*
X103598809Y-156958333D01*
X103551190Y-156958333D01*
X103527380Y-156970238D01*
X103515476Y-156982142D01*
X103503571Y-157005952D01*
%TO.C,C7*%
D11*
X334233333Y-169367142D02*
X334185714Y-169414761D01*
X334042857Y-169462380D01*
X333947619Y-169462380D01*
X333804761Y-169414761D01*
X333709523Y-169319523D01*
X333661904Y-169224285D01*
X333614285Y-169033809D01*
X333614285Y-168890952D01*
X333661904Y-168700476D01*
X333709523Y-168605238D01*
X333804761Y-168510000D01*
X333947619Y-168462380D01*
X334042857Y-168462380D01*
X334185714Y-168510000D01*
X334233333Y-168557619D01*
X334566666Y-168462380D02*
X335233333Y-168462380D01*
X334804761Y-169462380D01*
X333280952Y-167142380D02*
X332709523Y-167142380D01*
X332995238Y-167142380D02*
X332995238Y-166142380D01*
X332900000Y-166285238D01*
X332804761Y-166380476D01*
X332709523Y-166428095D01*
X333900000Y-166142380D02*
X333995238Y-166142380D01*
X334090476Y-166190000D01*
X334138095Y-166237619D01*
X334185714Y-166332857D01*
X334233333Y-166523333D01*
X334233333Y-166761428D01*
X334185714Y-166951904D01*
X334138095Y-167047142D01*
X334090476Y-167094761D01*
X333995238Y-167142380D01*
X333900000Y-167142380D01*
X333804761Y-167094761D01*
X333757142Y-167047142D01*
X333709523Y-166951904D01*
X333661904Y-166761428D01*
X333661904Y-166523333D01*
X333709523Y-166332857D01*
X333757142Y-166237619D01*
X333804761Y-166190000D01*
X333900000Y-166142380D01*
X334852380Y-166142380D02*
X334947619Y-166142380D01*
X335042857Y-166190000D01*
X335090476Y-166237619D01*
X335138095Y-166332857D01*
X335185714Y-166523333D01*
X335185714Y-166761428D01*
X335138095Y-166951904D01*
X335090476Y-167047142D01*
X335042857Y-167094761D01*
X334947619Y-167142380D01*
X334852380Y-167142380D01*
X334757142Y-167094761D01*
X334709523Y-167047142D01*
X334661904Y-166951904D01*
X334614285Y-166761428D01*
X334614285Y-166523333D01*
X334661904Y-166332857D01*
X334709523Y-166237619D01*
X334757142Y-166190000D01*
X334852380Y-166142380D01*
X335614285Y-166475714D02*
X335614285Y-167142380D01*
X335614285Y-166570952D02*
X335661904Y-166523333D01*
X335757142Y-166475714D01*
X335900000Y-166475714D01*
X335995238Y-166523333D01*
X336042857Y-166618571D01*
X336042857Y-167142380D01*
D13*
X101908333Y-164589285D02*
X101896428Y-164601190D01*
X101860714Y-164613095D01*
X101836904Y-164613095D01*
X101801190Y-164601190D01*
X101777380Y-164577380D01*
X101765476Y-164553571D01*
X101753571Y-164505952D01*
X101753571Y-164470238D01*
X101765476Y-164422619D01*
X101777380Y-164398809D01*
X101801190Y-164375000D01*
X101836904Y-164363095D01*
X101860714Y-164363095D01*
X101896428Y-164375000D01*
X101908333Y-164386904D01*
X101991666Y-164363095D02*
X102158333Y-164363095D01*
X102051190Y-164613095D01*
%TO.C,C8*%
D11*
X321677142Y-155916666D02*
X321724761Y-155964285D01*
X321772380Y-156107142D01*
X321772380Y-156202380D01*
X321724761Y-156345238D01*
X321629523Y-156440476D01*
X321534285Y-156488095D01*
X321343809Y-156535714D01*
X321200952Y-156535714D01*
X321010476Y-156488095D01*
X320915238Y-156440476D01*
X320820000Y-156345238D01*
X320772380Y-156202380D01*
X320772380Y-156107142D01*
X320820000Y-155964285D01*
X320867619Y-155916666D01*
X321200952Y-155345238D02*
X321153333Y-155440476D01*
X321105714Y-155488095D01*
X321010476Y-155535714D01*
X320962857Y-155535714D01*
X320867619Y-155488095D01*
X320820000Y-155440476D01*
X320772380Y-155345238D01*
X320772380Y-155154761D01*
X320820000Y-155059523D01*
X320867619Y-155011904D01*
X320962857Y-154964285D01*
X321010476Y-154964285D01*
X321105714Y-155011904D01*
X321153333Y-155059523D01*
X321200952Y-155154761D01*
X321200952Y-155345238D01*
X321248571Y-155440476D01*
X321296190Y-155488095D01*
X321391428Y-155535714D01*
X321581904Y-155535714D01*
X321677142Y-155488095D01*
X321724761Y-155440476D01*
X321772380Y-155345238D01*
X321772380Y-155154761D01*
X321724761Y-155059523D01*
X321677142Y-155011904D01*
X321581904Y-154964285D01*
X321391428Y-154964285D01*
X321296190Y-155011904D01*
X321248571Y-155059523D01*
X321200952Y-155154761D01*
X324632380Y-156392857D02*
X324632380Y-156964285D01*
X324632380Y-156678571D02*
X323632380Y-156678571D01*
X323775238Y-156773809D01*
X323870476Y-156869047D01*
X323918095Y-156964285D01*
X323632380Y-155773809D02*
X323632380Y-155678571D01*
X323680000Y-155583333D01*
X323727619Y-155535714D01*
X323822857Y-155488095D01*
X324013333Y-155440476D01*
X324251428Y-155440476D01*
X324441904Y-155488095D01*
X324537142Y-155535714D01*
X324584761Y-155583333D01*
X324632380Y-155678571D01*
X324632380Y-155773809D01*
X324584761Y-155869047D01*
X324537142Y-155916666D01*
X324441904Y-155964285D01*
X324251428Y-156011904D01*
X324013333Y-156011904D01*
X323822857Y-155964285D01*
X323727619Y-155916666D01*
X323680000Y-155869047D01*
X323632380Y-155773809D01*
X323965714Y-154583333D02*
X324632380Y-154583333D01*
X323965714Y-155011904D02*
X324489523Y-155011904D01*
X324584761Y-154964285D01*
X324632380Y-154869047D01*
X324632380Y-154726190D01*
X324584761Y-154630952D01*
X324537142Y-154583333D01*
D12*
X113292857Y-155266666D02*
X113311904Y-155285714D01*
X113330952Y-155342857D01*
X113330952Y-155380952D01*
X113311904Y-155438095D01*
X113273809Y-155476190D01*
X113235714Y-155495238D01*
X113159523Y-155514285D01*
X113102380Y-155514285D01*
X113026190Y-155495238D01*
X112988095Y-155476190D01*
X112950000Y-155438095D01*
X112930952Y-155380952D01*
X112930952Y-155342857D01*
X112950000Y-155285714D01*
X112969047Y-155266666D01*
X113102380Y-155038095D02*
X113083333Y-155076190D01*
X113064285Y-155095238D01*
X113026190Y-155114285D01*
X113007142Y-155114285D01*
X112969047Y-155095238D01*
X112950000Y-155076190D01*
X112930952Y-155038095D01*
X112930952Y-154961904D01*
X112950000Y-154923809D01*
X112969047Y-154904761D01*
X113007142Y-154885714D01*
X113026190Y-154885714D01*
X113064285Y-154904761D01*
X113083333Y-154923809D01*
X113102380Y-154961904D01*
X113102380Y-155038095D01*
X113121428Y-155076190D01*
X113140476Y-155095238D01*
X113178571Y-155114285D01*
X113254761Y-155114285D01*
X113292857Y-155095238D01*
X113311904Y-155076190D01*
X113330952Y-155038095D01*
X113330952Y-154961904D01*
X113311904Y-154923809D01*
X113292857Y-154904761D01*
X113254761Y-154885714D01*
X113178571Y-154885714D01*
X113140476Y-154904761D01*
X113121428Y-154923809D01*
X113102380Y-154961904D01*
%TO.C,C9*%
D11*
X320647142Y-157216666D02*
X320694761Y-157264285D01*
X320742380Y-157407142D01*
X320742380Y-157502380D01*
X320694761Y-157645238D01*
X320599523Y-157740476D01*
X320504285Y-157788095D01*
X320313809Y-157835714D01*
X320170952Y-157835714D01*
X319980476Y-157788095D01*
X319885238Y-157740476D01*
X319790000Y-157645238D01*
X319742380Y-157502380D01*
X319742380Y-157407142D01*
X319790000Y-157264285D01*
X319837619Y-157216666D01*
X320742380Y-156740476D02*
X320742380Y-156550000D01*
X320694761Y-156454761D01*
X320647142Y-156407142D01*
X320504285Y-156311904D01*
X320313809Y-156264285D01*
X319932857Y-156264285D01*
X319837619Y-156311904D01*
X319790000Y-156359523D01*
X319742380Y-156454761D01*
X319742380Y-156645238D01*
X319790000Y-156740476D01*
X319837619Y-156788095D01*
X319932857Y-156835714D01*
X320170952Y-156835714D01*
X320266190Y-156788095D01*
X320313809Y-156740476D01*
X320361428Y-156645238D01*
X320361428Y-156454761D01*
X320313809Y-156359523D01*
X320266190Y-156311904D01*
X320170952Y-156264285D01*
X323062380Y-157692857D02*
X323062380Y-158264285D01*
X323062380Y-157978571D02*
X322062380Y-157978571D01*
X322205238Y-158073809D01*
X322300476Y-158169047D01*
X322348095Y-158264285D01*
X322062380Y-157073809D02*
X322062380Y-156978571D01*
X322110000Y-156883333D01*
X322157619Y-156835714D01*
X322252857Y-156788095D01*
X322443333Y-156740476D01*
X322681428Y-156740476D01*
X322871904Y-156788095D01*
X322967142Y-156835714D01*
X323014761Y-156883333D01*
X323062380Y-156978571D01*
X323062380Y-157073809D01*
X323014761Y-157169047D01*
X322967142Y-157216666D01*
X322871904Y-157264285D01*
X322681428Y-157311904D01*
X322443333Y-157311904D01*
X322252857Y-157264285D01*
X322157619Y-157216666D01*
X322110000Y-157169047D01*
X322062380Y-157073809D01*
X322395714Y-156311904D02*
X323062380Y-156311904D01*
X322490952Y-156311904D02*
X322443333Y-156264285D01*
X322395714Y-156169047D01*
X322395714Y-156026190D01*
X322443333Y-155930952D01*
X322538571Y-155883333D01*
X323062380Y-155883333D01*
D13*
X111939285Y-156541666D02*
X111951190Y-156553571D01*
X111963095Y-156589285D01*
X111963095Y-156613095D01*
X111951190Y-156648809D01*
X111927380Y-156672619D01*
X111903571Y-156684523D01*
X111855952Y-156696428D01*
X111820238Y-156696428D01*
X111772619Y-156684523D01*
X111748809Y-156672619D01*
X111725000Y-156648809D01*
X111713095Y-156613095D01*
X111713095Y-156589285D01*
X111725000Y-156553571D01*
X111736904Y-156541666D01*
X111963095Y-156422619D02*
X111963095Y-156375000D01*
X111951190Y-156351190D01*
X111939285Y-156339285D01*
X111903571Y-156315476D01*
X111855952Y-156303571D01*
X111760714Y-156303571D01*
X111736904Y-156315476D01*
X111725000Y-156327380D01*
X111713095Y-156351190D01*
X111713095Y-156398809D01*
X111725000Y-156422619D01*
X111736904Y-156434523D01*
X111760714Y-156446428D01*
X111820238Y-156446428D01*
X111844047Y-156434523D01*
X111855952Y-156422619D01*
X111867857Y-156398809D01*
X111867857Y-156351190D01*
X111855952Y-156327380D01*
X111844047Y-156315476D01*
X111820238Y-156303571D01*
%TO.C,C10*%
D11*
X314707142Y-156797142D02*
X314659523Y-156844761D01*
X314516666Y-156892380D01*
X314421428Y-156892380D01*
X314278571Y-156844761D01*
X314183333Y-156749523D01*
X314135714Y-156654285D01*
X314088095Y-156463809D01*
X314088095Y-156320952D01*
X314135714Y-156130476D01*
X314183333Y-156035238D01*
X314278571Y-155940000D01*
X314421428Y-155892380D01*
X314516666Y-155892380D01*
X314659523Y-155940000D01*
X314707142Y-155987619D01*
X315659523Y-156892380D02*
X315088095Y-156892380D01*
X315373809Y-156892380D02*
X315373809Y-155892380D01*
X315278571Y-156035238D01*
X315183333Y-156130476D01*
X315088095Y-156178095D01*
X316278571Y-155892380D02*
X316373809Y-155892380D01*
X316469047Y-155940000D01*
X316516666Y-155987619D01*
X316564285Y-156082857D01*
X316611904Y-156273333D01*
X316611904Y-156511428D01*
X316564285Y-156701904D01*
X316516666Y-156797142D01*
X316469047Y-156844761D01*
X316373809Y-156892380D01*
X316278571Y-156892380D01*
X316183333Y-156844761D01*
X316135714Y-156797142D01*
X316088095Y-156701904D01*
X316040476Y-156511428D01*
X316040476Y-156273333D01*
X316088095Y-156082857D01*
X316135714Y-155987619D01*
X316183333Y-155940000D01*
X316278571Y-155892380D01*
X314707142Y-159212380D02*
X314135714Y-159212380D01*
X314421428Y-159212380D02*
X314421428Y-158212380D01*
X314326190Y-158355238D01*
X314230952Y-158450476D01*
X314135714Y-158498095D01*
X315326190Y-158212380D02*
X315421428Y-158212380D01*
X315516666Y-158260000D01*
X315564285Y-158307619D01*
X315611904Y-158402857D01*
X315659523Y-158593333D01*
X315659523Y-158831428D01*
X315611904Y-159021904D01*
X315564285Y-159117142D01*
X315516666Y-159164761D01*
X315421428Y-159212380D01*
X315326190Y-159212380D01*
X315230952Y-159164761D01*
X315183333Y-159117142D01*
X315135714Y-159021904D01*
X315088095Y-158831428D01*
X315088095Y-158593333D01*
X315135714Y-158402857D01*
X315183333Y-158307619D01*
X315230952Y-158260000D01*
X315326190Y-158212380D01*
X316088095Y-158545714D02*
X316088095Y-159212380D01*
X316088095Y-158640952D02*
X316135714Y-158593333D01*
X316230952Y-158545714D01*
X316373809Y-158545714D01*
X316469047Y-158593333D01*
X316516666Y-158688571D01*
X316516666Y-159212380D01*
D13*
X114689285Y-158489285D02*
X114677380Y-158501190D01*
X114641666Y-158513095D01*
X114617857Y-158513095D01*
X114582142Y-158501190D01*
X114558333Y-158477380D01*
X114546428Y-158453571D01*
X114534523Y-158405952D01*
X114534523Y-158370238D01*
X114546428Y-158322619D01*
X114558333Y-158298809D01*
X114582142Y-158275000D01*
X114617857Y-158263095D01*
X114641666Y-158263095D01*
X114677380Y-158275000D01*
X114689285Y-158286904D01*
X114927380Y-158513095D02*
X114784523Y-158513095D01*
X114855952Y-158513095D02*
X114855952Y-158263095D01*
X114832142Y-158298809D01*
X114808333Y-158322619D01*
X114784523Y-158334523D01*
X115082142Y-158263095D02*
X115105952Y-158263095D01*
X115129761Y-158275000D01*
X115141666Y-158286904D01*
X115153571Y-158310714D01*
X115165476Y-158358333D01*
X115165476Y-158417857D01*
X115153571Y-158465476D01*
X115141666Y-158489285D01*
X115129761Y-158501190D01*
X115105952Y-158513095D01*
X115082142Y-158513095D01*
X115058333Y-158501190D01*
X115046428Y-158489285D01*
X115034523Y-158465476D01*
X115022619Y-158417857D01*
X115022619Y-158358333D01*
X115034523Y-158310714D01*
X115046428Y-158286904D01*
X115058333Y-158275000D01*
X115082142Y-158263095D01*
%TO.C,C11*%
D11*
X318507142Y-165567142D02*
X318459523Y-165614761D01*
X318316666Y-165662380D01*
X318221428Y-165662380D01*
X318078571Y-165614761D01*
X317983333Y-165519523D01*
X317935714Y-165424285D01*
X317888095Y-165233809D01*
X317888095Y-165090952D01*
X317935714Y-164900476D01*
X317983333Y-164805238D01*
X318078571Y-164710000D01*
X318221428Y-164662380D01*
X318316666Y-164662380D01*
X318459523Y-164710000D01*
X318507142Y-164757619D01*
X319459523Y-165662380D02*
X318888095Y-165662380D01*
X319173809Y-165662380D02*
X319173809Y-164662380D01*
X319078571Y-164805238D01*
X318983333Y-164900476D01*
X318888095Y-164948095D01*
X320411904Y-165662380D02*
X319840476Y-165662380D01*
X320126190Y-165662380D02*
X320126190Y-164662380D01*
X320030952Y-164805238D01*
X319935714Y-164900476D01*
X319840476Y-164948095D01*
X318507142Y-163342380D02*
X317935714Y-163342380D01*
X318221428Y-163342380D02*
X318221428Y-162342380D01*
X318126190Y-162485238D01*
X318030952Y-162580476D01*
X317935714Y-162628095D01*
X319126190Y-162342380D02*
X319221428Y-162342380D01*
X319316666Y-162390000D01*
X319364285Y-162437619D01*
X319411904Y-162532857D01*
X319459523Y-162723333D01*
X319459523Y-162961428D01*
X319411904Y-163151904D01*
X319364285Y-163247142D01*
X319316666Y-163294761D01*
X319221428Y-163342380D01*
X319126190Y-163342380D01*
X319030952Y-163294761D01*
X318983333Y-163247142D01*
X318935714Y-163151904D01*
X318888095Y-162961428D01*
X318888095Y-162723333D01*
X318935714Y-162532857D01*
X318983333Y-162437619D01*
X319030952Y-162390000D01*
X319126190Y-162342380D01*
X319888095Y-162675714D02*
X319888095Y-163342380D01*
X319888095Y-162770952D02*
X319935714Y-162723333D01*
X320030952Y-162675714D01*
X320173809Y-162675714D01*
X320269047Y-162723333D01*
X320316666Y-162818571D01*
X320316666Y-163342380D01*
D13*
X109389285Y-163589285D02*
X109377380Y-163601190D01*
X109341666Y-163613095D01*
X109317857Y-163613095D01*
X109282142Y-163601190D01*
X109258333Y-163577380D01*
X109246428Y-163553571D01*
X109234523Y-163505952D01*
X109234523Y-163470238D01*
X109246428Y-163422619D01*
X109258333Y-163398809D01*
X109282142Y-163375000D01*
X109317857Y-163363095D01*
X109341666Y-163363095D01*
X109377380Y-163375000D01*
X109389285Y-163386904D01*
X109627380Y-163613095D02*
X109484523Y-163613095D01*
X109555952Y-163613095D02*
X109555952Y-163363095D01*
X109532142Y-163398809D01*
X109508333Y-163422619D01*
X109484523Y-163434523D01*
X109865476Y-163613095D02*
X109722619Y-163613095D01*
X109794047Y-163613095D02*
X109794047Y-163363095D01*
X109770238Y-163398809D01*
X109746428Y-163422619D01*
X109722619Y-163434523D01*
%TO.C,C12*%
D11*
X319307142Y-159467142D02*
X319259523Y-159514761D01*
X319116666Y-159562380D01*
X319021428Y-159562380D01*
X318878571Y-159514761D01*
X318783333Y-159419523D01*
X318735714Y-159324285D01*
X318688095Y-159133809D01*
X318688095Y-158990952D01*
X318735714Y-158800476D01*
X318783333Y-158705238D01*
X318878571Y-158610000D01*
X319021428Y-158562380D01*
X319116666Y-158562380D01*
X319259523Y-158610000D01*
X319307142Y-158657619D01*
X320259523Y-159562380D02*
X319688095Y-159562380D01*
X319973809Y-159562380D02*
X319973809Y-158562380D01*
X319878571Y-158705238D01*
X319783333Y-158800476D01*
X319688095Y-158848095D01*
X320640476Y-158657619D02*
X320688095Y-158610000D01*
X320783333Y-158562380D01*
X321021428Y-158562380D01*
X321116666Y-158610000D01*
X321164285Y-158657619D01*
X321211904Y-158752857D01*
X321211904Y-158848095D01*
X321164285Y-158990952D01*
X320592857Y-159562380D01*
X321211904Y-159562380D01*
X318688095Y-156242380D02*
X319307142Y-156242380D01*
X318973809Y-156623333D01*
X319116666Y-156623333D01*
X319211904Y-156670952D01*
X319259523Y-156718571D01*
X319307142Y-156813809D01*
X319307142Y-157051904D01*
X319259523Y-157147142D01*
X319211904Y-157194761D01*
X319116666Y-157242380D01*
X318830952Y-157242380D01*
X318735714Y-157194761D01*
X318688095Y-157147142D01*
X319640476Y-156242380D02*
X320259523Y-156242380D01*
X319926190Y-156623333D01*
X320069047Y-156623333D01*
X320164285Y-156670952D01*
X320211904Y-156718571D01*
X320259523Y-156813809D01*
X320259523Y-157051904D01*
X320211904Y-157147142D01*
X320164285Y-157194761D01*
X320069047Y-157242380D01*
X319783333Y-157242380D01*
X319688095Y-157194761D01*
X319640476Y-157147142D01*
X320688095Y-156575714D02*
X320688095Y-157242380D01*
X320688095Y-156670952D02*
X320735714Y-156623333D01*
X320830952Y-156575714D01*
X320973809Y-156575714D01*
X321069047Y-156623333D01*
X321116666Y-156718571D01*
X321116666Y-157242380D01*
D13*
X110189285Y-157489285D02*
X110177380Y-157501190D01*
X110141666Y-157513095D01*
X110117857Y-157513095D01*
X110082142Y-157501190D01*
X110058333Y-157477380D01*
X110046428Y-157453571D01*
X110034523Y-157405952D01*
X110034523Y-157370238D01*
X110046428Y-157322619D01*
X110058333Y-157298809D01*
X110082142Y-157275000D01*
X110117857Y-157263095D01*
X110141666Y-157263095D01*
X110177380Y-157275000D01*
X110189285Y-157286904D01*
X110427380Y-157513095D02*
X110284523Y-157513095D01*
X110355952Y-157513095D02*
X110355952Y-157263095D01*
X110332142Y-157298809D01*
X110308333Y-157322619D01*
X110284523Y-157334523D01*
X110522619Y-157286904D02*
X110534523Y-157275000D01*
X110558333Y-157263095D01*
X110617857Y-157263095D01*
X110641666Y-157275000D01*
X110653571Y-157286904D01*
X110665476Y-157310714D01*
X110665476Y-157334523D01*
X110653571Y-157370238D01*
X110510714Y-157513095D01*
X110665476Y-157513095D01*
%TO.C,C13*%
D11*
X325867142Y-166592857D02*
X325914761Y-166640476D01*
X325962380Y-166783333D01*
X325962380Y-166878571D01*
X325914761Y-167021428D01*
X325819523Y-167116666D01*
X325724285Y-167164285D01*
X325533809Y-167211904D01*
X325390952Y-167211904D01*
X325200476Y-167164285D01*
X325105238Y-167116666D01*
X325010000Y-167021428D01*
X324962380Y-166878571D01*
X324962380Y-166783333D01*
X325010000Y-166640476D01*
X325057619Y-166592857D01*
X325962380Y-165640476D02*
X325962380Y-166211904D01*
X325962380Y-165926190D02*
X324962380Y-165926190D01*
X325105238Y-166021428D01*
X325200476Y-166116666D01*
X325248095Y-166211904D01*
X324962380Y-165307142D02*
X324962380Y-164688095D01*
X325343333Y-165021428D01*
X325343333Y-164878571D01*
X325390952Y-164783333D01*
X325438571Y-164735714D01*
X325533809Y-164688095D01*
X325771904Y-164688095D01*
X325867142Y-164735714D01*
X325914761Y-164783333D01*
X325962380Y-164878571D01*
X325962380Y-165164285D01*
X325914761Y-165259523D01*
X325867142Y-165307142D01*
X323642380Y-166592857D02*
X323642380Y-167164285D01*
X323642380Y-166878571D02*
X322642380Y-166878571D01*
X322785238Y-166973809D01*
X322880476Y-167069047D01*
X322928095Y-167164285D01*
X322737619Y-166211904D02*
X322690000Y-166164285D01*
X322642380Y-166069047D01*
X322642380Y-165830952D01*
X322690000Y-165735714D01*
X322737619Y-165688095D01*
X322832857Y-165640476D01*
X322928095Y-165640476D01*
X323070952Y-165688095D01*
X323642380Y-166259523D01*
X323642380Y-165640476D01*
X322975714Y-165211904D02*
X323975714Y-165211904D01*
X323023333Y-165211904D02*
X322975714Y-165116666D01*
X322975714Y-164926190D01*
X323023333Y-164830952D01*
X323070952Y-164783333D01*
X323166190Y-164735714D01*
X323451904Y-164735714D01*
X323547142Y-164783333D01*
X323594761Y-164830952D01*
X323642380Y-164926190D01*
X323642380Y-165116666D01*
X323594761Y-165211904D01*
D13*
X114839285Y-165560714D02*
X114851190Y-165572619D01*
X114863095Y-165608333D01*
X114863095Y-165632142D01*
X114851190Y-165667857D01*
X114827380Y-165691666D01*
X114803571Y-165703571D01*
X114755952Y-165715476D01*
X114720238Y-165715476D01*
X114672619Y-165703571D01*
X114648809Y-165691666D01*
X114625000Y-165667857D01*
X114613095Y-165632142D01*
X114613095Y-165608333D01*
X114625000Y-165572619D01*
X114636904Y-165560714D01*
X114863095Y-165322619D02*
X114863095Y-165465476D01*
X114863095Y-165394047D02*
X114613095Y-165394047D01*
X114648809Y-165417857D01*
X114672619Y-165441666D01*
X114684523Y-165465476D01*
X114613095Y-165239285D02*
X114613095Y-165084523D01*
X114708333Y-165167857D01*
X114708333Y-165132142D01*
X114720238Y-165108333D01*
X114732142Y-165096428D01*
X114755952Y-165084523D01*
X114815476Y-165084523D01*
X114839285Y-165096428D01*
X114851190Y-165108333D01*
X114863095Y-165132142D01*
X114863095Y-165203571D01*
X114851190Y-165227380D01*
X114839285Y-165239285D01*
%TO.C,C14*%
D11*
X318047142Y-167892857D02*
X318094761Y-167940476D01*
X318142380Y-168083333D01*
X318142380Y-168178571D01*
X318094761Y-168321428D01*
X317999523Y-168416666D01*
X317904285Y-168464285D01*
X317713809Y-168511904D01*
X317570952Y-168511904D01*
X317380476Y-168464285D01*
X317285238Y-168416666D01*
X317190000Y-168321428D01*
X317142380Y-168178571D01*
X317142380Y-168083333D01*
X317190000Y-167940476D01*
X317237619Y-167892857D01*
X318142380Y-166940476D02*
X318142380Y-167511904D01*
X318142380Y-167226190D02*
X317142380Y-167226190D01*
X317285238Y-167321428D01*
X317380476Y-167416666D01*
X317428095Y-167511904D01*
X317475714Y-166083333D02*
X318142380Y-166083333D01*
X317094761Y-166321428D02*
X317809047Y-166559523D01*
X317809047Y-165940476D01*
X335212380Y-167042857D02*
X335212380Y-167614285D01*
X335212380Y-167328571D02*
X334212380Y-167328571D01*
X334355238Y-167423809D01*
X334450476Y-167519047D01*
X334498095Y-167614285D01*
X334307619Y-166661904D02*
X334260000Y-166614285D01*
X334212380Y-166519047D01*
X334212380Y-166280952D01*
X334260000Y-166185714D01*
X334307619Y-166138095D01*
X334402857Y-166090476D01*
X334498095Y-166090476D01*
X334640952Y-166138095D01*
X335212380Y-166709523D01*
X335212380Y-166090476D01*
X334545714Y-165661904D02*
X335545714Y-165661904D01*
X334593333Y-165661904D02*
X334545714Y-165566666D01*
X334545714Y-165376190D01*
X334593333Y-165280952D01*
X334640952Y-165233333D01*
X334736190Y-165185714D01*
X335021904Y-165185714D01*
X335117142Y-165233333D01*
X335164761Y-165280952D01*
X335212380Y-165376190D01*
X335212380Y-165566666D01*
X335164761Y-165661904D01*
D13*
X109339285Y-166860714D02*
X109351190Y-166872619D01*
X109363095Y-166908333D01*
X109363095Y-166932142D01*
X109351190Y-166967857D01*
X109327380Y-166991666D01*
X109303571Y-167003571D01*
X109255952Y-167015476D01*
X109220238Y-167015476D01*
X109172619Y-167003571D01*
X109148809Y-166991666D01*
X109125000Y-166967857D01*
X109113095Y-166932142D01*
X109113095Y-166908333D01*
X109125000Y-166872619D01*
X109136904Y-166860714D01*
X109363095Y-166622619D02*
X109363095Y-166765476D01*
X109363095Y-166694047D02*
X109113095Y-166694047D01*
X109148809Y-166717857D01*
X109172619Y-166741666D01*
X109184523Y-166765476D01*
X109196428Y-166408333D02*
X109363095Y-166408333D01*
X109101190Y-166467857D02*
X109279761Y-166527380D01*
X109279761Y-166372619D01*
%TO.C,C15*%
D11*
X320357142Y-161017142D02*
X320309523Y-161064761D01*
X320166666Y-161112380D01*
X320071428Y-161112380D01*
X319928571Y-161064761D01*
X319833333Y-160969523D01*
X319785714Y-160874285D01*
X319738095Y-160683809D01*
X319738095Y-160540952D01*
X319785714Y-160350476D01*
X319833333Y-160255238D01*
X319928571Y-160160000D01*
X320071428Y-160112380D01*
X320166666Y-160112380D01*
X320309523Y-160160000D01*
X320357142Y-160207619D01*
X321309523Y-161112380D02*
X320738095Y-161112380D01*
X321023809Y-161112380D02*
X321023809Y-160112380D01*
X320928571Y-160255238D01*
X320833333Y-160350476D01*
X320738095Y-160398095D01*
X322214285Y-160112380D02*
X321738095Y-160112380D01*
X321690476Y-160588571D01*
X321738095Y-160540952D01*
X321833333Y-160493333D01*
X322071428Y-160493333D01*
X322166666Y-160540952D01*
X322214285Y-160588571D01*
X322261904Y-160683809D01*
X322261904Y-160921904D01*
X322214285Y-161017142D01*
X322166666Y-161064761D01*
X322071428Y-161112380D01*
X321833333Y-161112380D01*
X321738095Y-161064761D01*
X321690476Y-161017142D01*
X320357142Y-158792380D02*
X319785714Y-158792380D01*
X320071428Y-158792380D02*
X320071428Y-157792380D01*
X319976190Y-157935238D01*
X319880952Y-158030476D01*
X319785714Y-158078095D01*
X320785714Y-158125714D02*
X320785714Y-159125714D01*
X320785714Y-158173333D02*
X320880952Y-158125714D01*
X321071428Y-158125714D01*
X321166666Y-158173333D01*
X321214285Y-158220952D01*
X321261904Y-158316190D01*
X321261904Y-158601904D01*
X321214285Y-158697142D01*
X321166666Y-158744761D01*
X321071428Y-158792380D01*
X320880952Y-158792380D01*
X320785714Y-158744761D01*
X322166666Y-157792380D02*
X321690476Y-157792380D01*
X321642857Y-158268571D01*
X321690476Y-158220952D01*
X321785714Y-158173333D01*
X322023809Y-158173333D01*
X322119047Y-158220952D01*
X322166666Y-158268571D01*
X322214285Y-158363809D01*
X322214285Y-158601904D01*
X322166666Y-158697142D01*
X322119047Y-158744761D01*
X322023809Y-158792380D01*
X321785714Y-158792380D01*
X321690476Y-158744761D01*
X321642857Y-158697142D01*
D13*
X120339285Y-160389285D02*
X120327380Y-160401190D01*
X120291666Y-160413095D01*
X120267857Y-160413095D01*
X120232142Y-160401190D01*
X120208333Y-160377380D01*
X120196428Y-160353571D01*
X120184523Y-160305952D01*
X120184523Y-160270238D01*
X120196428Y-160222619D01*
X120208333Y-160198809D01*
X120232142Y-160175000D01*
X120267857Y-160163095D01*
X120291666Y-160163095D01*
X120327380Y-160175000D01*
X120339285Y-160186904D01*
X120577380Y-160413095D02*
X120434523Y-160413095D01*
X120505952Y-160413095D02*
X120505952Y-160163095D01*
X120482142Y-160198809D01*
X120458333Y-160222619D01*
X120434523Y-160234523D01*
X120803571Y-160163095D02*
X120684523Y-160163095D01*
X120672619Y-160282142D01*
X120684523Y-160270238D01*
X120708333Y-160258333D01*
X120767857Y-160258333D01*
X120791666Y-160270238D01*
X120803571Y-160282142D01*
X120815476Y-160305952D01*
X120815476Y-160365476D01*
X120803571Y-160389285D01*
X120791666Y-160401190D01*
X120767857Y-160413095D01*
X120708333Y-160413095D01*
X120684523Y-160401190D01*
X120672619Y-160389285D01*
%TO.C,C16*%
D11*
X324067142Y-159642857D02*
X324114761Y-159690476D01*
X324162380Y-159833333D01*
X324162380Y-159928571D01*
X324114761Y-160071428D01*
X324019523Y-160166666D01*
X323924285Y-160214285D01*
X323733809Y-160261904D01*
X323590952Y-160261904D01*
X323400476Y-160214285D01*
X323305238Y-160166666D01*
X323210000Y-160071428D01*
X323162380Y-159928571D01*
X323162380Y-159833333D01*
X323210000Y-159690476D01*
X323257619Y-159642857D01*
X324162380Y-158690476D02*
X324162380Y-159261904D01*
X324162380Y-158976190D02*
X323162380Y-158976190D01*
X323305238Y-159071428D01*
X323400476Y-159166666D01*
X323448095Y-159261904D01*
X323162380Y-157833333D02*
X323162380Y-158023809D01*
X323210000Y-158119047D01*
X323257619Y-158166666D01*
X323400476Y-158261904D01*
X323590952Y-158309523D01*
X323971904Y-158309523D01*
X324067142Y-158261904D01*
X324114761Y-158214285D01*
X324162380Y-158119047D01*
X324162380Y-157928571D01*
X324114761Y-157833333D01*
X324067142Y-157785714D01*
X323971904Y-157738095D01*
X323733809Y-157738095D01*
X323638571Y-157785714D01*
X323590952Y-157833333D01*
X323543333Y-157928571D01*
X323543333Y-158119047D01*
X323590952Y-158214285D01*
X323638571Y-158261904D01*
X323733809Y-158309523D01*
X330942380Y-160516666D02*
X330942380Y-161088095D01*
X330942380Y-160802380D02*
X329942380Y-160802380D01*
X330085238Y-160897619D01*
X330180476Y-160992857D01*
X330228095Y-161088095D01*
X330275714Y-160088095D02*
X331275714Y-160088095D01*
X330323333Y-160088095D02*
X330275714Y-159992857D01*
X330275714Y-159802380D01*
X330323333Y-159707142D01*
X330370952Y-159659523D01*
X330466190Y-159611904D01*
X330751904Y-159611904D01*
X330847142Y-159659523D01*
X330894761Y-159707142D01*
X330942380Y-159802380D01*
X330942380Y-159992857D01*
X330894761Y-160088095D01*
D13*
X122139285Y-159960714D02*
X122151190Y-159972619D01*
X122163095Y-160008333D01*
X122163095Y-160032142D01*
X122151190Y-160067857D01*
X122127380Y-160091666D01*
X122103571Y-160103571D01*
X122055952Y-160115476D01*
X122020238Y-160115476D01*
X121972619Y-160103571D01*
X121948809Y-160091666D01*
X121925000Y-160067857D01*
X121913095Y-160032142D01*
X121913095Y-160008333D01*
X121925000Y-159972619D01*
X121936904Y-159960714D01*
X122163095Y-159722619D02*
X122163095Y-159865476D01*
X122163095Y-159794047D02*
X121913095Y-159794047D01*
X121948809Y-159817857D01*
X121972619Y-159841666D01*
X121984523Y-159865476D01*
X121913095Y-159508333D02*
X121913095Y-159555952D01*
X121925000Y-159579761D01*
X121936904Y-159591666D01*
X121972619Y-159615476D01*
X122020238Y-159627380D01*
X122115476Y-159627380D01*
X122139285Y-159615476D01*
X122151190Y-159603571D01*
X122163095Y-159579761D01*
X122163095Y-159532142D01*
X122151190Y-159508333D01*
X122139285Y-159496428D01*
X122115476Y-159484523D01*
X122055952Y-159484523D01*
X122032142Y-159496428D01*
X122020238Y-159508333D01*
X122008333Y-159532142D01*
X122008333Y-159579761D01*
X122020238Y-159603571D01*
X122032142Y-159615476D01*
X122055952Y-159627380D01*
%TO.C,C17*%
D11*
X314757142Y-163307142D02*
X314709523Y-163354761D01*
X314566666Y-163402380D01*
X314471428Y-163402380D01*
X314328571Y-163354761D01*
X314233333Y-163259523D01*
X314185714Y-163164285D01*
X314138095Y-162973809D01*
X314138095Y-162830952D01*
X314185714Y-162640476D01*
X314233333Y-162545238D01*
X314328571Y-162450000D01*
X314471428Y-162402380D01*
X314566666Y-162402380D01*
X314709523Y-162450000D01*
X314757142Y-162497619D01*
X315709523Y-163402380D02*
X315138095Y-163402380D01*
X315423809Y-163402380D02*
X315423809Y-162402380D01*
X315328571Y-162545238D01*
X315233333Y-162640476D01*
X315138095Y-162688095D01*
X316042857Y-162402380D02*
X316709523Y-162402380D01*
X316280952Y-163402380D01*
X318935714Y-160987619D02*
X318983333Y-160940000D01*
X319078571Y-160892380D01*
X319316666Y-160892380D01*
X319411904Y-160940000D01*
X319459523Y-160987619D01*
X319507142Y-161082857D01*
X319507142Y-161178095D01*
X319459523Y-161320952D01*
X318888095Y-161892380D01*
X319507142Y-161892380D01*
X319935714Y-161225714D02*
X319935714Y-161892380D01*
X319935714Y-161320952D02*
X319983333Y-161273333D01*
X320078571Y-161225714D01*
X320221428Y-161225714D01*
X320316666Y-161273333D01*
X320364285Y-161368571D01*
X320364285Y-161892380D01*
X320792857Y-160987619D02*
X320840476Y-160940000D01*
X320935714Y-160892380D01*
X321173809Y-160892380D01*
X321269047Y-160940000D01*
X321316666Y-160987619D01*
X321364285Y-161082857D01*
X321364285Y-161178095D01*
X321316666Y-161320952D01*
X320745238Y-161892380D01*
X321364285Y-161892380D01*
D13*
X119489285Y-163489285D02*
X119477380Y-163501190D01*
X119441666Y-163513095D01*
X119417857Y-163513095D01*
X119382142Y-163501190D01*
X119358333Y-163477380D01*
X119346428Y-163453571D01*
X119334523Y-163405952D01*
X119334523Y-163370238D01*
X119346428Y-163322619D01*
X119358333Y-163298809D01*
X119382142Y-163275000D01*
X119417857Y-163263095D01*
X119441666Y-163263095D01*
X119477380Y-163275000D01*
X119489285Y-163286904D01*
X119727380Y-163513095D02*
X119584523Y-163513095D01*
X119655952Y-163513095D02*
X119655952Y-163263095D01*
X119632142Y-163298809D01*
X119608333Y-163322619D01*
X119584523Y-163334523D01*
X119810714Y-163263095D02*
X119977380Y-163263095D01*
X119870238Y-163513095D01*
%TO.C,C18*%
D11*
X319507142Y-163017142D02*
X319459523Y-163064761D01*
X319316666Y-163112380D01*
X319221428Y-163112380D01*
X319078571Y-163064761D01*
X318983333Y-162969523D01*
X318935714Y-162874285D01*
X318888095Y-162683809D01*
X318888095Y-162540952D01*
X318935714Y-162350476D01*
X318983333Y-162255238D01*
X319078571Y-162160000D01*
X319221428Y-162112380D01*
X319316666Y-162112380D01*
X319459523Y-162160000D01*
X319507142Y-162207619D01*
X320459523Y-163112380D02*
X319888095Y-163112380D01*
X320173809Y-163112380D02*
X320173809Y-162112380D01*
X320078571Y-162255238D01*
X319983333Y-162350476D01*
X319888095Y-162398095D01*
X321030952Y-162540952D02*
X320935714Y-162493333D01*
X320888095Y-162445714D01*
X320840476Y-162350476D01*
X320840476Y-162302857D01*
X320888095Y-162207619D01*
X320935714Y-162160000D01*
X321030952Y-162112380D01*
X321221428Y-162112380D01*
X321316666Y-162160000D01*
X321364285Y-162207619D01*
X321411904Y-162302857D01*
X321411904Y-162350476D01*
X321364285Y-162445714D01*
X321316666Y-162493333D01*
X321221428Y-162540952D01*
X321030952Y-162540952D01*
X320935714Y-162588571D01*
X320888095Y-162636190D01*
X320840476Y-162731428D01*
X320840476Y-162921904D01*
X320888095Y-163017142D01*
X320935714Y-163064761D01*
X321030952Y-163112380D01*
X321221428Y-163112380D01*
X321316666Y-163064761D01*
X321364285Y-163017142D01*
X321411904Y-162921904D01*
X321411904Y-162731428D01*
X321364285Y-162636190D01*
X321316666Y-162588571D01*
X321221428Y-162540952D01*
X319411904Y-160125714D02*
X319411904Y-160792380D01*
X319173809Y-159744761D02*
X318935714Y-160459047D01*
X319554761Y-160459047D01*
X319935714Y-160125714D02*
X319935714Y-161125714D01*
X319935714Y-160173333D02*
X320030952Y-160125714D01*
X320221428Y-160125714D01*
X320316666Y-160173333D01*
X320364285Y-160220952D01*
X320411904Y-160316190D01*
X320411904Y-160601904D01*
X320364285Y-160697142D01*
X320316666Y-160744761D01*
X320221428Y-160792380D01*
X320030952Y-160792380D01*
X319935714Y-160744761D01*
X320745238Y-159792380D02*
X321411904Y-159792380D01*
X320983333Y-160792380D01*
D13*
X119489285Y-162389285D02*
X119477380Y-162401190D01*
X119441666Y-162413095D01*
X119417857Y-162413095D01*
X119382142Y-162401190D01*
X119358333Y-162377380D01*
X119346428Y-162353571D01*
X119334523Y-162305952D01*
X119334523Y-162270238D01*
X119346428Y-162222619D01*
X119358333Y-162198809D01*
X119382142Y-162175000D01*
X119417857Y-162163095D01*
X119441666Y-162163095D01*
X119477380Y-162175000D01*
X119489285Y-162186904D01*
X119727380Y-162413095D02*
X119584523Y-162413095D01*
X119655952Y-162413095D02*
X119655952Y-162163095D01*
X119632142Y-162198809D01*
X119608333Y-162222619D01*
X119584523Y-162234523D01*
X119870238Y-162270238D02*
X119846428Y-162258333D01*
X119834523Y-162246428D01*
X119822619Y-162222619D01*
X119822619Y-162210714D01*
X119834523Y-162186904D01*
X119846428Y-162175000D01*
X119870238Y-162163095D01*
X119917857Y-162163095D01*
X119941666Y-162175000D01*
X119953571Y-162186904D01*
X119965476Y-162210714D01*
X119965476Y-162222619D01*
X119953571Y-162246428D01*
X119941666Y-162258333D01*
X119917857Y-162270238D01*
X119870238Y-162270238D01*
X119846428Y-162282142D01*
X119834523Y-162294047D01*
X119822619Y-162317857D01*
X119822619Y-162365476D01*
X119834523Y-162389285D01*
X119846428Y-162401190D01*
X119870238Y-162413095D01*
X119917857Y-162413095D01*
X119941666Y-162401190D01*
X119953571Y-162389285D01*
X119965476Y-162365476D01*
X119965476Y-162317857D01*
X119953571Y-162294047D01*
X119941666Y-162282142D01*
X119917857Y-162270238D01*
%TO.C,D1*%
D11*
X331261904Y-156872380D02*
X331261904Y-155872380D01*
X331500000Y-155872380D01*
X331642857Y-155920000D01*
X331738095Y-156015238D01*
X331785714Y-156110476D01*
X331833333Y-156300952D01*
X331833333Y-156443809D01*
X331785714Y-156634285D01*
X331738095Y-156729523D01*
X331642857Y-156824761D01*
X331500000Y-156872380D01*
X331261904Y-156872380D01*
X332785714Y-156872380D02*
X332214285Y-156872380D01*
X332500000Y-156872380D02*
X332500000Y-155872380D01*
X332404761Y-156015238D01*
X332309523Y-156110476D01*
X332214285Y-156158095D01*
X323661904Y-155130000D02*
X323566666Y-155082380D01*
X323423809Y-155082380D01*
X323280952Y-155130000D01*
X323185714Y-155225238D01*
X323138095Y-155320476D01*
X323090476Y-155510952D01*
X323090476Y-155653809D01*
X323138095Y-155844285D01*
X323185714Y-155939523D01*
X323280952Y-156034761D01*
X323423809Y-156082380D01*
X323519047Y-156082380D01*
X323661904Y-156034761D01*
X323709523Y-155987142D01*
X323709523Y-155653809D01*
X323519047Y-155653809D01*
X324709523Y-156082380D02*
X324376190Y-155606190D01*
X324138095Y-156082380D02*
X324138095Y-155082380D01*
X324519047Y-155082380D01*
X324614285Y-155130000D01*
X324661904Y-155177619D01*
X324709523Y-155272857D01*
X324709523Y-155415714D01*
X324661904Y-155510952D01*
X324614285Y-155558571D01*
X324519047Y-155606190D01*
X324138095Y-155606190D01*
D12*
X99254761Y-154680952D02*
X99254761Y-154280952D01*
X99350000Y-154280952D01*
X99407142Y-154300000D01*
X99445238Y-154338095D01*
X99464285Y-154376190D01*
X99483333Y-154452380D01*
X99483333Y-154509523D01*
X99464285Y-154585714D01*
X99445238Y-154623809D01*
X99407142Y-154661904D01*
X99350000Y-154680952D01*
X99254761Y-154680952D01*
X99864285Y-154680952D02*
X99635714Y-154680952D01*
X99750000Y-154680952D02*
X99750000Y-154280952D01*
X99711904Y-154338095D01*
X99673809Y-154376190D01*
X99635714Y-154395238D01*
%TO.C,D2*%
D11*
X335611904Y-159732380D02*
X335611904Y-158732380D01*
X335850000Y-158732380D01*
X335992857Y-158780000D01*
X336088095Y-158875238D01*
X336135714Y-158970476D01*
X336183333Y-159160952D01*
X336183333Y-159303809D01*
X336135714Y-159494285D01*
X336088095Y-159589523D01*
X335992857Y-159684761D01*
X335850000Y-159732380D01*
X335611904Y-159732380D01*
X336564285Y-158827619D02*
X336611904Y-158780000D01*
X336707142Y-158732380D01*
X336945238Y-158732380D01*
X337040476Y-158780000D01*
X337088095Y-158827619D01*
X337135714Y-158922857D01*
X337135714Y-159018095D01*
X337088095Y-159160952D01*
X336516666Y-159732380D01*
X337135714Y-159732380D01*
X335897619Y-156396190D02*
X335897619Y-156872380D01*
X335564285Y-155872380D02*
X335897619Y-156396190D01*
X336230952Y-155872380D01*
X336564285Y-156348571D02*
X336897619Y-156348571D01*
X337040476Y-156872380D02*
X336564285Y-156872380D01*
X336564285Y-155872380D01*
X337040476Y-155872380D01*
D12*
X103604761Y-154680952D02*
X103604761Y-154280952D01*
X103700000Y-154280952D01*
X103757142Y-154300000D01*
X103795238Y-154338095D01*
X103814285Y-154376190D01*
X103833333Y-154452380D01*
X103833333Y-154509523D01*
X103814285Y-154585714D01*
X103795238Y-154623809D01*
X103757142Y-154661904D01*
X103700000Y-154680952D01*
X103604761Y-154680952D01*
X103985714Y-154319047D02*
X104004761Y-154300000D01*
X104042857Y-154280952D01*
X104138095Y-154280952D01*
X104176190Y-154300000D01*
X104195238Y-154319047D01*
X104214285Y-154357142D01*
X104214285Y-154395238D01*
X104195238Y-154452380D01*
X103966666Y-154680952D01*
X104214285Y-154680952D01*
%TO.C,F1*%
D11*
X316766666Y-157748571D02*
X316433333Y-157748571D01*
X316433333Y-158272380D02*
X316433333Y-157272380D01*
X316909523Y-157272380D01*
X317814285Y-158272380D02*
X317242857Y-158272380D01*
X317528571Y-158272380D02*
X317528571Y-157272380D01*
X317433333Y-157415238D01*
X317338095Y-157510476D01*
X317242857Y-157558095D01*
X323438095Y-158282380D02*
X322866666Y-158282380D01*
X323152380Y-158282380D02*
X323152380Y-157282380D01*
X323057142Y-157425238D01*
X322961904Y-157520476D01*
X322866666Y-157568095D01*
X324057142Y-157282380D02*
X324152380Y-157282380D01*
X324247619Y-157330000D01*
X324295238Y-157377619D01*
X324342857Y-157472857D01*
X324390476Y-157663333D01*
X324390476Y-157901428D01*
X324342857Y-158091904D01*
X324295238Y-158187142D01*
X324247619Y-158234761D01*
X324152380Y-158282380D01*
X324057142Y-158282380D01*
X323961904Y-158234761D01*
X323914285Y-158187142D01*
X323866666Y-158091904D01*
X323819047Y-157901428D01*
X323819047Y-157663333D01*
X323866666Y-157472857D01*
X323914285Y-157377619D01*
X323961904Y-157330000D01*
X324057142Y-157282380D01*
X325009523Y-157282380D02*
X325104761Y-157282380D01*
X325200000Y-157330000D01*
X325247619Y-157377619D01*
X325295238Y-157472857D01*
X325342857Y-157663333D01*
X325342857Y-157901428D01*
X325295238Y-158091904D01*
X325247619Y-158187142D01*
X325200000Y-158234761D01*
X325104761Y-158282380D01*
X325009523Y-158282380D01*
X324914285Y-158234761D01*
X324866666Y-158187142D01*
X324819047Y-158091904D01*
X324771428Y-157901428D01*
X324771428Y-157663333D01*
X324819047Y-157472857D01*
X324866666Y-157377619D01*
X324914285Y-157330000D01*
X325009523Y-157282380D01*
X325771428Y-158282380D02*
X325771428Y-157615714D01*
X325771428Y-157710952D02*
X325819047Y-157663333D01*
X325914285Y-157615714D01*
X326057142Y-157615714D01*
X326152380Y-157663333D01*
X326200000Y-157758571D01*
X326200000Y-158282380D01*
X326200000Y-157758571D02*
X326247619Y-157663333D01*
X326342857Y-157615714D01*
X326485714Y-157615714D01*
X326580952Y-157663333D01*
X326628571Y-157758571D01*
X326628571Y-158282380D01*
X327057142Y-157996666D02*
X327533333Y-157996666D01*
X326961904Y-158282380D02*
X327295238Y-157282380D01*
X327628571Y-158282380D01*
D14*
X92483333Y-156242857D02*
X92216666Y-156242857D01*
X92216666Y-156661904D02*
X92216666Y-155861904D01*
X92597619Y-155861904D01*
X93321428Y-156661904D02*
X92864285Y-156661904D01*
X93092857Y-156661904D02*
X93092857Y-155861904D01*
X93016666Y-155976190D01*
X92940476Y-156052380D01*
X92864285Y-156090476D01*
%TO.C,FB1*%
D11*
X329016666Y-161128571D02*
X328683333Y-161128571D01*
X328683333Y-161652380D02*
X328683333Y-160652380D01*
X329159523Y-160652380D01*
X329873809Y-161128571D02*
X330016666Y-161176190D01*
X330064285Y-161223809D01*
X330111904Y-161319047D01*
X330111904Y-161461904D01*
X330064285Y-161557142D01*
X330016666Y-161604761D01*
X329921428Y-161652380D01*
X329540476Y-161652380D01*
X329540476Y-160652380D01*
X329873809Y-160652380D01*
X329969047Y-160700000D01*
X330016666Y-160747619D01*
X330064285Y-160842857D01*
X330064285Y-160938095D01*
X330016666Y-161033333D01*
X329969047Y-161080952D01*
X329873809Y-161128571D01*
X329540476Y-161128571D01*
X331064285Y-161652380D02*
X330492857Y-161652380D01*
X330778571Y-161652380D02*
X330778571Y-160652380D01*
X330683333Y-160795238D01*
X330588095Y-160890476D01*
X330492857Y-160938095D01*
X324850000Y-158552380D02*
X324278571Y-158552380D01*
X324564285Y-158552380D02*
X324564285Y-157552380D01*
X324469047Y-157695238D01*
X324373809Y-157790476D01*
X324278571Y-157838095D01*
X325469047Y-157552380D02*
X325564285Y-157552380D01*
X325659523Y-157600000D01*
X325707142Y-157647619D01*
X325754761Y-157742857D01*
X325802380Y-157933333D01*
X325802380Y-158171428D01*
X325754761Y-158361904D01*
X325707142Y-158457142D01*
X325659523Y-158504761D01*
X325564285Y-158552380D01*
X325469047Y-158552380D01*
X325373809Y-158504761D01*
X325326190Y-158457142D01*
X325278571Y-158361904D01*
X325230952Y-158171428D01*
X325230952Y-157933333D01*
X325278571Y-157742857D01*
X325326190Y-157647619D01*
X325373809Y-157600000D01*
X325469047Y-157552380D01*
X326421428Y-157552380D02*
X326516666Y-157552380D01*
X326611904Y-157600000D01*
X326659523Y-157647619D01*
X326707142Y-157742857D01*
X326754761Y-157933333D01*
X326754761Y-158171428D01*
X326707142Y-158361904D01*
X326659523Y-158457142D01*
X326611904Y-158504761D01*
X326516666Y-158552380D01*
X326421428Y-158552380D01*
X326326190Y-158504761D01*
X326278571Y-158457142D01*
X326230952Y-158361904D01*
X326183333Y-158171428D01*
X326183333Y-157933333D01*
X326230952Y-157742857D01*
X326278571Y-157647619D01*
X326326190Y-157600000D01*
X326421428Y-157552380D01*
X328564285Y-158076190D02*
X328516666Y-158028571D01*
X328421428Y-157980952D01*
X328326190Y-157980952D01*
X328230952Y-158028571D01*
X328183333Y-158076190D01*
X328135714Y-158171428D01*
X328135714Y-158266666D01*
X328183333Y-158361904D01*
X328230952Y-158409523D01*
X328326190Y-158457142D01*
X328421428Y-158457142D01*
X328516666Y-158409523D01*
X328564285Y-158361904D01*
X328564285Y-157980952D02*
X328564285Y-158361904D01*
X328611904Y-158409523D01*
X328659523Y-158409523D01*
X328754761Y-158361904D01*
X328802380Y-158266666D01*
X328802380Y-158028571D01*
X328707142Y-157885714D01*
X328564285Y-157790476D01*
X328373809Y-157742857D01*
X328183333Y-157790476D01*
X328040476Y-157885714D01*
X327945238Y-158028571D01*
X327897619Y-158219047D01*
X327945238Y-158409523D01*
X328040476Y-158552380D01*
X328183333Y-158647619D01*
X328373809Y-158695238D01*
X328564285Y-158647619D01*
X328707142Y-158552380D01*
X330516666Y-158552380D02*
X329945238Y-158552380D01*
X330230952Y-158552380D02*
X330230952Y-157552380D01*
X330135714Y-157695238D01*
X330040476Y-157790476D01*
X329945238Y-157838095D01*
X331135714Y-157552380D02*
X331230952Y-157552380D01*
X331326190Y-157600000D01*
X331373809Y-157647619D01*
X331421428Y-157742857D01*
X331469047Y-157933333D01*
X331469047Y-158171428D01*
X331421428Y-158361904D01*
X331373809Y-158457142D01*
X331326190Y-158504761D01*
X331230952Y-158552380D01*
X331135714Y-158552380D01*
X331040476Y-158504761D01*
X330992857Y-158457142D01*
X330945238Y-158361904D01*
X330897619Y-158171428D01*
X330897619Y-157933333D01*
X330945238Y-157742857D01*
X330992857Y-157647619D01*
X331040476Y-157600000D01*
X331135714Y-157552380D01*
X332088095Y-157552380D02*
X332183333Y-157552380D01*
X332278571Y-157600000D01*
X332326190Y-157647619D01*
X332373809Y-157742857D01*
X332421428Y-157933333D01*
X332421428Y-158171428D01*
X332373809Y-158361904D01*
X332326190Y-158457142D01*
X332278571Y-158504761D01*
X332183333Y-158552380D01*
X332088095Y-158552380D01*
X331992857Y-158504761D01*
X331945238Y-158457142D01*
X331897619Y-158361904D01*
X331850000Y-158171428D01*
X331850000Y-157933333D01*
X331897619Y-157742857D01*
X331945238Y-157647619D01*
X331992857Y-157600000D01*
X332088095Y-157552380D01*
X332850000Y-158552380D02*
X332850000Y-157552380D01*
X333183333Y-158266666D01*
X333516666Y-157552380D01*
X333516666Y-158552380D01*
X333992857Y-158552380D02*
X333992857Y-157552380D01*
X333992857Y-158028571D02*
X334564285Y-158028571D01*
X334564285Y-158552380D02*
X334564285Y-157552380D01*
X334945238Y-157885714D02*
X335469047Y-157885714D01*
X334945238Y-158552380D01*
X335469047Y-158552380D01*
D15*
X96983333Y-156264285D02*
X96816666Y-156264285D01*
X96816666Y-156526190D02*
X96816666Y-156026190D01*
X97054761Y-156026190D01*
X97411904Y-156264285D02*
X97483333Y-156288095D01*
X97507142Y-156311904D01*
X97530952Y-156359523D01*
X97530952Y-156430952D01*
X97507142Y-156478571D01*
X97483333Y-156502380D01*
X97435714Y-156526190D01*
X97245238Y-156526190D01*
X97245238Y-156026190D01*
X97411904Y-156026190D01*
X97459523Y-156050000D01*
X97483333Y-156073809D01*
X97507142Y-156121428D01*
X97507142Y-156169047D01*
X97483333Y-156216666D01*
X97459523Y-156240476D01*
X97411904Y-156264285D01*
X97245238Y-156264285D01*
X98007142Y-156526190D02*
X97721428Y-156526190D01*
X97864285Y-156526190D02*
X97864285Y-156026190D01*
X97816666Y-156097619D01*
X97769047Y-156145238D01*
X97721428Y-156169047D01*
%TO.C,J1*%
D16*
X84417523Y-161123333D02*
X85324666Y-161123333D01*
X85506095Y-161183809D01*
X85627047Y-161304761D01*
X85687523Y-161486190D01*
X85687523Y-161607142D01*
X85687523Y-159853333D02*
X85687523Y-160579047D01*
X85687523Y-160216190D02*
X84417523Y-160216190D01*
X84598952Y-160337142D01*
X84719904Y-160458095D01*
X84780380Y-160579047D01*
%TO.C,J2*%
D11*
X321602380Y-159833333D02*
X322316666Y-159833333D01*
X322459523Y-159880952D01*
X322554761Y-159976190D01*
X322602380Y-160119047D01*
X322602380Y-160214285D01*
X321697619Y-159404761D02*
X321650000Y-159357142D01*
X321602380Y-159261904D01*
X321602380Y-159023809D01*
X321650000Y-158928571D01*
X321697619Y-158880952D01*
X321792857Y-158833333D01*
X321888095Y-158833333D01*
X322030952Y-158880952D01*
X322602380Y-159452380D01*
X322602380Y-158833333D01*
X311604761Y-162085714D02*
X311652380Y-161942857D01*
X311652380Y-161704761D01*
X311604761Y-161609523D01*
X311557142Y-161561904D01*
X311461904Y-161514285D01*
X311366666Y-161514285D01*
X311271428Y-161561904D01*
X311223809Y-161609523D01*
X311176190Y-161704761D01*
X311128571Y-161895238D01*
X311080952Y-161990476D01*
X311033333Y-162038095D01*
X310938095Y-162085714D01*
X310842857Y-162085714D01*
X310747619Y-162038095D01*
X310700000Y-161990476D01*
X310652380Y-161895238D01*
X310652380Y-161657142D01*
X310700000Y-161514285D01*
X311652380Y-161085714D02*
X310652380Y-161085714D01*
X311366666Y-160752380D01*
X310652380Y-160419047D01*
X311652380Y-160419047D01*
X311366666Y-159990476D02*
X311366666Y-159514285D01*
X311652380Y-160085714D02*
X310652380Y-159752380D01*
X311652380Y-159419047D01*
X312578571Y-170940476D02*
X312626190Y-170797619D01*
X312673809Y-170750000D01*
X312769047Y-170702380D01*
X312911904Y-170702380D01*
X313007142Y-170750000D01*
X313054761Y-170797619D01*
X313102380Y-170892857D01*
X313102380Y-171273809D01*
X312102380Y-171273809D01*
X312102380Y-170940476D01*
X312150000Y-170845238D01*
X312197619Y-170797619D01*
X312292857Y-170750000D01*
X312388095Y-170750000D01*
X312483333Y-170797619D01*
X312530952Y-170845238D01*
X312578571Y-170940476D01*
X312578571Y-171273809D01*
X313102380Y-170130952D02*
X313054761Y-170226190D01*
X313007142Y-170273809D01*
X312911904Y-170321428D01*
X312626190Y-170321428D01*
X312530952Y-170273809D01*
X312483333Y-170226190D01*
X312435714Y-170130952D01*
X312435714Y-169988095D01*
X312483333Y-169892857D01*
X312530952Y-169845238D01*
X312626190Y-169797619D01*
X312911904Y-169797619D01*
X313007142Y-169845238D01*
X313054761Y-169892857D01*
X313102380Y-169988095D01*
X313102380Y-170130952D01*
X313102380Y-168940476D02*
X312578571Y-168940476D01*
X312483333Y-168988095D01*
X312435714Y-169083333D01*
X312435714Y-169273809D01*
X312483333Y-169369047D01*
X313054761Y-168940476D02*
X313102380Y-169035714D01*
X313102380Y-169273809D01*
X313054761Y-169369047D01*
X312959523Y-169416666D01*
X312864285Y-169416666D01*
X312769047Y-169369047D01*
X312721428Y-169273809D01*
X312721428Y-169035714D01*
X312673809Y-168940476D01*
X313102380Y-168464285D02*
X312435714Y-168464285D01*
X312626190Y-168464285D02*
X312530952Y-168416666D01*
X312483333Y-168369047D01*
X312435714Y-168273809D01*
X312435714Y-168178571D01*
X313102380Y-167416666D02*
X312102380Y-167416666D01*
X313054761Y-167416666D02*
X313102380Y-167511904D01*
X313102380Y-167702380D01*
X313054761Y-167797619D01*
X313007142Y-167845238D01*
X312911904Y-167892857D01*
X312626190Y-167892857D01*
X312530952Y-167845238D01*
X312483333Y-167797619D01*
X312435714Y-167702380D01*
X312435714Y-167511904D01*
X312483333Y-167416666D01*
X312102380Y-166321428D02*
X312102380Y-165750000D01*
X313102380Y-166035714D02*
X312102380Y-166035714D01*
X313102380Y-165416666D02*
X312102380Y-165416666D01*
X313102380Y-164988095D02*
X312578571Y-164988095D01*
X312483333Y-165035714D01*
X312435714Y-165130952D01*
X312435714Y-165273809D01*
X312483333Y-165369047D01*
X312530952Y-165416666D01*
X313102380Y-164511904D02*
X312435714Y-164511904D01*
X312102380Y-164511904D02*
X312150000Y-164559523D01*
X312197619Y-164511904D01*
X312150000Y-164464285D01*
X312102380Y-164511904D01*
X312197619Y-164511904D01*
X313054761Y-163607142D02*
X313102380Y-163702380D01*
X313102380Y-163892857D01*
X313054761Y-163988095D01*
X313007142Y-164035714D01*
X312911904Y-164083333D01*
X312626190Y-164083333D01*
X312530952Y-164035714D01*
X312483333Y-163988095D01*
X312435714Y-163892857D01*
X312435714Y-163702380D01*
X312483333Y-163607142D01*
X313102380Y-163178571D02*
X312102380Y-163178571D01*
X312721428Y-163083333D02*
X313102380Y-162797619D01*
X312435714Y-162797619D02*
X312816666Y-163178571D01*
X312435714Y-162369047D02*
X313102380Y-162369047D01*
X312530952Y-162369047D02*
X312483333Y-162321428D01*
X312435714Y-162226190D01*
X312435714Y-162083333D01*
X312483333Y-161988095D01*
X312578571Y-161940476D01*
X313102380Y-161940476D01*
X313054761Y-161083333D02*
X313102380Y-161178571D01*
X313102380Y-161369047D01*
X313054761Y-161464285D01*
X312959523Y-161511904D01*
X312578571Y-161511904D01*
X312483333Y-161464285D01*
X312435714Y-161369047D01*
X312435714Y-161178571D01*
X312483333Y-161083333D01*
X312578571Y-161035714D01*
X312673809Y-161035714D01*
X312769047Y-161511904D01*
X313054761Y-160654761D02*
X313102380Y-160559523D01*
X313102380Y-160369047D01*
X313054761Y-160273809D01*
X312959523Y-160226190D01*
X312911904Y-160226190D01*
X312816666Y-160273809D01*
X312769047Y-160369047D01*
X312769047Y-160511904D01*
X312721428Y-160607142D01*
X312626190Y-160654761D01*
X312578571Y-160654761D01*
X312483333Y-160607142D01*
X312435714Y-160511904D01*
X312435714Y-160369047D01*
X312483333Y-160273809D01*
X313054761Y-159845238D02*
X313102380Y-159750000D01*
X313102380Y-159559523D01*
X313054761Y-159464285D01*
X312959523Y-159416666D01*
X312911904Y-159416666D01*
X312816666Y-159464285D01*
X312769047Y-159559523D01*
X312769047Y-159702380D01*
X312721428Y-159797619D01*
X312626190Y-159845238D01*
X312578571Y-159845238D01*
X312483333Y-159797619D01*
X312435714Y-159702380D01*
X312435714Y-159559523D01*
X312483333Y-159464285D01*
X313007142Y-158988095D02*
X313054761Y-158940476D01*
X313102380Y-158988095D01*
X313054761Y-159035714D01*
X313007142Y-158988095D01*
X313102380Y-158988095D01*
X312483333Y-158988095D02*
X312530952Y-158940476D01*
X312578571Y-158988095D01*
X312530952Y-159035714D01*
X312483333Y-158988095D01*
X312578571Y-158988095D01*
X313102380Y-157226190D02*
X313102380Y-157797619D01*
X313102380Y-157511904D02*
X312102380Y-157511904D01*
X312245238Y-157607142D01*
X312340476Y-157702380D01*
X312388095Y-157797619D01*
X313007142Y-156797619D02*
X313054761Y-156750000D01*
X313102380Y-156797619D01*
X313054761Y-156845238D01*
X313007142Y-156797619D01*
X313102380Y-156797619D01*
X312102380Y-155845238D02*
X312102380Y-156321428D01*
X312578571Y-156369047D01*
X312530952Y-156321428D01*
X312483333Y-156226190D01*
X312483333Y-155988095D01*
X312530952Y-155892857D01*
X312578571Y-155845238D01*
X312673809Y-155797619D01*
X312911904Y-155797619D01*
X313007142Y-155845238D01*
X313054761Y-155892857D01*
X313102380Y-155988095D01*
X313102380Y-156226190D01*
X313054761Y-156321428D01*
X313007142Y-156369047D01*
X312102380Y-155464285D02*
X312102380Y-154797619D01*
X313102380Y-155226190D01*
X313102380Y-154416666D02*
X312435714Y-154416666D01*
X312530952Y-154416666D02*
X312483333Y-154369047D01*
X312435714Y-154273809D01*
X312435714Y-154130952D01*
X312483333Y-154035714D01*
X312578571Y-153988095D01*
X313102380Y-153988095D01*
X312578571Y-153988095D02*
X312483333Y-153940476D01*
X312435714Y-153845238D01*
X312435714Y-153702380D01*
X312483333Y-153607142D01*
X312578571Y-153559523D01*
X313102380Y-153559523D01*
X313102380Y-153083333D02*
X312435714Y-153083333D01*
X312530952Y-153083333D02*
X312483333Y-153035714D01*
X312435714Y-152940476D01*
X312435714Y-152797619D01*
X312483333Y-152702380D01*
X312578571Y-152654761D01*
X313102380Y-152654761D01*
X312578571Y-152654761D02*
X312483333Y-152607142D01*
X312435714Y-152511904D01*
X312435714Y-152369047D01*
X312483333Y-152273809D01*
X312578571Y-152226190D01*
X313102380Y-152226190D01*
X124352380Y-160733333D02*
X125066666Y-160733333D01*
X125209523Y-160780952D01*
X125304761Y-160876190D01*
X125352380Y-161019047D01*
X125352380Y-161114285D01*
X124447619Y-160304761D02*
X124400000Y-160257142D01*
X124352380Y-160161904D01*
X124352380Y-159923809D01*
X124400000Y-159828571D01*
X124447619Y-159780952D01*
X124542857Y-159733333D01*
X124638095Y-159733333D01*
X124780952Y-159780952D01*
X125352380Y-160352380D01*
X125352380Y-159733333D01*
%TO.C,J3*%
X331187380Y-169518333D02*
X331901666Y-169518333D01*
X332044523Y-169565952D01*
X332139761Y-169661190D01*
X332187380Y-169804047D01*
X332187380Y-169899285D01*
X331187380Y-169137380D02*
X331187380Y-168518333D01*
X331568333Y-168851666D01*
X331568333Y-168708809D01*
X331615952Y-168613571D01*
X331663571Y-168565952D01*
X331758809Y-168518333D01*
X331996904Y-168518333D01*
X332092142Y-168565952D01*
X332139761Y-168613571D01*
X332187380Y-168708809D01*
X332187380Y-168994523D01*
X332139761Y-169089761D01*
X332092142Y-169137380D01*
X315331666Y-169320714D02*
X315331666Y-168844523D01*
X315617380Y-169415952D02*
X314617380Y-169082619D01*
X315617380Y-168749285D01*
X315617380Y-167844523D02*
X315141190Y-168177857D01*
X315617380Y-168415952D02*
X314617380Y-168415952D01*
X314617380Y-168035000D01*
X314665000Y-167939761D01*
X314712619Y-167892142D01*
X314807857Y-167844523D01*
X314950714Y-167844523D01*
X315045952Y-167892142D01*
X315093571Y-167939761D01*
X315141190Y-168035000D01*
X315141190Y-168415952D01*
X315617380Y-167415952D02*
X314617380Y-167415952D01*
X315331666Y-167082619D01*
X314617380Y-166749285D01*
X315617380Y-166749285D01*
X315617380Y-164987380D02*
X315617380Y-165558809D01*
X315617380Y-165273095D02*
X314617380Y-165273095D01*
X314760238Y-165368333D01*
X314855476Y-165463571D01*
X314903095Y-165558809D01*
X314617380Y-164368333D02*
X314617380Y-164273095D01*
X314665000Y-164177857D01*
X314712619Y-164130238D01*
X314807857Y-164082619D01*
X314998333Y-164035000D01*
X315236428Y-164035000D01*
X315426904Y-164082619D01*
X315522142Y-164130238D01*
X315569761Y-164177857D01*
X315617380Y-164273095D01*
X315617380Y-164368333D01*
X315569761Y-164463571D01*
X315522142Y-164511190D01*
X315426904Y-164558809D01*
X315236428Y-164606428D01*
X314998333Y-164606428D01*
X314807857Y-164558809D01*
X314712619Y-164511190D01*
X314665000Y-164463571D01*
X314617380Y-164368333D01*
X314950714Y-163606428D02*
X315950714Y-163606428D01*
X314998333Y-163606428D02*
X314950714Y-163511190D01*
X314950714Y-163320714D01*
X314998333Y-163225476D01*
X315045952Y-163177857D01*
X315141190Y-163130238D01*
X315426904Y-163130238D01*
X315522142Y-163177857D01*
X315569761Y-163225476D01*
X315617380Y-163320714D01*
X315617380Y-163511190D01*
X315569761Y-163606428D01*
X315617380Y-162701666D02*
X314950714Y-162701666D01*
X314617380Y-162701666D02*
X314665000Y-162749285D01*
X314712619Y-162701666D01*
X314665000Y-162654047D01*
X314617380Y-162701666D01*
X314712619Y-162701666D01*
X314950714Y-162225476D02*
X315617380Y-162225476D01*
X315045952Y-162225476D02*
X314998333Y-162177857D01*
X314950714Y-162082619D01*
X314950714Y-161939761D01*
X314998333Y-161844523D01*
X315093571Y-161796904D01*
X315617380Y-161796904D01*
X94716666Y-165287380D02*
X94716666Y-166001666D01*
X94669047Y-166144523D01*
X94573809Y-166239761D01*
X94430952Y-166287380D01*
X94335714Y-166287380D01*
X95097619Y-165287380D02*
X95716666Y-165287380D01*
X95383333Y-165668333D01*
X95526190Y-165668333D01*
X95621428Y-165715952D01*
X95669047Y-165763571D01*
X95716666Y-165858809D01*
X95716666Y-166096904D01*
X95669047Y-166192142D01*
X95621428Y-166239761D01*
X95526190Y-166287380D01*
X95240476Y-166287380D01*
X95145238Y-166239761D01*
X95097619Y-166192142D01*
%TO.C,L1*%
X318118333Y-158532380D02*
X317642142Y-158532380D01*
X317642142Y-157532380D01*
X318975476Y-158532380D02*
X318404047Y-158532380D01*
X318689761Y-158532380D02*
X318689761Y-157532380D01*
X318594523Y-157675238D01*
X318499285Y-157770476D01*
X318404047Y-157818095D01*
X317723095Y-160122380D02*
X318342142Y-160122380D01*
X318008809Y-160503333D01*
X318151666Y-160503333D01*
X318246904Y-160550952D01*
X318294523Y-160598571D01*
X318342142Y-160693809D01*
X318342142Y-160931904D01*
X318294523Y-161027142D01*
X318246904Y-161074761D01*
X318151666Y-161122380D01*
X317865952Y-161122380D01*
X317770714Y-161074761D01*
X317723095Y-161027142D01*
X318770714Y-160455714D02*
X318770714Y-161122380D01*
X318770714Y-160550952D02*
X318818333Y-160503333D01*
X318913571Y-160455714D01*
X319056428Y-160455714D01*
X319151666Y-160503333D01*
X319199285Y-160598571D01*
X319199285Y-161122380D01*
X319723095Y-161122380D02*
X319913571Y-161122380D01*
X320008809Y-161074761D01*
X320056428Y-161027142D01*
X320151666Y-160884285D01*
X320199285Y-160693809D01*
X320199285Y-160312857D01*
X320151666Y-160217619D01*
X320104047Y-160170000D01*
X320008809Y-160122380D01*
X319818333Y-160122380D01*
X319723095Y-160170000D01*
X319675476Y-160217619D01*
X319627857Y-160312857D01*
X319627857Y-160550952D01*
X319675476Y-160646190D01*
X319723095Y-160693809D01*
X319818333Y-160741428D01*
X320008809Y-160741428D01*
X320104047Y-160693809D01*
X320151666Y-160646190D01*
X320199285Y-160550952D01*
D13*
X118443333Y-160413095D02*
X118324285Y-160413095D01*
X118324285Y-160163095D01*
X118657619Y-160413095D02*
X118514761Y-160413095D01*
X118586190Y-160413095D02*
X118586190Y-160163095D01*
X118562380Y-160198809D01*
X118538571Y-160222619D01*
X118514761Y-160234523D01*
%TO.C,L2*%
D11*
X328172380Y-161516666D02*
X328172380Y-161992857D01*
X327172380Y-161992857D01*
X327267619Y-161230952D02*
X327220000Y-161183333D01*
X327172380Y-161088095D01*
X327172380Y-160850000D01*
X327220000Y-160754761D01*
X327267619Y-160707142D01*
X327362857Y-160659523D01*
X327458095Y-160659523D01*
X327600952Y-160707142D01*
X328172380Y-161278571D01*
X328172380Y-160659523D01*
X316160952Y-161023809D02*
X316113333Y-161119047D01*
X316065714Y-161166666D01*
X315970476Y-161214285D01*
X315922857Y-161214285D01*
X315827619Y-161166666D01*
X315780000Y-161119047D01*
X315732380Y-161023809D01*
X315732380Y-160833333D01*
X315780000Y-160738095D01*
X315827619Y-160690476D01*
X315922857Y-160642857D01*
X315970476Y-160642857D01*
X316065714Y-160690476D01*
X316113333Y-160738095D01*
X316160952Y-160833333D01*
X316160952Y-161023809D01*
X316208571Y-161119047D01*
X316256190Y-161166666D01*
X316351428Y-161214285D01*
X316541904Y-161214285D01*
X316637142Y-161166666D01*
X316684761Y-161119047D01*
X316732380Y-161023809D01*
X316732380Y-160833333D01*
X316684761Y-160738095D01*
X316637142Y-160690476D01*
X316541904Y-160642857D01*
X316351428Y-160642857D01*
X316256190Y-160690476D01*
X316208571Y-160738095D01*
X316160952Y-160833333D01*
X316065714Y-160214285D02*
X316732380Y-160214285D01*
X316160952Y-160214285D02*
X316113333Y-160166666D01*
X316065714Y-160071428D01*
X316065714Y-159928571D01*
X316113333Y-159833333D01*
X316208571Y-159785714D01*
X316732380Y-159785714D01*
X315827619Y-159357142D02*
X315780000Y-159309523D01*
X315732380Y-159214285D01*
X315732380Y-158976190D01*
X315780000Y-158880952D01*
X315827619Y-158833333D01*
X315922857Y-158785714D01*
X316018095Y-158785714D01*
X316160952Y-158833333D01*
X316732380Y-159404761D01*
X316732380Y-158785714D01*
D13*
X117063095Y-160841666D02*
X117063095Y-160960714D01*
X116813095Y-160960714D01*
X116836904Y-160770238D02*
X116825000Y-160758333D01*
X116813095Y-160734523D01*
X116813095Y-160675000D01*
X116825000Y-160651190D01*
X116836904Y-160639285D01*
X116860714Y-160627380D01*
X116884523Y-160627380D01*
X116920238Y-160639285D01*
X117063095Y-160782142D01*
X117063095Y-160627380D01*
%TO.C,L3*%
D11*
X317832380Y-161166666D02*
X317832380Y-161642857D01*
X316832380Y-161642857D01*
X316832380Y-160928571D02*
X316832380Y-160309523D01*
X317213333Y-160642857D01*
X317213333Y-160500000D01*
X317260952Y-160404761D01*
X317308571Y-160357142D01*
X317403809Y-160309523D01*
X317641904Y-160309523D01*
X317737142Y-160357142D01*
X317784761Y-160404761D01*
X317832380Y-160500000D01*
X317832380Y-160785714D01*
X317784761Y-160880952D01*
X317737142Y-160928571D01*
X328367619Y-163564285D02*
X328320000Y-163516666D01*
X328272380Y-163421428D01*
X328272380Y-163183333D01*
X328320000Y-163088095D01*
X328367619Y-163040476D01*
X328462857Y-162992857D01*
X328558095Y-162992857D01*
X328700952Y-163040476D01*
X329272380Y-163611904D01*
X329272380Y-162992857D01*
X328605714Y-162564285D02*
X329272380Y-162564285D01*
X328700952Y-162564285D02*
X328653333Y-162516666D01*
X328605714Y-162421428D01*
X328605714Y-162278571D01*
X328653333Y-162183333D01*
X328748571Y-162135714D01*
X329272380Y-162135714D01*
X328272380Y-161754761D02*
X328272380Y-161088095D01*
X329272380Y-161516666D01*
D13*
X118163095Y-161841666D02*
X118163095Y-161960714D01*
X117913095Y-161960714D01*
X117913095Y-161782142D02*
X117913095Y-161627380D01*
X118008333Y-161710714D01*
X118008333Y-161675000D01*
X118020238Y-161651190D01*
X118032142Y-161639285D01*
X118055952Y-161627380D01*
X118115476Y-161627380D01*
X118139285Y-161639285D01*
X118151190Y-161651190D01*
X118163095Y-161675000D01*
X118163095Y-161746428D01*
X118151190Y-161770238D01*
X118139285Y-161782142D01*
%TO.C,R1*%
D11*
X339882380Y-161916666D02*
X339406190Y-162250000D01*
X339882380Y-162488095D02*
X338882380Y-162488095D01*
X338882380Y-162107142D01*
X338930000Y-162011904D01*
X338977619Y-161964285D01*
X339072857Y-161916666D01*
X339215714Y-161916666D01*
X339310952Y-161964285D01*
X339358571Y-162011904D01*
X339406190Y-162107142D01*
X339406190Y-162488095D01*
X339882380Y-160964285D02*
X339882380Y-161535714D01*
X339882380Y-161250000D02*
X338882380Y-161250000D01*
X339025238Y-161345238D01*
X339120476Y-161440476D01*
X339168095Y-161535714D01*
X319372380Y-159545238D02*
X319372380Y-160116666D01*
X319372380Y-159830952D02*
X318372380Y-159830952D01*
X318515238Y-159926190D01*
X318610476Y-160021428D01*
X318658095Y-160116666D01*
X318372380Y-158926190D02*
X318372380Y-158830952D01*
X318420000Y-158735714D01*
X318467619Y-158688095D01*
X318562857Y-158640476D01*
X318753333Y-158592857D01*
X318991428Y-158592857D01*
X319181904Y-158640476D01*
X319277142Y-158688095D01*
X319324761Y-158735714D01*
X319372380Y-158830952D01*
X319372380Y-158926190D01*
X319324761Y-159021428D01*
X319277142Y-159069047D01*
X319181904Y-159116666D01*
X318991428Y-159164285D01*
X318753333Y-159164285D01*
X318562857Y-159116666D01*
X318467619Y-159069047D01*
X318420000Y-159021428D01*
X318372380Y-158926190D01*
X319372380Y-158164285D02*
X318372380Y-158164285D01*
X318991428Y-158069047D02*
X319372380Y-157783333D01*
X318705714Y-157783333D02*
X319086666Y-158164285D01*
D13*
X108267619Y-158443333D02*
X108143809Y-158530000D01*
X108267619Y-158591904D02*
X108007619Y-158591904D01*
X108007619Y-158492857D01*
X108020000Y-158468095D01*
X108032380Y-158455714D01*
X108057142Y-158443333D01*
X108094285Y-158443333D01*
X108119047Y-158455714D01*
X108131428Y-158468095D01*
X108143809Y-158492857D01*
X108143809Y-158591904D01*
X108267619Y-158195714D02*
X108267619Y-158344285D01*
X108267619Y-158270000D02*
X108007619Y-158270000D01*
X108044761Y-158294761D01*
X108069523Y-158319523D01*
X108081904Y-158344285D01*
%TO.C,R2*%
D11*
X328633333Y-159732380D02*
X328300000Y-159256190D01*
X328061904Y-159732380D02*
X328061904Y-158732380D01*
X328442857Y-158732380D01*
X328538095Y-158780000D01*
X328585714Y-158827619D01*
X328633333Y-158922857D01*
X328633333Y-159065714D01*
X328585714Y-159160952D01*
X328538095Y-159208571D01*
X328442857Y-159256190D01*
X328061904Y-159256190D01*
X329014285Y-158827619D02*
X329061904Y-158780000D01*
X329157142Y-158732380D01*
X329395238Y-158732380D01*
X329490476Y-158780000D01*
X329538095Y-158827619D01*
X329585714Y-158922857D01*
X329585714Y-159018095D01*
X329538095Y-159160952D01*
X328966666Y-159732380D01*
X329585714Y-159732380D01*
X327633333Y-155967619D02*
X327680952Y-155920000D01*
X327776190Y-155872380D01*
X328014285Y-155872380D01*
X328109523Y-155920000D01*
X328157142Y-155967619D01*
X328204761Y-156062857D01*
X328204761Y-156158095D01*
X328157142Y-156300952D01*
X327585714Y-156872380D01*
X328204761Y-156872380D01*
X328633333Y-156872380D02*
X328633333Y-155872380D01*
X328728571Y-156491428D02*
X329014285Y-156872380D01*
X329014285Y-156205714D02*
X328633333Y-156586666D01*
X329395238Y-155967619D02*
X329442857Y-155920000D01*
X329538095Y-155872380D01*
X329776190Y-155872380D01*
X329871428Y-155920000D01*
X329919047Y-155967619D01*
X329966666Y-156062857D01*
X329966666Y-156158095D01*
X329919047Y-156300952D01*
X329347619Y-156872380D01*
X329966666Y-156872380D01*
D12*
X96283333Y-154680952D02*
X96150000Y-154490476D01*
X96054761Y-154680952D02*
X96054761Y-154280952D01*
X96207142Y-154280952D01*
X96245238Y-154300000D01*
X96264285Y-154319047D01*
X96283333Y-154357142D01*
X96283333Y-154414285D01*
X96264285Y-154452380D01*
X96245238Y-154471428D01*
X96207142Y-154490476D01*
X96054761Y-154490476D01*
X96435714Y-154319047D02*
X96454761Y-154300000D01*
X96492857Y-154280952D01*
X96588095Y-154280952D01*
X96626190Y-154300000D01*
X96645238Y-154319047D01*
X96664285Y-154357142D01*
X96664285Y-154395238D01*
X96645238Y-154452380D01*
X96416666Y-154680952D01*
X96664285Y-154680952D01*
%TO.C,R3*%
D11*
X339383333Y-156872380D02*
X339050000Y-156396190D01*
X338811904Y-156872380D02*
X338811904Y-155872380D01*
X339192857Y-155872380D01*
X339288095Y-155920000D01*
X339335714Y-155967619D01*
X339383333Y-156062857D01*
X339383333Y-156205714D01*
X339335714Y-156300952D01*
X339288095Y-156348571D01*
X339192857Y-156396190D01*
X338811904Y-156396190D01*
X339716666Y-155872380D02*
X340335714Y-155872380D01*
X340002380Y-156253333D01*
X340145238Y-156253333D01*
X340240476Y-156300952D01*
X340288095Y-156348571D01*
X340335714Y-156443809D01*
X340335714Y-156681904D01*
X340288095Y-156777142D01*
X340240476Y-156824761D01*
X340145238Y-156872380D01*
X339859523Y-156872380D01*
X339764285Y-156824761D01*
X339716666Y-156777142D01*
X338383333Y-158827619D02*
X338430952Y-158780000D01*
X338526190Y-158732380D01*
X338764285Y-158732380D01*
X338859523Y-158780000D01*
X338907142Y-158827619D01*
X338954761Y-158922857D01*
X338954761Y-159018095D01*
X338907142Y-159160952D01*
X338335714Y-159732380D01*
X338954761Y-159732380D01*
X339383333Y-159732380D02*
X339383333Y-158732380D01*
X339478571Y-159351428D02*
X339764285Y-159732380D01*
X339764285Y-159065714D02*
X339383333Y-159446666D01*
X340145238Y-158827619D02*
X340192857Y-158780000D01*
X340288095Y-158732380D01*
X340526190Y-158732380D01*
X340621428Y-158780000D01*
X340669047Y-158827619D01*
X340716666Y-158922857D01*
X340716666Y-159018095D01*
X340669047Y-159160952D01*
X340097619Y-159732380D01*
X340716666Y-159732380D01*
D12*
X107033333Y-154680952D02*
X106900000Y-154490476D01*
X106804761Y-154680952D02*
X106804761Y-154280952D01*
X106957142Y-154280952D01*
X106995238Y-154300000D01*
X107014285Y-154319047D01*
X107033333Y-154357142D01*
X107033333Y-154414285D01*
X107014285Y-154452380D01*
X106995238Y-154471428D01*
X106957142Y-154490476D01*
X106804761Y-154490476D01*
X107166666Y-154280952D02*
X107414285Y-154280952D01*
X107280952Y-154433333D01*
X107338095Y-154433333D01*
X107376190Y-154452380D01*
X107395238Y-154471428D01*
X107414285Y-154509523D01*
X107414285Y-154604761D01*
X107395238Y-154642857D01*
X107376190Y-154661904D01*
X107338095Y-154680952D01*
X107223809Y-154680952D01*
X107185714Y-154661904D01*
X107166666Y-154642857D01*
%TO.C,R4*%
D11*
X338082380Y-155666666D02*
X337606190Y-156000000D01*
X338082380Y-156238095D02*
X337082380Y-156238095D01*
X337082380Y-155857142D01*
X337130000Y-155761904D01*
X337177619Y-155714285D01*
X337272857Y-155666666D01*
X337415714Y-155666666D01*
X337510952Y-155714285D01*
X337558571Y-155761904D01*
X337606190Y-155857142D01*
X337606190Y-156238095D01*
X337415714Y-154809523D02*
X338082380Y-154809523D01*
X337034761Y-155047619D02*
X337749047Y-155285714D01*
X337749047Y-154666666D01*
X324767619Y-157516666D02*
X324720000Y-157469047D01*
X324672380Y-157373809D01*
X324672380Y-157135714D01*
X324720000Y-157040476D01*
X324767619Y-156992857D01*
X324862857Y-156945238D01*
X324958095Y-156945238D01*
X325100952Y-156992857D01*
X325672380Y-157564285D01*
X325672380Y-156945238D01*
X324767619Y-156564285D02*
X324720000Y-156516666D01*
X324672380Y-156421428D01*
X324672380Y-156183333D01*
X324720000Y-156088095D01*
X324767619Y-156040476D01*
X324862857Y-155992857D01*
X324958095Y-155992857D01*
X325100952Y-156040476D01*
X325672380Y-156611904D01*
X325672380Y-155992857D01*
X325672380Y-155564285D02*
X324672380Y-155564285D01*
X325291428Y-155469047D02*
X325672380Y-155183333D01*
X325005714Y-155183333D02*
X325386666Y-155564285D01*
D13*
X114567619Y-155843333D02*
X114443809Y-155930000D01*
X114567619Y-155991904D02*
X114307619Y-155991904D01*
X114307619Y-155892857D01*
X114320000Y-155868095D01*
X114332380Y-155855714D01*
X114357142Y-155843333D01*
X114394285Y-155843333D01*
X114419047Y-155855714D01*
X114431428Y-155868095D01*
X114443809Y-155892857D01*
X114443809Y-155991904D01*
X114394285Y-155620476D02*
X114567619Y-155620476D01*
X114295238Y-155682380D02*
X114480952Y-155744285D01*
X114480952Y-155583333D01*
%TO.C,R5*%
D11*
X322602380Y-163346666D02*
X322126190Y-163680000D01*
X322602380Y-163918095D02*
X321602380Y-163918095D01*
X321602380Y-163537142D01*
X321650000Y-163441904D01*
X321697619Y-163394285D01*
X321792857Y-163346666D01*
X321935714Y-163346666D01*
X322030952Y-163394285D01*
X322078571Y-163441904D01*
X322126190Y-163537142D01*
X322126190Y-163918095D01*
X321602380Y-162441904D02*
X321602380Y-162918095D01*
X322078571Y-162965714D01*
X322030952Y-162918095D01*
X321983333Y-162822857D01*
X321983333Y-162584761D01*
X322030952Y-162489523D01*
X322078571Y-162441904D01*
X322173809Y-162394285D01*
X322411904Y-162394285D01*
X322507142Y-162441904D01*
X322554761Y-162489523D01*
X322602380Y-162584761D01*
X322602380Y-162822857D01*
X322554761Y-162918095D01*
X322507142Y-162965714D01*
X321864285Y-165972380D02*
X321292857Y-165972380D01*
X321578571Y-165972380D02*
X321578571Y-164972380D01*
X321483333Y-165115238D01*
X321388095Y-165210476D01*
X321292857Y-165258095D01*
X322292857Y-165972380D02*
X322292857Y-164972380D01*
X322626190Y-165686666D01*
X322959523Y-164972380D01*
X322959523Y-165972380D01*
D13*
X112506666Y-163917619D02*
X112420000Y-163793809D01*
X112358095Y-163917619D02*
X112358095Y-163657619D01*
X112457142Y-163657619D01*
X112481904Y-163670000D01*
X112494285Y-163682380D01*
X112506666Y-163707142D01*
X112506666Y-163744285D01*
X112494285Y-163769047D01*
X112481904Y-163781428D01*
X112457142Y-163793809D01*
X112358095Y-163793809D01*
X112741904Y-163657619D02*
X112618095Y-163657619D01*
X112605714Y-163781428D01*
X112618095Y-163769047D01*
X112642857Y-163756666D01*
X112704761Y-163756666D01*
X112729523Y-163769047D01*
X112741904Y-163781428D01*
X112754285Y-163806190D01*
X112754285Y-163868095D01*
X112741904Y-163892857D01*
X112729523Y-163905238D01*
X112704761Y-163917619D01*
X112642857Y-163917619D01*
X112618095Y-163905238D01*
X112605714Y-163892857D01*
%TO.C,U1*%
D11*
X320988095Y-155702380D02*
X320988095Y-156511904D01*
X321035714Y-156607142D01*
X321083333Y-156654761D01*
X321178571Y-156702380D01*
X321369047Y-156702380D01*
X321464285Y-156654761D01*
X321511904Y-156607142D01*
X321559523Y-156511904D01*
X321559523Y-155702380D01*
X322559523Y-156702380D02*
X321988095Y-156702380D01*
X322273809Y-156702380D02*
X322273809Y-155702380D01*
X322178571Y-155845238D01*
X322083333Y-155940476D01*
X321988095Y-155988095D01*
X324111904Y-164352380D02*
X324778571Y-165352380D01*
X324778571Y-164352380D02*
X324111904Y-165352380D01*
X325730952Y-165257142D02*
X325683333Y-165304761D01*
X325540476Y-165352380D01*
X325445238Y-165352380D01*
X325302380Y-165304761D01*
X325207142Y-165209523D01*
X325159523Y-165114285D01*
X325111904Y-164923809D01*
X325111904Y-164780952D01*
X325159523Y-164590476D01*
X325207142Y-164495238D01*
X325302380Y-164400000D01*
X325445238Y-164352380D01*
X325540476Y-164352380D01*
X325683333Y-164400000D01*
X325730952Y-164447619D01*
X326588095Y-164352380D02*
X326397619Y-164352380D01*
X326302380Y-164400000D01*
X326254761Y-164447619D01*
X326159523Y-164590476D01*
X326111904Y-164780952D01*
X326111904Y-165161904D01*
X326159523Y-165257142D01*
X326207142Y-165304761D01*
X326302380Y-165352380D01*
X326492857Y-165352380D01*
X326588095Y-165304761D01*
X326635714Y-165257142D01*
X326683333Y-165161904D01*
X326683333Y-164923809D01*
X326635714Y-164828571D01*
X326588095Y-164780952D01*
X326492857Y-164733333D01*
X326302380Y-164733333D01*
X326207142Y-164780952D01*
X326159523Y-164828571D01*
X326111904Y-164923809D01*
X327064285Y-164447619D02*
X327111904Y-164400000D01*
X327207142Y-164352380D01*
X327445238Y-164352380D01*
X327540476Y-164400000D01*
X327588095Y-164447619D01*
X327635714Y-164542857D01*
X327635714Y-164638095D01*
X327588095Y-164780952D01*
X327016666Y-165352380D01*
X327635714Y-165352380D01*
X328254761Y-164352380D02*
X328350000Y-164352380D01*
X328445238Y-164400000D01*
X328492857Y-164447619D01*
X328540476Y-164542857D01*
X328588095Y-164733333D01*
X328588095Y-164971428D01*
X328540476Y-165161904D01*
X328492857Y-165257142D01*
X328445238Y-165304761D01*
X328350000Y-165352380D01*
X328254761Y-165352380D01*
X328159523Y-165304761D01*
X328111904Y-165257142D01*
X328064285Y-165161904D01*
X328016666Y-164971428D01*
X328016666Y-164733333D01*
X328064285Y-164542857D01*
X328111904Y-164447619D01*
X328159523Y-164400000D01*
X328254761Y-164352380D01*
X329445238Y-164352380D02*
X329254761Y-164352380D01*
X329159523Y-164400000D01*
X329111904Y-164447619D01*
X329016666Y-164590476D01*
X328969047Y-164780952D01*
X328969047Y-165161904D01*
X329016666Y-165257142D01*
X329064285Y-165304761D01*
X329159523Y-165352380D01*
X329350000Y-165352380D01*
X329445238Y-165304761D01*
X329492857Y-165257142D01*
X329540476Y-165161904D01*
X329540476Y-164923809D01*
X329492857Y-164828571D01*
X329445238Y-164780952D01*
X329350000Y-164733333D01*
X329159523Y-164733333D01*
X329064285Y-164780952D01*
X329016666Y-164828571D01*
X328969047Y-164923809D01*
X329969047Y-165352380D02*
X329969047Y-164352380D01*
X330350000Y-164352380D01*
X330445238Y-164400000D01*
X330492857Y-164447619D01*
X330540476Y-164542857D01*
X330540476Y-164685714D01*
X330492857Y-164780952D01*
X330445238Y-164828571D01*
X330350000Y-164876190D01*
X329969047Y-164876190D01*
X330873809Y-164352380D02*
X331492857Y-164352380D01*
X331159523Y-164733333D01*
X331302380Y-164733333D01*
X331397619Y-164780952D01*
X331445238Y-164828571D01*
X331492857Y-164923809D01*
X331492857Y-165161904D01*
X331445238Y-165257142D01*
X331397619Y-165304761D01*
X331302380Y-165352380D01*
X331016666Y-165352380D01*
X330921428Y-165304761D01*
X330873809Y-165257142D01*
X331826190Y-164352380D02*
X332445238Y-164352380D01*
X332111904Y-164733333D01*
X332254761Y-164733333D01*
X332350000Y-164780952D01*
X332397619Y-164828571D01*
X332445238Y-164923809D01*
X332445238Y-165161904D01*
X332397619Y-165257142D01*
X332350000Y-165304761D01*
X332254761Y-165352380D01*
X331969047Y-165352380D01*
X331873809Y-165304761D01*
X331826190Y-165257142D01*
X332826190Y-164447619D02*
X332873809Y-164400000D01*
X332969047Y-164352380D01*
X333207142Y-164352380D01*
X333302380Y-164400000D01*
X333350000Y-164447619D01*
X333397619Y-164542857D01*
X333397619Y-164638095D01*
X333350000Y-164780952D01*
X332778571Y-165352380D01*
X333397619Y-165352380D01*
X333826190Y-165352380D02*
X333826190Y-164352380D01*
X334159523Y-165066666D01*
X334492857Y-164352380D01*
X334492857Y-165352380D01*
X335540476Y-165352380D02*
X335207142Y-164876190D01*
X334969047Y-165352380D02*
X334969047Y-164352380D01*
X335350000Y-164352380D01*
X335445238Y-164400000D01*
X335492857Y-164447619D01*
X335540476Y-164542857D01*
X335540476Y-164685714D01*
X335492857Y-164780952D01*
X335445238Y-164828571D01*
X335350000Y-164876190D01*
X334969047Y-164876190D01*
D17*
X97126190Y-159430952D02*
X97530952Y-159430952D01*
X97578571Y-159407142D01*
X97602380Y-159383333D01*
X97626190Y-159335714D01*
X97626190Y-159240476D01*
X97602380Y-159192857D01*
X97578571Y-159169047D01*
X97530952Y-159145238D01*
X97126190Y-159145238D01*
X97626190Y-158645238D02*
X97626190Y-158930952D01*
X97626190Y-158788095D02*
X97126190Y-158788095D01*
X97197619Y-158835714D01*
X97245238Y-158883333D01*
X97269047Y-158930952D01*
%TO.C,U2*%
D11*
X315918095Y-162432380D02*
X315918095Y-163241904D01*
X315965714Y-163337142D01*
X316013333Y-163384761D01*
X316108571Y-163432380D01*
X316299047Y-163432380D01*
X316394285Y-163384761D01*
X316441904Y-163337142D01*
X316489523Y-163241904D01*
X316489523Y-162432380D01*
X316918095Y-162527619D02*
X316965714Y-162480000D01*
X317060952Y-162432380D01*
X317299047Y-162432380D01*
X317394285Y-162480000D01*
X317441904Y-162527619D01*
X317489523Y-162622857D01*
X317489523Y-162718095D01*
X317441904Y-162860952D01*
X316870476Y-163432380D01*
X317489523Y-163432380D01*
X319589523Y-160282380D02*
X319589523Y-161091904D01*
X319637142Y-161187142D01*
X319684761Y-161234761D01*
X319780000Y-161282380D01*
X319970476Y-161282380D01*
X320065714Y-161234761D01*
X320113333Y-161187142D01*
X320160952Y-161091904D01*
X320160952Y-160282380D01*
X320589523Y-161234761D02*
X320732380Y-161282380D01*
X320970476Y-161282380D01*
X321065714Y-161234761D01*
X321113333Y-161187142D01*
X321160952Y-161091904D01*
X321160952Y-160996666D01*
X321113333Y-160901428D01*
X321065714Y-160853809D01*
X320970476Y-160806190D01*
X320780000Y-160758571D01*
X320684761Y-160710952D01*
X320637142Y-160663333D01*
X320589523Y-160568095D01*
X320589523Y-160472857D01*
X320637142Y-160377619D01*
X320684761Y-160330000D01*
X320780000Y-160282380D01*
X321018095Y-160282380D01*
X321160952Y-160330000D01*
X321922857Y-160758571D02*
X322065714Y-160806190D01*
X322113333Y-160853809D01*
X322160952Y-160949047D01*
X322160952Y-161091904D01*
X322113333Y-161187142D01*
X322065714Y-161234761D01*
X321970476Y-161282380D01*
X321589523Y-161282380D01*
X321589523Y-160282380D01*
X321922857Y-160282380D01*
X322018095Y-160330000D01*
X322065714Y-160377619D01*
X322113333Y-160472857D01*
X322113333Y-160568095D01*
X322065714Y-160663333D01*
X322018095Y-160710952D01*
X321922857Y-160758571D01*
X321589523Y-160758571D01*
X323065714Y-161282380D02*
X322589523Y-161282380D01*
X322589523Y-160282380D01*
X323970476Y-161187142D02*
X323922857Y-161234761D01*
X323780000Y-161282380D01*
X323684761Y-161282380D01*
X323541904Y-161234761D01*
X323446666Y-161139523D01*
X323399047Y-161044285D01*
X323351428Y-160853809D01*
X323351428Y-160710952D01*
X323399047Y-160520476D01*
X323446666Y-160425238D01*
X323541904Y-160330000D01*
X323684761Y-160282380D01*
X323780000Y-160282380D01*
X323922857Y-160330000D01*
X323970476Y-160377619D01*
X324827619Y-160282380D02*
X324637142Y-160282380D01*
X324541904Y-160330000D01*
X324494285Y-160377619D01*
X324399047Y-160520476D01*
X324351428Y-160710952D01*
X324351428Y-161091904D01*
X324399047Y-161187142D01*
X324446666Y-161234761D01*
X324541904Y-161282380D01*
X324732380Y-161282380D01*
X324827619Y-161234761D01*
X324875238Y-161187142D01*
X324922857Y-161091904D01*
X324922857Y-160853809D01*
X324875238Y-160758571D01*
X324827619Y-160710952D01*
X324732380Y-160663333D01*
X324541904Y-160663333D01*
X324446666Y-160710952D01*
X324399047Y-160758571D01*
X324351428Y-160853809D01*
X325351428Y-160901428D02*
X326113333Y-160901428D01*
X326541904Y-160377619D02*
X326589523Y-160330000D01*
X326684761Y-160282380D01*
X326922857Y-160282380D01*
X327018095Y-160330000D01*
X327065714Y-160377619D01*
X327113333Y-160472857D01*
X327113333Y-160568095D01*
X327065714Y-160710952D01*
X326494285Y-161282380D01*
X327113333Y-161282380D01*
X327494285Y-161234761D02*
X327637142Y-161282380D01*
X327875238Y-161282380D01*
X327970476Y-161234761D01*
X328018095Y-161187142D01*
X328065714Y-161091904D01*
X328065714Y-160996666D01*
X328018095Y-160901428D01*
X327970476Y-160853809D01*
X327875238Y-160806190D01*
X327684761Y-160758571D01*
X327589523Y-160710952D01*
X327541904Y-160663333D01*
X327494285Y-160568095D01*
X327494285Y-160472857D01*
X327541904Y-160377619D01*
X327589523Y-160330000D01*
X327684761Y-160282380D01*
X327922857Y-160282380D01*
X328065714Y-160330000D01*
X329065714Y-161187142D02*
X329018095Y-161234761D01*
X328875238Y-161282380D01*
X328780000Y-161282380D01*
X328637142Y-161234761D01*
X328541904Y-161139523D01*
X328494285Y-161044285D01*
X328446666Y-160853809D01*
X328446666Y-160710952D01*
X328494285Y-160520476D01*
X328541904Y-160425238D01*
X328637142Y-160330000D01*
X328780000Y-160282380D01*
X328875238Y-160282380D01*
X329018095Y-160330000D01*
X329065714Y-160377619D01*
X329922857Y-160282380D02*
X329732380Y-160282380D01*
X329637142Y-160330000D01*
X329589523Y-160377619D01*
X329494285Y-160520476D01*
X329446666Y-160710952D01*
X329446666Y-161091904D01*
X329494285Y-161187142D01*
X329541904Y-161234761D01*
X329637142Y-161282380D01*
X329827619Y-161282380D01*
X329922857Y-161234761D01*
X329970476Y-161187142D01*
X330018095Y-161091904D01*
X330018095Y-160853809D01*
X329970476Y-160758571D01*
X329922857Y-160710952D01*
X329827619Y-160663333D01*
X329637142Y-160663333D01*
X329541904Y-160710952D01*
X329494285Y-160758571D01*
X329446666Y-160853809D01*
D17*
X92056190Y-160760952D02*
X92460952Y-160760952D01*
X92508571Y-160737142D01*
X92532380Y-160713333D01*
X92556190Y-160665714D01*
X92556190Y-160570476D01*
X92532380Y-160522857D01*
X92508571Y-160499047D01*
X92460952Y-160475238D01*
X92056190Y-160475238D01*
X92103809Y-160260952D02*
X92080000Y-160237142D01*
X92056190Y-160189523D01*
X92056190Y-160070476D01*
X92080000Y-160022857D01*
X92103809Y-159999047D01*
X92151428Y-159975238D01*
X92199047Y-159975238D01*
X92270476Y-159999047D01*
X92556190Y-160284761D01*
X92556190Y-159975238D01*
%TO.C,U3*%
D11*
X317377379Y-162156905D02*
X318186903Y-162156905D01*
X318282141Y-162109286D01*
X318329760Y-162061667D01*
X318377379Y-161966429D01*
X318377379Y-161775953D01*
X318329760Y-161680715D01*
X318282141Y-161633096D01*
X318186903Y-161585477D01*
X317377379Y-161585477D01*
X317377379Y-161204524D02*
X317377379Y-160585477D01*
X317758332Y-160918810D01*
X317758332Y-160775953D01*
X317805951Y-160680715D01*
X317853570Y-160633096D01*
X317948808Y-160585477D01*
X318186903Y-160585477D01*
X318282141Y-160633096D01*
X318329760Y-160680715D01*
X318377379Y-160775953D01*
X318377379Y-161061667D01*
X318329760Y-161156905D01*
X318282141Y-161204524D01*
X333539760Y-170218810D02*
X333587379Y-170075953D01*
X333587379Y-169837858D01*
X333539760Y-169742620D01*
X333492141Y-169695001D01*
X333396903Y-169647381D01*
X333301665Y-169647381D01*
X333206427Y-169695001D01*
X333158808Y-169742620D01*
X333111189Y-169837858D01*
X333063570Y-170028334D01*
X333015951Y-170123572D01*
X332968332Y-170171191D01*
X332873094Y-170218810D01*
X332777856Y-170218810D01*
X332682618Y-170171191D01*
X332634999Y-170123572D01*
X332587379Y-170028334D01*
X332587379Y-169790239D01*
X332634999Y-169647381D01*
X332587379Y-169361667D02*
X332587379Y-168790239D01*
X333587379Y-169075953D02*
X332587379Y-169075953D01*
X333587379Y-168456905D02*
X332587379Y-168456905D01*
X333301665Y-168123572D01*
X332587379Y-167790239D01*
X333587379Y-167790239D01*
X332587379Y-167409286D02*
X332587379Y-166790239D01*
X332968332Y-167123572D01*
X332968332Y-166980715D01*
X333015951Y-166885477D01*
X333063570Y-166837858D01*
X333158808Y-166790239D01*
X333396903Y-166790239D01*
X333492141Y-166837858D01*
X333539760Y-166885477D01*
X333587379Y-166980715D01*
X333587379Y-167266429D01*
X333539760Y-167361667D01*
X333492141Y-167409286D01*
X332682618Y-166409286D02*
X332634999Y-166361667D01*
X332587379Y-166266429D01*
X332587379Y-166028334D01*
X332634999Y-165933096D01*
X332682618Y-165885477D01*
X332777856Y-165837858D01*
X332873094Y-165837858D01*
X333015951Y-165885477D01*
X333587379Y-166456905D01*
X333587379Y-165837858D01*
X333587379Y-164933096D02*
X333587379Y-165409286D01*
X332587379Y-165409286D01*
X332920713Y-164171191D02*
X333587379Y-164171191D01*
X332539760Y-164409286D02*
X333254046Y-164647381D01*
X333254046Y-164028334D01*
X332587379Y-163742620D02*
X332587379Y-163123572D01*
X332968332Y-163456905D01*
X332968332Y-163314048D01*
X333015951Y-163218810D01*
X333063570Y-163171191D01*
X333158808Y-163123572D01*
X333396903Y-163123572D01*
X333492141Y-163171191D01*
X333539760Y-163218810D01*
X333587379Y-163314048D01*
X333587379Y-163599762D01*
X333539760Y-163695001D01*
X333492141Y-163742620D01*
X332682618Y-162742620D02*
X332634999Y-162695001D01*
X332587379Y-162599762D01*
X332587379Y-162361667D01*
X332634999Y-162266429D01*
X332682618Y-162218810D01*
X332777856Y-162171191D01*
X332873094Y-162171191D01*
X333015951Y-162218810D01*
X333587379Y-162790239D01*
X333587379Y-162171191D01*
X333587379Y-161742620D02*
X332587379Y-161742620D01*
X333587379Y-161171191D02*
X333015951Y-161599762D01*
X332587379Y-161171191D02*
X333158808Y-161742620D01*
X333063570Y-160409286D02*
X333111189Y-160266429D01*
X333158808Y-160218810D01*
X333254046Y-160171191D01*
X333396903Y-160171191D01*
X333492141Y-160218810D01*
X333539760Y-160266429D01*
X333587379Y-160361667D01*
X333587379Y-160742620D01*
X332587379Y-160742620D01*
X332587379Y-160409286D01*
X332634999Y-160314048D01*
X332682618Y-160266429D01*
X332777856Y-160218810D01*
X332873094Y-160218810D01*
X332968332Y-160266429D01*
X333015951Y-160314048D01*
X333063570Y-160409286D01*
X333063570Y-160742620D01*
X332587379Y-159742620D02*
X333396903Y-159742620D01*
X333492141Y-159695001D01*
X333539760Y-159647381D01*
X333587379Y-159552143D01*
X333587379Y-159361667D01*
X333539760Y-159266429D01*
X333492141Y-159218810D01*
X333396903Y-159171191D01*
X332587379Y-159171191D01*
X332587379Y-158266429D02*
X332587379Y-158456905D01*
X332634999Y-158552143D01*
X332682618Y-158599762D01*
X332825475Y-158695001D01*
X333015951Y-158742620D01*
X333396903Y-158742620D01*
X333492141Y-158695001D01*
X333539760Y-158647381D01*
X333587379Y-158552143D01*
X333587379Y-158361667D01*
X333539760Y-158266429D01*
X333492141Y-158218810D01*
X333396903Y-158171191D01*
X333158808Y-158171191D01*
X333063570Y-158218810D01*
X333015951Y-158266429D01*
X332968332Y-158361667D01*
X332968332Y-158552143D01*
X333015951Y-158647381D01*
X333063570Y-158695001D01*
X333158808Y-158742620D01*
X103957379Y-161606905D02*
X104766903Y-161606905D01*
X104862141Y-161559286D01*
X104909760Y-161511667D01*
X104957379Y-161416429D01*
X104957379Y-161225953D01*
X104909760Y-161130715D01*
X104862141Y-161083096D01*
X104766903Y-161035477D01*
X103957379Y-161035477D01*
X103957379Y-160654524D02*
X103957379Y-160035477D01*
X104338332Y-160368810D01*
X104338332Y-160225953D01*
X104385951Y-160130715D01*
X104433570Y-160083096D01*
X104528808Y-160035477D01*
X104766903Y-160035477D01*
X104862141Y-160083096D01*
X104909760Y-160130715D01*
X104957379Y-160225953D01*
X104957379Y-160511667D01*
X104909760Y-160606905D01*
X104862141Y-160654524D01*
%TO.C,U4*%
X320688095Y-157302380D02*
X320688095Y-158111904D01*
X320735714Y-158207142D01*
X320783333Y-158254761D01*
X320878571Y-158302380D01*
X321069047Y-158302380D01*
X321164285Y-158254761D01*
X321211904Y-158207142D01*
X321259523Y-158111904D01*
X321259523Y-157302380D01*
X322164285Y-157635714D02*
X322164285Y-158302380D01*
X321926190Y-157254761D02*
X321688095Y-157969047D01*
X322307142Y-157969047D01*
X317497619Y-164235714D02*
X317497619Y-164902380D01*
X317497619Y-164330952D02*
X317545238Y-164283333D01*
X317640476Y-164235714D01*
X317783333Y-164235714D01*
X317878571Y-164283333D01*
X317926190Y-164378571D01*
X317926190Y-164902380D01*
X318973809Y-164902380D02*
X318640476Y-164426190D01*
X318402380Y-164902380D02*
X318402380Y-163902380D01*
X318783333Y-163902380D01*
X318878571Y-163950000D01*
X318926190Y-163997619D01*
X318973809Y-164092857D01*
X318973809Y-164235714D01*
X318926190Y-164330952D01*
X318878571Y-164378571D01*
X318783333Y-164426190D01*
X318402380Y-164426190D01*
X319735714Y-164378571D02*
X319402380Y-164378571D01*
X319402380Y-164902380D02*
X319402380Y-163902380D01*
X319878571Y-163902380D01*
X320211904Y-163997619D02*
X320259523Y-163950000D01*
X320354761Y-163902380D01*
X320592857Y-163902380D01*
X320688095Y-163950000D01*
X320735714Y-163997619D01*
X320783333Y-164092857D01*
X320783333Y-164188095D01*
X320735714Y-164330952D01*
X320164285Y-164902380D01*
X320783333Y-164902380D01*
X321640476Y-164235714D02*
X321640476Y-164902380D01*
X321402380Y-163854761D02*
X321164285Y-164569047D01*
X321783333Y-164569047D01*
X322640476Y-164902380D02*
X322164285Y-164902380D01*
X322164285Y-163902380D01*
X323164285Y-163902380D02*
X323259523Y-163902380D01*
X323354761Y-163950000D01*
X323402380Y-163997619D01*
X323450000Y-164092857D01*
X323497619Y-164283333D01*
X323497619Y-164521428D01*
X323450000Y-164711904D01*
X323402380Y-164807142D01*
X323354761Y-164854761D01*
X323259523Y-164902380D01*
X323164285Y-164902380D01*
X323069047Y-164854761D01*
X323021428Y-164807142D01*
X322973809Y-164711904D01*
X322926190Y-164521428D01*
X322926190Y-164283333D01*
X322973809Y-164092857D01*
X323021428Y-163997619D01*
X323069047Y-163950000D01*
X323164285Y-163902380D01*
X324450000Y-164902380D02*
X323878571Y-164902380D01*
X324164285Y-164902380D02*
X324164285Y-163902380D01*
X324069047Y-164045238D01*
X323973809Y-164140476D01*
X323878571Y-164188095D01*
X324878571Y-164902380D02*
X324878571Y-163902380D01*
X325259523Y-163902380D01*
X325354761Y-163950000D01*
X325402380Y-163997619D01*
X325450000Y-164092857D01*
X325450000Y-164235714D01*
X325402380Y-164330952D01*
X325354761Y-164378571D01*
X325259523Y-164426190D01*
X324878571Y-164426190D01*
X111088095Y-160052380D02*
X111088095Y-160861904D01*
X111135714Y-160957142D01*
X111183333Y-161004761D01*
X111278571Y-161052380D01*
X111469047Y-161052380D01*
X111564285Y-161004761D01*
X111611904Y-160957142D01*
X111659523Y-160861904D01*
X111659523Y-160052380D01*
X112564285Y-160385714D02*
X112564285Y-161052380D01*
X112326190Y-160004761D02*
X112088095Y-160719047D01*
X112707142Y-160719047D01*
%TO.C,Y1*%
X321123809Y-169176190D02*
X321123809Y-169652380D01*
X320790476Y-168652380D02*
X321123809Y-169176190D01*
X321457142Y-168652380D01*
X322314285Y-169652380D02*
X321742857Y-169652380D01*
X322028571Y-169652380D02*
X322028571Y-168652380D01*
X321933333Y-168795238D01*
X321838095Y-168890476D01*
X321742857Y-168938095D01*
X319909523Y-164752380D02*
X319338095Y-164752380D01*
X319623809Y-164752380D02*
X319623809Y-163752380D01*
X319528571Y-163895238D01*
X319433333Y-163990476D01*
X319338095Y-164038095D01*
X320766666Y-163752380D02*
X320576190Y-163752380D01*
X320480952Y-163800000D01*
X320433333Y-163847619D01*
X320338095Y-163990476D01*
X320290476Y-164180952D01*
X320290476Y-164561904D01*
X320338095Y-164657142D01*
X320385714Y-164704761D01*
X320480952Y-164752380D01*
X320671428Y-164752380D01*
X320766666Y-164704761D01*
X320814285Y-164657142D01*
X320861904Y-164561904D01*
X320861904Y-164323809D01*
X320814285Y-164228571D01*
X320766666Y-164180952D01*
X320671428Y-164133333D01*
X320480952Y-164133333D01*
X320385714Y-164180952D01*
X320338095Y-164228571D01*
X320290476Y-164323809D01*
X321290476Y-164752380D02*
X321290476Y-163752380D01*
X321623809Y-164466666D01*
X321957142Y-163752380D01*
X321957142Y-164752380D01*
X322433333Y-164752380D02*
X322433333Y-163752380D01*
X322433333Y-164228571D02*
X323004761Y-164228571D01*
X323004761Y-164752380D02*
X323004761Y-163752380D01*
X323385714Y-164085714D02*
X323909523Y-164085714D01*
X323385714Y-164752380D01*
X323909523Y-164752380D01*
D18*
X111666666Y-166183333D02*
X111666666Y-166516666D01*
X111433333Y-165816666D02*
X111666666Y-166183333D01*
X111900000Y-165816666D01*
X112500000Y-166516666D02*
X112100000Y-166516666D01*
X112300000Y-166516666D02*
X112300000Y-165816666D01*
X112233333Y-165916666D01*
X112166666Y-165983333D01*
X112100000Y-166016666D01*
%TD*%
M02*
