  0
SECTION
  2
HEADER
  9
$ANGBASE
  50
0.0
  9
$ANGDIR
  70
1
  9
$MEASUREMENT
  70
1
  0
ENDSEC
  0
SECTION
  2
TABLES
  0
TABLE
  2
LTYPE
  70
4
  0
LTYPE
  5
40F
  2
CONTINUOUS
  70
0
  3
Solid line
  72
65
  73
0
  40
0.0
  0
LTYPE
  5
410
  2
DASHDOT
 70
0
  3
Dash Dot ____ _ ____ _
 72
65
 73
4
 40
2.0
 49
1.25
 49
-0.25
 49
0.25
 49
-0.25
  0
LTYPE
  5
411
  2
DASHED
 70
0
  3
Dashed __ __ __ __ __
 72
65
 73
2
 40
0.75
 49
0.5
 49
-0.25
  0
LTYPE
  5
43B
  2
DOTTED
 70
0
  3
Dotted .  .  .  .
 72
65
 73
2
 40
0.2
 49
0.0
 49
-0.2
  0
ENDTAB
  0
TABLE
  2
STYLE
  70
4
  0
STYLE
  2
KICAD
  70
0
  40
0
  41
1
  42
1
  50
0
  71
0
  3
isocp.shx
  0
STYLE
  2
KICADB
  70
0
  40
0
  41
1
  42
1
  50
0
  71
0
  3
isocp.shx
  0
STYLE
  2
KICADI
  70
0
  40
0
  41
1
  42
1
  50
15
  71
0
  3
isocp.shx
  0
STYLE
  2
KICADBI
  70
0
  40
0
  41
1
  42
1
  50
15
  71
0
  3
isocp.shx
  0
ENDTAB
  0
TABLE
  2
LAYER
  70
1
  0
LAYER
  2
BLACK
  70
0
  62
7
  6
CONTINUOUS
  0
ENDTAB
  0
ENDSEC
  0
SECTION
  2
ENTITIES
0
ARC
8
BLACK
10
90.6
20
-66.45
40
0.65
50
90
51
180
0
ARC
8
BLACK
10
90.6
20
-80.15
40
0.65
50
180
51
270
0
ARC
8
BLACK
10
135.3
20
-80.15
40
0.65
50
-90
51
-0
0
ARC
8
BLACK
10
135.3
20
-66.45
40
0.65
50
-0
51
90
0
LINE
8
BLACK
6
CONTINUOUS
10
89.95
20
-80.15
11
89.95
21
-66.45
0
LINE
8
BLACK
6
CONTINUOUS
10
135.3
20
-80.8
11
90.6
21
-80.8
0
LINE
8
BLACK
6
CONTINUOUS
10
135.95
20
-66.45
11
135.95
21
-80.15
0
LINE
8
BLACK
6
CONTINUOUS
10
90.6
20
-65.8
11
135.3
21
-65.8
0
LINE
8
BLACK
6
CONTINUOUS
10
98.425
20
-78.975
11
98.675
21
-79.225
0
LINE
8
BLACK
6
CONTINUOUS
10
98.675
20
-78.975
11
98.425
21
-79.225
0
LINE
8
BLACK
6
CONTINUOUS
10
112.425
20
-69.875
11
112.675
21
-70.125
0
LINE
8
BLACK
6
CONTINUOUS
10
112.675
20
-69.875
11
112.425
21
-70.125
0
LINE
8
BLACK
6
CONTINUOUS
10
115.475
20
-73.575
11
115.725
21
-73.825
0
LINE
8
BLACK
6
CONTINUOUS
10
115.725
20
-73.575
11
115.475
21
-73.825
0
LINE
8
BLACK
6
CONTINUOUS
10
115.475
20
-74.125
11
115.725
21
-74.375
0
LINE
8
BLACK
6
CONTINUOUS
10
115.725
20
-74.125
11
115.475
21
-74.375
0
LINE
8
BLACK
6
CONTINUOUS
10
116.775
20
-73.575
11
117.025
21
-73.825
0
LINE
8
BLACK
6
CONTINUOUS
10
117.025
20
-73.575
11
116.775
21
-73.825
0
LINE
8
BLACK
6
CONTINUOUS
10
116.775
20
-74.115
11
117.025
21
-74.365
0
LINE
8
BLACK
6
CONTINUOUS
10
117.025
20
-74.115
11
116.775
21
-74.365
0
CIRCLE
8
BLACK
10
114.8
20
-70.9
40
0.15
0
LINE
8
BLACK
6
CONTINUOUS
10
91.6
20
-67.3
11
91.6
21
-67.7
0
LINE
8
BLACK
6
CONTINUOUS
10
91.4
20
-67.5
11
91.8
21
-67.5
0
LINE
8
BLACK
6
CONTINUOUS
10
94.65
20
-79.15
11
94.65
21
-79.55
0
LINE
8
BLACK
6
CONTINUOUS
10
94.45
20
-79.35
11
94.85
21
-79.35
0
LINE
8
BLACK
6
CONTINUOUS
10
95.6
20
-79.15
11
95.6
21
-79.55
0
LINE
8
BLACK
6
CONTINUOUS
10
95.4
20
-79.35
11
95.8
21
-79.35
0
LINE
8
BLACK
6
CONTINUOUS
10
96
20
-74.5
11
96
21
-74.9
0
LINE
8
BLACK
6
CONTINUOUS
10
95.8
20
-74.7
11
96.2
21
-74.7
0
LINE
8
BLACK
6
CONTINUOUS
10
96.95
20
-74.5
11
96.95
21
-74.9
0
LINE
8
BLACK
6
CONTINUOUS
10
96.75
20
-74.7
11
97.15
21
-74.7
0
LINE
8
BLACK
6
CONTINUOUS
10
98.55
20
-75.3
11
98.55
21
-75.7
0
LINE
8
BLACK
6
CONTINUOUS
10
98.35
20
-75.5
11
98.75
21
-75.5
0
LINE
8
BLACK
6
CONTINUOUS
10
98.55
20
-76.2
11
98.55
21
-76.6
0
LINE
8
BLACK
6
CONTINUOUS
10
98.35
20
-76.4
11
98.75
21
-76.4
0
LINE
8
BLACK
6
CONTINUOUS
10
99.6
20
-75.3
11
99.6
21
-75.7
0
LINE
8
BLACK
6
CONTINUOUS
10
99.4
20
-75.5
11
99.8
21
-75.5
0
LINE
8
BLACK
6
CONTINUOUS
10
100.05
20
-74.55
11
100.05
21
-74.95
0
LINE
8
BLACK
6
CONTINUOUS
10
99.85
20
-74.75
11
100.25
21
-74.75
0
LINE
8
BLACK
6
CONTINUOUS
10
101.45
20
-66.9
11
101.45
21
-67.3
0
LINE
8
BLACK
6
CONTINUOUS
10
101.25
20
-67.1
11
101.65
21
-67.1
0
LINE
8
BLACK
6
CONTINUOUS
10
102.05
20
-70.4
11
102.05
21
-70.8
0
LINE
8
BLACK
6
CONTINUOUS
10
101.85
20
-70.6
11
102.25
21
-70.6
0
LINE
8
BLACK
6
CONTINUOUS
10
102.35
20
-66.9
11
102.35
21
-67.3
0
LINE
8
BLACK
6
CONTINUOUS
10
102.15
20
-67.1
11
102.55
21
-67.1
0
LINE
8
BLACK
6
CONTINUOUS
10
102.95
20
-70.45
11
102.95
21
-70.85
0
LINE
8
BLACK
6
CONTINUOUS
10
102.75
20
-70.65
11
103.15
21
-70.65
0
LINE
8
BLACK
6
CONTINUOUS
10
103.9
20
-74.2
11
103.9
21
-74.6
0
LINE
8
BLACK
6
CONTINUOUS
10
103.7
20
-74.4
11
104.1
21
-74.4
0
LINE
8
BLACK
6
CONTINUOUS
10
104.8
20
-74.2
11
104.8
21
-74.6
0
LINE
8
BLACK
6
CONTINUOUS
10
104.6
20
-74.4
11
105
21
-74.4
0
LINE
8
BLACK
6
CONTINUOUS
10
106.7
20
-72.9
11
106.7
21
-73.3
0
LINE
8
BLACK
6
CONTINUOUS
10
106.5
20
-73.1
11
106.9
21
-73.1
0
LINE
8
BLACK
6
CONTINUOUS
10
107.6
20
-72.9
11
107.6
21
-73.3
0
LINE
8
BLACK
6
CONTINUOUS
10
107.4
20
-73.1
11
107.8
21
-73.1
0
LINE
8
BLACK
6
CONTINUOUS
10
107.95
20
-68.1
11
107.95
21
-68.5
0
LINE
8
BLACK
6
CONTINUOUS
10
107.75
20
-68.3
11
108.15
21
-68.3
0
LINE
8
BLACK
6
CONTINUOUS
10
107.95
20
-69
11
107.95
21
-69.4
0
LINE
8
BLACK
6
CONTINUOUS
10
107.75
20
-69.2
11
108.15
21
-69.2
0
LINE
8
BLACK
6
CONTINUOUS
10
108.05
20
-75.2
11
108.05
21
-75.6
0
LINE
8
BLACK
6
CONTINUOUS
10
107.85
20
-75.4
11
108.25
21
-75.4
0
LINE
8
BLACK
6
CONTINUOUS
10
108.25
20
-76.2
11
108.25
21
-76.6
0
LINE
8
BLACK
6
CONTINUOUS
10
108.05
20
-76.4
11
108.45
21
-76.4
0
LINE
8
BLACK
6
CONTINUOUS
10
108.5
20
-72.9
11
108.5
21
-73.3
0
LINE
8
BLACK
6
CONTINUOUS
10
108.3
20
-73.1
11
108.7
21
-73.1
0
LINE
8
BLACK
6
CONTINUOUS
10
108.6
20
-74.2
11
108.6
21
-74.6
0
LINE
8
BLACK
6
CONTINUOUS
10
108.4
20
-74.4
11
108.8
21
-74.4
0
LINE
8
BLACK
6
CONTINUOUS
10
109.65
20
-75.9
11
109.65
21
-76.3
0
LINE
8
BLACK
6
CONTINUOUS
10
109.45
20
-76.1
11
109.85
21
-76.1
0
LINE
8
BLACK
6
CONTINUOUS
10
109.85
20
-68.3
11
109.85
21
-68.7
0
LINE
8
BLACK
6
CONTINUOUS
10
109.65
20
-68.5
11
110.05
21
-68.5
0
LINE
8
BLACK
6
CONTINUOUS
10
109.85
20
-69.2
11
109.85
21
-69.6
0
LINE
8
BLACK
6
CONTINUOUS
10
109.65
20
-69.4
11
110.05
21
-69.4
0
LINE
8
BLACK
6
CONTINUOUS
10
112.65
20
-68.3
11
112.65
21
-68.7
0
LINE
8
BLACK
6
CONTINUOUS
10
112.45
20
-68.5
11
112.85
21
-68.5
0
LINE
8
BLACK
6
CONTINUOUS
10
113.45
20
-68.7
11
113.45
21
-69.1
0
LINE
8
BLACK
6
CONTINUOUS
10
113.25
20
-68.9
11
113.65
21
-68.9
0
LINE
8
BLACK
6
CONTINUOUS
10
115.2
20
-77.15
11
115.2
21
-77.55
0
LINE
8
BLACK
6
CONTINUOUS
10
115
20
-77.35
11
115.4
21
-77.35
0
LINE
8
BLACK
6
CONTINUOUS
10
115.8
20
-76.4
11
115.8
21
-76.8
0
LINE
8
BLACK
6
CONTINUOUS
10
115.6
20
-76.6
11
116
21
-76.6
0
LINE
8
BLACK
6
CONTINUOUS
10
116.45
20
-67.85
11
116.45
21
-68.25
0
LINE
8
BLACK
6
CONTINUOUS
10
116.25
20
-68.05
11
116.65
21
-68.05
0
LINE
8
BLACK
6
CONTINUOUS
10
116.45
20
-68.8
11
116.45
21
-69.2
0
LINE
8
BLACK
6
CONTINUOUS
10
116.25
20
-69
11
116.65
21
-69
0
LINE
8
BLACK
6
CONTINUOUS
10
116.8
20
-69.85
11
116.8
21
-70.25
0
LINE
8
BLACK
6
CONTINUOUS
10
116.6
20
-70.05
11
117
21
-70.05
0
LINE
8
BLACK
6
CONTINUOUS
10
117.05
20
-77.6
11
117.05
21
-78
0
LINE
8
BLACK
6
CONTINUOUS
10
116.85
20
-77.8
11
117.25
21
-77.8
0
LINE
8
BLACK
6
CONTINUOUS
10
117.15
20
-70.8
11
117.15
21
-71.2
0
LINE
8
BLACK
6
CONTINUOUS
10
116.95
20
-71
11
117.35
21
-71
0
LINE
8
BLACK
6
CONTINUOUS
10
117.45
20
-67.85
11
117.45
21
-68.25
0
LINE
8
BLACK
6
CONTINUOUS
10
117.25
20
-68.05
11
117.65
21
-68.05
0
LINE
8
BLACK
6
CONTINUOUS
10
117.45
20
-68.8
11
117.45
21
-69.2
0
LINE
8
BLACK
6
CONTINUOUS
10
117.25
20
-69
11
117.65
21
-69
0
LINE
8
BLACK
6
CONTINUOUS
10
118.35
20
-68.4
11
118.35
21
-68.8
0
LINE
8
BLACK
6
CONTINUOUS
10
118.15
20
-68.6
11
118.55
21
-68.6
0
LINE
8
BLACK
6
CONTINUOUS
10
118.45
20
-66.9
11
118.45
21
-67.3
0
LINE
8
BLACK
6
CONTINUOUS
10
118.25
20
-67.1
11
118.65
21
-67.1
0
LINE
8
BLACK
6
CONTINUOUS
10
118.75
20
-76.3
11
118.75
21
-76.7
0
LINE
8
BLACK
6
CONTINUOUS
10
118.55
20
-76.5
11
118.95
21
-76.5
0
LINE
8
BLACK
6
CONTINUOUS
10
119.05
20
-72.4
11
119.05
21
-72.8
0
LINE
8
BLACK
6
CONTINUOUS
10
118.85
20
-72.6
11
119.25
21
-72.6
0
LINE
8
BLACK
6
CONTINUOUS
10
119.05
20
-73.5
11
119.05
21
-73.9
0
LINE
8
BLACK
6
CONTINUOUS
10
118.85
20
-73.7
11
119.25
21
-73.7
0
LINE
8
BLACK
6
CONTINUOUS
10
119.75
20
-66.6
11
119.75
21
-67
0
LINE
8
BLACK
6
CONTINUOUS
10
119.55
20
-66.8
11
119.95
21
-66.8
0
LINE
8
BLACK
6
CONTINUOUS
10
120.25
20
-72.4
11
120.25
21
-72.8
0
LINE
8
BLACK
6
CONTINUOUS
10
120.05
20
-72.6
11
120.45
21
-72.6
0
LINE
8
BLACK
6
CONTINUOUS
10
120.25
20
-73.5
11
120.25
21
-73.9
0
LINE
8
BLACK
6
CONTINUOUS
10
120.05
20
-73.7
11
120.45
21
-73.7
0
LINE
8
BLACK
6
CONTINUOUS
10
120.55
20
-69.8
11
120.55
21
-70.2
0
LINE
8
BLACK
6
CONTINUOUS
10
120.35
20
-70
11
120.75
21
-70
0
LINE
8
BLACK
6
CONTINUOUS
10
122.15
20
-69.9
11
122.15
21
-70.3
0
LINE
8
BLACK
6
CONTINUOUS
10
121.95
20
-70.1
11
122.35
21
-70.1
0
LINE
8
BLACK
6
CONTINUOUS
10
122.25
20
-66.8
11
122.25
21
-67.2
0
LINE
8
BLACK
6
CONTINUOUS
10
122.05
20
-67
11
122.45
21
-67
0
LINE
8
BLACK
6
CONTINUOUS
10
122.55
20
-71.6
11
122.55
21
-72
0
LINE
8
BLACK
6
CONTINUOUS
10
122.35
20
-71.8
11
122.75
21
-71.8
0
LINE
8
BLACK
6
CONTINUOUS
10
122.55
20
-79.3
11
122.55
21
-79.7
0
LINE
8
BLACK
6
CONTINUOUS
10
122.35
20
-79.5
11
122.75
21
-79.5
0
LINE
8
BLACK
6
CONTINUOUS
10
123.15
20
-66.8
11
123.15
21
-67.2
0
LINE
8
BLACK
6
CONTINUOUS
10
122.95
20
-67
11
123.35
21
-67
0
LINE
8
BLACK
6
CONTINUOUS
10
123.35
20
-72.1
11
123.35
21
-72.5
0
LINE
8
BLACK
6
CONTINUOUS
10
123.15
20
-72.3
11
123.55
21
-72.3
0
LINE
8
BLACK
6
CONTINUOUS
10
124.35
20
-66.6
11
124.35
21
-67
0
LINE
8
BLACK
6
CONTINUOUS
10
124.15
20
-66.8
11
124.55
21
-66.8
0
LINE
8
BLACK
6
CONTINUOUS
10
124.35
20
-68.2
11
124.35
21
-68.6
0
LINE
8
BLACK
6
CONTINUOUS
10
124.15
20
-68.4
11
124.55
21
-68.4
0
LINE
8
BLACK
6
CONTINUOUS
10
124.35
20
-69.8
11
124.35
21
-70.2
0
LINE
8
BLACK
6
CONTINUOUS
10
124.15
20
-70
11
124.55
21
-70
0
LINE
8
BLACK
6
CONTINUOUS
10
124.35
20
-71.5
11
124.35
21
-71.9
0
LINE
8
BLACK
6
CONTINUOUS
10
124.15
20
-71.7
11
124.55
21
-71.7
0
LINE
8
BLACK
6
CONTINUOUS
10
124.35
20
-75.5
11
124.35
21
-75.9
0
LINE
8
BLACK
6
CONTINUOUS
10
124.15
20
-75.7
11
124.55
21
-75.7
0
LINE
8
BLACK
6
CONTINUOUS
10
124.35
20
-77.2
11
124.35
21
-77.6
0
LINE
8
BLACK
6
CONTINUOUS
10
124.15
20
-77.4
11
124.55
21
-77.4
0
LINE
8
BLACK
6
CONTINUOUS
10
124.35
20
-78.9
11
124.35
21
-79.3
0
LINE
8
BLACK
6
CONTINUOUS
10
124.15
20
-79.1
11
124.55
21
-79.1
0
LINE
8
BLACK
6
CONTINUOUS
10
125.7
20
-79.85
11
125.7
21
-80.25
0
LINE
8
BLACK
6
CONTINUOUS
10
125.5
20
-80.05
11
125.9
21
-80.05
0
LINE
8
BLACK
6
CONTINUOUS
10
126.25
20
-66.4
11
126.25
21
-66.8
0
LINE
8
BLACK
6
CONTINUOUS
10
126.05
20
-66.6
11
126.45
21
-66.6
0
LINE
8
BLACK
6
CONTINUOUS
10
127.6
20
-79.85
11
127.6
21
-80.25
0
LINE
8
BLACK
6
CONTINUOUS
10
127.4
20
-80.05
11
127.8
21
-80.05
0
LINE
8
BLACK
6
CONTINUOUS
10
128.15
20
-66.4
11
128.15
21
-66.8
0
LINE
8
BLACK
6
CONTINUOUS
10
127.95
20
-66.6
11
128.35
21
-66.6
0
LINE
8
BLACK
6
CONTINUOUS
10
128.75
20
-74.7
11
128.75
21
-75.1
0
LINE
8
BLACK
6
CONTINUOUS
10
128.55
20
-74.9
11
128.95
21
-74.9
0
LINE
8
BLACK
6
CONTINUOUS
10
128.75
20
-75.8
11
128.75
21
-76.2
0
LINE
8
BLACK
6
CONTINUOUS
10
128.55
20
-76
11
128.95
21
-76
0
LINE
8
BLACK
6
CONTINUOUS
10
129.45
20
-70.8
11
129.45
21
-71.2
0
LINE
8
BLACK
6
CONTINUOUS
10
129.25
20
-71
11
129.65
21
-71
0
LINE
8
BLACK
6
CONTINUOUS
10
129.702
20
-79.85
11
129.702
21
-80.25
0
LINE
8
BLACK
6
CONTINUOUS
10
129.502
20
-80.05
11
129.902
21
-80.05
0
LINE
8
BLACK
6
CONTINUOUS
10
130.25
20
-69.4
11
130.25
21
-69.8
0
LINE
8
BLACK
6
CONTINUOUS
10
130.05
20
-69.6
11
130.45
21
-69.6
0
LINE
8
BLACK
6
CONTINUOUS
10
130.25
20
-70.3
11
130.25
21
-70.7
0
LINE
8
BLACK
6
CONTINUOUS
10
130.05
20
-70.5
11
130.45
21
-70.5
0
LINE
8
BLACK
6
CONTINUOUS
10
130.35
20
-66.4
11
130.35
21
-66.8
0
LINE
8
BLACK
6
CONTINUOUS
10
130.15
20
-66.6
11
130.55
21
-66.6
0
LINE
8
BLACK
6
CONTINUOUS
10
130.35
20
-75.1
11
130.35
21
-75.5
0
LINE
8
BLACK
6
CONTINUOUS
10
130.15
20
-75.3
11
130.55
21
-75.3
0
LINE
8
BLACK
6
CONTINUOUS
10
130.35
20
-76
11
130.35
21
-76.4
0
LINE
8
BLACK
6
CONTINUOUS
10
130.15
20
-76.2
11
130.55
21
-76.2
0
LINE
8
BLACK
6
CONTINUOUS
10
131.35
20
-68.6
11
131.35
21
-69
0
LINE
8
BLACK
6
CONTINUOUS
10
131.15
20
-68.8
11
131.55
21
-68.8
0
LINE
8
BLACK
6
CONTINUOUS
10
131.45
20
-76.7
11
131.45
21
-77.1
0
LINE
8
BLACK
6
CONTINUOUS
10
131.25
20
-76.9
11
131.65
21
-76.9
0
LINE
8
BLACK
6
CONTINUOUS
10
131.8
20
-79.85
11
131.8
21
-80.25
0
LINE
8
BLACK
6
CONTINUOUS
10
131.6
20
-80.05
11
132
21
-80.05
0
LINE
8
BLACK
6
CONTINUOUS
10
132.55
20
-66.4
11
132.55
21
-66.8
0
LINE
8
BLACK
6
CONTINUOUS
10
132.35
20
-66.6
11
132.75
21
-66.6
0
LINE
8
BLACK
6
CONTINUOUS
10
132.65
20
-76.7
11
132.65
21
-77.1
0
LINE
8
BLACK
6
CONTINUOUS
10
132.45
20
-76.9
11
132.85
21
-76.9
0
LINE
8
BLACK
6
CONTINUOUS
10
132.75
20
-68.6
11
132.75
21
-69
0
LINE
8
BLACK
6
CONTINUOUS
10
132.55
20
-68.8
11
132.95
21
-68.8
0
LINE
8
BLACK
6
CONTINUOUS
10
133.85
20
-76.7
11
133.85
21
-77.1
0
LINE
8
BLACK
6
CONTINUOUS
10
133.65
20
-76.9
11
134.05
21
-76.9
0
LINE
8
BLACK
6
CONTINUOUS
10
133.95
20
-68.6
11
133.95
21
-69
0
LINE
8
BLACK
6
CONTINUOUS
10
133.75
20
-68.8
11
134.15
21
-68.8
0
LINE
8
BLACK
6
CONTINUOUS
10
134
20
-79.85
11
134
21
-80.25
0
LINE
8
BLACK
6
CONTINUOUS
10
133.8
20
-80.05
11
134.2
21
-80.05
0
LINE
8
BLACK
6
CONTINUOUS
10
134.75
20
-66.5
11
134.75
21
-66.9
0
LINE
8
BLACK
6
CONTINUOUS
10
134.55
20
-66.7
11
134.95
21
-66.7
0
LINE
8
BLACK
6
CONTINUOUS
10
134.95
20
-68.3
11
134.95
21
-68.7
0
LINE
8
BLACK
6
CONTINUOUS
10
134.75
20
-68.5
11
135.15
21
-68.5
0
LINE
8
BLACK
6
CONTINUOUS
10
134.95
20
-77.4
11
134.95
21
-77.8
0
LINE
8
BLACK
6
CONTINUOUS
10
134.75
20
-77.6
11
135.15
21
-77.6
0
LINE
8
BLACK
6
CONTINUOUS
10
134.95
20
-78.9
11
134.95
21
-79.3
0
LINE
8
BLACK
6
CONTINUOUS
10
134.75
20
-79.1
11
135.15
21
-79.1
0
LINE
8
BLACK
6
CONTINUOUS
10
100.54
20
-78.0298
11
100.54
21
-77.5702
0
LINE
8
BLACK
6
CONTINUOUS
10
100.54
20
-77.5702
11
100.08
21
-77.5702
0
LINE
8
BLACK
6
CONTINUOUS
10
100.08
20
-77.5702
11
100.08
21
-78.0298
0
LINE
8
BLACK
6
CONTINUOUS
10
100.08
20
-78.0298
11
100.54
21
-78.0298
0
LINE
8
BLACK
6
CONTINUOUS
10
100.54
20
-79.2998
11
100.54
21
-78.8402
0
LINE
8
BLACK
6
CONTINUOUS
10
100.54
20
-78.8402
11
100.08
21
-78.8402
0
LINE
8
BLACK
6
CONTINUOUS
10
100.08
20
-78.8402
11
100.08
21
-79.2998
0
LINE
8
BLACK
6
CONTINUOUS
10
100.08
20
-79.2998
11
100.54
21
-79.2998
0
LINE
8
BLACK
6
CONTINUOUS
10
101.81
20
-78.0298
11
101.81
21
-77.5702
0
LINE
8
BLACK
6
CONTINUOUS
10
101.81
20
-77.5702
11
101.35
21
-77.5702
0
LINE
8
BLACK
6
CONTINUOUS
10
101.35
20
-77.5702
11
101.35
21
-78.0298
0
LINE
8
BLACK
6
CONTINUOUS
10
101.35
20
-78.0298
11
101.81
21
-78.0298
0
LINE
8
BLACK
6
CONTINUOUS
10
101.81
20
-79.2998
11
101.81
21
-78.8402
0
LINE
8
BLACK
6
CONTINUOUS
10
101.81
20
-78.8402
11
101.35
21
-78.8402
0
LINE
8
BLACK
6
CONTINUOUS
10
101.35
20
-78.8402
11
101.35
21
-79.2998
0
LINE
8
BLACK
6
CONTINUOUS
10
101.35
20
-79.2998
11
101.81
21
-79.2998
0
LINE
8
BLACK
6
CONTINUOUS
10
103.08
20
-78.0298
11
103.08
21
-77.5702
0
LINE
8
BLACK
6
CONTINUOUS
10
103.08
20
-77.5702
11
102.62
21
-77.5702
0
LINE
8
BLACK
6
CONTINUOUS
10
102.62
20
-77.5702
11
102.62
21
-78.0298
0
LINE
8
BLACK
6
CONTINUOUS
10
102.62
20
-78.0298
11
103.08
21
-78.0298
0
LINE
8
BLACK
6
CONTINUOUS
10
103.08
20
-79.2998
11
103.08
21
-78.8402
0
LINE
8
BLACK
6
CONTINUOUS
10
103.08
20
-78.8402
11
102.62
21
-78.8402
0
LINE
8
BLACK
6
CONTINUOUS
10
102.62
20
-78.8402
11
102.62
21
-79.2998
0
LINE
8
BLACK
6
CONTINUOUS
10
102.62
20
-79.2998
11
103.08
21
-79.2998
0
LINE
8
BLACK
6
CONTINUOUS
10
104.35
20
-78.0298
11
104.35
21
-77.5702
0
LINE
8
BLACK
6
CONTINUOUS
10
104.35
20
-77.5702
11
103.89
21
-77.5702
0
LINE
8
BLACK
6
CONTINUOUS
10
103.89
20
-77.5702
11
103.89
21
-78.0298
0
LINE
8
BLACK
6
CONTINUOUS
10
103.89
20
-78.0298
11
104.35
21
-78.0298
0
LINE
8
BLACK
6
CONTINUOUS
10
104.35
20
-79.2998
11
104.35
21
-78.8402
0
LINE
8
BLACK
6
CONTINUOUS
10
104.35
20
-78.8402
11
103.89
21
-78.8402
0
LINE
8
BLACK
6
CONTINUOUS
10
103.89
20
-78.8402
11
103.89
21
-79.2998
0
LINE
8
BLACK
6
CONTINUOUS
10
103.89
20
-79.2998
11
104.35
21
-79.2998
0
LINE
8
BLACK
6
CONTINUOUS
10
105.62
20
-78.0298
11
105.62
21
-77.5702
0
LINE
8
BLACK
6
CONTINUOUS
10
105.62
20
-77.5702
11
105.16
21
-77.5702
0
LINE
8
BLACK
6
CONTINUOUS
10
105.16
20
-77.5702
11
105.16
21
-78.0298
0
LINE
8
BLACK
6
CONTINUOUS
10
105.16
20
-78.0298
11
105.62
21
-78.0298
0
LINE
8
BLACK
6
CONTINUOUS
10
105.62
20
-79.2998
11
105.62
21
-78.8402
0
LINE
8
BLACK
6
CONTINUOUS
10
105.62
20
-78.8402
11
105.16
21
-78.8402
0
LINE
8
BLACK
6
CONTINUOUS
10
105.16
20
-78.8402
11
105.16
21
-79.2998
0
LINE
8
BLACK
6
CONTINUOUS
10
105.16
20
-79.2998
11
105.62
21
-79.2998
0
LINE
8
BLACK
6
CONTINUOUS
10
91.875
20
-70.65
11
92.525
21
-70
0
LINE
8
BLACK
6
CONTINUOUS
10
92.525
20
-70
11
91.875
21
-69.35
0
LINE
8
BLACK
6
CONTINUOUS
10
91.875
20
-69.35
11
91.225
21
-70
0
LINE
8
BLACK
6
CONTINUOUS
10
91.225
20
-70
11
91.875
21
-70.65
0
LINE
8
BLACK
6
CONTINUOUS
10
91.875
20
-77.25
11
92.525
21
-76.6
0
LINE
8
BLACK
6
CONTINUOUS
10
92.525
20
-76.6
11
91.875
21
-75.95
0
LINE
8
BLACK
6
CONTINUOUS
10
91.875
20
-75.95
11
91.225
21
-76.6
0
LINE
8
BLACK
6
CONTINUOUS
10
91.225
20
-76.6
11
91.875
21
-77.25
0
LINE
8
BLACK
6
CONTINUOUS
10
92.7893
20
-85.4821
11
92.7893
21
-82.4821
0
LINE
8
BLACK
6
CONTINUOUS
10
92.7893
20
-82.4821
11
93.5036
21
-82.4821
0
LINE
8
BLACK
6
CONTINUOUS
10
93.5036
20
-82.4821
11
93.9321
21
-82.625
0
LINE
8
BLACK
6
CONTINUOUS
10
93.9321
20
-82.625
11
94.2179
21
-82.9107
0
LINE
8
BLACK
6
CONTINUOUS
10
94.2179
20
-82.9107
11
94.3607
21
-83.1964
0
LINE
8
BLACK
6
CONTINUOUS
10
94.3607
20
-83.1964
11
94.5036
21
-83.7679
0
LINE
8
BLACK
6
CONTINUOUS
10
94.5036
20
-83.7679
11
94.5036
21
-84.1964
0
LINE
8
BLACK
6
CONTINUOUS
10
94.5036
20
-84.1964
11
94.3607
21
-84.7679
0
LINE
8
BLACK
6
CONTINUOUS
10
94.3607
20
-84.7679
11
94.2179
21
-85.0536
0
LINE
8
BLACK
6
CONTINUOUS
10
94.2179
20
-85.0536
11
93.9321
21
-85.3393
0
LINE
8
BLACK
6
CONTINUOUS
10
93.9321
20
-85.3393
11
93.5036
21
-85.4821
0
LINE
8
BLACK
6
CONTINUOUS
10
93.5036
20
-85.4821
11
92.7893
21
-85.4821
0
LINE
8
BLACK
6
CONTINUOUS
10
95.7893
20
-85.4821
11
95.7893
21
-83.4821
0
LINE
8
BLACK
6
CONTINUOUS
10
95.7893
20
-84.0536
11
95.9321
21
-83.7679
0
LINE
8
BLACK
6
CONTINUOUS
10
95.9321
20
-83.7679
11
96.075
21
-83.625
0
LINE
8
BLACK
6
CONTINUOUS
10
96.075
20
-83.625
11
96.3607
21
-83.4821
0
LINE
8
BLACK
6
CONTINUOUS
10
96.3607
20
-83.4821
11
96.6464
21
-83.4821
0
LINE
8
BLACK
6
CONTINUOUS
10
97.6464
20
-85.4821
11
97.6464
21
-83.4821
0
LINE
8
BLACK
6
CONTINUOUS
10
97.6464
20
-82.4821
11
97.5036
21
-82.625
0
LINE
8
BLACK
6
CONTINUOUS
10
97.5036
20
-82.625
11
97.6464
21
-82.7679
0
LINE
8
BLACK
6
CONTINUOUS
10
97.6464
20
-82.7679
11
97.7893
21
-82.625
0
LINE
8
BLACK
6
CONTINUOUS
10
97.7893
20
-82.625
11
97.6464
21
-82.4821
0
LINE
8
BLACK
6
CONTINUOUS
10
97.6464
20
-82.4821
11
97.6464
21
-82.7679
0
LINE
8
BLACK
6
CONTINUOUS
10
99.5036
20
-85.4821
11
99.2179
21
-85.3393
0
LINE
8
BLACK
6
CONTINUOUS
10
99.2179
20
-85.3393
11
99.075
21
-85.0536
0
LINE
8
BLACK
6
CONTINUOUS
10
99.075
20
-85.0536
11
99.075
21
-82.4821
0
LINE
8
BLACK
6
CONTINUOUS
10
101.075
20
-85.4821
11
100.789
21
-85.3393
0
LINE
8
BLACK
6
CONTINUOUS
10
100.789
20
-85.3393
11
100.646
21
-85.0536
0
LINE
8
BLACK
6
CONTINUOUS
10
100.646
20
-85.0536
11
100.646
21
-82.4821
0
LINE
8
BLACK
6
CONTINUOUS
10
104.504
20
-85.4821
11
104.504
21
-82.4821
0
LINE
8
BLACK
6
CONTINUOUS
10
104.504
20
-82.4821
11
105.504
21
-84.625
0
LINE
8
BLACK
6
CONTINUOUS
10
105.504
20
-84.625
11
106.504
21
-82.4821
0
LINE
8
BLACK
6
CONTINUOUS
10
106.504
20
-82.4821
11
106.504
21
-85.4821
0
LINE
8
BLACK
6
CONTINUOUS
10
109.218
20
-85.4821
11
109.218
21
-83.9107
0
LINE
8
BLACK
6
CONTINUOUS
10
109.218
20
-83.9107
11
109.075
21
-83.625
0
LINE
8
BLACK
6
CONTINUOUS
10
109.075
20
-83.625
11
108.789
21
-83.4821
0
LINE
8
BLACK
6
CONTINUOUS
10
108.789
20
-83.4821
11
108.218
21
-83.4821
0
LINE
8
BLACK
6
CONTINUOUS
10
108.218
20
-83.4821
11
107.932
21
-83.625
0
LINE
8
BLACK
6
CONTINUOUS
10
109.218
20
-85.3393
11
108.932
21
-85.4821
0
LINE
8
BLACK
6
CONTINUOUS
10
108.932
20
-85.4821
11
108.218
21
-85.4821
0
LINE
8
BLACK
6
CONTINUOUS
10
108.218
20
-85.4821
11
107.932
21
-85.3393
0
LINE
8
BLACK
6
CONTINUOUS
10
107.932
20
-85.3393
11
107.789
21
-85.0536
0
LINE
8
BLACK
6
CONTINUOUS
10
107.789
20
-85.0536
11
107.789
21
-84.7679
0
LINE
8
BLACK
6
CONTINUOUS
10
107.789
20
-84.7679
11
107.932
21
-84.4821
0
LINE
8
BLACK
6
CONTINUOUS
10
107.932
20
-84.4821
11
108.218
21
-84.3393
0
LINE
8
BLACK
6
CONTINUOUS
10
108.218
20
-84.3393
11
108.932
21
-84.3393
0
LINE
8
BLACK
6
CONTINUOUS
10
108.932
20
-84.3393
11
109.218
21
-84.1964
0
LINE
8
BLACK
6
CONTINUOUS
10
110.646
20
-83.4821
11
110.646
21
-86.4821
0
LINE
8
BLACK
6
CONTINUOUS
10
110.646
20
-83.625
11
110.932
21
-83.4821
0
LINE
8
BLACK
6
CONTINUOUS
10
110.932
20
-83.4821
11
111.504
21
-83.4821
0
LINE
8
BLACK
6
CONTINUOUS
10
111.504
20
-83.4821
11
111.789
21
-83.625
0
LINE
8
BLACK
6
CONTINUOUS
10
111.789
20
-83.625
11
111.932
21
-83.7679
0
LINE
8
BLACK
6
CONTINUOUS
10
111.932
20
-83.7679
11
112.075
21
-84.0536
0
LINE
8
BLACK
6
CONTINUOUS
10
112.075
20
-84.0536
11
112.075
21
-84.9107
0
LINE
8
BLACK
6
CONTINUOUS
10
112.075
20
-84.9107
11
111.932
21
-85.1964
0
LINE
8
BLACK
6
CONTINUOUS
10
111.932
20
-85.1964
11
111.789
21
-85.3393
0
LINE
8
BLACK
6
CONTINUOUS
10
111.789
20
-85.3393
11
111.504
21
-85.4821
0
LINE
8
BLACK
6
CONTINUOUS
10
111.504
20
-85.4821
11
110.932
21
-85.4821
0
LINE
8
BLACK
6
CONTINUOUS
10
110.932
20
-85.4821
11
110.646
21
-85.3393
0
LINE
8
BLACK
6
CONTINUOUS
10
113.361
20
-85.1964
11
113.504
21
-85.3393
0
LINE
8
BLACK
6
CONTINUOUS
10
113.504
20
-85.3393
11
113.361
21
-85.4821
0
LINE
8
BLACK
6
CONTINUOUS
10
113.361
20
-85.4821
11
113.218
21
-85.3393
0
LINE
8
BLACK
6
CONTINUOUS
10
113.218
20
-85.3393
11
113.361
21
-85.1964
0
LINE
8
BLACK
6
CONTINUOUS
10
113.361
20
-85.1964
11
113.361
21
-85.4821
0
LINE
8
BLACK
6
CONTINUOUS
10
113.361
20
-83.625
11
113.504
21
-83.7679
0
LINE
8
BLACK
6
CONTINUOUS
10
113.504
20
-83.7679
11
113.361
21
-83.9107
0
LINE
8
BLACK
6
CONTINUOUS
10
113.361
20
-83.9107
11
113.218
21
-83.7679
0
LINE
8
BLACK
6
CONTINUOUS
10
113.218
20
-83.7679
11
113.361
21
-83.625
0
LINE
8
BLACK
6
CONTINUOUS
10
113.361
20
-83.625
11
113.361
21
-83.9107
0
LINE
8
BLACK
6
CONTINUOUS
10
89.675
20
-90.3
11
89.925
21
-90.55
0
LINE
8
BLACK
6
CONTINUOUS
10
89.925
20
-90.3
11
89.675
21
-90.55
0
LINE
8
BLACK
6
CONTINUOUS
10
93.3607
20
-88.7821
11
93.6464
21
-88.7821
0
LINE
8
BLACK
6
CONTINUOUS
10
93.6464
20
-88.7821
11
93.9321
21
-88.925
0
LINE
8
BLACK
6
CONTINUOUS
10
93.9321
20
-88.925
11
94.075
21
-89.0679
0
LINE
8
BLACK
6
CONTINUOUS
10
94.075
20
-89.0679
11
94.2179
21
-89.3536
0
LINE
8
BLACK
6
CONTINUOUS
10
94.2179
20
-89.3536
11
94.3607
21
-89.925
0
LINE
8
BLACK
6
CONTINUOUS
10
94.3607
20
-89.925
11
94.3607
21
-90.6393
0
LINE
8
BLACK
6
CONTINUOUS
10
94.3607
20
-90.6393
11
94.2179
21
-91.2107
0
LINE
8
BLACK
6
CONTINUOUS
10
94.2179
20
-91.2107
11
94.075
21
-91.4964
0
LINE
8
BLACK
6
CONTINUOUS
10
94.075
20
-91.4964
11
93.9321
21
-91.6393
0
LINE
8
BLACK
6
CONTINUOUS
10
93.9321
20
-91.6393
11
93.6464
21
-91.7821
0
LINE
8
BLACK
6
CONTINUOUS
10
93.6464
20
-91.7821
11
93.3607
21
-91.7821
0
LINE
8
BLACK
6
CONTINUOUS
10
93.3607
20
-91.7821
11
93.075
21
-91.6393
0
LINE
8
BLACK
6
CONTINUOUS
10
93.075
20
-91.6393
11
92.9321
21
-91.4964
0
LINE
8
BLACK
6
CONTINUOUS
10
92.9321
20
-91.4964
11
92.7893
21
-91.2107
0
LINE
8
BLACK
6
CONTINUOUS
10
92.7893
20
-91.2107
11
92.6464
21
-90.6393
0
LINE
8
BLACK
6
CONTINUOUS
10
92.6464
20
-90.6393
11
92.6464
21
-89.925
0
LINE
8
BLACK
6
CONTINUOUS
10
92.6464
20
-89.925
11
92.7893
21
-89.3536
0
LINE
8
BLACK
6
CONTINUOUS
10
92.7893
20
-89.3536
11
92.9321
21
-89.0679
0
LINE
8
BLACK
6
CONTINUOUS
10
92.9321
20
-89.0679
11
93.075
21
-88.925
0
LINE
8
BLACK
6
CONTINUOUS
10
93.075
20
-88.925
11
93.3607
21
-88.7821
0
LINE
8
BLACK
6
CONTINUOUS
10
95.6464
20
-91.4964
11
95.7893
21
-91.6393
0
LINE
8
BLACK
6
CONTINUOUS
10
95.7893
20
-91.6393
11
95.6464
21
-91.7821
0
LINE
8
BLACK
6
CONTINUOUS
10
95.6464
20
-91.7821
11
95.5036
21
-91.6393
0
LINE
8
BLACK
6
CONTINUOUS
10
95.5036
20
-91.6393
11
95.6464
21
-91.4964
0
LINE
8
BLACK
6
CONTINUOUS
10
95.6464
20
-91.4964
11
95.6464
21
-91.7821
0
LINE
8
BLACK
6
CONTINUOUS
10
96.9321
20
-89.0679
11
97.075
21
-88.925
0
LINE
8
BLACK
6
CONTINUOUS
10
97.075
20
-88.925
11
97.3607
21
-88.7821
0
LINE
8
BLACK
6
CONTINUOUS
10
97.3607
20
-88.7821
11
98.075
21
-88.7821
0
LINE
8
BLACK
6
CONTINUOUS
10
98.075
20
-88.7821
11
98.3607
21
-88.925
0
LINE
8
BLACK
6
CONTINUOUS
10
98.3607
20
-88.925
11
98.5036
21
-89.0679
0
LINE
8
BLACK
6
CONTINUOUS
10
98.5036
20
-89.0679
11
98.6464
21
-89.3536
0
LINE
8
BLACK
6
CONTINUOUS
10
98.6464
20
-89.3536
11
98.6464
21
-89.6393
0
LINE
8
BLACK
6
CONTINUOUS
10
98.6464
20
-89.6393
11
98.5036
21
-90.0679
0
LINE
8
BLACK
6
CONTINUOUS
10
98.5036
20
-90.0679
11
96.7893
21
-91.7821
0
LINE
8
BLACK
6
CONTINUOUS
10
96.7893
20
-91.7821
11
98.6464
21
-91.7821
0
LINE
8
BLACK
6
CONTINUOUS
10
101.361
20
-88.7821
11
99.9321
21
-88.7821
0
LINE
8
BLACK
6
CONTINUOUS
10
99.9321
20
-88.7821
11
99.7893
21
-90.2107
0
LINE
8
BLACK
6
CONTINUOUS
10
99.7893
20
-90.2107
11
99.9321
21
-90.0679
0
LINE
8
BLACK
6
CONTINUOUS
10
99.9321
20
-90.0679
11
100.218
21
-89.925
0
LINE
8
BLACK
6
CONTINUOUS
10
100.218
20
-89.925
11
100.932
21
-89.925
0
LINE
8
BLACK
6
CONTINUOUS
10
100.932
20
-89.925
11
101.218
21
-90.0679
0
LINE
8
BLACK
6
CONTINUOUS
10
101.218
20
-90.0679
11
101.361
21
-90.2107
0
LINE
8
BLACK
6
CONTINUOUS
10
101.361
20
-90.2107
11
101.504
21
-90.4964
0
LINE
8
BLACK
6
CONTINUOUS
10
101.504
20
-90.4964
11
101.504
21
-91.2107
0
LINE
8
BLACK
6
CONTINUOUS
10
101.504
20
-91.2107
11
101.361
21
-91.4964
0
LINE
8
BLACK
6
CONTINUOUS
10
101.361
20
-91.4964
11
101.218
21
-91.6393
0
LINE
8
BLACK
6
CONTINUOUS
10
101.218
20
-91.6393
11
100.932
21
-91.7821
0
LINE
8
BLACK
6
CONTINUOUS
10
100.932
20
-91.7821
11
100.218
21
-91.7821
0
LINE
8
BLACK
6
CONTINUOUS
10
100.218
20
-91.7821
11
99.9321
21
-91.6393
0
LINE
8
BLACK
6
CONTINUOUS
10
99.9321
20
-91.6393
11
99.7893
21
-91.4964
0
LINE
8
BLACK
6
CONTINUOUS
10
102.789
20
-91.7821
11
102.789
21
-89.7821
0
LINE
8
BLACK
6
CONTINUOUS
10
102.789
20
-90.0679
11
102.932
21
-89.925
0
LINE
8
BLACK
6
CONTINUOUS
10
102.932
20
-89.925
11
103.218
21
-89.7821
0
LINE
8
BLACK
6
CONTINUOUS
10
103.218
20
-89.7821
11
103.646
21
-89.7821
0
LINE
8
BLACK
6
CONTINUOUS
10
103.646
20
-89.7821
11
103.932
21
-89.925
0
LINE
8
BLACK
6
CONTINUOUS
10
103.932
20
-89.925
11
104.075
21
-90.2107
0
LINE
8
BLACK
6
CONTINUOUS
10
104.075
20
-90.2107
11
104.075
21
-91.7821
0
LINE
8
BLACK
6
CONTINUOUS
10
104.075
20
-90.2107
11
104.218
21
-89.925
0
LINE
8
BLACK
6
CONTINUOUS
10
104.218
20
-89.925
11
104.504
21
-89.7821
0
LINE
8
BLACK
6
CONTINUOUS
10
104.504
20
-89.7821
11
104.932
21
-89.7821
0
LINE
8
BLACK
6
CONTINUOUS
10
104.932
20
-89.7821
11
105.218
21
-89.925
0
LINE
8
BLACK
6
CONTINUOUS
10
105.218
20
-89.925
11
105.361
21
-90.2107
0
LINE
8
BLACK
6
CONTINUOUS
10
105.361
20
-90.2107
11
105.361
21
-91.7821
0
LINE
8
BLACK
6
CONTINUOUS
10
106.789
20
-91.7821
11
106.789
21
-89.7821
0
LINE
8
BLACK
6
CONTINUOUS
10
106.789
20
-90.0679
11
106.932
21
-89.925
0
LINE
8
BLACK
6
CONTINUOUS
10
106.932
20
-89.925
11
107.218
21
-89.7821
0
LINE
8
BLACK
6
CONTINUOUS
10
107.218
20
-89.7821
11
107.646
21
-89.7821
0
LINE
8
BLACK
6
CONTINUOUS
10
107.646
20
-89.7821
11
107.932
21
-89.925
0
LINE
8
BLACK
6
CONTINUOUS
10
107.932
20
-89.925
11
108.075
21
-90.2107
0
LINE
8
BLACK
6
CONTINUOUS
10
108.075
20
-90.2107
11
108.075
21
-91.7821
0
LINE
8
BLACK
6
CONTINUOUS
10
108.075
20
-90.2107
11
108.218
21
-89.925
0
LINE
8
BLACK
6
CONTINUOUS
10
108.218
20
-89.925
11
108.504
21
-89.7821
0
LINE
8
BLACK
6
CONTINUOUS
10
108.504
20
-89.7821
11
108.932
21
-89.7821
0
LINE
8
BLACK
6
CONTINUOUS
10
108.932
20
-89.7821
11
109.218
21
-89.925
0
LINE
8
BLACK
6
CONTINUOUS
10
109.218
20
-89.925
11
109.361
21
-90.2107
0
LINE
8
BLACK
6
CONTINUOUS
10
109.361
20
-90.2107
11
109.361
21
-91.7821
0
LINE
8
BLACK
6
CONTINUOUS
10
115.218
20
-88.6393
11
112.646
21
-92.4964
0
LINE
8
BLACK
6
CONTINUOUS
10
119.075
20
-88.7821
11
119.361
21
-88.7821
0
LINE
8
BLACK
6
CONTINUOUS
10
119.361
20
-88.7821
11
119.646
21
-88.925
0
LINE
8
BLACK
6
CONTINUOUS
10
119.646
20
-88.925
11
119.789
21
-89.0679
0
LINE
8
BLACK
6
CONTINUOUS
10
119.789
20
-89.0679
11
119.932
21
-89.3536
0
LINE
8
BLACK
6
CONTINUOUS
10
119.932
20
-89.3536
11
120.075
21
-89.925
0
LINE
8
BLACK
6
CONTINUOUS
10
120.075
20
-89.925
11
120.075
21
-90.6393
0
LINE
8
BLACK
6
CONTINUOUS
10
120.075
20
-90.6393
11
119.932
21
-91.2107
0
LINE
8
BLACK
6
CONTINUOUS
10
119.932
20
-91.2107
11
119.789
21
-91.4964
0
LINE
8
BLACK
6
CONTINUOUS
10
119.789
20
-91.4964
11
119.646
21
-91.6393
0
LINE
8
BLACK
6
CONTINUOUS
10
119.646
20
-91.6393
11
119.361
21
-91.7821
0
LINE
8
BLACK
6
CONTINUOUS
10
119.361
20
-91.7821
11
119.075
21
-91.7821
0
LINE
8
BLACK
6
CONTINUOUS
10
119.075
20
-91.7821
11
118.789
21
-91.6393
0
LINE
8
BLACK
6
CONTINUOUS
10
118.789
20
-91.6393
11
118.646
21
-91.4964
0
LINE
8
BLACK
6
CONTINUOUS
10
118.646
20
-91.4964
11
118.504
21
-91.2107
0
LINE
8
BLACK
6
CONTINUOUS
10
118.504
20
-91.2107
11
118.361
21
-90.6393
0
LINE
8
BLACK
6
CONTINUOUS
10
118.361
20
-90.6393
11
118.361
21
-89.925
0
LINE
8
BLACK
6
CONTINUOUS
10
118.361
20
-89.925
11
118.504
21
-89.3536
0
LINE
8
BLACK
6
CONTINUOUS
10
118.504
20
-89.3536
11
118.646
21
-89.0679
0
LINE
8
BLACK
6
CONTINUOUS
10
118.646
20
-89.0679
11
118.789
21
-88.925
0
LINE
8
BLACK
6
CONTINUOUS
10
118.789
20
-88.925
11
119.075
21
-88.7821
0
LINE
8
BLACK
6
CONTINUOUS
10
121.361
20
-91.4964
11
121.504
21
-91.6393
0
LINE
8
BLACK
6
CONTINUOUS
10
121.504
20
-91.6393
11
121.361
21
-91.7821
0
LINE
8
BLACK
6
CONTINUOUS
10
121.361
20
-91.7821
11
121.218
21
-91.6393
0
LINE
8
BLACK
6
CONTINUOUS
10
121.218
20
-91.6393
11
121.361
21
-91.4964
0
LINE
8
BLACK
6
CONTINUOUS
10
121.361
20
-91.4964
11
121.361
21
-91.7821
0
LINE
8
BLACK
6
CONTINUOUS
10
123.361
20
-88.7821
11
123.646
21
-88.7821
0
LINE
8
BLACK
6
CONTINUOUS
10
123.646
20
-88.7821
11
123.932
21
-88.925
0
LINE
8
BLACK
6
CONTINUOUS
10
123.932
20
-88.925
11
124.075
21
-89.0679
0
LINE
8
BLACK
6
CONTINUOUS
10
124.075
20
-89.0679
11
124.218
21
-89.3536
0
LINE
8
BLACK
6
CONTINUOUS
10
124.218
20
-89.3536
11
124.361
21
-89.925
0
LINE
8
BLACK
6
CONTINUOUS
10
124.361
20
-89.925
11
124.361
21
-90.6393
0
LINE
8
BLACK
6
CONTINUOUS
10
124.361
20
-90.6393
11
124.218
21
-91.2107
0
LINE
8
BLACK
6
CONTINUOUS
10
124.218
20
-91.2107
11
124.075
21
-91.4964
0
LINE
8
BLACK
6
CONTINUOUS
10
124.075
20
-91.4964
11
123.932
21
-91.6393
0
LINE
8
BLACK
6
CONTINUOUS
10
123.932
20
-91.6393
11
123.646
21
-91.7821
0
LINE
8
BLACK
6
CONTINUOUS
10
123.646
20
-91.7821
11
123.361
21
-91.7821
0
LINE
8
BLACK
6
CONTINUOUS
10
123.361
20
-91.7821
11
123.075
21
-91.6393
0
LINE
8
BLACK
6
CONTINUOUS
10
123.075
20
-91.6393
11
122.932
21
-91.4964
0
LINE
8
BLACK
6
CONTINUOUS
10
122.932
20
-91.4964
11
122.789
21
-91.2107
0
LINE
8
BLACK
6
CONTINUOUS
10
122.789
20
-91.2107
11
122.646
21
-90.6393
0
LINE
8
BLACK
6
CONTINUOUS
10
122.646
20
-90.6393
11
122.646
21
-89.925
0
LINE
8
BLACK
6
CONTINUOUS
10
122.646
20
-89.925
11
122.789
21
-89.3536
0
LINE
8
BLACK
6
CONTINUOUS
10
122.789
20
-89.3536
11
122.932
21
-89.0679
0
LINE
8
BLACK
6
CONTINUOUS
10
122.932
20
-89.0679
11
123.075
21
-88.925
0
LINE
8
BLACK
6
CONTINUOUS
10
123.075
20
-88.925
11
123.361
21
-88.7821
0
LINE
8
BLACK
6
CONTINUOUS
10
127.218
20
-91.7821
11
125.504
21
-91.7821
0
LINE
8
BLACK
6
CONTINUOUS
10
126.361
20
-91.7821
11
126.361
21
-88.7821
0
LINE
8
BLACK
6
CONTINUOUS
10
126.361
20
-88.7821
11
126.075
21
-89.2107
0
LINE
8
BLACK
6
CONTINUOUS
10
126.075
20
-89.2107
11
125.789
21
-89.4964
0
LINE
8
BLACK
6
CONTINUOUS
10
125.789
20
-89.4964
11
125.504
21
-89.6393
0
LINE
8
BLACK
6
CONTINUOUS
10
129.075
20
-88.7821
11
129.361
21
-88.7821
0
LINE
8
BLACK
6
CONTINUOUS
10
129.361
20
-88.7821
11
129.646
21
-88.925
0
LINE
8
BLACK
6
CONTINUOUS
10
129.646
20
-88.925
11
129.789
21
-89.0679
0
LINE
8
BLACK
6
CONTINUOUS
10
129.789
20
-89.0679
11
129.932
21
-89.3536
0
LINE
8
BLACK
6
CONTINUOUS
10
129.932
20
-89.3536
11
130.075
21
-89.925
0
LINE
8
BLACK
6
CONTINUOUS
10
130.075
20
-89.925
11
130.075
21
-90.6393
0
LINE
8
BLACK
6
CONTINUOUS
10
130.075
20
-90.6393
11
129.932
21
-91.2107
0
LINE
8
BLACK
6
CONTINUOUS
10
129.932
20
-91.2107
11
129.789
21
-91.4964
0
LINE
8
BLACK
6
CONTINUOUS
10
129.789
20
-91.4964
11
129.646
21
-91.6393
0
LINE
8
BLACK
6
CONTINUOUS
10
129.646
20
-91.6393
11
129.361
21
-91.7821
0
LINE
8
BLACK
6
CONTINUOUS
10
129.361
20
-91.7821
11
129.075
21
-91.7821
0
LINE
8
BLACK
6
CONTINUOUS
10
129.075
20
-91.7821
11
128.789
21
-91.6393
0
LINE
8
BLACK
6
CONTINUOUS
10
128.789
20
-91.6393
11
128.646
21
-91.4964
0
LINE
8
BLACK
6
CONTINUOUS
10
128.646
20
-91.4964
11
128.504
21
-91.2107
0
LINE
8
BLACK
6
CONTINUOUS
10
128.504
20
-91.2107
11
128.361
21
-90.6393
0
LINE
8
BLACK
6
CONTINUOUS
10
128.361
20
-90.6393
11
128.361
21
-89.925
0
LINE
8
BLACK
6
CONTINUOUS
10
128.361
20
-89.925
11
128.504
21
-89.3536
0
LINE
8
BLACK
6
CONTINUOUS
10
128.504
20
-89.3536
11
128.646
21
-89.0679
0
LINE
8
BLACK
6
CONTINUOUS
10
128.646
20
-89.0679
11
128.789
21
-88.925
0
LINE
8
BLACK
6
CONTINUOUS
10
128.789
20
-88.925
11
129.075
21
-88.7821
0
LINE
8
BLACK
6
CONTINUOUS
10
131.218
20
-88.7821
11
131.218
21
-89.3536
0
LINE
8
BLACK
6
CONTINUOUS
10
132.361
20
-88.7821
11
132.361
21
-89.3536
0
LINE
8
BLACK
6
CONTINUOUS
10
136.789
20
-92.925
11
136.646
21
-92.7821
0
LINE
8
BLACK
6
CONTINUOUS
10
136.646
20
-92.7821
11
136.361
21
-92.3536
0
LINE
8
BLACK
6
CONTINUOUS
10
136.361
20
-92.3536
11
136.218
21
-92.0679
0
LINE
8
BLACK
6
CONTINUOUS
10
136.218
20
-92.0679
11
136.075
21
-91.6393
0
LINE
8
BLACK
6
CONTINUOUS
10
136.075
20
-91.6393
11
135.932
21
-90.925
0
LINE
8
BLACK
6
CONTINUOUS
10
135.932
20
-90.925
11
135.932
21
-90.3536
0
LINE
8
BLACK
6
CONTINUOUS
10
135.932
20
-90.3536
11
136.075
21
-89.6393
0
LINE
8
BLACK
6
CONTINUOUS
10
136.075
20
-89.6393
11
136.218
21
-89.2107
0
LINE
8
BLACK
6
CONTINUOUS
10
136.218
20
-89.2107
11
136.361
21
-88.925
0
LINE
8
BLACK
6
CONTINUOUS
10
136.361
20
-88.925
11
136.646
21
-88.4964
0
LINE
8
BLACK
6
CONTINUOUS
10
136.646
20
-88.4964
11
136.789
21
-88.3536
0
LINE
8
BLACK
6
CONTINUOUS
10
139.218
20
-88.7821
11
138.646
21
-88.7821
0
LINE
8
BLACK
6
CONTINUOUS
10
138.646
20
-88.7821
11
138.361
21
-88.925
0
LINE
8
BLACK
6
CONTINUOUS
10
138.361
20
-88.925
11
138.218
21
-89.0679
0
LINE
8
BLACK
6
CONTINUOUS
10
138.218
20
-89.0679
11
137.932
21
-89.4964
0
LINE
8
BLACK
6
CONTINUOUS
10
137.932
20
-89.4964
11
137.789
21
-90.0679
0
LINE
8
BLACK
6
CONTINUOUS
10
137.789
20
-90.0679
11
137.789
21
-91.2107
0
LINE
8
BLACK
6
CONTINUOUS
10
137.789
20
-91.2107
11
137.932
21
-91.4964
0
LINE
8
BLACK
6
CONTINUOUS
10
137.932
20
-91.4964
11
138.075
21
-91.6393
0
LINE
8
BLACK
6
CONTINUOUS
10
138.075
20
-91.6393
11
138.361
21
-91.7821
0
LINE
8
BLACK
6
CONTINUOUS
10
138.361
20
-91.7821
11
138.932
21
-91.7821
0
LINE
8
BLACK
6
CONTINUOUS
10
138.932
20
-91.7821
11
139.218
21
-91.6393
0
LINE
8
BLACK
6
CONTINUOUS
10
139.218
20
-91.6393
11
139.361
21
-91.4964
0
LINE
8
BLACK
6
CONTINUOUS
10
139.361
20
-91.4964
11
139.504
21
-91.2107
0
LINE
8
BLACK
6
CONTINUOUS
10
139.504
20
-91.2107
11
139.504
21
-90.4964
0
LINE
8
BLACK
6
CONTINUOUS
10
139.504
20
-90.4964
11
139.361
21
-90.2107
0
LINE
8
BLACK
6
CONTINUOUS
10
139.361
20
-90.2107
11
139.218
21
-90.0679
0
LINE
8
BLACK
6
CONTINUOUS
10
139.218
20
-90.0679
11
138.932
21
-89.925
0
LINE
8
BLACK
6
CONTINUOUS
10
138.932
20
-89.925
11
138.361
21
-89.925
0
LINE
8
BLACK
6
CONTINUOUS
10
138.361
20
-89.925
11
138.075
21
-90.0679
0
LINE
8
BLACK
6
CONTINUOUS
10
138.075
20
-90.0679
11
137.932
21
-90.2107
0
LINE
8
BLACK
6
CONTINUOUS
10
137.932
20
-90.2107
11
137.789
21
-90.4964
0
LINE
8
BLACK
6
CONTINUOUS
10
143.075
20
-91.7821
11
143.075
21
-88.7821
0
LINE
8
BLACK
6
CONTINUOUS
10
144.361
20
-91.7821
11
144.361
21
-90.2107
0
LINE
8
BLACK
6
CONTINUOUS
10
144.361
20
-90.2107
11
144.218
21
-89.925
0
LINE
8
BLACK
6
CONTINUOUS
10
144.218
20
-89.925
11
143.932
21
-89.7821
0
LINE
8
BLACK
6
CONTINUOUS
10
143.932
20
-89.7821
11
143.504
21
-89.7821
0
LINE
8
BLACK
6
CONTINUOUS
10
143.504
20
-89.7821
11
143.218
21
-89.925
0
LINE
8
BLACK
6
CONTINUOUS
10
143.218
20
-89.925
11
143.075
21
-90.0679
0
LINE
8
BLACK
6
CONTINUOUS
10
146.218
20
-91.7821
11
145.932
21
-91.6393
0
LINE
8
BLACK
6
CONTINUOUS
10
145.932
20
-91.6393
11
145.789
21
-91.4964
0
LINE
8
BLACK
6
CONTINUOUS
10
145.789
20
-91.4964
11
145.646
21
-91.2107
0
LINE
8
BLACK
6
CONTINUOUS
10
145.646
20
-91.2107
11
145.646
21
-90.3536
0
LINE
8
BLACK
6
CONTINUOUS
10
145.646
20
-90.3536
11
145.789
21
-90.0679
0
LINE
8
BLACK
6
CONTINUOUS
10
145.789
20
-90.0679
11
145.932
21
-89.925
0
LINE
8
BLACK
6
CONTINUOUS
10
145.932
20
-89.925
11
146.218
21
-89.7821
0
LINE
8
BLACK
6
CONTINUOUS
10
146.218
20
-89.7821
11
146.646
21
-89.7821
0
LINE
8
BLACK
6
CONTINUOUS
10
146.646
20
-89.7821
11
146.932
21
-89.925
0
LINE
8
BLACK
6
CONTINUOUS
10
146.932
20
-89.925
11
147.075
21
-90.0679
0
LINE
8
BLACK
6
CONTINUOUS
10
147.075
20
-90.0679
11
147.218
21
-90.3536
0
LINE
8
BLACK
6
CONTINUOUS
10
147.218
20
-90.3536
11
147.218
21
-91.2107
0
LINE
8
BLACK
6
CONTINUOUS
10
147.218
20
-91.2107
11
147.075
21
-91.4964
0
LINE
8
BLACK
6
CONTINUOUS
10
147.075
20
-91.4964
11
146.932
21
-91.6393
0
LINE
8
BLACK
6
CONTINUOUS
10
146.932
20
-91.6393
11
146.646
21
-91.7821
0
LINE
8
BLACK
6
CONTINUOUS
10
146.646
20
-91.7821
11
146.218
21
-91.7821
0
LINE
8
BLACK
6
CONTINUOUS
10
148.932
20
-91.7821
11
148.646
21
-91.6393
0
LINE
8
BLACK
6
CONTINUOUS
10
148.646
20
-91.6393
11
148.504
21
-91.3536
0
LINE
8
BLACK
6
CONTINUOUS
10
148.504
20
-91.3536
11
148.504
21
-88.7821
0
LINE
8
BLACK
6
CONTINUOUS
10
151.218
20
-91.6393
11
150.932
21
-91.7821
0
LINE
8
BLACK
6
CONTINUOUS
10
150.932
20
-91.7821
11
150.361
21
-91.7821
0
LINE
8
BLACK
6
CONTINUOUS
10
150.361
20
-91.7821
11
150.075
21
-91.6393
0
LINE
8
BLACK
6
CONTINUOUS
10
150.075
20
-91.6393
11
149.932
21
-91.3536
0
LINE
8
BLACK
6
CONTINUOUS
10
149.932
20
-91.3536
11
149.932
21
-90.2107
0
LINE
8
BLACK
6
CONTINUOUS
10
149.932
20
-90.2107
11
150.075
21
-89.925
0
LINE
8
BLACK
6
CONTINUOUS
10
150.075
20
-89.925
11
150.361
21
-89.7821
0
LINE
8
BLACK
6
CONTINUOUS
10
150.361
20
-89.7821
11
150.932
21
-89.7821
0
LINE
8
BLACK
6
CONTINUOUS
10
150.932
20
-89.7821
11
151.218
21
-89.925
0
LINE
8
BLACK
6
CONTINUOUS
10
151.218
20
-89.925
11
151.361
21
-90.2107
0
LINE
8
BLACK
6
CONTINUOUS
10
151.361
20
-90.2107
11
151.361
21
-90.4964
0
LINE
8
BLACK
6
CONTINUOUS
10
151.361
20
-90.4964
11
149.932
21
-90.7821
0
LINE
8
BLACK
6
CONTINUOUS
10
152.504
20
-91.6393
11
152.789
21
-91.7821
0
LINE
8
BLACK
6
CONTINUOUS
10
152.789
20
-91.7821
11
153.361
21
-91.7821
0
LINE
8
BLACK
6
CONTINUOUS
10
153.361
20
-91.7821
11
153.646
21
-91.6393
0
LINE
8
BLACK
6
CONTINUOUS
10
153.646
20
-91.6393
11
153.789
21
-91.3536
0
LINE
8
BLACK
6
CONTINUOUS
10
153.789
20
-91.3536
11
153.789
21
-91.2107
0
LINE
8
BLACK
6
CONTINUOUS
10
153.789
20
-91.2107
11
153.646
21
-90.925
0
LINE
8
BLACK
6
CONTINUOUS
10
153.646
20
-90.925
11
153.361
21
-90.7821
0
LINE
8
BLACK
6
CONTINUOUS
10
153.361
20
-90.7821
11
152.932
21
-90.7821
0
LINE
8
BLACK
6
CONTINUOUS
10
152.932
20
-90.7821
11
152.646
21
-90.6393
0
LINE
8
BLACK
6
CONTINUOUS
10
152.646
20
-90.6393
11
152.504
21
-90.3536
0
LINE
8
BLACK
6
CONTINUOUS
10
152.504
20
-90.3536
11
152.504
21
-90.2107
0
LINE
8
BLACK
6
CONTINUOUS
10
152.504
20
-90.2107
11
152.646
21
-89.925
0
LINE
8
BLACK
6
CONTINUOUS
10
152.646
20
-89.925
11
152.932
21
-89.7821
0
LINE
8
BLACK
6
CONTINUOUS
10
152.932
20
-89.7821
11
153.361
21
-89.7821
0
LINE
8
BLACK
6
CONTINUOUS
10
153.361
20
-89.7821
11
153.646
21
-89.925
0
LINE
8
BLACK
6
CONTINUOUS
10
154.789
20
-92.925
11
154.932
21
-92.7821
0
LINE
8
BLACK
6
CONTINUOUS
10
154.932
20
-92.7821
11
155.218
21
-92.3536
0
LINE
8
BLACK
6
CONTINUOUS
10
155.218
20
-92.3536
11
155.361
21
-92.0679
0
LINE
8
BLACK
6
CONTINUOUS
10
155.361
20
-92.0679
11
155.504
21
-91.6393
0
LINE
8
BLACK
6
CONTINUOUS
10
155.504
20
-91.6393
11
155.646
21
-90.925
0
LINE
8
BLACK
6
CONTINUOUS
10
155.646
20
-90.925
11
155.646
21
-90.3536
0
LINE
8
BLACK
6
CONTINUOUS
10
155.646
20
-90.3536
11
155.504
21
-89.6393
0
LINE
8
BLACK
6
CONTINUOUS
10
155.504
20
-89.6393
11
155.361
21
-89.2107
0
LINE
8
BLACK
6
CONTINUOUS
10
155.361
20
-89.2107
11
155.218
21
-88.925
0
LINE
8
BLACK
6
CONTINUOUS
10
155.218
20
-88.925
11
154.932
21
-88.4964
0
LINE
8
BLACK
6
CONTINUOUS
10
154.932
20
-88.4964
11
154.789
21
-88.3536
0
CIRCLE
8
BLACK
10
89.775
20
-94.385
40
0.15
0
LINE
8
BLACK
6
CONTINUOUS
10
93.3607
20
-92.7421
11
93.6464
21
-92.7421
0
LINE
8
BLACK
6
CONTINUOUS
10
93.6464
20
-92.7421
11
93.9321
21
-92.885
0
LINE
8
BLACK
6
CONTINUOUS
10
93.9321
20
-92.885
11
94.075
21
-93.0279
0
LINE
8
BLACK
6
CONTINUOUS
10
94.075
20
-93.0279
11
94.2179
21
-93.3136
0
LINE
8
BLACK
6
CONTINUOUS
10
94.2179
20
-93.3136
11
94.3607
21
-93.885
0
LINE
8
BLACK
6
CONTINUOUS
10
94.3607
20
-93.885
11
94.3607
21
-94.5993
0
LINE
8
BLACK
6
CONTINUOUS
10
94.3607
20
-94.5993
11
94.2179
21
-95.1707
0
LINE
8
BLACK
6
CONTINUOUS
10
94.2179
20
-95.1707
11
94.075
21
-95.4564
0
LINE
8
BLACK
6
CONTINUOUS
10
94.075
20
-95.4564
11
93.9321
21
-95.5993
0
LINE
8
BLACK
6
CONTINUOUS
10
93.9321
20
-95.5993
11
93.6464
21
-95.7421
0
LINE
8
BLACK
6
CONTINUOUS
10
93.6464
20
-95.7421
11
93.3607
21
-95.7421
0
LINE
8
BLACK
6
CONTINUOUS
10
93.3607
20
-95.7421
11
93.075
21
-95.5993
0
LINE
8
BLACK
6
CONTINUOUS
10
93.075
20
-95.5993
11
92.9321
21
-95.4564
0
LINE
8
BLACK
6
CONTINUOUS
10
92.9321
20
-95.4564
11
92.7893
21
-95.1707
0
LINE
8
BLACK
6
CONTINUOUS
10
92.7893
20
-95.1707
11
92.6464
21
-94.5993
0
LINE
8
BLACK
6
CONTINUOUS
10
92.6464
20
-94.5993
11
92.6464
21
-93.885
0
LINE
8
BLACK
6
CONTINUOUS
10
92.6464
20
-93.885
11
92.7893
21
-93.3136
0
LINE
8
BLACK
6
CONTINUOUS
10
92.7893
20
-93.3136
11
92.9321
21
-93.0279
0
LINE
8
BLACK
6
CONTINUOUS
10
92.9321
20
-93.0279
11
93.075
21
-92.885
0
LINE
8
BLACK
6
CONTINUOUS
10
93.075
20
-92.885
11
93.3607
21
-92.7421
0
LINE
8
BLACK
6
CONTINUOUS
10
95.6464
20
-95.4564
11
95.7893
21
-95.5993
0
LINE
8
BLACK
6
CONTINUOUS
10
95.7893
20
-95.5993
11
95.6464
21
-95.7421
0
LINE
8
BLACK
6
CONTINUOUS
10
95.6464
20
-95.7421
11
95.5036
21
-95.5993
0
LINE
8
BLACK
6
CONTINUOUS
10
95.5036
20
-95.5993
11
95.6464
21
-95.4564
0
LINE
8
BLACK
6
CONTINUOUS
10
95.6464
20
-95.4564
11
95.6464
21
-95.7421
0
LINE
8
BLACK
6
CONTINUOUS
10
96.7893
20
-92.7421
11
98.6464
21
-92.7421
0
LINE
8
BLACK
6
CONTINUOUS
10
98.6464
20
-92.7421
11
97.6464
21
-93.885
0
LINE
8
BLACK
6
CONTINUOUS
10
97.6464
20
-93.885
11
98.075
21
-93.885
0
LINE
8
BLACK
6
CONTINUOUS
10
98.075
20
-93.885
11
98.3607
21
-94.0279
0
LINE
8
BLACK
6
CONTINUOUS
10
98.3607
20
-94.0279
11
98.5036
21
-94.1707
0
LINE
8
BLACK
6
CONTINUOUS
10
98.5036
20
-94.1707
11
98.6464
21
-94.4564
0
LINE
8
BLACK
6
CONTINUOUS
10
98.6464
20
-94.4564
11
98.6464
21
-95.1707
0
LINE
8
BLACK
6
CONTINUOUS
10
98.6464
20
-95.1707
11
98.5036
21
-95.4564
0
LINE
8
BLACK
6
CONTINUOUS
10
98.5036
20
-95.4564
11
98.3607
21
-95.5993
0
LINE
8
BLACK
6
CONTINUOUS
10
98.3607
20
-95.5993
11
98.075
21
-95.7421
0
LINE
8
BLACK
6
CONTINUOUS
10
98.075
20
-95.7421
11
97.2179
21
-95.7421
0
LINE
8
BLACK
6
CONTINUOUS
10
97.2179
20
-95.7421
11
96.9321
21
-95.5993
0
LINE
8
BLACK
6
CONTINUOUS
10
96.9321
20
-95.5993
11
96.7893
21
-95.4564
0
LINE
8
BLACK
6
CONTINUOUS
10
100.504
20
-92.7421
11
100.789
21
-92.7421
0
LINE
8
BLACK
6
CONTINUOUS
10
100.789
20
-92.7421
11
101.075
21
-92.885
0
LINE
8
BLACK
6
CONTINUOUS
10
101.075
20
-92.885
11
101.218
21
-93.0279
0
LINE
8
BLACK
6
CONTINUOUS
10
101.218
20
-93.0279
11
101.361
21
-93.3136
0
LINE
8
BLACK
6
CONTINUOUS
10
101.361
20
-93.3136
11
101.504
21
-93.885
0
LINE
8
BLACK
6
CONTINUOUS
10
101.504
20
-93.885
11
101.504
21
-94.5993
0
LINE
8
BLACK
6
CONTINUOUS
10
101.504
20
-94.5993
11
101.361
21
-95.1707
0
LINE
8
BLACK
6
CONTINUOUS
10
101.361
20
-95.1707
11
101.218
21
-95.4564
0
LINE
8
BLACK
6
CONTINUOUS
10
101.218
20
-95.4564
11
101.075
21
-95.5993
0
LINE
8
BLACK
6
CONTINUOUS
10
101.075
20
-95.5993
11
100.789
21
-95.7421
0
LINE
8
BLACK
6
CONTINUOUS
10
100.789
20
-95.7421
11
100.504
21
-95.7421
0
LINE
8
BLACK
6
CONTINUOUS
10
100.504
20
-95.7421
11
100.218
21
-95.5993
0
LINE
8
BLACK
6
CONTINUOUS
10
100.218
20
-95.5993
11
100.075
21
-95.4564
0
LINE
8
BLACK
6
CONTINUOUS
10
100.075
20
-95.4564
11
99.9321
21
-95.1707
0
LINE
8
BLACK
6
CONTINUOUS
10
99.9321
20
-95.1707
11
99.7893
21
-94.5993
0
LINE
8
BLACK
6
CONTINUOUS
10
99.7893
20
-94.5993
11
99.7893
21
-93.885
0
LINE
8
BLACK
6
CONTINUOUS
10
99.7893
20
-93.885
11
99.9321
21
-93.3136
0
LINE
8
BLACK
6
CONTINUOUS
10
99.9321
20
-93.3136
11
100.075
21
-93.0279
0
LINE
8
BLACK
6
CONTINUOUS
10
100.075
20
-93.0279
11
100.218
21
-92.885
0
LINE
8
BLACK
6
CONTINUOUS
10
100.218
20
-92.885
11
100.504
21
-92.7421
0
LINE
8
BLACK
6
CONTINUOUS
10
102.789
20
-95.7421
11
102.789
21
-93.7421
0
LINE
8
BLACK
6
CONTINUOUS
10
102.789
20
-94.0279
11
102.932
21
-93.885
0
LINE
8
BLACK
6
CONTINUOUS
10
102.932
20
-93.885
11
103.218
21
-93.7421
0
LINE
8
BLACK
6
CONTINUOUS
10
103.218
20
-93.7421
11
103.646
21
-93.7421
0
LINE
8
BLACK
6
CONTINUOUS
10
103.646
20
-93.7421
11
103.932
21
-93.885
0
LINE
8
BLACK
6
CONTINUOUS
10
103.932
20
-93.885
11
104.075
21
-94.1707
0
LINE
8
BLACK
6
CONTINUOUS
10
104.075
20
-94.1707
11
104.075
21
-95.7421
0
LINE
8
BLACK
6
CONTINUOUS
10
104.075
20
-94.1707
11
104.218
21
-93.885
0
LINE
8
BLACK
6
CONTINUOUS
10
104.218
20
-93.885
11
104.504
21
-93.7421
0
LINE
8
BLACK
6
CONTINUOUS
10
104.504
20
-93.7421
11
104.932
21
-93.7421
0
LINE
8
BLACK
6
CONTINUOUS
10
104.932
20
-93.7421
11
105.218
21
-93.885
0
LINE
8
BLACK
6
CONTINUOUS
10
105.218
20
-93.885
11
105.361
21
-94.1707
0
LINE
8
BLACK
6
CONTINUOUS
10
105.361
20
-94.1707
11
105.361
21
-95.7421
0
LINE
8
BLACK
6
CONTINUOUS
10
106.789
20
-95.7421
11
106.789
21
-93.7421
0
LINE
8
BLACK
6
CONTINUOUS
10
106.789
20
-94.0279
11
106.932
21
-93.885
0
LINE
8
BLACK
6
CONTINUOUS
10
106.932
20
-93.885
11
107.218
21
-93.7421
0
LINE
8
BLACK
6
CONTINUOUS
10
107.218
20
-93.7421
11
107.646
21
-93.7421
0
LINE
8
BLACK
6
CONTINUOUS
10
107.646
20
-93.7421
11
107.932
21
-93.885
0
LINE
8
BLACK
6
CONTINUOUS
10
107.932
20
-93.885
11
108.075
21
-94.1707
0
LINE
8
BLACK
6
CONTINUOUS
10
108.075
20
-94.1707
11
108.075
21
-95.7421
0
LINE
8
BLACK
6
CONTINUOUS
10
108.075
20
-94.1707
11
108.218
21
-93.885
0
LINE
8
BLACK
6
CONTINUOUS
10
108.218
20
-93.885
11
108.504
21
-93.7421
0
LINE
8
BLACK
6
CONTINUOUS
10
108.504
20
-93.7421
11
108.932
21
-93.7421
0
LINE
8
BLACK
6
CONTINUOUS
10
108.932
20
-93.7421
11
109.218
21
-93.885
0
LINE
8
BLACK
6
CONTINUOUS
10
109.218
20
-93.885
11
109.361
21
-94.1707
0
LINE
8
BLACK
6
CONTINUOUS
10
109.361
20
-94.1707
11
109.361
21
-95.7421
0
LINE
8
BLACK
6
CONTINUOUS
10
115.218
20
-92.5993
11
112.646
21
-96.4564
0
LINE
8
BLACK
6
CONTINUOUS
10
119.075
20
-92.7421
11
119.361
21
-92.7421
0
LINE
8
BLACK
6
CONTINUOUS
10
119.361
20
-92.7421
11
119.646
21
-92.885
0
LINE
8
BLACK
6
CONTINUOUS
10
119.646
20
-92.885
11
119.789
21
-93.0279
0
LINE
8
BLACK
6
CONTINUOUS
10
119.789
20
-93.0279
11
119.932
21
-93.3136
0
LINE
8
BLACK
6
CONTINUOUS
10
119.932
20
-93.3136
11
120.075
21
-93.885
0
LINE
8
BLACK
6
CONTINUOUS
10
120.075
20
-93.885
11
120.075
21
-94.5993
0
LINE
8
BLACK
6
CONTINUOUS
10
120.075
20
-94.5993
11
119.932
21
-95.1707
0
LINE
8
BLACK
6
CONTINUOUS
10
119.932
20
-95.1707
11
119.789
21
-95.4564
0
LINE
8
BLACK
6
CONTINUOUS
10
119.789
20
-95.4564
11
119.646
21
-95.5993
0
LINE
8
BLACK
6
CONTINUOUS
10
119.646
20
-95.5993
11
119.361
21
-95.7421
0
LINE
8
BLACK
6
CONTINUOUS
10
119.361
20
-95.7421
11
119.075
21
-95.7421
0
LINE
8
BLACK
6
CONTINUOUS
10
119.075
20
-95.7421
11
118.789
21
-95.5993
0
LINE
8
BLACK
6
CONTINUOUS
10
118.789
20
-95.5993
11
118.646
21
-95.4564
0
LINE
8
BLACK
6
CONTINUOUS
10
118.646
20
-95.4564
11
118.504
21
-95.1707
0
LINE
8
BLACK
6
CONTINUOUS
10
118.504
20
-95.1707
11
118.361
21
-94.5993
0
LINE
8
BLACK
6
CONTINUOUS
10
118.361
20
-94.5993
11
118.361
21
-93.885
0
LINE
8
BLACK
6
CONTINUOUS
10
118.361
20
-93.885
11
118.504
21
-93.3136
0
LINE
8
BLACK
6
CONTINUOUS
10
118.504
20
-93.3136
11
118.646
21
-93.0279
0
LINE
8
BLACK
6
CONTINUOUS
10
118.646
20
-93.0279
11
118.789
21
-92.885
0
LINE
8
BLACK
6
CONTINUOUS
10
118.789
20
-92.885
11
119.075
21
-92.7421
0
LINE
8
BLACK
6
CONTINUOUS
10
121.361
20
-95.4564
11
121.504
21
-95.5993
0
LINE
8
BLACK
6
CONTINUOUS
10
121.504
20
-95.5993
11
121.361
21
-95.7421
0
LINE
8
BLACK
6
CONTINUOUS
10
121.361
20
-95.7421
11
121.218
21
-95.5993
0
LINE
8
BLACK
6
CONTINUOUS
10
121.218
20
-95.5993
11
121.361
21
-95.4564
0
LINE
8
BLACK
6
CONTINUOUS
10
121.361
20
-95.4564
11
121.361
21
-95.7421
0
LINE
8
BLACK
6
CONTINUOUS
10
123.361
20
-92.7421
11
123.646
21
-92.7421
0
LINE
8
BLACK
6
CONTINUOUS
10
123.646
20
-92.7421
11
123.932
21
-92.885
0
LINE
8
BLACK
6
CONTINUOUS
10
123.932
20
-92.885
11
124.075
21
-93.0279
0
LINE
8
BLACK
6
CONTINUOUS
10
124.075
20
-93.0279
11
124.218
21
-93.3136
0
LINE
8
BLACK
6
CONTINUOUS
10
124.218
20
-93.3136
11
124.361
21
-93.885
0
LINE
8
BLACK
6
CONTINUOUS
10
124.361
20
-93.885
11
124.361
21
-94.5993
0
LINE
8
BLACK
6
CONTINUOUS
10
124.361
20
-94.5993
11
124.218
21
-95.1707
0
LINE
8
BLACK
6
CONTINUOUS
10
124.218
20
-95.1707
11
124.075
21
-95.4564
0
LINE
8
BLACK
6
CONTINUOUS
10
124.075
20
-95.4564
11
123.932
21
-95.5993
0
LINE
8
BLACK
6
CONTINUOUS
10
123.932
20
-95.5993
11
123.646
21
-95.7421
0
LINE
8
BLACK
6
CONTINUOUS
10
123.646
20
-95.7421
11
123.361
21
-95.7421
0
LINE
8
BLACK
6
CONTINUOUS
10
123.361
20
-95.7421
11
123.075
21
-95.5993
0
LINE
8
BLACK
6
CONTINUOUS
10
123.075
20
-95.5993
11
122.932
21
-95.4564
0
LINE
8
BLACK
6
CONTINUOUS
10
122.932
20
-95.4564
11
122.789
21
-95.1707
0
LINE
8
BLACK
6
CONTINUOUS
10
122.789
20
-95.1707
11
122.646
21
-94.5993
0
LINE
8
BLACK
6
CONTINUOUS
10
122.646
20
-94.5993
11
122.646
21
-93.885
0
LINE
8
BLACK
6
CONTINUOUS
10
122.646
20
-93.885
11
122.789
21
-93.3136
0
LINE
8
BLACK
6
CONTINUOUS
10
122.789
20
-93.3136
11
122.932
21
-93.0279
0
LINE
8
BLACK
6
CONTINUOUS
10
122.932
20
-93.0279
11
123.075
21
-92.885
0
LINE
8
BLACK
6
CONTINUOUS
10
123.075
20
-92.885
11
123.361
21
-92.7421
0
LINE
8
BLACK
6
CONTINUOUS
10
127.218
20
-95.7421
11
125.504
21
-95.7421
0
LINE
8
BLACK
6
CONTINUOUS
10
126.361
20
-95.7421
11
126.361
21
-92.7421
0
LINE
8
BLACK
6
CONTINUOUS
10
126.361
20
-92.7421
11
126.075
21
-93.1707
0
LINE
8
BLACK
6
CONTINUOUS
10
126.075
20
-93.1707
11
125.789
21
-93.4564
0
LINE
8
BLACK
6
CONTINUOUS
10
125.789
20
-93.4564
11
125.504
21
-93.5993
0
LINE
8
BLACK
6
CONTINUOUS
10
128.361
20
-93.0279
11
128.504
21
-92.885
0
LINE
8
BLACK
6
CONTINUOUS
10
128.504
20
-92.885
11
128.789
21
-92.7421
0
LINE
8
BLACK
6
CONTINUOUS
10
128.789
20
-92.7421
11
129.504
21
-92.7421
0
LINE
8
BLACK
6
CONTINUOUS
10
129.504
20
-92.7421
11
129.789
21
-92.885
0
LINE
8
BLACK
6
CONTINUOUS
10
129.789
20
-92.885
11
129.932
21
-93.0279
0
LINE
8
BLACK
6
CONTINUOUS
10
129.932
20
-93.0279
11
130.075
21
-93.3136
0
LINE
8
BLACK
6
CONTINUOUS
10
130.075
20
-93.3136
11
130.075
21
-93.5993
0
LINE
8
BLACK
6
CONTINUOUS
10
130.075
20
-93.5993
11
129.932
21
-94.0279
0
LINE
8
BLACK
6
CONTINUOUS
10
129.932
20
-94.0279
11
128.218
21
-95.7421
0
LINE
8
BLACK
6
CONTINUOUS
10
128.218
20
-95.7421
11
130.075
21
-95.7421
0
LINE
8
BLACK
6
CONTINUOUS
10
131.218
20
-92.7421
11
131.218
21
-93.3136
0
LINE
8
BLACK
6
CONTINUOUS
10
132.361
20
-92.7421
11
132.361
21
-93.3136
0
LINE
8
BLACK
6
CONTINUOUS
10
136.789
20
-96.885
11
136.646
21
-96.7421
0
LINE
8
BLACK
6
CONTINUOUS
10
136.646
20
-96.7421
11
136.361
21
-96.3136
0
LINE
8
BLACK
6
CONTINUOUS
10
136.361
20
-96.3136
11
136.218
21
-96.0279
0
LINE
8
BLACK
6
CONTINUOUS
10
136.218
20
-96.0279
11
136.075
21
-95.5993
0
LINE
8
BLACK
6
CONTINUOUS
10
136.075
20
-95.5993
11
135.932
21
-94.885
0
LINE
8
BLACK
6
CONTINUOUS
10
135.932
20
-94.885
11
135.932
21
-94.3136
0
LINE
8
BLACK
6
CONTINUOUS
10
135.932
20
-94.3136
11
136.075
21
-93.5993
0
LINE
8
BLACK
6
CONTINUOUS
10
136.075
20
-93.5993
11
136.218
21
-93.1707
0
LINE
8
BLACK
6
CONTINUOUS
10
136.218
20
-93.1707
11
136.361
21
-92.885
0
LINE
8
BLACK
6
CONTINUOUS
10
136.361
20
-92.885
11
136.646
21
-92.4564
0
LINE
8
BLACK
6
CONTINUOUS
10
136.646
20
-92.4564
11
136.789
21
-92.3136
0
LINE
8
BLACK
6
CONTINUOUS
10
139.504
20
-95.7421
11
137.789
21
-95.7421
0
LINE
8
BLACK
6
CONTINUOUS
10
138.646
20
-95.7421
11
138.646
21
-92.7421
0
LINE
8
BLACK
6
CONTINUOUS
10
138.646
20
-92.7421
11
138.361
21
-93.1707
0
LINE
8
BLACK
6
CONTINUOUS
10
138.361
20
-93.1707
11
138.075
21
-93.4564
0
LINE
8
BLACK
6
CONTINUOUS
10
138.075
20
-93.4564
11
137.789
21
-93.5993
0
LINE
8
BLACK
6
CONTINUOUS
10
143.075
20
-95.7421
11
143.075
21
-92.7421
0
LINE
8
BLACK
6
CONTINUOUS
10
144.361
20
-95.7421
11
144.361
21
-94.1707
0
LINE
8
BLACK
6
CONTINUOUS
10
144.361
20
-94.1707
11
144.218
21
-93.885
0
LINE
8
BLACK
6
CONTINUOUS
10
144.218
20
-93.885
11
143.932
21
-93.7421
0
LINE
8
BLACK
6
CONTINUOUS
10
143.932
20
-93.7421
11
143.504
21
-93.7421
0
LINE
8
BLACK
6
CONTINUOUS
10
143.504
20
-93.7421
11
143.218
21
-93.885
0
LINE
8
BLACK
6
CONTINUOUS
10
143.218
20
-93.885
11
143.075
21
-94.0279
0
LINE
8
BLACK
6
CONTINUOUS
10
146.218
20
-95.7421
11
145.932
21
-95.5993
0
LINE
8
BLACK
6
CONTINUOUS
10
145.932
20
-95.5993
11
145.789
21
-95.4564
0
LINE
8
BLACK
6
CONTINUOUS
10
145.789
20
-95.4564
11
145.646
21
-95.1707
0
LINE
8
BLACK
6
CONTINUOUS
10
145.646
20
-95.1707
11
145.646
21
-94.3136
0
LINE
8
BLACK
6
CONTINUOUS
10
145.646
20
-94.3136
11
145.789
21
-94.0279
0
LINE
8
BLACK
6
CONTINUOUS
10
145.789
20
-94.0279
11
145.932
21
-93.885
0
LINE
8
BLACK
6
CONTINUOUS
10
145.932
20
-93.885
11
146.218
21
-93.7421
0
LINE
8
BLACK
6
CONTINUOUS
10
146.218
20
-93.7421
11
146.646
21
-93.7421
0
LINE
8
BLACK
6
CONTINUOUS
10
146.646
20
-93.7421
11
146.932
21
-93.885
0
LINE
8
BLACK
6
CONTINUOUS
10
146.932
20
-93.885
11
147.075
21
-94.0279
0
LINE
8
BLACK
6
CONTINUOUS
10
147.075
20
-94.0279
11
147.218
21
-94.3136
0
LINE
8
BLACK
6
CONTINUOUS
10
147.218
20
-94.3136
11
147.218
21
-95.1707
0
LINE
8
BLACK
6
CONTINUOUS
10
147.218
20
-95.1707
11
147.075
21
-95.4564
0
LINE
8
BLACK
6
CONTINUOUS
10
147.075
20
-95.4564
11
146.932
21
-95.5993
0
LINE
8
BLACK
6
CONTINUOUS
10
146.932
20
-95.5993
11
146.646
21
-95.7421
0
LINE
8
BLACK
6
CONTINUOUS
10
146.646
20
-95.7421
11
146.218
21
-95.7421
0
LINE
8
BLACK
6
CONTINUOUS
10
148.932
20
-95.7421
11
148.646
21
-95.5993
0
LINE
8
BLACK
6
CONTINUOUS
10
148.646
20
-95.5993
11
148.504
21
-95.3136
0
LINE
8
BLACK
6
CONTINUOUS
10
148.504
20
-95.3136
11
148.504
21
-92.7421
0
LINE
8
BLACK
6
CONTINUOUS
10
151.218
20
-95.5993
11
150.932
21
-95.7421
0
LINE
8
BLACK
6
CONTINUOUS
10
150.932
20
-95.7421
11
150.361
21
-95.7421
0
LINE
8
BLACK
6
CONTINUOUS
10
150.361
20
-95.7421
11
150.075
21
-95.5993
0
LINE
8
BLACK
6
CONTINUOUS
10
150.075
20
-95.5993
11
149.932
21
-95.3136
0
LINE
8
BLACK
6
CONTINUOUS
10
149.932
20
-95.3136
11
149.932
21
-94.1707
0
LINE
8
BLACK
6
CONTINUOUS
10
149.932
20
-94.1707
11
150.075
21
-93.885
0
LINE
8
BLACK
6
CONTINUOUS
10
150.075
20
-93.885
11
150.361
21
-93.7421
0
LINE
8
BLACK
6
CONTINUOUS
10
150.361
20
-93.7421
11
150.932
21
-93.7421
0
LINE
8
BLACK
6
CONTINUOUS
10
150.932
20
-93.7421
11
151.218
21
-93.885
0
LINE
8
BLACK
6
CONTINUOUS
10
151.218
20
-93.885
11
151.361
21
-94.1707
0
LINE
8
BLACK
6
CONTINUOUS
10
151.361
20
-94.1707
11
151.361
21
-94.4564
0
LINE
8
BLACK
6
CONTINUOUS
10
151.361
20
-94.4564
11
149.932
21
-94.7421
0
LINE
8
BLACK
6
CONTINUOUS
10
152.361
20
-96.885
11
152.504
21
-96.7421
0
LINE
8
BLACK
6
CONTINUOUS
10
152.504
20
-96.7421
11
152.789
21
-96.3136
0
LINE
8
BLACK
6
CONTINUOUS
10
152.789
20
-96.3136
11
152.932
21
-96.0279
0
LINE
8
BLACK
6
CONTINUOUS
10
152.932
20
-96.0279
11
153.075
21
-95.5993
0
LINE
8
BLACK
6
CONTINUOUS
10
153.075
20
-95.5993
11
153.218
21
-94.885
0
LINE
8
BLACK
6
CONTINUOUS
10
153.218
20
-94.885
11
153.218
21
-94.3136
0
LINE
8
BLACK
6
CONTINUOUS
10
153.218
20
-94.3136
11
153.075
21
-93.5993
0
LINE
8
BLACK
6
CONTINUOUS
10
153.075
20
-93.5993
11
152.932
21
-93.1707
0
LINE
8
BLACK
6
CONTINUOUS
10
152.932
20
-93.1707
11
152.789
21
-92.885
0
LINE
8
BLACK
6
CONTINUOUS
10
152.789
20
-92.885
11
152.504
21
-92.4564
0
LINE
8
BLACK
6
CONTINUOUS
10
152.504
20
-92.4564
11
152.361
21
-92.3136
0
LINE
8
BLACK
6
CONTINUOUS
10
89.725
20
-98.145
11
89.725
21
-98.545
0
LINE
8
BLACK
6
CONTINUOUS
10
89.525
20
-98.345
11
89.925
21
-98.345
0
LINE
8
BLACK
6
CONTINUOUS
10
93.3607
20
-96.7021
11
93.6464
21
-96.7021
0
LINE
8
BLACK
6
CONTINUOUS
10
93.6464
20
-96.7021
11
93.9321
21
-96.845
0
LINE
8
BLACK
6
CONTINUOUS
10
93.9321
20
-96.845
11
94.075
21
-96.9879
0
LINE
8
BLACK
6
CONTINUOUS
10
94.075
20
-96.9879
11
94.2179
21
-97.2736
0
LINE
8
BLACK
6
CONTINUOUS
10
94.2179
20
-97.2736
11
94.3607
21
-97.845
0
LINE
8
BLACK
6
CONTINUOUS
10
94.3607
20
-97.845
11
94.3607
21
-98.5593
0
LINE
8
BLACK
6
CONTINUOUS
10
94.3607
20
-98.5593
11
94.2179
21
-99.1307
0
LINE
8
BLACK
6
CONTINUOUS
10
94.2179
20
-99.1307
11
94.075
21
-99.4164
0
LINE
8
BLACK
6
CONTINUOUS
10
94.075
20
-99.4164
11
93.9321
21
-99.5593
0
LINE
8
BLACK
6
CONTINUOUS
10
93.9321
20
-99.5593
11
93.6464
21
-99.7021
0
LINE
8
BLACK
6
CONTINUOUS
10
93.6464
20
-99.7021
11
93.3607
21
-99.7021
0
LINE
8
BLACK
6
CONTINUOUS
10
93.3607
20
-99.7021
11
93.075
21
-99.5593
0
LINE
8
BLACK
6
CONTINUOUS
10
93.075
20
-99.5593
11
92.9321
21
-99.4164
0
LINE
8
BLACK
6
CONTINUOUS
10
92.9321
20
-99.4164
11
92.7893
21
-99.1307
0
LINE
8
BLACK
6
CONTINUOUS
10
92.7893
20
-99.1307
11
92.6464
21
-98.5593
0
LINE
8
BLACK
6
CONTINUOUS
10
92.6464
20
-98.5593
11
92.6464
21
-97.845
0
LINE
8
BLACK
6
CONTINUOUS
10
92.6464
20
-97.845
11
92.7893
21
-97.2736
0
LINE
8
BLACK
6
CONTINUOUS
10
92.7893
20
-97.2736
11
92.9321
21
-96.9879
0
LINE
8
BLACK
6
CONTINUOUS
10
92.9321
20
-96.9879
11
93.075
21
-96.845
0
LINE
8
BLACK
6
CONTINUOUS
10
93.075
20
-96.845
11
93.3607
21
-96.7021
0
LINE
8
BLACK
6
CONTINUOUS
10
95.6464
20
-99.4164
11
95.7893
21
-99.5593
0
LINE
8
BLACK
6
CONTINUOUS
10
95.7893
20
-99.5593
11
95.6464
21
-99.7021
0
LINE
8
BLACK
6
CONTINUOUS
10
95.6464
20
-99.7021
11
95.5036
21
-99.5593
0
LINE
8
BLACK
6
CONTINUOUS
10
95.5036
20
-99.5593
11
95.6464
21
-99.4164
0
LINE
8
BLACK
6
CONTINUOUS
10
95.6464
20
-99.4164
11
95.6464
21
-99.7021
0
LINE
8
BLACK
6
CONTINUOUS
10
98.3607
20
-97.7021
11
98.3607
21
-99.7021
0
LINE
8
BLACK
6
CONTINUOUS
10
97.6464
20
-96.5593
11
96.9321
21
-98.7021
0
LINE
8
BLACK
6
CONTINUOUS
10
96.9321
20
-98.7021
11
98.7893
21
-98.7021
0
LINE
8
BLACK
6
CONTINUOUS
10
100.504
20
-96.7021
11
100.789
21
-96.7021
0
LINE
8
BLACK
6
CONTINUOUS
10
100.789
20
-96.7021
11
101.075
21
-96.845
0
LINE
8
BLACK
6
CONTINUOUS
10
101.075
20
-96.845
11
101.218
21
-96.9879
0
LINE
8
BLACK
6
CONTINUOUS
10
101.218
20
-96.9879
11
101.361
21
-97.2736
0
LINE
8
BLACK
6
CONTINUOUS
10
101.361
20
-97.2736
11
101.504
21
-97.845
0
LINE
8
BLACK
6
CONTINUOUS
10
101.504
20
-97.845
11
101.504
21
-98.5593
0
LINE
8
BLACK
6
CONTINUOUS
10
101.504
20
-98.5593
11
101.361
21
-99.1307
0
LINE
8
BLACK
6
CONTINUOUS
10
101.361
20
-99.1307
11
101.218
21
-99.4164
0
LINE
8
BLACK
6
CONTINUOUS
10
101.218
20
-99.4164
11
101.075
21
-99.5593
0
LINE
8
BLACK
6
CONTINUOUS
10
101.075
20
-99.5593
11
100.789
21
-99.7021
0
LINE
8
BLACK
6
CONTINUOUS
10
100.789
20
-99.7021
11
100.504
21
-99.7021
0
LINE
8
BLACK
6
CONTINUOUS
10
100.504
20
-99.7021
11
100.218
21
-99.5593
0
LINE
8
BLACK
6
CONTINUOUS
10
100.218
20
-99.5593
11
100.075
21
-99.4164
0
LINE
8
BLACK
6
CONTINUOUS
10
100.075
20
-99.4164
11
99.9321
21
-99.1307
0
LINE
8
BLACK
6
CONTINUOUS
10
99.9321
20
-99.1307
11
99.7893
21
-98.5593
0
LINE
8
BLACK
6
CONTINUOUS
10
99.7893
20
-98.5593
11
99.7893
21
-97.845
0
LINE
8
BLACK
6
CONTINUOUS
10
99.7893
20
-97.845
11
99.9321
21
-97.2736
0
LINE
8
BLACK
6
CONTINUOUS
10
99.9321
20
-97.2736
11
100.075
21
-96.9879
0
LINE
8
BLACK
6
CONTINUOUS
10
100.075
20
-96.9879
11
100.218
21
-96.845
0
LINE
8
BLACK
6
CONTINUOUS
10
100.218
20
-96.845
11
100.504
21
-96.7021
0
LINE
8
BLACK
6
CONTINUOUS
10
102.789
20
-99.7021
11
102.789
21
-97.7021
0
LINE
8
BLACK
6
CONTINUOUS
10
102.789
20
-97.9879
11
102.932
21
-97.845
0
LINE
8
BLACK
6
CONTINUOUS
10
102.932
20
-97.845
11
103.218
21
-97.7021
0
LINE
8
BLACK
6
CONTINUOUS
10
103.218
20
-97.7021
11
103.646
21
-97.7021
0
LINE
8
BLACK
6
CONTINUOUS
10
103.646
20
-97.7021
11
103.932
21
-97.845
0
LINE
8
BLACK
6
CONTINUOUS
10
103.932
20
-97.845
11
104.075
21
-98.1307
0
LINE
8
BLACK
6
CONTINUOUS
10
104.075
20
-98.1307
11
104.075
21
-99.7021
0
LINE
8
BLACK
6
CONTINUOUS
10
104.075
20
-98.1307
11
104.218
21
-97.845
0
LINE
8
BLACK
6
CONTINUOUS
10
104.218
20
-97.845
11
104.504
21
-97.7021
0
LINE
8
BLACK
6
CONTINUOUS
10
104.504
20
-97.7021
11
104.932
21
-97.7021
0
LINE
8
BLACK
6
CONTINUOUS
10
104.932
20
-97.7021
11
105.218
21
-97.845
0
LINE
8
BLACK
6
CONTINUOUS
10
105.218
20
-97.845
11
105.361
21
-98.1307
0
LINE
8
BLACK
6
CONTINUOUS
10
105.361
20
-98.1307
11
105.361
21
-99.7021
0
LINE
8
BLACK
6
CONTINUOUS
10
106.789
20
-99.7021
11
106.789
21
-97.7021
0
LINE
8
BLACK
6
CONTINUOUS
10
106.789
20
-97.9879
11
106.932
21
-97.845
0
LINE
8
BLACK
6
CONTINUOUS
10
106.932
20
-97.845
11
107.218
21
-97.7021
0
LINE
8
BLACK
6
CONTINUOUS
10
107.218
20
-97.7021
11
107.646
21
-97.7021
0
LINE
8
BLACK
6
CONTINUOUS
10
107.646
20
-97.7021
11
107.932
21
-97.845
0
LINE
8
BLACK
6
CONTINUOUS
10
107.932
20
-97.845
11
108.075
21
-98.1307
0
LINE
8
BLACK
6
CONTINUOUS
10
108.075
20
-98.1307
11
108.075
21
-99.7021
0
LINE
8
BLACK
6
CONTINUOUS
10
108.075
20
-98.1307
11
108.218
21
-97.845
0
LINE
8
BLACK
6
CONTINUOUS
10
108.218
20
-97.845
11
108.504
21
-97.7021
0
LINE
8
BLACK
6
CONTINUOUS
10
108.504
20
-97.7021
11
108.932
21
-97.7021
0
LINE
8
BLACK
6
CONTINUOUS
10
108.932
20
-97.7021
11
109.218
21
-97.845
0
LINE
8
BLACK
6
CONTINUOUS
10
109.218
20
-97.845
11
109.361
21
-98.1307
0
LINE
8
BLACK
6
CONTINUOUS
10
109.361
20
-98.1307
11
109.361
21
-99.7021
0
LINE
8
BLACK
6
CONTINUOUS
10
115.218
20
-96.5593
11
112.646
21
-100.416
0
LINE
8
BLACK
6
CONTINUOUS
10
119.075
20
-96.7021
11
119.361
21
-96.7021
0
LINE
8
BLACK
6
CONTINUOUS
10
119.361
20
-96.7021
11
119.646
21
-96.845
0
LINE
8
BLACK
6
CONTINUOUS
10
119.646
20
-96.845
11
119.789
21
-96.9879
0
LINE
8
BLACK
6
CONTINUOUS
10
119.789
20
-96.9879
11
119.932
21
-97.2736
0
LINE
8
BLACK
6
CONTINUOUS
10
119.932
20
-97.2736
11
120.075
21
-97.845
0
LINE
8
BLACK
6
CONTINUOUS
10
120.075
20
-97.845
11
120.075
21
-98.5593
0
LINE
8
BLACK
6
CONTINUOUS
10
120.075
20
-98.5593
11
119.932
21
-99.1307
0
LINE
8
BLACK
6
CONTINUOUS
10
119.932
20
-99.1307
11
119.789
21
-99.4164
0
LINE
8
BLACK
6
CONTINUOUS
10
119.789
20
-99.4164
11
119.646
21
-99.5593
0
LINE
8
BLACK
6
CONTINUOUS
10
119.646
20
-99.5593
11
119.361
21
-99.7021
0
LINE
8
BLACK
6
CONTINUOUS
10
119.361
20
-99.7021
11
119.075
21
-99.7021
0
LINE
8
BLACK
6
CONTINUOUS
10
119.075
20
-99.7021
11
118.789
21
-99.5593
0
LINE
8
BLACK
6
CONTINUOUS
10
118.789
20
-99.5593
11
118.646
21
-99.4164
0
LINE
8
BLACK
6
CONTINUOUS
10
118.646
20
-99.4164
11
118.504
21
-99.1307
0
LINE
8
BLACK
6
CONTINUOUS
10
118.504
20
-99.1307
11
118.361
21
-98.5593
0
LINE
8
BLACK
6
CONTINUOUS
10
118.361
20
-98.5593
11
118.361
21
-97.845
0
LINE
8
BLACK
6
CONTINUOUS
10
118.361
20
-97.845
11
118.504
21
-97.2736
0
LINE
8
BLACK
6
CONTINUOUS
10
118.504
20
-97.2736
11
118.646
21
-96.9879
0
LINE
8
BLACK
6
CONTINUOUS
10
118.646
20
-96.9879
11
118.789
21
-96.845
0
LINE
8
BLACK
6
CONTINUOUS
10
118.789
20
-96.845
11
119.075
21
-96.7021
0
LINE
8
BLACK
6
CONTINUOUS
10
121.361
20
-99.4164
11
121.504
21
-99.5593
0
LINE
8
BLACK
6
CONTINUOUS
10
121.504
20
-99.5593
11
121.361
21
-99.7021
0
LINE
8
BLACK
6
CONTINUOUS
10
121.361
20
-99.7021
11
121.218
21
-99.5593
0
LINE
8
BLACK
6
CONTINUOUS
10
121.218
20
-99.5593
11
121.361
21
-99.4164
0
LINE
8
BLACK
6
CONTINUOUS
10
121.361
20
-99.4164
11
121.361
21
-99.7021
0
LINE
8
BLACK
6
CONTINUOUS
10
123.361
20
-96.7021
11
123.646
21
-96.7021
0
LINE
8
BLACK
6
CONTINUOUS
10
123.646
20
-96.7021
11
123.932
21
-96.845
0
LINE
8
BLACK
6
CONTINUOUS
10
123.932
20
-96.845
11
124.075
21
-96.9879
0
LINE
8
BLACK
6
CONTINUOUS
10
124.075
20
-96.9879
11
124.218
21
-97.2736
0
LINE
8
BLACK
6
CONTINUOUS
10
124.218
20
-97.2736
11
124.361
21
-97.845
0
LINE
8
BLACK
6
CONTINUOUS
10
124.361
20
-97.845
11
124.361
21
-98.5593
0
LINE
8
BLACK
6
CONTINUOUS
10
124.361
20
-98.5593
11
124.218
21
-99.1307
0
LINE
8
BLACK
6
CONTINUOUS
10
124.218
20
-99.1307
11
124.075
21
-99.4164
0
LINE
8
BLACK
6
CONTINUOUS
10
124.075
20
-99.4164
11
123.932
21
-99.5593
0
LINE
8
BLACK
6
CONTINUOUS
10
123.932
20
-99.5593
11
123.646
21
-99.7021
0
LINE
8
BLACK
6
CONTINUOUS
10
123.646
20
-99.7021
11
123.361
21
-99.7021
0
LINE
8
BLACK
6
CONTINUOUS
10
123.361
20
-99.7021
11
123.075
21
-99.5593
0
LINE
8
BLACK
6
CONTINUOUS
10
123.075
20
-99.5593
11
122.932
21
-99.4164
0
LINE
8
BLACK
6
CONTINUOUS
10
122.932
20
-99.4164
11
122.789
21
-99.1307
0
LINE
8
BLACK
6
CONTINUOUS
10
122.789
20
-99.1307
11
122.646
21
-98.5593
0
LINE
8
BLACK
6
CONTINUOUS
10
122.646
20
-98.5593
11
122.646
21
-97.845
0
LINE
8
BLACK
6
CONTINUOUS
10
122.646
20
-97.845
11
122.789
21
-97.2736
0
LINE
8
BLACK
6
CONTINUOUS
10
122.789
20
-97.2736
11
122.932
21
-96.9879
0
LINE
8
BLACK
6
CONTINUOUS
10
122.932
20
-96.9879
11
123.075
21
-96.845
0
LINE
8
BLACK
6
CONTINUOUS
10
123.075
20
-96.845
11
123.361
21
-96.7021
0
LINE
8
BLACK
6
CONTINUOUS
10
127.218
20
-99.7021
11
125.504
21
-99.7021
0
LINE
8
BLACK
6
CONTINUOUS
10
126.361
20
-99.7021
11
126.361
21
-96.7021
0
LINE
8
BLACK
6
CONTINUOUS
10
126.361
20
-96.7021
11
126.075
21
-97.1307
0
LINE
8
BLACK
6
CONTINUOUS
10
126.075
20
-97.1307
11
125.789
21
-97.4164
0
LINE
8
BLACK
6
CONTINUOUS
10
125.789
20
-97.4164
11
125.504
21
-97.5593
0
LINE
8
BLACK
6
CONTINUOUS
10
129.789
20
-96.7021
11
129.218
21
-96.7021
0
LINE
8
BLACK
6
CONTINUOUS
10
129.218
20
-96.7021
11
128.932
21
-96.845
0
LINE
8
BLACK
6
CONTINUOUS
10
128.932
20
-96.845
11
128.789
21
-96.9879
0
LINE
8
BLACK
6
CONTINUOUS
10
128.789
20
-96.9879
11
128.504
21
-97.4164
0
LINE
8
BLACK
6
CONTINUOUS
10
128.504
20
-97.4164
11
128.361
21
-97.9879
0
LINE
8
BLACK
6
CONTINUOUS
10
128.361
20
-97.9879
11
128.361
21
-99.1307
0
LINE
8
BLACK
6
CONTINUOUS
10
128.361
20
-99.1307
11
128.504
21
-99.4164
0
LINE
8
BLACK
6
CONTINUOUS
10
128.504
20
-99.4164
11
128.646
21
-99.5593
0
LINE
8
BLACK
6
CONTINUOUS
10
128.646
20
-99.5593
11
128.932
21
-99.7021
0
LINE
8
BLACK
6
CONTINUOUS
10
128.932
20
-99.7021
11
129.504
21
-99.7021
0
LINE
8
BLACK
6
CONTINUOUS
10
129.504
20
-99.7021
11
129.789
21
-99.5593
0
LINE
8
BLACK
6
CONTINUOUS
10
129.789
20
-99.5593
11
129.932
21
-99.4164
0
LINE
8
BLACK
6
CONTINUOUS
10
129.932
20
-99.4164
11
130.075
21
-99.1307
0
LINE
8
BLACK
6
CONTINUOUS
10
130.075
20
-99.1307
11
130.075
21
-98.4164
0
LINE
8
BLACK
6
CONTINUOUS
10
130.075
20
-98.4164
11
129.932
21
-98.1307
0
LINE
8
BLACK
6
CONTINUOUS
10
129.932
20
-98.1307
11
129.789
21
-97.9879
0
LINE
8
BLACK
6
CONTINUOUS
10
129.789
20
-97.9879
11
129.504
21
-97.845
0
LINE
8
BLACK
6
CONTINUOUS
10
129.504
20
-97.845
11
128.932
21
-97.845
0
LINE
8
BLACK
6
CONTINUOUS
10
128.932
20
-97.845
11
128.646
21
-97.9879
0
LINE
8
BLACK
6
CONTINUOUS
10
128.646
20
-97.9879
11
128.504
21
-98.1307
0
LINE
8
BLACK
6
CONTINUOUS
10
128.504
20
-98.1307
11
128.361
21
-98.4164
0
LINE
8
BLACK
6
CONTINUOUS
10
131.218
20
-96.7021
11
131.218
21
-97.2736
0
LINE
8
BLACK
6
CONTINUOUS
10
132.361
20
-96.7021
11
132.361
21
-97.2736
0
LINE
8
BLACK
6
CONTINUOUS
10
136.789
20
-100.845
11
136.646
21
-100.702
0
LINE
8
BLACK
6
CONTINUOUS
10
136.646
20
-100.702
11
136.361
21
-100.274
0
LINE
8
BLACK
6
CONTINUOUS
10
136.361
20
-100.274
11
136.218
21
-99.9879
0
LINE
8
BLACK
6
CONTINUOUS
10
136.218
20
-99.9879
11
136.075
21
-99.5593
0
LINE
8
BLACK
6
CONTINUOUS
10
136.075
20
-99.5593
11
135.932
21
-98.845
0
LINE
8
BLACK
6
CONTINUOUS
10
135.932
20
-98.845
11
135.932
21
-98.2736
0
LINE
8
BLACK
6
CONTINUOUS
10
135.932
20
-98.2736
11
136.075
21
-97.5593
0
LINE
8
BLACK
6
CONTINUOUS
10
136.075
20
-97.5593
11
136.218
21
-97.1307
0
LINE
8
BLACK
6
CONTINUOUS
10
136.218
20
-97.1307
11
136.361
21
-96.845
0
LINE
8
BLACK
6
CONTINUOUS
10
136.361
20
-96.845
11
136.646
21
-96.4164
0
LINE
8
BLACK
6
CONTINUOUS
10
136.646
20
-96.4164
11
136.789
21
-96.2736
0
LINE
8
BLACK
6
CONTINUOUS
10
138.361
20
-97.9879
11
138.075
21
-97.845
0
LINE
8
BLACK
6
CONTINUOUS
10
138.075
20
-97.845
11
137.932
21
-97.7021
0
LINE
8
BLACK
6
CONTINUOUS
10
137.932
20
-97.7021
11
137.789
21
-97.4164
0
LINE
8
BLACK
6
CONTINUOUS
10
137.789
20
-97.4164
11
137.789
21
-97.2736
0
LINE
8
BLACK
6
CONTINUOUS
10
137.789
20
-97.2736
11
137.932
21
-96.9879
0
LINE
8
BLACK
6
CONTINUOUS
10
137.932
20
-96.9879
11
138.075
21
-96.845
0
LINE
8
BLACK
6
CONTINUOUS
10
138.075
20
-96.845
11
138.361
21
-96.7021
0
LINE
8
BLACK
6
CONTINUOUS
10
138.361
20
-96.7021
11
138.932
21
-96.7021
0
LINE
8
BLACK
6
CONTINUOUS
10
138.932
20
-96.7021
11
139.218
21
-96.845
0
LINE
8
BLACK
6
CONTINUOUS
10
139.218
20
-96.845
11
139.361
21
-96.9879
0
LINE
8
BLACK
6
CONTINUOUS
10
139.361
20
-96.9879
11
139.504
21
-97.2736
0
LINE
8
BLACK
6
CONTINUOUS
10
139.504
20
-97.2736
11
139.504
21
-97.4164
0
LINE
8
BLACK
6
CONTINUOUS
10
139.504
20
-97.4164
11
139.361
21
-97.7021
0
LINE
8
BLACK
6
CONTINUOUS
10
139.361
20
-97.7021
11
139.218
21
-97.845
0
LINE
8
BLACK
6
CONTINUOUS
10
139.218
20
-97.845
11
138.932
21
-97.9879
0
LINE
8
BLACK
6
CONTINUOUS
10
138.932
20
-97.9879
11
138.361
21
-97.9879
0
LINE
8
BLACK
6
CONTINUOUS
10
138.361
20
-97.9879
11
138.075
21
-98.1307
0
LINE
8
BLACK
6
CONTINUOUS
10
138.075
20
-98.1307
11
137.932
21
-98.2736
0
LINE
8
BLACK
6
CONTINUOUS
10
137.932
20
-98.2736
11
137.789
21
-98.5593
0
LINE
8
BLACK
6
CONTINUOUS
10
137.789
20
-98.5593
11
137.789
21
-99.1307
0
LINE
8
BLACK
6
CONTINUOUS
10
137.789
20
-99.1307
11
137.932
21
-99.4164
0
LINE
8
BLACK
6
CONTINUOUS
10
137.932
20
-99.4164
11
138.075
21
-99.5593
0
LINE
8
BLACK
6
CONTINUOUS
10
138.075
20
-99.5593
11
138.361
21
-99.7021
0
LINE
8
BLACK
6
CONTINUOUS
10
138.361
20
-99.7021
11
138.932
21
-99.7021
0
LINE
8
BLACK
6
CONTINUOUS
10
138.932
20
-99.7021
11
139.218
21
-99.5593
0
LINE
8
BLACK
6
CONTINUOUS
10
139.218
20
-99.5593
11
139.361
21
-99.4164
0
LINE
8
BLACK
6
CONTINUOUS
10
139.361
20
-99.4164
11
139.504
21
-99.1307
0
LINE
8
BLACK
6
CONTINUOUS
10
139.504
20
-99.1307
11
139.504
21
-98.5593
0
LINE
8
BLACK
6
CONTINUOUS
10
139.504
20
-98.5593
11
139.361
21
-98.2736
0
LINE
8
BLACK
6
CONTINUOUS
10
139.361
20
-98.2736
11
139.218
21
-98.1307
0
LINE
8
BLACK
6
CONTINUOUS
10
139.218
20
-98.1307
11
138.932
21
-97.9879
0
LINE
8
BLACK
6
CONTINUOUS
10
142.218
20
-96.7021
11
140.789
21
-96.7021
0
LINE
8
BLACK
6
CONTINUOUS
10
140.789
20
-96.7021
11
140.646
21
-98.1307
0
LINE
8
BLACK
6
CONTINUOUS
10
140.646
20
-98.1307
11
140.789
21
-97.9879
0
LINE
8
BLACK
6
CONTINUOUS
10
140.789
20
-97.9879
11
141.075
21
-97.845
0
LINE
8
BLACK
6
CONTINUOUS
10
141.075
20
-97.845
11
141.789
21
-97.845
0
LINE
8
BLACK
6
CONTINUOUS
10
141.789
20
-97.845
11
142.075
21
-97.9879
0
LINE
8
BLACK
6
CONTINUOUS
10
142.075
20
-97.9879
11
142.218
21
-98.1307
0
LINE
8
BLACK
6
CONTINUOUS
10
142.218
20
-98.1307
11
142.361
21
-98.4164
0
LINE
8
BLACK
6
CONTINUOUS
10
142.361
20
-98.4164
11
142.361
21
-99.1307
0
LINE
8
BLACK
6
CONTINUOUS
10
142.361
20
-99.1307
11
142.218
21
-99.4164
0
LINE
8
BLACK
6
CONTINUOUS
10
142.218
20
-99.4164
11
142.075
21
-99.5593
0
LINE
8
BLACK
6
CONTINUOUS
10
142.075
20
-99.5593
11
141.789
21
-99.7021
0
LINE
8
BLACK
6
CONTINUOUS
10
141.789
20
-99.7021
11
141.075
21
-99.7021
0
LINE
8
BLACK
6
CONTINUOUS
10
141.075
20
-99.7021
11
140.789
21
-99.5593
0
LINE
8
BLACK
6
CONTINUOUS
10
140.789
20
-99.5593
11
140.646
21
-99.4164
0
LINE
8
BLACK
6
CONTINUOUS
10
145.932
20
-99.7021
11
145.932
21
-96.7021
0
LINE
8
BLACK
6
CONTINUOUS
10
147.218
20
-99.7021
11
147.218
21
-98.1307
0
LINE
8
BLACK
6
CONTINUOUS
10
147.218
20
-98.1307
11
147.075
21
-97.845
0
LINE
8
BLACK
6
CONTINUOUS
10
147.075
20
-97.845
11
146.789
21
-97.7021
0
LINE
8
BLACK
6
CONTINUOUS
10
146.789
20
-97.7021
11
146.361
21
-97.7021
0
LINE
8
BLACK
6
CONTINUOUS
10
146.361
20
-97.7021
11
146.075
21
-97.845
0
LINE
8
BLACK
6
CONTINUOUS
10
146.075
20
-97.845
11
145.932
21
-97.9879
0
LINE
8
BLACK
6
CONTINUOUS
10
149.075
20
-99.7021
11
148.789
21
-99.5593
0
LINE
8
BLACK
6
CONTINUOUS
10
148.789
20
-99.5593
11
148.646
21
-99.4164
0
LINE
8
BLACK
6
CONTINUOUS
10
148.646
20
-99.4164
11
148.504
21
-99.1307
0
LINE
8
BLACK
6
CONTINUOUS
10
148.504
20
-99.1307
11
148.504
21
-98.2736
0
LINE
8
BLACK
6
CONTINUOUS
10
148.504
20
-98.2736
11
148.646
21
-97.9879
0
LINE
8
BLACK
6
CONTINUOUS
10
148.646
20
-97.9879
11
148.789
21
-97.845
0
LINE
8
BLACK
6
CONTINUOUS
10
148.789
20
-97.845
11
149.075
21
-97.7021
0
LINE
8
BLACK
6
CONTINUOUS
10
149.075
20
-97.7021
11
149.504
21
-97.7021
0
LINE
8
BLACK
6
CONTINUOUS
10
149.504
20
-97.7021
11
149.789
21
-97.845
0
LINE
8
BLACK
6
CONTINUOUS
10
149.789
20
-97.845
11
149.932
21
-97.9879
0
LINE
8
BLACK
6
CONTINUOUS
10
149.932
20
-97.9879
11
150.075
21
-98.2736
0
LINE
8
BLACK
6
CONTINUOUS
10
150.075
20
-98.2736
11
150.075
21
-99.1307
0
LINE
8
BLACK
6
CONTINUOUS
10
150.075
20
-99.1307
11
149.932
21
-99.4164
0
LINE
8
BLACK
6
CONTINUOUS
10
149.932
20
-99.4164
11
149.789
21
-99.5593
0
LINE
8
BLACK
6
CONTINUOUS
10
149.789
20
-99.5593
11
149.504
21
-99.7021
0
LINE
8
BLACK
6
CONTINUOUS
10
149.504
20
-99.7021
11
149.075
21
-99.7021
0
LINE
8
BLACK
6
CONTINUOUS
10
151.789
20
-99.7021
11
151.504
21
-99.5593
0
LINE
8
BLACK
6
CONTINUOUS
10
151.504
20
-99.5593
11
151.361
21
-99.2736
0
LINE
8
BLACK
6
CONTINUOUS
10
151.361
20
-99.2736
11
151.361
21
-96.7021
0
LINE
8
BLACK
6
CONTINUOUS
10
154.075
20
-99.5593
11
153.789
21
-99.7021
0
LINE
8
BLACK
6
CONTINUOUS
10
153.789
20
-99.7021
11
153.218
21
-99.7021
0
LINE
8
BLACK
6
CONTINUOUS
10
153.218
20
-99.7021
11
152.932
21
-99.5593
0
LINE
8
BLACK
6
CONTINUOUS
10
152.932
20
-99.5593
11
152.789
21
-99.2736
0
LINE
8
BLACK
6
CONTINUOUS
10
152.789
20
-99.2736
11
152.789
21
-98.1307
0
LINE
8
BLACK
6
CONTINUOUS
10
152.789
20
-98.1307
11
152.932
21
-97.845
0
LINE
8
BLACK
6
CONTINUOUS
10
152.932
20
-97.845
11
153.218
21
-97.7021
0
LINE
8
BLACK
6
CONTINUOUS
10
153.218
20
-97.7021
11
153.789
21
-97.7021
0
LINE
8
BLACK
6
CONTINUOUS
10
153.789
20
-97.7021
11
154.075
21
-97.845
0
LINE
8
BLACK
6
CONTINUOUS
10
154.075
20
-97.845
11
154.218
21
-98.1307
0
LINE
8
BLACK
6
CONTINUOUS
10
154.218
20
-98.1307
11
154.218
21
-98.4164
0
LINE
8
BLACK
6
CONTINUOUS
10
154.218
20
-98.4164
11
152.789
21
-98.7021
0
LINE
8
BLACK
6
CONTINUOUS
10
155.361
20
-99.5593
11
155.646
21
-99.7021
0
LINE
8
BLACK
6
CONTINUOUS
10
155.646
20
-99.7021
11
156.218
21
-99.7021
0
LINE
8
BLACK
6
CONTINUOUS
10
156.218
20
-99.7021
11
156.504
21
-99.5593
0
LINE
8
BLACK
6
CONTINUOUS
10
156.504
20
-99.5593
11
156.646
21
-99.2736
0
LINE
8
BLACK
6
CONTINUOUS
10
156.646
20
-99.2736
11
156.646
21
-99.1307
0
LINE
8
BLACK
6
CONTINUOUS
10
156.646
20
-99.1307
11
156.504
21
-98.845
0
LINE
8
BLACK
6
CONTINUOUS
10
156.504
20
-98.845
11
156.218
21
-98.7021
0
LINE
8
BLACK
6
CONTINUOUS
10
156.218
20
-98.7021
11
155.789
21
-98.7021
0
LINE
8
BLACK
6
CONTINUOUS
10
155.789
20
-98.7021
11
155.504
21
-98.5593
0
LINE
8
BLACK
6
CONTINUOUS
10
155.504
20
-98.5593
11
155.361
21
-98.2736
0
LINE
8
BLACK
6
CONTINUOUS
10
155.361
20
-98.2736
11
155.361
21
-98.1307
0
LINE
8
BLACK
6
CONTINUOUS
10
155.361
20
-98.1307
11
155.504
21
-97.845
0
LINE
8
BLACK
6
CONTINUOUS
10
155.504
20
-97.845
11
155.789
21
-97.7021
0
LINE
8
BLACK
6
CONTINUOUS
10
155.789
20
-97.7021
11
156.218
21
-97.7021
0
LINE
8
BLACK
6
CONTINUOUS
10
156.218
20
-97.7021
11
156.504
21
-97.845
0
LINE
8
BLACK
6
CONTINUOUS
10
157.646
20
-100.845
11
157.789
21
-100.702
0
LINE
8
BLACK
6
CONTINUOUS
10
157.789
20
-100.702
11
158.075
21
-100.274
0
LINE
8
BLACK
6
CONTINUOUS
10
158.075
20
-100.274
11
158.218
21
-99.9879
0
LINE
8
BLACK
6
CONTINUOUS
10
158.218
20
-99.9879
11
158.361
21
-99.5593
0
LINE
8
BLACK
6
CONTINUOUS
10
158.361
20
-99.5593
11
158.504
21
-98.845
0
LINE
8
BLACK
6
CONTINUOUS
10
158.504
20
-98.845
11
158.504
21
-98.2736
0
LINE
8
BLACK
6
CONTINUOUS
10
158.504
20
-98.2736
11
158.361
21
-97.5593
0
LINE
8
BLACK
6
CONTINUOUS
10
158.361
20
-97.5593
11
158.218
21
-97.1307
0
LINE
8
BLACK
6
CONTINUOUS
10
158.218
20
-97.1307
11
158.075
21
-96.845
0
LINE
8
BLACK
6
CONTINUOUS
10
158.075
20
-96.845
11
157.789
21
-96.4164
0
LINE
8
BLACK
6
CONTINUOUS
10
157.789
20
-96.4164
11
157.646
21
-96.2736
0
LINE
8
BLACK
6
CONTINUOUS
10
89.8298
20
-102.535
11
89.8298
21
-102.075
0
LINE
8
BLACK
6
CONTINUOUS
10
89.8298
20
-102.075
11
89.3702
21
-102.075
0
LINE
8
BLACK
6
CONTINUOUS
10
89.3702
20
-102.075
11
89.3702
21
-102.535
0
LINE
8
BLACK
6
CONTINUOUS
10
89.3702
20
-102.535
11
89.8298
21
-102.535
0
LINE
8
BLACK
6
CONTINUOUS
10
93.3607
20
-100.662
11
93.6464
21
-100.662
0
LINE
8
BLACK
6
CONTINUOUS
10
93.6464
20
-100.662
11
93.9321
21
-100.805
0
LINE
8
BLACK
6
CONTINUOUS
10
93.9321
20
-100.805
11
94.075
21
-100.948
0
LINE
8
BLACK
6
CONTINUOUS
10
94.075
20
-100.948
11
94.2179
21
-101.234
0
LINE
8
BLACK
6
CONTINUOUS
10
94.2179
20
-101.234
11
94.3607
21
-101.805
0
LINE
8
BLACK
6
CONTINUOUS
10
94.3607
20
-101.805
11
94.3607
21
-102.519
0
LINE
8
BLACK
6
CONTINUOUS
10
94.3607
20
-102.519
11
94.2179
21
-103.091
0
LINE
8
BLACK
6
CONTINUOUS
10
94.2179
20
-103.091
11
94.075
21
-103.376
0
LINE
8
BLACK
6
CONTINUOUS
10
94.075
20
-103.376
11
93.9321
21
-103.519
0
LINE
8
BLACK
6
CONTINUOUS
10
93.9321
20
-103.519
11
93.6464
21
-103.662
0
LINE
8
BLACK
6
CONTINUOUS
10
93.6464
20
-103.662
11
93.3607
21
-103.662
0
LINE
8
BLACK
6
CONTINUOUS
10
93.3607
20
-103.662
11
93.075
21
-103.519
0
LINE
8
BLACK
6
CONTINUOUS
10
93.075
20
-103.519
11
92.9321
21
-103.376
0
LINE
8
BLACK
6
CONTINUOUS
10
92.9321
20
-103.376
11
92.7893
21
-103.091
0
LINE
8
BLACK
6
CONTINUOUS
10
92.7893
20
-103.091
11
92.6464
21
-102.519
0
LINE
8
BLACK
6
CONTINUOUS
10
92.6464
20
-102.519
11
92.6464
21
-101.805
0
LINE
8
BLACK
6
CONTINUOUS
10
92.6464
20
-101.805
11
92.7893
21
-101.234
0
LINE
8
BLACK
6
CONTINUOUS
10
92.7893
20
-101.234
11
92.9321
21
-100.948
0
LINE
8
BLACK
6
CONTINUOUS
10
92.9321
20
-100.948
11
93.075
21
-100.805
0
LINE
8
BLACK
6
CONTINUOUS
10
93.075
20
-100.805
11
93.3607
21
-100.662
0
LINE
8
BLACK
6
CONTINUOUS
10
95.6464
20
-103.376
11
95.7893
21
-103.519
0
LINE
8
BLACK
6
CONTINUOUS
10
95.7893
20
-103.519
11
95.6464
21
-103.662
0
LINE
8
BLACK
6
CONTINUOUS
10
95.6464
20
-103.662
11
95.5036
21
-103.519
0
LINE
8
BLACK
6
CONTINUOUS
10
95.5036
20
-103.519
11
95.6464
21
-103.376
0
LINE
8
BLACK
6
CONTINUOUS
10
95.6464
20
-103.376
11
95.6464
21
-103.662
0
LINE
8
BLACK
6
CONTINUOUS
10
98.3607
20
-100.662
11
97.7893
21
-100.662
0
LINE
8
BLACK
6
CONTINUOUS
10
97.7893
20
-100.662
11
97.5036
21
-100.805
0
LINE
8
BLACK
6
CONTINUOUS
10
97.5036
20
-100.805
11
97.3607
21
-100.948
0
LINE
8
BLACK
6
CONTINUOUS
10
97.3607
20
-100.948
11
97.075
21
-101.376
0
LINE
8
BLACK
6
CONTINUOUS
10
97.075
20
-101.376
11
96.9321
21
-101.948
0
LINE
8
BLACK
6
CONTINUOUS
10
96.9321
20
-101.948
11
96.9321
21
-103.091
0
LINE
8
BLACK
6
CONTINUOUS
10
96.9321
20
-103.091
11
97.075
21
-103.376
0
LINE
8
BLACK
6
CONTINUOUS
10
97.075
20
-103.376
11
97.2179
21
-103.519
0
LINE
8
BLACK
6
CONTINUOUS
10
97.2179
20
-103.519
11
97.5036
21
-103.662
0
LINE
8
BLACK
6
CONTINUOUS
10
97.5036
20
-103.662
11
98.075
21
-103.662
0
LINE
8
BLACK
6
CONTINUOUS
10
98.075
20
-103.662
11
98.3607
21
-103.519
0
LINE
8
BLACK
6
CONTINUOUS
10
98.3607
20
-103.519
11
98.5036
21
-103.376
0
LINE
8
BLACK
6
CONTINUOUS
10
98.5036
20
-103.376
11
98.6464
21
-103.091
0
LINE
8
BLACK
6
CONTINUOUS
10
98.6464
20
-103.091
11
98.6464
21
-102.376
0
LINE
8
BLACK
6
CONTINUOUS
10
98.6464
20
-102.376
11
98.5036
21
-102.091
0
LINE
8
BLACK
6
CONTINUOUS
10
98.5036
20
-102.091
11
98.3607
21
-101.948
0
LINE
8
BLACK
6
CONTINUOUS
10
98.3607
20
-101.948
11
98.075
21
-101.805
0
LINE
8
BLACK
6
CONTINUOUS
10
98.075
20
-101.805
11
97.5036
21
-101.805
0
LINE
8
BLACK
6
CONTINUOUS
10
97.5036
20
-101.805
11
97.2179
21
-101.948
0
LINE
8
BLACK
6
CONTINUOUS
10
97.2179
20
-101.948
11
97.075
21
-102.091
0
LINE
8
BLACK
6
CONTINUOUS
10
97.075
20
-102.091
11
96.9321
21
-102.376
0
LINE
8
BLACK
6
CONTINUOUS
10
101.361
20
-100.662
11
99.9321
21
-100.662
0
LINE
8
BLACK
6
CONTINUOUS
10
99.9321
20
-100.662
11
99.7893
21
-102.091
0
LINE
8
BLACK
6
CONTINUOUS
10
99.7893
20
-102.091
11
99.9321
21
-101.948
0
LINE
8
BLACK
6
CONTINUOUS
10
99.9321
20
-101.948
11
100.218
21
-101.805
0
LINE
8
BLACK
6
CONTINUOUS
10
100.218
20
-101.805
11
100.932
21
-101.805
0
LINE
8
BLACK
6
CONTINUOUS
10
100.932
20
-101.805
11
101.218
21
-101.948
0
LINE
8
BLACK
6
CONTINUOUS
10
101.218
20
-101.948
11
101.361
21
-102.091
0
LINE
8
BLACK
6
CONTINUOUS
10
101.361
20
-102.091
11
101.504
21
-102.376
0
LINE
8
BLACK
6
CONTINUOUS
10
101.504
20
-102.376
11
101.504
21
-103.091
0
LINE
8
BLACK
6
CONTINUOUS
10
101.504
20
-103.091
11
101.361
21
-103.376
0
LINE
8
BLACK
6
CONTINUOUS
10
101.361
20
-103.376
11
101.218
21
-103.519
0
LINE
8
BLACK
6
CONTINUOUS
10
101.218
20
-103.519
11
100.932
21
-103.662
0
LINE
8
BLACK
6
CONTINUOUS
10
100.932
20
-103.662
11
100.218
21
-103.662
0
LINE
8
BLACK
6
CONTINUOUS
10
100.218
20
-103.662
11
99.9321
21
-103.519
0
LINE
8
BLACK
6
CONTINUOUS
10
99.9321
20
-103.519
11
99.7893
21
-103.376
0
LINE
8
BLACK
6
CONTINUOUS
10
102.789
20
-103.662
11
102.789
21
-101.662
0
LINE
8
BLACK
6
CONTINUOUS
10
102.789
20
-101.948
11
102.932
21
-101.805
0
LINE
8
BLACK
6
CONTINUOUS
10
102.932
20
-101.805
11
103.218
21
-101.662
0
LINE
8
BLACK
6
CONTINUOUS
10
103.218
20
-101.662
11
103.646
21
-101.662
0
LINE
8
BLACK
6
CONTINUOUS
10
103.646
20
-101.662
11
103.932
21
-101.805
0
LINE
8
BLACK
6
CONTINUOUS
10
103.932
20
-101.805
11
104.075
21
-102.091
0
LINE
8
BLACK
6
CONTINUOUS
10
104.075
20
-102.091
11
104.075
21
-103.662
0
LINE
8
BLACK
6
CONTINUOUS
10
104.075
20
-102.091
11
104.218
21
-101.805
0
LINE
8
BLACK
6
CONTINUOUS
10
104.218
20
-101.805
11
104.504
21
-101.662
0
LINE
8
BLACK
6
CONTINUOUS
10
104.504
20
-101.662
11
104.932
21
-101.662
0
LINE
8
BLACK
6
CONTINUOUS
10
104.932
20
-101.662
11
105.218
21
-101.805
0
LINE
8
BLACK
6
CONTINUOUS
10
105.218
20
-101.805
11
105.361
21
-102.091
0
LINE
8
BLACK
6
CONTINUOUS
10
105.361
20
-102.091
11
105.361
21
-103.662
0
LINE
8
BLACK
6
CONTINUOUS
10
106.789
20
-103.662
11
106.789
21
-101.662
0
LINE
8
BLACK
6
CONTINUOUS
10
106.789
20
-101.948
11
106.932
21
-101.805
0
LINE
8
BLACK
6
CONTINUOUS
10
106.932
20
-101.805
11
107.218
21
-101.662
0
LINE
8
BLACK
6
CONTINUOUS
10
107.218
20
-101.662
11
107.646
21
-101.662
0
LINE
8
BLACK
6
CONTINUOUS
10
107.646
20
-101.662
11
107.932
21
-101.805
0
LINE
8
BLACK
6
CONTINUOUS
10
107.932
20
-101.805
11
108.075
21
-102.091
0
LINE
8
BLACK
6
CONTINUOUS
10
108.075
20
-102.091
11
108.075
21
-103.662
0
LINE
8
BLACK
6
CONTINUOUS
10
108.075
20
-102.091
11
108.218
21
-101.805
0
LINE
8
BLACK
6
CONTINUOUS
10
108.218
20
-101.805
11
108.504
21
-101.662
0
LINE
8
BLACK
6
CONTINUOUS
10
108.504
20
-101.662
11
108.932
21
-101.662
0
LINE
8
BLACK
6
CONTINUOUS
10
108.932
20
-101.662
11
109.218
21
-101.805
0
LINE
8
BLACK
6
CONTINUOUS
10
109.218
20
-101.805
11
109.361
21
-102.091
0
LINE
8
BLACK
6
CONTINUOUS
10
109.361
20
-102.091
11
109.361
21
-103.662
0
LINE
8
BLACK
6
CONTINUOUS
10
115.218
20
-100.519
11
112.646
21
-104.376
0
LINE
8
BLACK
6
CONTINUOUS
10
119.075
20
-100.662
11
119.361
21
-100.662
0
LINE
8
BLACK
6
CONTINUOUS
10
119.361
20
-100.662
11
119.646
21
-100.805
0
LINE
8
BLACK
6
CONTINUOUS
10
119.646
20
-100.805
11
119.789
21
-100.948
0
LINE
8
BLACK
6
CONTINUOUS
10
119.789
20
-100.948
11
119.932
21
-101.234
0
LINE
8
BLACK
6
CONTINUOUS
10
119.932
20
-101.234
11
120.075
21
-101.805
0
LINE
8
BLACK
6
CONTINUOUS
10
120.075
20
-101.805
11
120.075
21
-102.519
0
LINE
8
BLACK
6
CONTINUOUS
10
120.075
20
-102.519
11
119.932
21
-103.091
0
LINE
8
BLACK
6
CONTINUOUS
10
119.932
20
-103.091
11
119.789
21
-103.376
0
LINE
8
BLACK
6
CONTINUOUS
10
119.789
20
-103.376
11
119.646
21
-103.519
0
LINE
8
BLACK
6
CONTINUOUS
10
119.646
20
-103.519
11
119.361
21
-103.662
0
LINE
8
BLACK
6
CONTINUOUS
10
119.361
20
-103.662
11
119.075
21
-103.662
0
LINE
8
BLACK
6
CONTINUOUS
10
119.075
20
-103.662
11
118.789
21
-103.519
0
LINE
8
BLACK
6
CONTINUOUS
10
118.789
20
-103.519
11
118.646
21
-103.376
0
LINE
8
BLACK
6
CONTINUOUS
10
118.646
20
-103.376
11
118.504
21
-103.091
0
LINE
8
BLACK
6
CONTINUOUS
10
118.504
20
-103.091
11
118.361
21
-102.519
0
LINE
8
BLACK
6
CONTINUOUS
10
118.361
20
-102.519
11
118.361
21
-101.805
0
LINE
8
BLACK
6
CONTINUOUS
10
118.361
20
-101.805
11
118.504
21
-101.234
0
LINE
8
BLACK
6
CONTINUOUS
10
118.504
20
-101.234
11
118.646
21
-100.948
0
LINE
8
BLACK
6
CONTINUOUS
10
118.646
20
-100.948
11
118.789
21
-100.805
0
LINE
8
BLACK
6
CONTINUOUS
10
118.789
20
-100.805
11
119.075
21
-100.662
0
LINE
8
BLACK
6
CONTINUOUS
10
121.361
20
-103.376
11
121.504
21
-103.519
0
LINE
8
BLACK
6
CONTINUOUS
10
121.504
20
-103.519
11
121.361
21
-103.662
0
LINE
8
BLACK
6
CONTINUOUS
10
121.361
20
-103.662
11
121.218
21
-103.519
0
LINE
8
BLACK
6
CONTINUOUS
10
121.218
20
-103.519
11
121.361
21
-103.376
0
LINE
8
BLACK
6
CONTINUOUS
10
121.361
20
-103.376
11
121.361
21
-103.662
0
LINE
8
BLACK
6
CONTINUOUS
10
123.361
20
-100.662
11
123.646
21
-100.662
0
LINE
8
BLACK
6
CONTINUOUS
10
123.646
20
-100.662
11
123.932
21
-100.805
0
LINE
8
BLACK
6
CONTINUOUS
10
123.932
20
-100.805
11
124.075
21
-100.948
0
LINE
8
BLACK
6
CONTINUOUS
10
124.075
20
-100.948
11
124.218
21
-101.234
0
LINE
8
BLACK
6
CONTINUOUS
10
124.218
20
-101.234
11
124.361
21
-101.805
0
LINE
8
BLACK
6
CONTINUOUS
10
124.361
20
-101.805
11
124.361
21
-102.519
0
LINE
8
BLACK
6
CONTINUOUS
10
124.361
20
-102.519
11
124.218
21
-103.091
0
LINE
8
BLACK
6
CONTINUOUS
10
124.218
20
-103.091
11
124.075
21
-103.376
0
LINE
8
BLACK
6
CONTINUOUS
10
124.075
20
-103.376
11
123.932
21
-103.519
0
LINE
8
BLACK
6
CONTINUOUS
10
123.932
20
-103.519
11
123.646
21
-103.662
0
LINE
8
BLACK
6
CONTINUOUS
10
123.646
20
-103.662
11
123.361
21
-103.662
0
LINE
8
BLACK
6
CONTINUOUS
10
123.361
20
-103.662
11
123.075
21
-103.519
0
LINE
8
BLACK
6
CONTINUOUS
10
123.075
20
-103.519
11
122.932
21
-103.376
0
LINE
8
BLACK
6
CONTINUOUS
10
122.932
20
-103.376
11
122.789
21
-103.091
0
LINE
8
BLACK
6
CONTINUOUS
10
122.789
20
-103.091
11
122.646
21
-102.519
0
LINE
8
BLACK
6
CONTINUOUS
10
122.646
20
-102.519
11
122.646
21
-101.805
0
LINE
8
BLACK
6
CONTINUOUS
10
122.646
20
-101.805
11
122.789
21
-101.234
0
LINE
8
BLACK
6
CONTINUOUS
10
122.789
20
-101.234
11
122.932
21
-100.948
0
LINE
8
BLACK
6
CONTINUOUS
10
122.932
20
-100.948
11
123.075
21
-100.805
0
LINE
8
BLACK
6
CONTINUOUS
10
123.075
20
-100.805
11
123.361
21
-100.662
0
LINE
8
BLACK
6
CONTINUOUS
10
125.504
20
-100.948
11
125.646
21
-100.805
0
LINE
8
BLACK
6
CONTINUOUS
10
125.646
20
-100.805
11
125.932
21
-100.662
0
LINE
8
BLACK
6
CONTINUOUS
10
125.932
20
-100.662
11
126.646
21
-100.662
0
LINE
8
BLACK
6
CONTINUOUS
10
126.646
20
-100.662
11
126.932
21
-100.805
0
LINE
8
BLACK
6
CONTINUOUS
10
126.932
20
-100.805
11
127.075
21
-100.948
0
LINE
8
BLACK
6
CONTINUOUS
10
127.075
20
-100.948
11
127.218
21
-101.234
0
LINE
8
BLACK
6
CONTINUOUS
10
127.218
20
-101.234
11
127.218
21
-101.519
0
LINE
8
BLACK
6
CONTINUOUS
10
127.218
20
-101.519
11
127.075
21
-101.948
0
LINE
8
BLACK
6
CONTINUOUS
10
127.075
20
-101.948
11
125.361
21
-103.662
0
LINE
8
BLACK
6
CONTINUOUS
10
125.361
20
-103.662
11
127.218
21
-103.662
0
LINE
8
BLACK
6
CONTINUOUS
10
129.789
20
-100.662
11
129.218
21
-100.662
0
LINE
8
BLACK
6
CONTINUOUS
10
129.218
20
-100.662
11
128.932
21
-100.805
0
LINE
8
BLACK
6
CONTINUOUS
10
128.932
20
-100.805
11
128.789
21
-100.948
0
LINE
8
BLACK
6
CONTINUOUS
10
128.789
20
-100.948
11
128.504
21
-101.376
0
LINE
8
BLACK
6
CONTINUOUS
10
128.504
20
-101.376
11
128.361
21
-101.948
0
LINE
8
BLACK
6
CONTINUOUS
10
128.361
20
-101.948
11
128.361
21
-103.091
0
LINE
8
BLACK
6
CONTINUOUS
10
128.361
20
-103.091
11
128.504
21
-103.376
0
LINE
8
BLACK
6
CONTINUOUS
10
128.504
20
-103.376
11
128.646
21
-103.519
0
LINE
8
BLACK
6
CONTINUOUS
10
128.646
20
-103.519
11
128.932
21
-103.662
0
LINE
8
BLACK
6
CONTINUOUS
10
128.932
20
-103.662
11
129.504
21
-103.662
0
LINE
8
BLACK
6
CONTINUOUS
10
129.504
20
-103.662
11
129.789
21
-103.519
0
LINE
8
BLACK
6
CONTINUOUS
10
129.789
20
-103.519
11
129.932
21
-103.376
0
LINE
8
BLACK
6
CONTINUOUS
10
129.932
20
-103.376
11
130.075
21
-103.091
0
LINE
8
BLACK
6
CONTINUOUS
10
130.075
20
-103.091
11
130.075
21
-102.376
0
LINE
8
BLACK
6
CONTINUOUS
10
130.075
20
-102.376
11
129.932
21
-102.091
0
LINE
8
BLACK
6
CONTINUOUS
10
129.932
20
-102.091
11
129.789
21
-101.948
0
LINE
8
BLACK
6
CONTINUOUS
10
129.789
20
-101.948
11
129.504
21
-101.805
0
LINE
8
BLACK
6
CONTINUOUS
10
129.504
20
-101.805
11
128.932
21
-101.805
0
LINE
8
BLACK
6
CONTINUOUS
10
128.932
20
-101.805
11
128.646
21
-101.948
0
LINE
8
BLACK
6
CONTINUOUS
10
128.646
20
-101.948
11
128.504
21
-102.091
0
LINE
8
BLACK
6
CONTINUOUS
10
128.504
20
-102.091
11
128.361
21
-102.376
0
LINE
8
BLACK
6
CONTINUOUS
10
131.218
20
-100.662
11
131.218
21
-101.234
0
LINE
8
BLACK
6
CONTINUOUS
10
132.361
20
-100.662
11
132.361
21
-101.234
0
LINE
8
BLACK
6
CONTINUOUS
10
136.789
20
-104.805
11
136.646
21
-104.662
0
LINE
8
BLACK
6
CONTINUOUS
10
136.646
20
-104.662
11
136.361
21
-104.234
0
LINE
8
BLACK
6
CONTINUOUS
10
136.361
20
-104.234
11
136.218
21
-103.948
0
LINE
8
BLACK
6
CONTINUOUS
10
136.218
20
-103.948
11
136.075
21
-103.519
0
LINE
8
BLACK
6
CONTINUOUS
10
136.075
20
-103.519
11
135.932
21
-102.805
0
LINE
8
BLACK
6
CONTINUOUS
10
135.932
20
-102.805
11
135.932
21
-102.234
0
LINE
8
BLACK
6
CONTINUOUS
10
135.932
20
-102.234
11
136.075
21
-101.519
0
LINE
8
BLACK
6
CONTINUOUS
10
136.075
20
-101.519
11
136.218
21
-101.091
0
LINE
8
BLACK
6
CONTINUOUS
10
136.218
20
-101.091
11
136.361
21
-100.805
0
LINE
8
BLACK
6
CONTINUOUS
10
136.361
20
-100.805
11
136.646
21
-100.376
0
LINE
8
BLACK
6
CONTINUOUS
10
136.646
20
-100.376
11
136.789
21
-100.234
0
LINE
8
BLACK
6
CONTINUOUS
10
139.504
20
-103.662
11
137.789
21
-103.662
0
LINE
8
BLACK
6
CONTINUOUS
10
138.646
20
-103.662
11
138.646
21
-100.662
0
LINE
8
BLACK
6
CONTINUOUS
10
138.646
20
-100.662
11
138.361
21
-101.091
0
LINE
8
BLACK
6
CONTINUOUS
10
138.361
20
-101.091
11
138.075
21
-101.376
0
LINE
8
BLACK
6
CONTINUOUS
10
138.075
20
-101.376
11
137.789
21
-101.519
0
LINE
8
BLACK
6
CONTINUOUS
10
141.361
20
-100.662
11
141.646
21
-100.662
0
LINE
8
BLACK
6
CONTINUOUS
10
141.646
20
-100.662
11
141.932
21
-100.805
0
LINE
8
BLACK
6
CONTINUOUS
10
141.932
20
-100.805
11
142.075
21
-100.948
0
LINE
8
BLACK
6
CONTINUOUS
10
142.075
20
-100.948
11
142.218
21
-101.234
0
LINE
8
BLACK
6
CONTINUOUS
10
142.218
20
-101.234
11
142.361
21
-101.805
0
LINE
8
BLACK
6
CONTINUOUS
10
142.361
20
-101.805
11
142.361
21
-102.519
0
LINE
8
BLACK
6
CONTINUOUS
10
142.361
20
-102.519
11
142.218
21
-103.091
0
LINE
8
BLACK
6
CONTINUOUS
10
142.218
20
-103.091
11
142.075
21
-103.376
0
LINE
8
BLACK
6
CONTINUOUS
10
142.075
20
-103.376
11
141.932
21
-103.519
0
LINE
8
BLACK
6
CONTINUOUS
10
141.932
20
-103.519
11
141.646
21
-103.662
0
LINE
8
BLACK
6
CONTINUOUS
10
141.646
20
-103.662
11
141.361
21
-103.662
0
LINE
8
BLACK
6
CONTINUOUS
10
141.361
20
-103.662
11
141.075
21
-103.519
0
LINE
8
BLACK
6
CONTINUOUS
10
141.075
20
-103.519
11
140.932
21
-103.376
0
LINE
8
BLACK
6
CONTINUOUS
10
140.932
20
-103.376
11
140.789
21
-103.091
0
LINE
8
BLACK
6
CONTINUOUS
10
140.789
20
-103.091
11
140.646
21
-102.519
0
LINE
8
BLACK
6
CONTINUOUS
10
140.646
20
-102.519
11
140.646
21
-101.805
0
LINE
8
BLACK
6
CONTINUOUS
10
140.646
20
-101.805
11
140.789
21
-101.234
0
LINE
8
BLACK
6
CONTINUOUS
10
140.789
20
-101.234
11
140.932
21
-100.948
0
LINE
8
BLACK
6
CONTINUOUS
10
140.932
20
-100.948
11
141.075
21
-100.805
0
LINE
8
BLACK
6
CONTINUOUS
10
141.075
20
-100.805
11
141.361
21
-100.662
0
LINE
8
BLACK
6
CONTINUOUS
10
145.932
20
-103.662
11
145.932
21
-100.662
0
LINE
8
BLACK
6
CONTINUOUS
10
147.218
20
-103.662
11
147.218
21
-102.091
0
LINE
8
BLACK
6
CONTINUOUS
10
147.218
20
-102.091
11
147.075
21
-101.805
0
LINE
8
BLACK
6
CONTINUOUS
10
147.075
20
-101.805
11
146.789
21
-101.662
0
LINE
8
BLACK
6
CONTINUOUS
10
146.789
20
-101.662
11
146.361
21
-101.662
0
LINE
8
BLACK
6
CONTINUOUS
10
146.361
20
-101.662
11
146.075
21
-101.805
0
LINE
8
BLACK
6
CONTINUOUS
10
146.075
20
-101.805
11
145.932
21
-101.948
0
LINE
8
BLACK
6
CONTINUOUS
10
149.075
20
-103.662
11
148.789
21
-103.519
0
LINE
8
BLACK
6
CONTINUOUS
10
148.789
20
-103.519
11
148.646
21
-103.376
0
LINE
8
BLACK
6
CONTINUOUS
10
148.646
20
-103.376
11
148.504
21
-103.091
0
LINE
8
BLACK
6
CONTINUOUS
10
148.504
20
-103.091
11
148.504
21
-102.234
0
LINE
8
BLACK
6
CONTINUOUS
10
148.504
20
-102.234
11
148.646
21
-101.948
0
LINE
8
BLACK
6
CONTINUOUS
10
148.646
20
-101.948
11
148.789
21
-101.805
0
LINE
8
BLACK
6
CONTINUOUS
10
148.789
20
-101.805
11
149.075
21
-101.662
0
LINE
8
BLACK
6
CONTINUOUS
10
149.075
20
-101.662
11
149.504
21
-101.662
0
LINE
8
BLACK
6
CONTINUOUS
10
149.504
20
-101.662
11
149.789
21
-101.805
0
LINE
8
BLACK
6
CONTINUOUS
10
149.789
20
-101.805
11
149.932
21
-101.948
0
LINE
8
BLACK
6
CONTINUOUS
10
149.932
20
-101.948
11
150.075
21
-102.234
0
LINE
8
BLACK
6
CONTINUOUS
10
150.075
20
-102.234
11
150.075
21
-103.091
0
LINE
8
BLACK
6
CONTINUOUS
10
150.075
20
-103.091
11
149.932
21
-103.376
0
LINE
8
BLACK
6
CONTINUOUS
10
149.932
20
-103.376
11
149.789
21
-103.519
0
LINE
8
BLACK
6
CONTINUOUS
10
149.789
20
-103.519
11
149.504
21
-103.662
0
LINE
8
BLACK
6
CONTINUOUS
10
149.504
20
-103.662
11
149.075
21
-103.662
0
LINE
8
BLACK
6
CONTINUOUS
10
151.789
20
-103.662
11
151.504
21
-103.519
0
LINE
8
BLACK
6
CONTINUOUS
10
151.504
20
-103.519
11
151.361
21
-103.234
0
LINE
8
BLACK
6
CONTINUOUS
10
151.361
20
-103.234
11
151.361
21
-100.662
0
LINE
8
BLACK
6
CONTINUOUS
10
154.075
20
-103.519
11
153.789
21
-103.662
0
LINE
8
BLACK
6
CONTINUOUS
10
153.789
20
-103.662
11
153.218
21
-103.662
0
LINE
8
BLACK
6
CONTINUOUS
10
153.218
20
-103.662
11
152.932
21
-103.519
0
LINE
8
BLACK
6
CONTINUOUS
10
152.932
20
-103.519
11
152.789
21
-103.234
0
LINE
8
BLACK
6
CONTINUOUS
10
152.789
20
-103.234
11
152.789
21
-102.091
0
LINE
8
BLACK
6
CONTINUOUS
10
152.789
20
-102.091
11
152.932
21
-101.805
0
LINE
8
BLACK
6
CONTINUOUS
10
152.932
20
-101.805
11
153.218
21
-101.662
0
LINE
8
BLACK
6
CONTINUOUS
10
153.218
20
-101.662
11
153.789
21
-101.662
0
LINE
8
BLACK
6
CONTINUOUS
10
153.789
20
-101.662
11
154.075
21
-101.805
0
LINE
8
BLACK
6
CONTINUOUS
10
154.075
20
-101.805
11
154.218
21
-102.091
0
LINE
8
BLACK
6
CONTINUOUS
10
154.218
20
-102.091
11
154.218
21
-102.376
0
LINE
8
BLACK
6
CONTINUOUS
10
154.218
20
-102.376
11
152.789
21
-102.662
0
LINE
8
BLACK
6
CONTINUOUS
10
155.361
20
-103.519
11
155.646
21
-103.662
0
LINE
8
BLACK
6
CONTINUOUS
10
155.646
20
-103.662
11
156.218
21
-103.662
0
LINE
8
BLACK
6
CONTINUOUS
10
156.218
20
-103.662
11
156.504
21
-103.519
0
LINE
8
BLACK
6
CONTINUOUS
10
156.504
20
-103.519
11
156.646
21
-103.234
0
LINE
8
BLACK
6
CONTINUOUS
10
156.646
20
-103.234
11
156.646
21
-103.091
0
LINE
8
BLACK
6
CONTINUOUS
10
156.646
20
-103.091
11
156.504
21
-102.805
0
LINE
8
BLACK
6
CONTINUOUS
10
156.504
20
-102.805
11
156.218
21
-102.662
0
LINE
8
BLACK
6
CONTINUOUS
10
156.218
20
-102.662
11
155.789
21
-102.662
0
LINE
8
BLACK
6
CONTINUOUS
10
155.789
20
-102.662
11
155.504
21
-102.519
0
LINE
8
BLACK
6
CONTINUOUS
10
155.504
20
-102.519
11
155.361
21
-102.234
0
LINE
8
BLACK
6
CONTINUOUS
10
155.361
20
-102.234
11
155.361
21
-102.091
0
LINE
8
BLACK
6
CONTINUOUS
10
155.361
20
-102.091
11
155.504
21
-101.805
0
LINE
8
BLACK
6
CONTINUOUS
10
155.504
20
-101.805
11
155.789
21
-101.662
0
LINE
8
BLACK
6
CONTINUOUS
10
155.789
20
-101.662
11
156.218
21
-101.662
0
LINE
8
BLACK
6
CONTINUOUS
10
156.218
20
-101.662
11
156.504
21
-101.805
0
LINE
8
BLACK
6
CONTINUOUS
10
157.646
20
-104.805
11
157.789
21
-104.662
0
LINE
8
BLACK
6
CONTINUOUS
10
157.789
20
-104.662
11
158.075
21
-104.234
0
LINE
8
BLACK
6
CONTINUOUS
10
158.075
20
-104.234
11
158.218
21
-103.948
0
LINE
8
BLACK
6
CONTINUOUS
10
158.218
20
-103.948
11
158.361
21
-103.519
0
LINE
8
BLACK
6
CONTINUOUS
10
158.361
20
-103.519
11
158.504
21
-102.805
0
LINE
8
BLACK
6
CONTINUOUS
10
158.504
20
-102.805
11
158.504
21
-102.234
0
LINE
8
BLACK
6
CONTINUOUS
10
158.504
20
-102.234
11
158.361
21
-101.519
0
LINE
8
BLACK
6
CONTINUOUS
10
158.361
20
-101.519
11
158.218
21
-101.091
0
LINE
8
BLACK
6
CONTINUOUS
10
158.218
20
-101.091
11
158.075
21
-100.805
0
LINE
8
BLACK
6
CONTINUOUS
10
158.075
20
-100.805
11
157.789
21
-100.376
0
LINE
8
BLACK
6
CONTINUOUS
10
157.789
20
-100.376
11
157.646
21
-100.234
0
LINE
8
BLACK
6
CONTINUOUS
10
89.275
20
-106.915
11
89.925
21
-106.265
0
LINE
8
BLACK
6
CONTINUOUS
10
89.925
20
-106.265
11
89.275
21
-105.615
0
LINE
8
BLACK
6
CONTINUOUS
10
89.275
20
-105.615
11
88.625
21
-106.265
0
LINE
8
BLACK
6
CONTINUOUS
10
88.625
20
-106.265
11
89.275
21
-106.915
0
LINE
8
BLACK
6
CONTINUOUS
10
94.3607
20
-107.622
11
92.6464
21
-107.622
0
LINE
8
BLACK
6
CONTINUOUS
10
93.5036
20
-107.622
11
93.5036
21
-104.622
0
LINE
8
BLACK
6
CONTINUOUS
10
93.5036
20
-104.622
11
93.2179
21
-105.051
0
LINE
8
BLACK
6
CONTINUOUS
10
93.2179
20
-105.051
11
92.9321
21
-105.336
0
LINE
8
BLACK
6
CONTINUOUS
10
92.9321
20
-105.336
11
92.6464
21
-105.479
0
LINE
8
BLACK
6
CONTINUOUS
10
95.6464
20
-107.336
11
95.7893
21
-107.479
0
LINE
8
BLACK
6
CONTINUOUS
10
95.7893
20
-107.479
11
95.6464
21
-107.622
0
LINE
8
BLACK
6
CONTINUOUS
10
95.6464
20
-107.622
11
95.5036
21
-107.479
0
LINE
8
BLACK
6
CONTINUOUS
10
95.5036
20
-107.479
11
95.6464
21
-107.336
0
LINE
8
BLACK
6
CONTINUOUS
10
95.6464
20
-107.336
11
95.6464
21
-107.622
0
LINE
8
BLACK
6
CONTINUOUS
10
96.7893
20
-104.622
11
98.6464
21
-104.622
0
LINE
8
BLACK
6
CONTINUOUS
10
98.6464
20
-104.622
11
97.6464
21
-105.765
0
LINE
8
BLACK
6
CONTINUOUS
10
97.6464
20
-105.765
11
98.075
21
-105.765
0
LINE
8
BLACK
6
CONTINUOUS
10
98.075
20
-105.765
11
98.3607
21
-105.908
0
LINE
8
BLACK
6
CONTINUOUS
10
98.3607
20
-105.908
11
98.5036
21
-106.051
0
LINE
8
BLACK
6
CONTINUOUS
10
98.5036
20
-106.051
11
98.6464
21
-106.336
0
LINE
8
BLACK
6
CONTINUOUS
10
98.6464
20
-106.336
11
98.6464
21
-107.051
0
LINE
8
BLACK
6
CONTINUOUS
10
98.6464
20
-107.051
11
98.5036
21
-107.336
0
LINE
8
BLACK
6
CONTINUOUS
10
98.5036
20
-107.336
11
98.3607
21
-107.479
0
LINE
8
BLACK
6
CONTINUOUS
10
98.3607
20
-107.479
11
98.075
21
-107.622
0
LINE
8
BLACK
6
CONTINUOUS
10
98.075
20
-107.622
11
97.2179
21
-107.622
0
LINE
8
BLACK
6
CONTINUOUS
10
97.2179
20
-107.622
11
96.9321
21
-107.479
0
LINE
8
BLACK
6
CONTINUOUS
10
96.9321
20
-107.479
11
96.7893
21
-107.336
0
LINE
8
BLACK
6
CONTINUOUS
10
100.504
20
-104.622
11
100.789
21
-104.622
0
LINE
8
BLACK
6
CONTINUOUS
10
100.789
20
-104.622
11
101.075
21
-104.765
0
LINE
8
BLACK
6
CONTINUOUS
10
101.075
20
-104.765
11
101.218
21
-104.908
0
LINE
8
BLACK
6
CONTINUOUS
10
101.218
20
-104.908
11
101.361
21
-105.194
0
LINE
8
BLACK
6
CONTINUOUS
10
101.361
20
-105.194
11
101.504
21
-105.765
0
LINE
8
BLACK
6
CONTINUOUS
10
101.504
20
-105.765
11
101.504
21
-106.479
0
LINE
8
BLACK
6
CONTINUOUS
10
101.504
20
-106.479
11
101.361
21
-107.051
0
LINE
8
BLACK
6
CONTINUOUS
10
101.361
20
-107.051
11
101.218
21
-107.336
0
LINE
8
BLACK
6
CONTINUOUS
10
101.218
20
-107.336
11
101.075
21
-107.479
0
LINE
8
BLACK
6
CONTINUOUS
10
101.075
20
-107.479
11
100.789
21
-107.622
0
LINE
8
BLACK
6
CONTINUOUS
10
100.789
20
-107.622
11
100.504
21
-107.622
0
LINE
8
BLACK
6
CONTINUOUS
10
100.504
20
-107.622
11
100.218
21
-107.479
0
LINE
8
BLACK
6
CONTINUOUS
10
100.218
20
-107.479
11
100.075
21
-107.336
0
LINE
8
BLACK
6
CONTINUOUS
10
100.075
20
-107.336
11
99.9321
21
-107.051
0
LINE
8
BLACK
6
CONTINUOUS
10
99.9321
20
-107.051
11
99.7893
21
-106.479
0
LINE
8
BLACK
6
CONTINUOUS
10
99.7893
20
-106.479
11
99.7893
21
-105.765
0
LINE
8
BLACK
6
CONTINUOUS
10
99.7893
20
-105.765
11
99.9321
21
-105.194
0
LINE
8
BLACK
6
CONTINUOUS
10
99.9321
20
-105.194
11
100.075
21
-104.908
0
LINE
8
BLACK
6
CONTINUOUS
10
100.075
20
-104.908
11
100.218
21
-104.765
0
LINE
8
BLACK
6
CONTINUOUS
10
100.218
20
-104.765
11
100.504
21
-104.622
0
LINE
8
BLACK
6
CONTINUOUS
10
102.789
20
-107.622
11
102.789
21
-105.622
0
LINE
8
BLACK
6
CONTINUOUS
10
102.789
20
-105.908
11
102.932
21
-105.765
0
LINE
8
BLACK
6
CONTINUOUS
10
102.932
20
-105.765
11
103.218
21
-105.622
0
LINE
8
BLACK
6
CONTINUOUS
10
103.218
20
-105.622
11
103.646
21
-105.622
0
LINE
8
BLACK
6
CONTINUOUS
10
103.646
20
-105.622
11
103.932
21
-105.765
0
LINE
8
BLACK
6
CONTINUOUS
10
103.932
20
-105.765
11
104.075
21
-106.051
0
LINE
8
BLACK
6
CONTINUOUS
10
104.075
20
-106.051
11
104.075
21
-107.622
0
LINE
8
BLACK
6
CONTINUOUS
10
104.075
20
-106.051
11
104.218
21
-105.765
0
LINE
8
BLACK
6
CONTINUOUS
10
104.218
20
-105.765
11
104.504
21
-105.622
0
LINE
8
BLACK
6
CONTINUOUS
10
104.504
20
-105.622
11
104.932
21
-105.622
0
LINE
8
BLACK
6
CONTINUOUS
10
104.932
20
-105.622
11
105.218
21
-105.765
0
LINE
8
BLACK
6
CONTINUOUS
10
105.218
20
-105.765
11
105.361
21
-106.051
0
LINE
8
BLACK
6
CONTINUOUS
10
105.361
20
-106.051
11
105.361
21
-107.622
0
LINE
8
BLACK
6
CONTINUOUS
10
106.789
20
-107.622
11
106.789
21
-105.622
0
LINE
8
BLACK
6
CONTINUOUS
10
106.789
20
-105.908
11
106.932
21
-105.765
0
LINE
8
BLACK
6
CONTINUOUS
10
106.932
20
-105.765
11
107.218
21
-105.622
0
LINE
8
BLACK
6
CONTINUOUS
10
107.218
20
-105.622
11
107.646
21
-105.622
0
LINE
8
BLACK
6
CONTINUOUS
10
107.646
20
-105.622
11
107.932
21
-105.765
0
LINE
8
BLACK
6
CONTINUOUS
10
107.932
20
-105.765
11
108.075
21
-106.051
0
LINE
8
BLACK
6
CONTINUOUS
10
108.075
20
-106.051
11
108.075
21
-107.622
0
LINE
8
BLACK
6
CONTINUOUS
10
108.075
20
-106.051
11
108.218
21
-105.765
0
LINE
8
BLACK
6
CONTINUOUS
10
108.218
20
-105.765
11
108.504
21
-105.622
0
LINE
8
BLACK
6
CONTINUOUS
10
108.504
20
-105.622
11
108.932
21
-105.622
0
LINE
8
BLACK
6
CONTINUOUS
10
108.932
20
-105.622
11
109.218
21
-105.765
0
LINE
8
BLACK
6
CONTINUOUS
10
109.218
20
-105.765
11
109.361
21
-106.051
0
LINE
8
BLACK
6
CONTINUOUS
10
109.361
20
-106.051
11
109.361
21
-107.622
0
LINE
8
BLACK
6
CONTINUOUS
10
115.218
20
-104.479
11
112.646
21
-108.336
0
LINE
8
BLACK
6
CONTINUOUS
10
119.075
20
-104.622
11
119.361
21
-104.622
0
LINE
8
BLACK
6
CONTINUOUS
10
119.361
20
-104.622
11
119.646
21
-104.765
0
LINE
8
BLACK
6
CONTINUOUS
10
119.646
20
-104.765
11
119.789
21
-104.908
0
LINE
8
BLACK
6
CONTINUOUS
10
119.789
20
-104.908
11
119.932
21
-105.194
0
LINE
8
BLACK
6
CONTINUOUS
10
119.932
20
-105.194
11
120.075
21
-105.765
0
LINE
8
BLACK
6
CONTINUOUS
10
120.075
20
-105.765
11
120.075
21
-106.479
0
LINE
8
BLACK
6
CONTINUOUS
10
120.075
20
-106.479
11
119.932
21
-107.051
0
LINE
8
BLACK
6
CONTINUOUS
10
119.932
20
-107.051
11
119.789
21
-107.336
0
LINE
8
BLACK
6
CONTINUOUS
10
119.789
20
-107.336
11
119.646
21
-107.479
0
LINE
8
BLACK
6
CONTINUOUS
10
119.646
20
-107.479
11
119.361
21
-107.622
0
LINE
8
BLACK
6
CONTINUOUS
10
119.361
20
-107.622
11
119.075
21
-107.622
0
LINE
8
BLACK
6
CONTINUOUS
10
119.075
20
-107.622
11
118.789
21
-107.479
0
LINE
8
BLACK
6
CONTINUOUS
10
118.789
20
-107.479
11
118.646
21
-107.336
0
LINE
8
BLACK
6
CONTINUOUS
10
118.646
20
-107.336
11
118.504
21
-107.051
0
LINE
8
BLACK
6
CONTINUOUS
10
118.504
20
-107.051
11
118.361
21
-106.479
0
LINE
8
BLACK
6
CONTINUOUS
10
118.361
20
-106.479
11
118.361
21
-105.765
0
LINE
8
BLACK
6
CONTINUOUS
10
118.361
20
-105.765
11
118.504
21
-105.194
0
LINE
8
BLACK
6
CONTINUOUS
10
118.504
20
-105.194
11
118.646
21
-104.908
0
LINE
8
BLACK
6
CONTINUOUS
10
118.646
20
-104.908
11
118.789
21
-104.765
0
LINE
8
BLACK
6
CONTINUOUS
10
118.789
20
-104.765
11
119.075
21
-104.622
0
LINE
8
BLACK
6
CONTINUOUS
10
121.361
20
-107.336
11
121.504
21
-107.479
0
LINE
8
BLACK
6
CONTINUOUS
10
121.504
20
-107.479
11
121.361
21
-107.622
0
LINE
8
BLACK
6
CONTINUOUS
10
121.361
20
-107.622
11
121.218
21
-107.479
0
LINE
8
BLACK
6
CONTINUOUS
10
121.218
20
-107.479
11
121.361
21
-107.336
0
LINE
8
BLACK
6
CONTINUOUS
10
121.361
20
-107.336
11
121.361
21
-107.622
0
LINE
8
BLACK
6
CONTINUOUS
10
123.361
20
-104.622
11
123.646
21
-104.622
0
LINE
8
BLACK
6
CONTINUOUS
10
123.646
20
-104.622
11
123.932
21
-104.765
0
LINE
8
BLACK
6
CONTINUOUS
10
123.932
20
-104.765
11
124.075
21
-104.908
0
LINE
8
BLACK
6
CONTINUOUS
10
124.075
20
-104.908
11
124.218
21
-105.194
0
LINE
8
BLACK
6
CONTINUOUS
10
124.218
20
-105.194
11
124.361
21
-105.765
0
LINE
8
BLACK
6
CONTINUOUS
10
124.361
20
-105.765
11
124.361
21
-106.479
0
LINE
8
BLACK
6
CONTINUOUS
10
124.361
20
-106.479
11
124.218
21
-107.051
0
LINE
8
BLACK
6
CONTINUOUS
10
124.218
20
-107.051
11
124.075
21
-107.336
0
LINE
8
BLACK
6
CONTINUOUS
10
124.075
20
-107.336
11
123.932
21
-107.479
0
LINE
8
BLACK
6
CONTINUOUS
10
123.932
20
-107.479
11
123.646
21
-107.622
0
LINE
8
BLACK
6
CONTINUOUS
10
123.646
20
-107.622
11
123.361
21
-107.622
0
LINE
8
BLACK
6
CONTINUOUS
10
123.361
20
-107.622
11
123.075
21
-107.479
0
LINE
8
BLACK
6
CONTINUOUS
10
123.075
20
-107.479
11
122.932
21
-107.336
0
LINE
8
BLACK
6
CONTINUOUS
10
122.932
20
-107.336
11
122.789
21
-107.051
0
LINE
8
BLACK
6
CONTINUOUS
10
122.789
20
-107.051
11
122.646
21
-106.479
0
LINE
8
BLACK
6
CONTINUOUS
10
122.646
20
-106.479
11
122.646
21
-105.765
0
LINE
8
BLACK
6
CONTINUOUS
10
122.646
20
-105.765
11
122.789
21
-105.194
0
LINE
8
BLACK
6
CONTINUOUS
10
122.789
20
-105.194
11
122.932
21
-104.908
0
LINE
8
BLACK
6
CONTINUOUS
10
122.932
20
-104.908
11
123.075
21
-104.765
0
LINE
8
BLACK
6
CONTINUOUS
10
123.075
20
-104.765
11
123.361
21
-104.622
0
LINE
8
BLACK
6
CONTINUOUS
10
127.075
20
-104.622
11
125.646
21
-104.622
0
LINE
8
BLACK
6
CONTINUOUS
10
125.646
20
-104.622
11
125.504
21
-106.051
0
LINE
8
BLACK
6
CONTINUOUS
10
125.504
20
-106.051
11
125.646
21
-105.908
0
LINE
8
BLACK
6
CONTINUOUS
10
125.646
20
-105.908
11
125.932
21
-105.765
0
LINE
8
BLACK
6
CONTINUOUS
10
125.932
20
-105.765
11
126.646
21
-105.765
0
LINE
8
BLACK
6
CONTINUOUS
10
126.646
20
-105.765
11
126.932
21
-105.908
0
LINE
8
BLACK
6
CONTINUOUS
10
126.932
20
-105.908
11
127.075
21
-106.051
0
LINE
8
BLACK
6
CONTINUOUS
10
127.075
20
-106.051
11
127.218
21
-106.336
0
LINE
8
BLACK
6
CONTINUOUS
10
127.218
20
-106.336
11
127.218
21
-107.051
0
LINE
8
BLACK
6
CONTINUOUS
10
127.218
20
-107.051
11
127.075
21
-107.336
0
LINE
8
BLACK
6
CONTINUOUS
10
127.075
20
-107.336
11
126.932
21
-107.479
0
LINE
8
BLACK
6
CONTINUOUS
10
126.932
20
-107.479
11
126.646
21
-107.622
0
LINE
8
BLACK
6
CONTINUOUS
10
126.646
20
-107.622
11
125.932
21
-107.622
0
LINE
8
BLACK
6
CONTINUOUS
10
125.932
20
-107.622
11
125.646
21
-107.479
0
LINE
8
BLACK
6
CONTINUOUS
10
125.646
20
-107.479
11
125.504
21
-107.336
0
LINE
8
BLACK
6
CONTINUOUS
10
130.075
20
-107.622
11
128.361
21
-107.622
0
LINE
8
BLACK
6
CONTINUOUS
10
129.218
20
-107.622
11
129.218
21
-104.622
0
LINE
8
BLACK
6
CONTINUOUS
10
129.218
20
-104.622
11
128.932
21
-105.051
0
LINE
8
BLACK
6
CONTINUOUS
10
128.932
20
-105.051
11
128.646
21
-105.336
0
LINE
8
BLACK
6
CONTINUOUS
10
128.646
20
-105.336
11
128.361
21
-105.479
0
LINE
8
BLACK
6
CONTINUOUS
10
131.218
20
-104.622
11
131.218
21
-105.194
0
LINE
8
BLACK
6
CONTINUOUS
10
132.361
20
-104.622
11
132.361
21
-105.194
0
LINE
8
BLACK
6
CONTINUOUS
10
136.789
20
-108.765
11
136.646
21
-108.622
0
LINE
8
BLACK
6
CONTINUOUS
10
136.646
20
-108.622
11
136.361
21
-108.194
0
LINE
8
BLACK
6
CONTINUOUS
10
136.361
20
-108.194
11
136.218
21
-107.908
0
LINE
8
BLACK
6
CONTINUOUS
10
136.218
20
-107.908
11
136.075
21
-107.479
0
LINE
8
BLACK
6
CONTINUOUS
10
136.075
20
-107.479
11
135.932
21
-106.765
0
LINE
8
BLACK
6
CONTINUOUS
10
135.932
20
-106.765
11
135.932
21
-106.194
0
LINE
8
BLACK
6
CONTINUOUS
10
135.932
20
-106.194
11
136.075
21
-105.479
0
LINE
8
BLACK
6
CONTINUOUS
10
136.075
20
-105.479
11
136.218
21
-105.051
0
LINE
8
BLACK
6
CONTINUOUS
10
136.218
20
-105.051
11
136.361
21
-104.765
0
LINE
8
BLACK
6
CONTINUOUS
10
136.361
20
-104.765
11
136.646
21
-104.336
0
LINE
8
BLACK
6
CONTINUOUS
10
136.646
20
-104.336
11
136.789
21
-104.194
0
LINE
8
BLACK
6
CONTINUOUS
10
137.789
20
-104.908
11
137.932
21
-104.765
0
LINE
8
BLACK
6
CONTINUOUS
10
137.932
20
-104.765
11
138.218
21
-104.622
0
LINE
8
BLACK
6
CONTINUOUS
10
138.218
20
-104.622
11
138.932
21
-104.622
0
LINE
8
BLACK
6
CONTINUOUS
10
138.932
20
-104.622
11
139.218
21
-104.765
0
LINE
8
BLACK
6
CONTINUOUS
10
139.218
20
-104.765
11
139.361
21
-104.908
0
LINE
8
BLACK
6
CONTINUOUS
10
139.361
20
-104.908
11
139.504
21
-105.194
0
LINE
8
BLACK
6
CONTINUOUS
10
139.504
20
-105.194
11
139.504
21
-105.479
0
LINE
8
BLACK
6
CONTINUOUS
10
139.504
20
-105.479
11
139.361
21
-105.908
0
LINE
8
BLACK
6
CONTINUOUS
10
139.361
20
-105.908
11
137.646
21
-107.622
0
LINE
8
BLACK
6
CONTINUOUS
10
137.646
20
-107.622
11
139.504
21
-107.622
0
LINE
8
BLACK
6
CONTINUOUS
10
143.075
20
-107.622
11
143.075
21
-104.622
0
LINE
8
BLACK
6
CONTINUOUS
10
144.361
20
-107.622
11
144.361
21
-106.051
0
LINE
8
BLACK
6
CONTINUOUS
10
144.361
20
-106.051
11
144.218
21
-105.765
0
LINE
8
BLACK
6
CONTINUOUS
10
144.218
20
-105.765
11
143.932
21
-105.622
0
LINE
8
BLACK
6
CONTINUOUS
10
143.932
20
-105.622
11
143.504
21
-105.622
0
LINE
8
BLACK
6
CONTINUOUS
10
143.504
20
-105.622
11
143.218
21
-105.765
0
LINE
8
BLACK
6
CONTINUOUS
10
143.218
20
-105.765
11
143.075
21
-105.908
0
LINE
8
BLACK
6
CONTINUOUS
10
146.218
20
-107.622
11
145.932
21
-107.479
0
LINE
8
BLACK
6
CONTINUOUS
10
145.932
20
-107.479
11
145.789
21
-107.336
0
LINE
8
BLACK
6
CONTINUOUS
10
145.789
20
-107.336
11
145.646
21
-107.051
0
LINE
8
BLACK
6
CONTINUOUS
10
145.646
20
-107.051
11
145.646
21
-106.194
0
LINE
8
BLACK
6
CONTINUOUS
10
145.646
20
-106.194
11
145.789
21
-105.908
0
LINE
8
BLACK
6
CONTINUOUS
10
145.789
20
-105.908
11
145.932
21
-105.765
0
LINE
8
BLACK
6
CONTINUOUS
10
145.932
20
-105.765
11
146.218
21
-105.622
0
LINE
8
BLACK
6
CONTINUOUS
10
146.218
20
-105.622
11
146.646
21
-105.622
0
LINE
8
BLACK
6
CONTINUOUS
10
146.646
20
-105.622
11
146.932
21
-105.765
0
LINE
8
BLACK
6
CONTINUOUS
10
146.932
20
-105.765
11
147.075
21
-105.908
0
LINE
8
BLACK
6
CONTINUOUS
10
147.075
20
-105.908
11
147.218
21
-106.194
0
LINE
8
BLACK
6
CONTINUOUS
10
147.218
20
-106.194
11
147.218
21
-107.051
0
LINE
8
BLACK
6
CONTINUOUS
10
147.218
20
-107.051
11
147.075
21
-107.336
0
LINE
8
BLACK
6
CONTINUOUS
10
147.075
20
-107.336
11
146.932
21
-107.479
0
LINE
8
BLACK
6
CONTINUOUS
10
146.932
20
-107.479
11
146.646
21
-107.622
0
LINE
8
BLACK
6
CONTINUOUS
10
146.646
20
-107.622
11
146.218
21
-107.622
0
LINE
8
BLACK
6
CONTINUOUS
10
148.932
20
-107.622
11
148.646
21
-107.479
0
LINE
8
BLACK
6
CONTINUOUS
10
148.646
20
-107.479
11
148.504
21
-107.194
0
LINE
8
BLACK
6
CONTINUOUS
10
148.504
20
-107.194
11
148.504
21
-104.622
0
LINE
8
BLACK
6
CONTINUOUS
10
151.218
20
-107.479
11
150.932
21
-107.622
0
LINE
8
BLACK
6
CONTINUOUS
10
150.932
20
-107.622
11
150.361
21
-107.622
0
LINE
8
BLACK
6
CONTINUOUS
10
150.361
20
-107.622
11
150.075
21
-107.479
0
LINE
8
BLACK
6
CONTINUOUS
10
150.075
20
-107.479
11
149.932
21
-107.194
0
LINE
8
BLACK
6
CONTINUOUS
10
149.932
20
-107.194
11
149.932
21
-106.051
0
LINE
8
BLACK
6
CONTINUOUS
10
149.932
20
-106.051
11
150.075
21
-105.765
0
LINE
8
BLACK
6
CONTINUOUS
10
150.075
20
-105.765
11
150.361
21
-105.622
0
LINE
8
BLACK
6
CONTINUOUS
10
150.361
20
-105.622
11
150.932
21
-105.622
0
LINE
8
BLACK
6
CONTINUOUS
10
150.932
20
-105.622
11
151.218
21
-105.765
0
LINE
8
BLACK
6
CONTINUOUS
10
151.218
20
-105.765
11
151.361
21
-106.051
0
LINE
8
BLACK
6
CONTINUOUS
10
151.361
20
-106.051
11
151.361
21
-106.336
0
LINE
8
BLACK
6
CONTINUOUS
10
151.361
20
-106.336
11
149.932
21
-106.622
0
LINE
8
BLACK
6
CONTINUOUS
10
152.504
20
-107.479
11
152.789
21
-107.622
0
LINE
8
BLACK
6
CONTINUOUS
10
152.789
20
-107.622
11
153.361
21
-107.622
0
LINE
8
BLACK
6
CONTINUOUS
10
153.361
20
-107.622
11
153.646
21
-107.479
0
LINE
8
BLACK
6
CONTINUOUS
10
153.646
20
-107.479
11
153.789
21
-107.194
0
LINE
8
BLACK
6
CONTINUOUS
10
153.789
20
-107.194
11
153.789
21
-107.051
0
LINE
8
BLACK
6
CONTINUOUS
10
153.789
20
-107.051
11
153.646
21
-106.765
0
LINE
8
BLACK
6
CONTINUOUS
10
153.646
20
-106.765
11
153.361
21
-106.622
0
LINE
8
BLACK
6
CONTINUOUS
10
153.361
20
-106.622
11
152.932
21
-106.622
0
LINE
8
BLACK
6
CONTINUOUS
10
152.932
20
-106.622
11
152.646
21
-106.479
0
LINE
8
BLACK
6
CONTINUOUS
10
152.646
20
-106.479
11
152.504
21
-106.194
0
LINE
8
BLACK
6
CONTINUOUS
10
152.504
20
-106.194
11
152.504
21
-106.051
0
LINE
8
BLACK
6
CONTINUOUS
10
152.504
20
-106.051
11
152.646
21
-105.765
0
LINE
8
BLACK
6
CONTINUOUS
10
152.646
20
-105.765
11
152.932
21
-105.622
0
LINE
8
BLACK
6
CONTINUOUS
10
152.932
20
-105.622
11
153.361
21
-105.622
0
LINE
8
BLACK
6
CONTINUOUS
10
153.361
20
-105.622
11
153.646
21
-105.765
0
LINE
8
BLACK
6
CONTINUOUS
10
154.789
20
-108.765
11
154.932
21
-108.622
0
LINE
8
BLACK
6
CONTINUOUS
10
154.932
20
-108.622
11
155.218
21
-108.194
0
LINE
8
BLACK
6
CONTINUOUS
10
155.218
20
-108.194
11
155.361
21
-107.908
0
LINE
8
BLACK
6
CONTINUOUS
10
155.361
20
-107.908
11
155.504
21
-107.479
0
LINE
8
BLACK
6
CONTINUOUS
10
155.504
20
-107.479
11
155.646
21
-106.765
0
LINE
8
BLACK
6
CONTINUOUS
10
155.646
20
-106.765
11
155.646
21
-106.194
0
LINE
8
BLACK
6
CONTINUOUS
10
155.646
20
-106.194
11
155.504
21
-105.479
0
LINE
8
BLACK
6
CONTINUOUS
10
155.504
20
-105.479
11
155.361
21
-105.051
0
LINE
8
BLACK
6
CONTINUOUS
10
155.361
20
-105.051
11
155.218
21
-104.765
0
LINE
8
BLACK
6
CONTINUOUS
10
155.218
20
-104.765
11
154.932
21
-104.336
0
LINE
8
BLACK
6
CONTINUOUS
10
154.932
20
-104.336
11
154.789
21
-104.194
  0
ENDSEC
  0
EOF
